<svg  xmlns="http://www.w3.org/2000/svg"><path d="M29.343 10.32h-1.155c-.316 0-.326-.203-.337-.304C27.245 4.394 22.405 0 16.543 0h-1.086C9.638 0 4.827 4.33 4.163 9.891c-.017.142-.026.43-.292.43H2.657c-.797 0-2.657.826-2.657 5v2.19c0 3.096 1.86 3.81 2.657 3.81H6.52c.797 0 1.45-.643 1.45-1.428v-8.144c0-.786-.653-1.428-1.45-1.428 0 0-.181-.016-.135-.335.637-4.396 4.443-7.802 9.072-7.802h1.086c4.597 0 8.413 3.356 9.06 7.712.02.14.098.425-.123.425-.797 0-1.45.642-1.45 1.428v8.144c0 .785.653 1.428 1.45 1.428h.725c.2 0 .166.157.148.236-.591 2.63-1.918 5.613-4.897 5.613H19.25c-.225 0-.28-.163-.323-.24a2.109 2.109 0 00-1.848-1.08h-2.032c-1.163 0-2.106.93-2.106 2.075 0 1.146.943 2.075 2.106 2.075h2.032c.808 0 1.51-.448 1.862-1.106.031-.058.056-.177.295-.177h2.22c2.023 0 4.73-.99 6.14-5.71.15-.504.271-1.005.37-1.488.014-.066.023-.198.233-.198h1.144c.797 0 2.657-.714 2.657-3.81v-2.19c0-4.114-1.86-5-2.657-5z" fill="#f45050"/></svg>