<svg  xmlns="http://www.w3.org/2000/svg"><path d="M27.509 28.39c.002-.452.192-.883.525-1.189a13.992 13.992 0 003.902-9.131C32.062 9.968 25.604 3.292 17.5 3.149 9.397 3.292 2.939 9.968 3.065 18.07a13.432 13.432 0 003.325 9.184c.28.299.435.692.437 1.102a1.574 1.574 0 01-1.54 1.609 1.54 1.54 0 01-.874-.28l-.455-.525A16.598 16.598 0 01.003 18.07C-.153 8.251 7.68.163 17.501 0c9.82.163 17.653 8.251 17.497 18.07a17.193 17.193 0 01-4.637 11.178c-.105.14-.228.262-.35.402a1.52 1.52 0 01-.962.35 1.575 1.575 0 01-1.54-1.592v-.017zm-11.583-6.717a2.956 2.956 0 010-4.093l6.824-7.26a.455.455 0 01.612 0 .509.509 0 01.193.595l-3.045 9.691a2.9 2.9 0 01-.612 1.05 2.765 2.765 0 01-3.885.175h-.087v-.158z" fill="#f45050"/></svg>