<svg  xmlns="http://www.w3.org/2000/svg">
	<g fill="#f45050">
		<path
			d="M29.716 20.778c-.628 0-1.076.497-1.076 1.193v8.748c0 .497-.358.895-.807.895H5.158c-.448 0-.807-.398-.807-.895v-8.748c0-.696-.448-1.193-1.076-1.193-.627 0-1.075.497-1.075 1.193v8.748C2.2 32.51 3.544 34 5.158 34h22.675c1.614 0 2.958-1.491 2.958-3.28v-8.75c0-.695-.538-1.192-1.075-1.192zm3.226-9.445c0-.298-.269-.894-.538-1.391 0 0-4.391-8.848-4.48-8.948C27.743.696 27.295 0 26.398 0H6.233C5.695 0 5.068.398 4.71.895c0 0-4.303 8.55-4.392 8.748v.1c-1.434 5.17 2.24 9.345 5.915 9.544 2.24 0 4.302-1.293 5.378-3.281 1.165 1.988 3.137 3.28 5.377 3.28 2.241 0 4.213-1.391 5.378-3.38 1.076 2.088 2.958 3.38 5.288 3.38 1.703 0 3.137-.795 4.123-2.684.717-1.391 1.434-2.684 1.165-5.269zm-2.689 4.076c-.627 1.094-1.613 1.492-2.51 1.492-2.15 0-3.764-1.69-4.032-3.977 0-.398-.359-.895-.807-.895h-.986c-.358 0-.627.298-.627.895 0 2.485-2.062 4.076-4.303 4.076-2.24 0-4.033-1.889-4.212-4.374 0-.299-.269-.597-.538-.597h-1.165c-.358 0-.627.298-.627.696-.18 2.386-2.062 4.176-4.213 4.176-2.42 0-4.75-3.778-3.943-6.264.09-.099.09-.298.179-.397l3.943-7.755H26.31v.1l4.302 8.251c.18.2.358.895.358.895v.1c.27 1.292-.358 2.982-.717 3.578z"/>
		<path
			d="M22.103 10H3.897A.905.905 0 013 9.09v-.18c0-.455.359-.91.897-.91h18.206c.449 0 .897.364.897.91v.18c0 .455-.448.91-.897.91z"/>
	</g>
</svg>