<svg 
 xmlns="http://www.w3.org/2000/svg"
 xmlns:xlink="http://www.w3.org/1999/xlink"
 width="23px" height="20px">
<path fill-rule="evenodd"  fill="rgb(210, 223, 231)"
 d="M17.905,15.333 L17.905,19.599 L5.095,19.599 L5.095,15.333 L0.825,15.333 L0.825,8.933 C0.825,7.167 2.261,5.733 4.027,5.733 L18.972,5.733 C20.739,5.733 22.175,7.167 22.175,8.933 L22.175,15.333 L17.905,15.333 ZM15.770,12.133 L7.230,12.133 L7.230,17.466 L15.770,17.466 L15.770,12.133 ZM18.972,7.866 C18.380,7.866 17.905,8.341 17.905,8.933 C17.905,9.525 18.380,10.000 18.972,10.000 C19.565,10.000 20.040,9.525 20.040,8.933 C20.040,8.341 19.565,7.866 18.972,7.866 ZM5.095,0.399 L17.905,0.399 L17.905,4.666 L5.095,4.666 L5.095,0.399 Z"/>
</svg>