<svg id="Layer_1" data-name="Layer 1" xmlns="http://www.w3.org/2000/svg" viewBox="0 0 256 52"><defs><style>.cls-1{fill:#cb0101;}.cls-2{fill:#fff;}.cls-3{fill:#4a4a4a;}</style></defs><title>logo</title><path class="cls-1" d="M28.56,3.34A21.28,21.28,0,0,1,45.44,27.4L43.05,30l1.27,1.81A21.41,21.41,0,0,1,26.05,45.54l-2.27-1.61-1.4,1.58A21.35,21.35,0,0,1,4.7,32.62l1.54-1.91L3.33,28A21.39,21.39,0,0,1,20,3.36a14.06,14.06,0,0,1,4.16.54A13.34,13.34,0,0,1,28.56,3.34Z"/><path class="cls-2" d="M42.15,32.32A19.59,19.59,0,0,1,26.71,43.67L25,42.48a4.4,4.4,0,0,0,0-5.3,19.91,19.91,0,0,0-2.31-1.87c-.79-.73-1.35-1.81-2.18-2.61s-1.78-1.4-2.58-2.17a13.09,13.09,0,0,0-2.11-2.16,7.19,7.19,0,0,0-8.38.93L5,27.05a18.32,18.32,0,0,1-.21-2.79A19.55,19.55,0,0,1,20.08,5.18c.23,0,.43,0,.63,0-6.86,3.68-5.63,7.87-4.25,9.64,1.69,2.19,5.12,2.31,7.73.53,1.75-1.2,5.61-.82,6.81.93C35,22.09,38.28,26.75,42.15,32.32Z"/><path class="cls-1" d="M137.17,17.76c.07,4.73,0,10,4.57,13.11a13.05,13.05,0,0,0,7.07,1.94h7.38V28.17c-2.68,0-6.69.2-9.11-.31-4.85-1-4.07-6.28-4.07-11.22,0-9.51,2.7-8.61,12.6-8.59.22,0,.58.07.58-.14V3.41c0-.09,0-.12-.12-.12-4.69,0-11-.6-14.51,2.1C137.42,8.55,137.17,12.79,137.17,17.76Z"/><path class="cls-1" d="M185.55,12.76v-.44h-4.46V32.41c0,.11,0,.14.14.14h4.82V18.06a.92.92,0,0,1,.62-1c2.23-1.27,6.68-1.87,6.68,2.73V32.55h4.94V19.09a20,20,0,0,0-.21-2.89,4.79,4.79,0,0,0-2.61-3.64c-1.93-.89-5-.47-6.91.19-1.13.39-2.54,1.56-2.92.54A2.09,2.09,0,0,1,185.55,12.76Z"/><path class="cls-1" d="M165.32,19.63a4.3,4.3,0,0,1,.82-3.16c1.17-1.24,4.92-1.28,5.62,1.09.24.83.78,3.05-.64,3.05h-4.94C165.54,20.61,165.32,20.25,165.32,19.63Zm-5-.14c0,4.11-.65,9.14,2.7,11.65a9.09,9.09,0,0,0,5.49,1.67h5.92c0-4.57.29-4.1-.66-4.1-1.34,0-4.72.07-5.62-.08A2.75,2.75,0,0,1,166,27.55c-.41-.54-1.48-3.91.22-3.91H177c0-4.54.61-9.49-4.64-11.14-3.14-1-8.49-.88-10.77,2.37A8.06,8.06,0,0,0,160.34,19.49Z"/><path class="cls-1" d="M224.79,19.67c0-1.48.07-3.24,1.86-3.81a4.17,4.17,0,0,1,3.95.64c.87.84.87,2.14.87,3.31,0,.58-.33.8-.88.8h-5C225.07,20.61,224.79,20.23,224.79,19.67ZM219.85,19a58.8,58.8,0,0,0,.21,8c.78,4,4.08,5.81,8,5.81h5.82v-4.1a39.51,39.51,0,0,1-7-.23c-2.48-.57-2.28-4.21-1.88-4.61a1.16,1.16,0,0,1,.75-.23h10.69c0-4.71.61-8.26-3.39-10.61C229.87,11.15,219.85,10.94,219.85,19Z"/><path class="cls-1" d="M205.69,11.52c0,1.66-3.13.37-3.13,1v4c3.83,0,3.13-.73,3.13,5.12,0,2.74-.21,6.35.83,8.42,1.52,3.06,5.6,2.62,8.88,2.62V29.16a9.59,9.59,0,0,1-3.55-1c-1.15-.77-1.22-1.89-1.22-3.28V17.4c0-.68.34-.93,1-.93h3.93c0-4.48.29-4.11-.62-4.11-3.16,0-4.33.42-4.33-1V5.82h-4.94Z"/><path class="cls-1" d="M122.52,18.2c0,3.94,10.74,1.88,10.74,8,0,4.71-3.12,6.28-7.53,6.28h-7.18V29.07c1.9,0,7.39.25,8.83-.49a2,2,0,0,0,0-3.68c-2.71-1.48-11.2-1.36-9.31-8.28,1.39-5.09,8.44-4.2,13-4.2v3.37C128.8,15.79,122.52,15.12,122.52,18.2Zm-6-.22c0,3.21,1.07,4.77,4.09,6.11,1.92.86,6.69,1.66,6.69,2.62,0,2-10.06.32-10.06,1.24s-.18,5.41.13,5.88c2.89,0,9,.27,11.85-.43,6.85-1.7,7-10.26,1.94-12.28-1.74-.69-4.39-1.33-6.25-2-.42-.16-1-.42-1-.93,0-1.38,6.22-1,7.7-1,.44,0,.84,0,.84-.4V11.52c0-.33-.15-.48-.49-.48-6.33,0-13.82-1.06-15.35,5.9A5.62,5.62,0,0,0,116.5,18Z"/><path class="cls-1" d="M244.94,12.82v-.58h-4.38V32.55h4.9V18.82c0-.83.44-.94,1.31-1.23a20.47,20.47,0,0,1,5.69-1.3c.22,0,.54.07.54-.14V12C247.92,12,244.94,15.27,244.94,12.82Z"/><path class="cls-1" d="M63.4,24.84v7.35H58.24V3.73c4.15,0,8.37-.08,12.52,0,4.59.14,7.07,2.6,7.3,7.31.11,2.36.39,6.65-.66,8.73a6.4,6.4,0,0,1-5.72,3.79c-2.38.13-3.75.12-6.18.12C64.86,23.72,63.4,23.51,63.4,24.84ZM56.85,2.93V33c0,.3.06.54.36.54h7.17a.38.38,0,0,0,.4-.4V25.06c4.73,0,10.51.69,13.24-3.57,1.81-2.85,1.47-5.89,1.47-9.35,0-6.06-3-9.74-9.27-9.75H57.39C57,2.39,56.85,2.5,56.85,2.93Z"/><path class="cls-1" d="M84.78,12.72h6.46c2,0,5.19.45,6.09,2.6a10.61,10.61,0,0,1,.73,4.49V32.19H94.54c0-.5-.11-1-.6-1.19-1.35-.51-1.74,1.45-6.75,1.45-4.84,0-5.68-6.28-3.6-8.9,2.23-2.8,9.65-.23,10.06-2.18.22-1,.11-3.47-.72-4.32a5,5,0,0,0-3.15-.94h-5Zm-1.32-1.1v5.6c0,.81,7.45-.42,8.53.81a6.39,6.39,0,0,1,.42,2.72c-1.91,0-6.59-.11-8.08.65-2.59,1.28-3.1,3.16-3.1,6a6.45,6.45,0,0,0,3.17,5.78c2.14,1.15,5.49.67,7.72-.23.34-.12.77-.39,1.09-.47,0,.39-.1,1.12.26,1.12h5.62c.21,0,.3-.11.3-.32V19a12.73,12.73,0,0,0-.59-3.59c-1.15-3.48-4.89-4-8.66-4H83.9C83.69,11.34,83.46,11.42,83.46,11.62Z"/><path class="cls-1" d="M107,18.74V32.19h-4.23V12.54h3.69c0,2.19,1.4,1.48,2.45,1.11.45-.15,5.62-1.8,5.62-1.19v3.47a18.53,18.53,0,0,0-6.28,1.47C107.54,17.63,107,17.83,107,18.74Zm.85-6.16c0-.95.16-1.42-.58-1.42H101.9c-.27,0-.5.1-.5.36V33.21a.34.34,0,0,0,.36.36H108c.49,0,.36-.68.36-1.52V18.78a46.83,46.83,0,0,1,5.54-1.44c.93-.16,2,.22,2-.38V11.34c0-1.18-5.74.5-6.43.69S108.22,12.5,107.86,12.58Z"/><path class="cls-1" d="M69.11,18.82H64.78V8.49A39.39,39.39,0,0,1,70,8.64a3.34,3.34,0,0,1,1.37.54c.76.51.87,2.09.87,2.92a30.65,30.65,0,0,1-.15,4.83A2.27,2.27,0,0,1,71.52,18a1.78,1.78,0,0,1-.94.67A8,8,0,0,1,69.11,18.82ZM63.4,8.27V19a1.11,1.11,0,0,0,1.2,1.21c1,0,5.06.06,5.74-.1.26-.07.61-.13.87-.21a3.82,3.82,0,0,0,2.11-2.27c0-.15.05-.26.09-.43a5.08,5.08,0,0,0,.2-1.45V11.88a6.19,6.19,0,0,0-.67-3c-.08-.14-.15-.22-.25-.37a3.7,3.7,0,0,0-1.92-1.11,8.82,8.82,0,0,0-2.16-.29h-4A1.09,1.09,0,0,0,63.4,8.27Z"/><path class="cls-1" d="M88.26,27.15c0-.48,0-1,.48-1.2a17.68,17.68,0,0,1,3.67-.18c0,2.24.16,1.88-.52,2.16s-2.61,1-3.3.19A1.4,1.4,0,0,1,88.26,27.15ZM86.89,27a3.28,3.28,0,0,0,.73,2.06,3.08,3.08,0,0,0,2.06.79,9.3,9.3,0,0,0,3.58-1.11,1.15,1.15,0,0,0,.47-1.08,12.51,12.51,0,0,0-.08-2.54.75.75,0,0,0-.21-.38,1,1,0,0,0-.85-.33,19.9,19.9,0,0,0-3.9.15A1.95,1.95,0,0,0,87,26.39,3.68,3.68,0,0,0,86.89,27Z"/><path class="cls-3" d="M195.33,44.33c-1,0-1.05-1.59-1.05-2.31H193v1.47c0,.94-1.6,1.88-1.6-1.5H190c0,1,.24,2.4-.57,2.4H166.54c-1.13,0-1-1.68-1-2.42-1.56,0-1.38-.1-1.38.3,0,2.17,0,2.12-1.44,2.12-1.05,0-1.05-1.32-1.05-2,0-.49.23-.38-1.37-.38,0,.87.22,2.42-.66,2.42-2.55,0-2.26-.6-2.26-2.62H156c0,3.42.46,3.28-2.29,5.09-.16.1-1.29.78-1.4.82l.69,1.26c.47-.13,4.22-2.41,4.33-3.67.5.14-.32.69,2.64.69a1.62,1.62,0,0,0,1.39-.85c.3,1.17,3.54,1.23,3.83,0a1.77,1.77,0,0,0,1.42.85h22.81a1.81,1.81,0,0,0,1.51-.85,1.64,1.64,0,0,0,2.92-.06s1.32,1.58,2.75.56c1.12-.82.77-4,.68-4-1.56,0-1.35-.09-1.35.33C196,43.6,196.17,44.33,195.33,44.33Z"/><path class="cls-3" d="M63.09,43.41c1.19,0,1.69,2.39-.55.87-.07,0,0-.06-.14-.07S62.8,43.41,63.09,43.41ZM57.23,39v4.32c0,3.08,1.53,2.67,3.33,2.67a1.64,1.64,0,0,0,1-.35c.36-.3.06-.27.66,0s1.76,1,2.67.11a.86.86,0,0,0,.22-.29,1.77,1.77,0,0,0,1.15.49H89.16a1.73,1.73,0,0,0,1.5-.85,1.66,1.66,0,0,0,2.83.12.59.59,0,0,1,.13-.18c.22.87,2.95,1.54,3.39-.5,0-.18.24-2.89,0-2.89-1.55,0-1.35-.09-1.35.33a16.73,16.73,0,0,1,0,2c-.13.35-1.62,1-1.62-2H92.71c0,.82.21,2.31-.66,2.31s-.94-1.51-.94-2.34H89.74c0,1.21.22,2.4-.64,2.4-2.48,0-22.87.18-23.49-.11-.14-.06-.64-2.23-2.63-2.23-1.42,0-1.66,2.34-2.42,2.34-2.35,0-1.94.36-1.94-5.51C58.44,38.88,57.23,38.8,57.23,39Z"/><path class="cls-3" d="M143.71,43.38c1.15,0,1.89,2.46-.63.77C143.11,44,143.48,43.38,143.71,43.38Zm-24.15-.69c0,.7,1.18,1.31,1.25,1.57-3.49.28-3.5.24-3.5-2.49H116c0,3.27.66,3.6-3.69,5.91,0,.21.62,1.09.66,1.26.32-.07,4.25-2.41,4.36-3.69a3.51,3.51,0,0,0,4.62-.14,3.26,3.26,0,0,0,1.85.85h17.4a1.78,1.78,0,0,0,1.21-.6c3.26,2.13,4.77-.88,2.89-2.62-2.51-2.31-3.2,1.65-4.15,1.65H123.5a1.41,1.41,0,0,1-.69-.21c0-.07,2.19-2.66-1.2-2.57C121.07,41.62,119.56,42,119.56,42.69Z"/><path class="cls-3" d="M218.76,43.65c0,1.07.49,2.31,1.66,2.31h24.65c2,0,1.65-2.18,1.65-4.19h-1.48c0,1.25.22,2.62-.33,2.62h-24c-.71,0-.77-.79-.77-1.34V38.88h-1.39Z"/><path class="cls-3" d="M210.3,43.71c0,.84-1.22.83-1.57,0a5,5,0,0,1-.16-1.68h-1.3v1.55a.68.68,0,0,1-1.19.53V42h-1.4a29.53,29.53,0,0,1-.14,4.67c-.66,2-4.61,1.68-4.61-.53V44.61h-1.35c0,1.52-.07,3.69,1.8,4.58,2.11,1,5.7.34,5.7-3.47a1.47,1.47,0,0,0,2.15-.7A2.1,2.1,0,0,0,210,46c2.22,0,1.77-2.91,1.77-4.3H210.3Z"/><path class="cls-3" d="M108.92,42.13c0-.54,1.08-.67,1.35.45C110,42.73,108.92,42.87,108.92,42.13Zm-1.08-.05a1.71,1.71,0,0,0,2.45,1.66.72.72,0,0,1-.76.65h-6.26c-1.12,0-.56-1.37-.83-1.37h-1.32c0,1.22-.05,2.94,1.84,2.94h6.6c2.85,0,2.31-3.34,1.47-4.6C109.92,39.7,107.84,40.25,107.84,42.08Z"/><path class="cls-3" d="M216,44c0,1.17-2.74,2.64-3.67,3.14,0,.2.62,1.13.66,1.28a22.75,22.75,0,0,0,3.05-2c1.74-1.34,1.44-2.68,1.44-4.65H216Z"/><path class="cls-3" d="M150.13,44.55V46h1.55V44.47h-.85c0-.62.18-1.38.91-1.4v-.3A1.64,1.64,0,0,0,150.13,44.55Z"/><polygon class="cls-3" points="164.12 41.39 165.5 41.39 165.5 40.02 164.12 40.02 164.12 41.39"/><polygon class="cls-3" points="108.62 40.02 109.99 40.02 109.99 38.63 108.62 38.63 108.62 40.02"/><polygon class="cls-3" points="245.47 47.94 246.72 47.94 246.72 46.68 245.47 46.68 245.47 47.94"/><polygon class="cls-3" points="244.69 49.38 245.94 49.38 245.94 48.14 244.69 48.14 244.69 49.38"/><path class="cls-3" d="M92.74,39.88h1.17c.07,0,.09,0,.09-.08V38.63H92.74Z"/><polygon class="cls-3" points="93.54 41.3 94.77 41.3 94.77 40.07 93.54 40.07 93.54 41.3"/><polygon class="cls-3" points="159.65 41.08 160.9 41.08 160.9 39.85 159.65 39.85 159.65 41.08"/><polygon class="cls-3" points="161.28 41.08 162.51 41.08 162.51 39.85 161.28 39.85 161.28 41.08"/><polygon class="cls-3" points="243.99 47.94 245.21 47.94 245.21 46.68 243.99 46.68 243.99 47.94"/><polygon class="cls-3" points="92.05 41.3 93.26 41.3 93.26 40.07 92.05 40.07 92.05 41.3"/></svg>