<?xml version="1.0" encoding="utf-8"?>
<!-- Generator: Adobe Illustrator 22.1.0, SVG Export Plug-In . SVG Version: 6.00 Build 0)  -->
<svg version="1.1" id="Layer_1" xmlns="http://www.w3.org/2000/svg" xmlns:xlink="http://www.w3.org/1999/xlink" x="0px" y="0px"
	 viewBox="0 0 256 52" style="enable-background:new 0 0 256 52;" xml:space="preserve">
<style type="text/css">
	.st0{fill:#FFFFFF;}
	.st1{fill:#CB0101;}
</style>
<title>logo</title>
<path class="st0" d="M28.6,3.3c11.2,2.2,18.6,12.8,16.9,24.1L43,30l1.3,1.8c-2.9,7.7-10,13.1-18.3,13.7l-2.3-1.6l-1.4,1.6
	c-7.8-0.7-14.6-5.7-17.7-12.9l1.5-1.9L3.3,28C1.3,16.6,8.7,5.7,20,3.4c1.4,0,2.8,0.2,4.2,0.5C25.6,3.5,27.1,3.3,28.6,3.3z"/>
<path class="st1" d="M42.2,32.3c-2.8,6.2-8.7,10.5-15.4,11.3L25,42.5c1.2-1.6,1.2-3.7,0-5.3c-0.7-0.7-1.5-1.3-2.3-1.9
	c-0.8-0.7-1.4-1.8-2.2-2.6s-1.8-1.4-2.6-2.2c-0.6-0.8-1.3-1.5-2.1-2.2c-2.7-1.5-6.1-1.2-8.4,0.9L5,27c-0.1-0.9-0.2-1.9-0.2-2.8
	c0-9.2,6.4-17.1,15.3-19.1c0.2,0,0.4,0,0.6,0c-6.9,3.7-5.6,7.9-4.3,9.6c1.7,2.2,5.1,2.3,7.7,0.5c1.8-1.2,5.6-0.8,6.8,0.9
	C35,22.1,38.3,26.8,42.2,32.3z"/>
<path class="st0" d="M137.2,17.8c0.1,4.7,0,10,4.6,13.1c2.1,1.3,4.6,2,7.1,1.9h7.4v-4.6c-2.7,0-6.7,0.2-9.1-0.3
	c-4.9-1-4.1-6.3-4.1-11.2c0-9.5,2.7-8.6,12.6-8.6c0.2,0,0.6,0.1,0.6-0.1V3.4c0-0.1,0-0.1-0.1-0.1c-4.7,0-11-0.6-14.5,2.1
	C137.4,8.6,137.2,12.8,137.2,17.8z"/>
<path class="st0" d="M185.6,12.8v-0.4h-4.5v20.1c0,0.1,0,0.1,0.1,0.1h4.8V18.1c-0.1-0.4,0.2-0.9,0.6-1c2.2-1.3,6.7-1.9,6.7,2.7v12.8
	h4.9V19.1c0-1-0.1-1.9-0.2-2.9c-0.2-1.6-1.2-2.9-2.6-3.6c-1.9-0.9-5-0.5-6.9,0.2c-1.1,0.4-2.5,1.6-2.9,0.5
	C185.6,13.1,185.6,12.9,185.6,12.8z"/>
<path class="st0" d="M165.3,19.6c-0.2-1.1,0.1-2.3,0.8-3.2c1.2-1.2,4.9-1.3,5.6,1.1c0.2,0.8,0.8,3-0.6,3h-4.9
	C165.5,20.6,165.3,20.3,165.3,19.6z M160.3,19.5c0,4.1-0.6,9.1,2.7,11.6c1.6,1.1,3.5,1.7,5.5,1.7h5.9c0-4.6,0.3-4.1-0.7-4.1
	c-1.3,0-4.7,0.1-5.6-0.1c-0.8,0-1.6-0.4-2.2-1.1c-0.4-0.5-1.5-3.9,0.2-3.9H177c0-4.5,0.6-9.5-4.6-11.1c-3.1-1-8.5-0.9-10.8,2.4
	C160.7,16.2,160.3,17.9,160.3,19.5L160.3,19.5z"/>
<path class="st0" d="M224.8,19.7c0-1.5,0.1-3.2,1.9-3.8c1.3-0.5,2.8-0.2,3.9,0.6c0.9,0.8,0.9,2.1,0.9,3.3c0,0.6-0.3,0.8-0.9,0.8h-5
	C225.1,20.6,224.8,20.2,224.8,19.7z M219.9,19c-0.1,2.7,0,5.3,0.2,8c0.8,4,4.1,5.8,8,5.8h5.8v-4.1c-2.3,0.1-4.7,0.1-7-0.2
	c-2.5-0.6-2.3-4.2-1.9-4.6c0.2-0.2,0.5-0.2,0.8-0.2h10.7c0-4.7,0.6-8.3-3.4-10.6C229.9,11.1,219.9,10.9,219.9,19z"/>
<path class="st0" d="M205.7,11.5c0,1.7-3.1,0.4-3.1,1v4c3.8,0,3.1-0.7,3.1,5.1c0,2.7-0.2,6.4,0.8,8.4c1.5,3.1,5.6,2.6,8.9,2.6v-3.5
	c-1.2-0.1-2.4-0.4-3.6-1c-1.1-0.8-1.2-1.9-1.2-3.3v-7.5c0-0.7,0.3-0.9,1-0.9h3.9c0-4.5,0.3-4.1-0.6-4.1c-3.2,0-4.3,0.4-4.3-1V5.8
	h-4.9L205.7,11.5z"/>
<path class="st1" d="M131,21.1c-1.7-0.7-4.4-1.3-6.3-2c-0.4-0.2-1-0.4-1-0.9c0-1.4,6.2-1,7.7-1c0.4,0,0.8,0,0.8-0.4v-5.3
	c0-0.3-0.1-0.5-0.5-0.5c-6.3,0-13.8-1.1-15.3,5.9c0.1,0.4,0.1,0.7,0.1,1.1c0,3.2,1.1,4.8,4.1,6.1c1.9,0.9,6.7,1.7,6.7,2.6
	c0,2-10.1,0.3-10.1,1.2c0,0.9-0.2,5.4,0.1,5.9c2.9,0,9,0.3,11.8-0.4C136,31.7,136.1,23.1,131,21.1z"/>
<path class="st0" d="M122.5,18.2c0,3.9,10.7,1.9,10.7,8c0,4.7-3.1,6.3-7.5,6.3h-7.2v-3.4c1.9,0,7.4,0.3,8.8-0.5
	c1-0.4,1.5-1.6,1.1-2.6c-0.2-0.5-0.6-0.9-1.1-1.1c-2.7-1.5-11.2-1.4-9.3-8.3c1.4-5.1,8.4-4.2,13-4.2v3.4
	C128.8,15.8,122.5,15.1,122.5,18.2z M116.5,18c0,3.2,1.1,4.8,4.1,6.1c1.9,0.9,6.7,1.7,6.7,2.6c0,2-10.1,0.3-10.1,1.2
	s-0.2,5.4,0.1,5.9c2.9,0,9,0.3,11.8-0.4c6.9-1.7,7-10.3,1.9-12.3c-1.7-0.7-4.4-1.3-6.3-2c-0.4-0.2-1-0.4-1-0.9c0-1.4,6.2-1,7.7-1
	c0.4,0,0.8,0,0.8-0.4v-5.3c0-0.3-0.1-0.5-0.5-0.5c-6.3,0-13.8-1.1-15.3,5.9C116.5,17.3,116.5,17.6,116.5,18L116.5,18z"/>
<path class="st0" d="M244.9,12.8v-0.6h-4.4v20.3h4.9V18.8c0-0.8,0.4-0.9,1.3-1.2c1.8-0.7,3.7-1.1,5.7-1.3c0.2,0,0.5,0.1,0.5-0.1V12
	C247.9,12,244.9,15.3,244.9,12.8z"/>
<path class="st1" d="M70.2,2.2H57.4c-0.4,0.2-0.6,0.3-0.6,0.7V33c0,0.3,0.1,0.5,0.4,0.5h7.2c0.2,0,0.4-0.1,0.4-0.4V25
	c4.7,0,10.5,0.7,13.2-3.6c1.8-2.9,1.5-5.9,1.5-9.4C79.5,5.9,76.5,2.3,70.2,2.2z"/>
<path class="st1" d="M90.1,11.4h-6.2c-0.2-0.1-0.4,0-0.4,0.2v5.6c0,0.8,7.4-0.4,8.5,0.8c0.3,0.9,0.5,1.8,0.4,2.7
	c-1.9,0-6.6-0.1-8.1,0.6c-2.6,1.3-3.1,3.2-3.1,6c-0.1,2.4,1.1,4.6,3.2,5.8c2.1,1.2,5.5,0.7,7.7-0.2c0.3-0.1,0.8-0.4,1.1-0.5
	c0,0.4-0.1,1.1,0.3,1.1h5.6c0.2,0,0.3-0.1,0.3-0.3V19c0-1.2-0.2-2.4-0.6-3.6C97.6,11.9,93.9,11.4,90.1,11.4z"/>
<path class="st1" d="M109.3,12.1c-0.7,0.2-1.1,0.4-1.5,0.5c0-0.9,0.2-1.4-0.6-1.4h-5.4c-0.3,0-0.5,0.1-0.5,0.4v21.7
	c0,0.2,0.1,0.3,0.3,0.4h6.2c0.5,0,0.4-0.7,0.4-1.5V18.8c1.8-0.6,3.7-1.1,5.5-1.4c0.9-0.2,2,0.2,2-0.4v-5.6
	C115.7,10.2,110,11.9,109.3,12.1z"/>
<path class="st0" d="M107,18.7v13.4h-4.2V12.5h3.7c0,2.2,1.4,1.5,2.4,1.1c0.4-0.1,5.6-1.8,5.6-1.2v3.5c-2.2,0.1-4.3,0.6-6.3,1.5
	C107.5,17.6,107,17.8,107,18.7z M107.8,12.6c0-0.9,0.2-1.4-0.6-1.4h-5.4c-0.3,0-0.5,0.1-0.5,0.4v21.7c0,0.2,0.1,0.3,0.3,0.4l0,0h6.2
	c0.5,0,0.4-0.7,0.4-1.5V18.8c1.8-0.6,3.7-1.1,5.5-1.4c0.9-0.2,2,0.2,2-0.4v-5.6c0-1.2-5.7,0.5-6.4,0.7S108.2,12.5,107.8,12.6
	L107.8,12.6z"/>
<path class="st0" d="M63.4,24.8v7.3h-5.2V3.7c4.2,0,8.4-0.1,12.5,0c4.6,0.1,7.1,2.6,7.3,7.3c0.1,2.4,0.4,6.7-0.7,8.7
	c-1,2.3-3.2,3.7-5.7,3.8c-2.4,0.1-3.8,0.1-6.2,0.1C64.9,23.7,63.4,23.5,63.4,24.8z M56.8,2.9V33c0,0.3,0.1,0.5,0.4,0.5h7.2
	c0.2,0,0.4-0.1,0.4-0.4l0,0V25c4.7,0,10.5,0.7,13.2-3.6c1.8-2.9,1.5-5.9,1.5-9.4c0-6.1-3-9.7-9.3-9.8H57.4C57,2.4,56.8,2.5,56.8,2.9
	z"/>
<path class="st0" d="M69.1,18.8h-4.3V8.5c1.7-0.1,3.5,0,5.2,0.2c0.5,0.1,1,0.3,1.4,0.5c0.8,0.5,0.9,2.1,0.9,2.9
	c0.1,1.6,0,3.2-0.2,4.8c-0.1,0.4-0.3,0.8-0.6,1.1c-0.2,0.3-0.6,0.6-0.9,0.7C70.1,18.8,69.6,18.8,69.1,18.8z M63.4,8.3V19
	c-0.1,0.6,0.4,1.2,1,1.2c0.1,0,0.1,0,0.2,0c1,0,5.1,0.1,5.7-0.1c0.3-0.1,0.6-0.1,0.9-0.2c1-0.4,1.8-1.2,2.1-2.3
	c0-0.1,0.1-0.3,0.1-0.4c0.1-0.5,0.2-1,0.2-1.4v-3.9c0-1-0.2-2.1-0.7-3c-0.1-0.1-0.2-0.2-0.3-0.4c-0.5-0.6-1.2-0.9-1.9-1.1
	c-0.7-0.2-1.4-0.3-2.2-0.3h-4c-0.6-0.1-1.1,0.4-1.2,1C63.4,8.1,63.4,8.2,63.4,8.3z"/>
<path class="st0" d="M84.8,12.7h6.5c2,0,5.2,0.4,6.1,2.6c0.6,1.4,0.8,3,0.7,4.5v12.4h-3.5c0-0.5-0.1-1-0.6-1.2
	c-1.3-0.5-1.7,1.4-6.8,1.4c-4.8,0-5.7-6.3-3.6-8.9c2.2-2.8,9.7-0.2,10.1-2.2c0.2-1,0.1-3.5-0.7-4.3c-0.9-0.7-2-1-3.2-0.9h-5V12.7z
	 M83.5,11.6v5.6c0,0.8,7.4-0.4,8.5,0.8c0.3,0.9,0.5,1.8,0.4,2.7c-1.9,0-6.6-0.1-8.1,0.6c-2.6,1.3-3.1,3.2-3.1,6
	c-0.1,2.4,1.1,4.6,3.2,5.8s5.5,0.7,7.7-0.2c0.3-0.1,0.8-0.4,1.1-0.5c0,0.4-0.1,1.1,0.3,1.1h5.6c0.2,0,0.3-0.1,0.3-0.3V19
	c0-1.2-0.2-2.4-0.6-3.6c-1.2-3.5-4.9-4-8.7-4h-6.2C83.7,11.3,83.5,11.4,83.5,11.6z"/>
<path class="st0" d="M88.3,27.1c0-0.5,0-1,0.5-1.2c1.2-0.2,2.4-0.2,3.7-0.2c0,2.2,0.2,1.9-0.5,2.2s-2.6,1-3.3,0.2
	C88.4,27.8,88.2,27.5,88.3,27.1z M86.9,27c0,0.7,0.3,1.5,0.7,2.1c0.6,0.5,1.3,0.8,2.1,0.8c1.3-0.1,2.5-0.5,3.6-1.1
	c0.3-0.2,0.5-0.7,0.5-1.1c0.1-0.8,0-1.7-0.1-2.5c0-0.1-0.1-0.3-0.2-0.4c-0.2-0.2-0.5-0.4-0.8-0.3c-1.3-0.1-2.6,0-3.9,0.1
	c-0.9,0.1-1.6,0.9-1.7,1.8C86.9,26.6,86.9,26.8,86.9,27z"/>
<path class="st0" d="M195.3,44.3c-1,0-1.1-1.6-1.1-2.3H193v1.5c0,0.9-1.6,1.9-1.6-1.5H190c0,1,0.2,2.4-0.6,2.4h-22.9
	c-1.1,0-1-1.7-1-2.4c-1.6,0-1.4-0.1-1.4,0.3c0,2.2,0,2.1-1.4,2.1c-1.1,0-1.1-1.3-1.1-2c0-0.5,0.2-0.4-1.4-0.4c0,0.9,0.2,2.4-0.7,2.4
	c-2.6,0-2.3-0.6-2.3-2.6H156c0,3.4,0.5,3.3-2.3,5.1c-0.2,0.1-1.3,0.8-1.4,0.8L153,49c0.5-0.1,4.2-2.4,4.3-3.7
	c0.5,0.1-0.3,0.7,2.6,0.7c0.6,0,1.1-0.3,1.4-0.8c0.3,1.2,3.5,1.2,3.8,0c0.3,0.5,0.8,0.8,1.4,0.8h22.8c0.6,0,1.2-0.3,1.5-0.8
	c0.4,0.8,1.4,1.1,2.2,0.7c0.3-0.2,0.5-0.4,0.7-0.7c0,0,1.3,1.6,2.8,0.6c1.1-0.8,0.8-4,0.7-4c-1.6,0-1.4-0.1-1.4,0.3
	C196,43.6,196.2,44.3,195.3,44.3z"/>
<path class="st0" d="M63.1,43.4c1.2,0,1.7,2.4-0.5,0.9c-0.1,0,0-0.1-0.1-0.1S62.8,43.4,63.1,43.4z M57.2,39v4.3
	c0,3.1,1.5,2.7,3.3,2.7c0.4,0,0.7-0.1,1-0.3c0.4-0.3,0.1-0.3,0.7,0s1.8,1,2.7,0.1c0.1-0.1,0.2-0.2,0.2-0.3c0.3,0.3,0.7,0.5,1.2,0.5
	h22.9c0.6,0,1.2-0.3,1.5-0.8c0.4,0.8,1.5,1.1,2.3,0.6c0.2-0.1,0.4-0.3,0.6-0.5c0-0.1,0.1-0.1,0.1-0.2c0.2,0.9,2.9,1.5,3.4-0.5
	c0-0.2,0.2-2.9,0-2.9c-1.6,0-1.3-0.1-1.3,0.3c0,0.7,0,1.3,0,2c-0.1,0.3-1.6,1-1.6-2h-1.3c0,0.8,0.2,2.3-0.7,2.3s-0.9-1.5-0.9-2.3
	h-1.4c0,1.2,0.2,2.4-0.6,2.4c-2.5,0-22.9,0.2-23.5-0.1C65.5,44.2,65,42,63,42c-1.4,0-1.7,2.3-2.4,2.3c-2.3,0-1.9,0.4-1.9-5.5
	C58.4,38.9,57.2,38.8,57.2,39z"/>
<path class="st0" d="M143.7,43.4c1.1,0,1.9,2.5-0.6,0.8C143.1,44,143.5,43.4,143.7,43.4z M119.6,42.7c0,0.7,1.2,1.3,1.3,1.6
	c-3.5,0.3-3.5,0.2-3.5-2.5H116c0,3.3,0.7,3.6-3.7,5.9c0,0.2,0.6,1.1,0.7,1.3c0.3-0.1,4.3-2.4,4.4-3.7c1.4,1.1,3.3,1.1,4.6-0.1
	c0.5,0.5,1.2,0.8,1.8,0.8h17.4c0.5,0,0.9-0.2,1.2-0.6c3.3,2.1,4.8-0.9,2.9-2.6c-2.5-2.3-3.2,1.7-4.1,1.7h-17.7
	c-0.2,0-0.5-0.1-0.7-0.2c0-0.1,2.2-2.7-1.2-2.6C121.1,41.6,119.6,42,119.6,42.7z"/>
<path class="st0" d="M218.8,43.7c0,1.1,0.5,2.3,1.7,2.3h24.6c2,0,1.6-2.2,1.6-4.2h-1.5c0,1.3,0.2,2.6-0.3,2.6h-24
	c-0.7,0-0.8-0.8-0.8-1.3v-4.2h-1.4L218.8,43.7z"/>
<path class="st0" d="M210.3,43.7c0,0.8-1.2,0.8-1.6,0c-0.1-0.5-0.2-1.1-0.2-1.7h-1.3v1.5c0,0.4-0.2,0.7-0.6,0.8
	c-0.2,0-0.5-0.1-0.6-0.2V42h-1.4c0.1,1.6,0,3.1-0.1,4.7c-0.7,2-4.6,1.7-4.6-0.5v-1.5h-1.4c0,1.5-0.1,3.7,1.8,4.6
	c2.1,1,5.7,0.3,5.7-3.5c0.7,0.4,1.6,0.2,2-0.5c0-0.1,0.1-0.2,0.1-0.2c0.4,0.6,1.1,1,1.8,1c2.2,0,1.8-2.9,1.8-4.3h-1.5v1.9H210.3z"/>
<path class="st0" d="M108.9,42.1c0-0.5,1.1-0.7,1.3,0.5C110,42.7,108.9,42.9,108.9,42.1z M107.8,42.1c-0.1,0.9,0.6,1.8,1.6,1.8
	c0.3,0,0.6,0,0.9-0.2c0,0.4-0.4,0.7-0.8,0.7h-6.3c-1.1,0-0.6-1.4-0.8-1.4h-1.3c0,1.2-0.1,2.9,1.8,2.9h6.6c2.8,0,2.3-3.3,1.5-4.6
	C109.9,39.7,107.8,40.3,107.8,42.1z"/>
<path class="st0" d="M216,44c0,1.2-2.7,2.6-3.7,3.1c0,0.2,0.6,1.1,0.7,1.3c1.1-0.6,2.1-1.3,3.1-2c1.7-1.3,1.4-2.7,1.4-4.7H216V44z"
	/>
<path class="st0" d="M150.1,44.5V46h1.6v-1.5h-0.9c0-0.6,0.2-1.4,0.9-1.4v-0.3C150.8,42.8,150.1,43.6,150.1,44.5L150.1,44.5z"/>
<polygon class="st0" points="164.1,41.4 165.5,41.4 165.5,40 164.1,40 "/>
<polygon class="st0" points="108.6,40 110,40 110,38.6 108.6,38.6 "/>
<polygon class="st0" points="245.5,47.9 246.7,47.9 246.7,46.7 245.5,46.7 "/>
<polygon class="st0" points="244.7,49.4 245.9,49.4 245.9,48.1 244.7,48.1 "/>
<path class="st0" d="M92.7,39.9h1.2c0.1,0,0.1,0,0.1-0.1v-1.2h-1.3C92.7,38.6,92.7,39.9,92.7,39.9z"/>
<polygon class="st0" points="93.5,41.3 94.8,41.3 94.8,40.1 93.5,40.1 "/>
<polygon class="st0" points="159.6,41.1 160.9,41.1 160.9,39.8 159.6,39.8 "/>
<polygon class="st0" points="161.3,41.1 162.5,41.1 162.5,39.8 161.3,39.8 "/>
<polygon class="st0" points="244,47.9 245.2,47.9 245.2,46.7 244,46.7 "/>
<polygon class="st0" points="92.1,41.3 93.3,41.3 93.3,40.1 92.1,40.1 "/>
</svg>
