<svg 
 xmlns="http://www.w3.org/2000/svg"
 xmlns:xlink="http://www.w3.org/1999/xlink"
 width="20px" height="20px">
<path fill-rule="evenodd"  fill="rgb(195, 212, 223)"
 d="M18.533,13.733 C17.205,13.733 15.920,13.519 14.725,13.125 C14.357,13.007 13.936,13.093 13.643,13.386 L11.296,15.738 C8.272,14.202 5.803,11.733 4.267,8.714 L6.613,6.357 C6.907,6.064 6.992,5.642 6.875,5.274 C6.480,4.080 6.267,2.794 6.267,1.466 C6.267,0.874 5.792,0.399 5.200,0.399 L1.467,0.399 C0.880,0.399 0.400,0.874 0.400,1.466 C0.400,11.482 8.517,19.600 18.533,19.600 C19.125,19.600 19.600,19.125 19.600,18.533 L19.600,14.799 C19.600,14.207 19.125,13.733 18.533,13.733 Z"/>
</svg>