<svg 
 xmlns="http://www.w3.org/2000/svg"
 xmlns:xlink="http://www.w3.org/1999/xlink"
 width="36px" height="35px">
<path fill-rule="evenodd"  fill="rgb(61, 161, 65)"
 d="M17.516,35.015 C7.851,35.015 0.016,27.180 0.016,17.515 C0.016,7.850 7.851,0.015 17.516,0.015 C27.181,0.015 35.016,7.850 35.016,17.515 C35.016,27.180 27.181,35.015 17.516,35.015 ZM27.285,11.381 L25.544,9.640 C25.223,9.320 24.704,9.320 24.383,9.640 L13.942,20.081 L8.976,15.078 C8.655,14.757 8.136,14.757 7.815,15.078 L6.074,16.819 C5.753,17.140 5.753,17.659 6.074,17.980 L11.596,23.543 C11.604,23.551 11.606,23.562 11.614,23.570 L12.809,24.765 L13.097,25.054 L13.098,25.054 L13.355,25.311 C13.676,25.631 14.196,25.631 14.516,25.311 L27.285,12.543 C27.606,12.222 27.606,11.702 27.285,11.381 Z"/>
</svg>