<?xml version="1.0" encoding="UTF-8"?>
<!DOCTYPE svg PUBLIC "-//W3C//DTD SVG 1.1//EN" "http://www.w3.org/Graphics/SVG/1.1/DTD/svg11.dtd">
<!-- Creator: CorelDRAW 2019 (64-Bit) -->
<svg xmlns="http://www.w3.org/2000/svg" xml:space="preserve" width="25.3629in" height="6.14491in" version="1.1" style="shape-rendering:geometricPrecision; text-rendering:geometricPrecision; image-rendering:optimizeQuality; fill-rule:evenodd; clip-rule:evenodd"
viewBox="0 0 27793.52 6733.79"
 xmlns:xlink="http://www.w3.org/1999/xlink"
 xmlns:xodm="http://www.corel.com/coreldraw/odm/2003">
 <defs>
  <style type="text/css">
   <![CDATA[
    .fil1 {fill:#4A4A4A}
    .fil0 {fill:#CB0101}
   ]]>
  </style>
 </defs>
 <g id="Layer_x0020_1">
  <metadata id="CorelCorpID_0Corel-Layer"/>
  <path class="fil0" d="M11395.22 2211.01c14.16,666.15 -0.02,1417.32 651.95,1856.69 297.64,184.25 651.96,283.46 1006.29,269.29l1048.82 0 0 -651.97c-382.67,0 -949.61,28.35 -1289.76,-42.51 -694.48,-141.74 -581.1,-892.9 -581.1,-1587.39 0,-1346.46 382.67,-1218.89 1785.81,-1218.89 28.35,-0.01 85.04,14.17 85.04,-14.17l0 -651.97c0,-14.18 -0.01,-14.17 -14.18,-14.17 -666.13,-0 -1559.05,-85.04 -2055.11,297.63 -609.44,453.54 -637.79,1048.81 -637.77,1757.46z"/>
  <path class="fil0" d="M18255 1502.35l0 -56.69 -637.79 0.02 0 2848.78c0,14.18 -0,14.19 14.17,14.19l680.33 -0 0 -2055.1c-14.18,-56.71 28.33,-127.55 85.02,-141.73 311.81,-184.26 949.6,-269.29 949.6,382.67l0 1814.15 694.49 0 0 -1913.37c0,-141.74 -14.17,-269.28 -28.34,-411.01 -28.34,-226.78 -170.08,-411.02 -368.51,-510.23 -269.28,-127.57 -708.66,-70.87 -977.95,28.34 -155.9,56.69 -354.32,226.78 -411.02,70.88 0,-28.35 0,-56.69 0,-70.88z"/>
  <path class="fil0" d="M15377.86 2466.14c-28.35,-155.91 14.16,-325.98 113.37,-453.53 170.09,-170.08 694.49,-184.25 793.7,155.91 28.34,113.38 113.38,425.2 -85.04,425.2l-694.47 -0c-99.22,14.18 -127.57,-28.35 -127.56,-127.57zm-708.66 -14.18c0,581.1 -85.04,1289.76 382.67,1644.09 226.78,155.9 496.05,240.95 779.52,240.95l836.23 0c0,-651.97 42.5,-581.1 -99.22,-581.1 -184.23,0 -666.14,14.18 -793.7,-14.17 -113.38,-0.01 -226.77,-56.69 -311.81,-155.91 -56.69,-70.87 -212.59,-552.75 28.34,-552.75l1544.88 -0.01c0,-637.79 85.03,-1346.44 -651.97,-1573.21 -439.36,-141.75 -1204.71,-127.55 -1530.7,340.17 -127.56,184.23 -184.26,425.19 -184.26,651.96l0 -0.01z"/>
  <path class="fil0" d="M23810.87 2480.31c0,-212.6 14.17,-453.54 269.29,-538.58 184.25,-70.88 396.84,-28.34 552.75,85.04 127.57,113.38 127.55,297.63 127.55,467.71 0.02,85.03 -42.51,113.38 -127.55,113.38l-708.64 0c-70.87,0 -113.41,-56.69 -113.4,-127.57zm-694.48 -99.22c-14.16,382.68 0,751.19 28.34,1133.86 113.4,566.92 581.1,822.04 1133.85,822.04l822.05 0 0 -581.1c-325.99,14.16 -666.15,14.18 -992.13,-28.34 -354.32,-85.04 -325.98,-595.27 -269.29,-651.96 28.35,-28.36 70.87,-28.35 113.38,-28.35l1516.55 -0.01c0,-666.15 85.03,-1176.37 -481.9,-1502.35 -453.53,-283.46 -1870.85,-311.8 -1870.85,836.21z"/>
  <path class="fil0" d="M21103.81 1318.1c0,240.96 -439.38,56.71 -439.38,141.75l0.02 566.91c538.57,0 439.36,-99.19 439.36,722.85 0,382.66 -28.35,907.07 113.38,1190.54 212.6,439.36 793.69,368.5 1261.41,368.5l0.01 -496.06c-170.08,-14.18 -340.17,-56.69 -510.24,-141.73 -155.89,-113.39 -170.07,-269.29 -170.07,-467.71l0.01 -1062.99c0,-99.22 42.51,-127.56 141.72,-127.56l552.76 -0c0,-637.79 42.51,-581.09 -85.05,-581.09 -453.52,-0 -609.44,56.69 -609.44,-141.74l0 -779.52 -694.48 0 0 807.85z"/>
  <path class="fil0" d="M9311.75 2267.71c0,552.76 1516.53,269.3 1516.53,1133.86 0,666.12 -439.37,892.91 -1062.99,892.91l-1020.45 -0.02 0 -481.87c269.29,0 1048.8,42.52 1247.23,-70.87 141.75,-56.69 212.6,-226.77 155.91,-368.5 -28.33,-70.88 -85.04,-127.55 -155.91,-155.9 -382.67,-212.6 -1587.39,-198.42 -1318.1,-1176.37 198.42,-722.85 1190.54,-595.27 1842.5,-595.27l0.02 481.88c-311.82,0 -1204.73,-99.2 -1204.73,340.16zm-850.38 -28.34c0,453.54 155.91,680.32 581.09,864.56 269.29,127.56 949.6,240.94 949.6,368.5 0.02,283.45 -1431.48,42.52 -1431.48,170.08 0,127.55 -28.34,765.35 14.17,836.22 411.02,-0.01 1275.58,42.51 1672.43,-56.7 977.95,-240.95 992.12,-1459.83 269.29,-1743.29 -240.94,-99.22 -623.62,-184.25 -892.91,-283.46 -56.69,-28.37 -141.73,-56.69 -141.73,-127.56 0.01,-198.43 878.74,-141.73 1091.33,-141.73 56.7,-0 113.38,0 113.38,-56.69l0 -751.19c0,-42.52 -14.18,-70.85 -70.87,-70.85 -892.9,-0 -1955.89,-155.91 -2168.49,836.21 14.19,56.69 14.19,99.21 14.19,155.9l0 0z"/>
  <path class="fil0" d="M26659.68 1502.35l0 -85.03 -623.61 0 0 2877.14 694.48 0 0 -1941.71c0,-113.38 56.69,-127.55 184.24,-170.07 255.12,-99.21 524.4,-155.9 807.87,-184.25 28.36,-0.01 70.86,14.17 70.86,-14.17l0 -595.29c-708.64,0 -1133.85,467.73 -1133.84,113.38z"/>
  <path class="fil0" d="M7114.92 2338.57l0 1899.2 -595.28 0 0 -2777.93 524.41 0c0,311.82 198.42,212.61 340.15,155.92 56.7,-14.18 793.7,-255.11 793.7,-170.08l0 496.05c-311.81,14.18 -609.45,85.05 -892.91,212.6 -99.21,28.34 -170.08,56.69 -170.07,184.24zm113.38 -864.56c0,-127.56 28.34,-198.42 -85.05,-198.42l-765.34 -0.01c-42.52,0 -70.87,14.19 -70.87,56.71l0 3075.56c0,28.35 14.17,42.53 42.52,56.71l0.01 -0.02 878.74 0c70.86,0 56.69,-99.2 56.69,-212.58l0 -1899.21c255.12,-85.04 524.4,-155.9 779.52,-198.41 127.57,-28.35 283.46,28.34 283.46,-56.69l0 -793.71c0,-170.07 -807.87,70.87 -907.08,99.22 -99.21,28.34 -155.91,56.69 -212.6,70.87l0.01 -0.01z"/>
  <path class="fil0" d="M935.43 3203.13l0 1034.64 -737 0 0 -4025.16c595.27,0 1190.54,-14.17 1771.64,0 651.97,14.16 1006.29,368.5 1034.63,1034.64 14.18,340.15 56.69,949.6 -99.21,1233.07 -141.72,325.98 -453.54,524.41 -807.87,538.58 -340.15,14.16 -538.58,14.17 -878.74,14.17 -70.86,14.17 -283.46,-14.17 -283.46,170.07zm-935.43 -3103.91l0 4266.11c0,42.52 14.17,70.88 56.69,70.88l1020.47 -0c28.35,0 56.69,-14.17 56.69,-56.69l0.01 0 -0.01 -1148.02c666.14,0 1488.17,99.2 1870.85,-510.23 255.13,-411.04 212.6,-836.21 212.6,-1332.28 0,-864.57 -425.2,-1374.79 -1318.1,-1388.97l-1814.15 -0.01c-56.7,28.36 -85.04,42.53 -85.04,99.22z"/>
  <path class="fil0" d="M1743.3 2352.75l-609.45 0 0 -1459.83c240.94,-14.18 496.05,0.01 737,28.35 70.87,14.16 141.73,42.52 198.42,70.87 113.39,70.85 127.56,297.63 127.56,411.02 14.18,226.78 0,453.55 -28.34,680.32 -14.17,56.69 -42.52,113.38 -85.04,155.91 -28.34,42.5 -85.04,85.04 -127.56,99.21 -70.85,14.16 -141.73,14.16 -212.59,14.16zm-807.87 -1488.19l0 1516.53c-14.17,85.04 56.69,170.09 141.73,170.09 14.18,0 14.17,0 28.34,0 141.74,0 722.83,14.17 807.87,-14.17 42.52,-14.18 85.04,-14.17 127.56,-28.34 141.74,-56.71 255.11,-170.08 297.63,-325.99 0,-14.18 14.17,-42.52 14.17,-56.69 14.18,-70.87 28.34,-141.73 28.34,-198.42l0 -552.76c0,-141.74 -28.34,-297.63 -99.21,-425.19 -14.17,-14.19 -28.34,-28.34 -42.51,-56.69 -70.87,-85.05 -170.08,-127.56 -269.29,-155.91 -99.2,-28.35 -198.42,-42.52 -311.81,-42.52l-566.92 -0.01c-85.03,-14.16 -155.91,56.71 -170.08,141.75 14.18,-0.01 14.17,14.17 14.18,28.33z"/>
  <path class="fil0" d="M3968.48 1488.19l921.25 0c283.47,0 737,56.7 864.56,368.51 85.04,198.42 113.38,425.2 99.21,637.79l0 1757.46 -496.06 0c0,-70.87 -14.17,-141.72 -85.04,-170.07 -184.24,-70.87 -240.94,198.43 -963.78,198.43 -680.31,-0.02 -807.87,-892.91 -510.23,-1261.41 311.82,-396.86 1374.79,-28.34 1431.49,-311.81 28.34,-141.75 14.17,-496.06 -99.21,-609.45 -127.55,-99.22 -283.46,-141.73 -453.54,-127.56l-708.65 0 0 -481.89zm-184.25 -155.91l0 793.71c0,113.38 1048.81,-56.69 1204.71,113.38 42.52,127.54 70.87,255.12 56.69,382.68 -269.29,-0.01 -935.43,-14.17 -1148.03,85.03 -368.5,184.26 -439.37,453.55 -439.37,850.39 -14.17,340.15 155.91,651.97 453.54,822.04 297.64,170.08 779.52,99.21 1091.33,-28.34 42.52,-14.19 113.38,-56.69 155.91,-70.87 0,56.69 -14.17,155.91 42.52,155.91l793.7 0c28.35,0 42.52,-14.17 42.52,-42.51l0.01 -2012.6c0,-170.08 -28.35,-340.14 -85.05,-510.23 -170.08,-496.06 -694.49,-566.92 -1233.07,-566.92l-878.73 -0.01c-28.34,-14.18 -56.69,0.01 -56.69,28.34z"/>
  <path class="fil0" d="M4464.54 3529.13c0,-70.88 -0,-141.74 70.86,-170.08 170.08,-28.35 340.16,-28.34 524.41,-28.34 0.01,311.79 28.34,269.29 -70.87,311.81 -99.21,42.52 -368.5,141.73 -467.71,28.34 -42.52,-42.52 -70.87,-85.04 -56.69,-141.73zm-198.42 -14.18c0,99.21 42.51,212.6 99.21,297.64 85.05,70.85 184.25,113.38 297.63,113.38 184.26,-14.18 354.33,-70.87 510.23,-155.91 42.52,-28.35 70.87,-99.21 70.87,-155.91 14.18,-113.39 0,-240.95 -14.17,-354.32 0,-14.19 -14.17,-42.52 -28.34,-56.69 -28.34,-28.34 -70.87,-56.69 -113.38,-42.52 -184.24,-14.18 -368.5,0 -552.75,14.17 -127.55,14.16 -226.77,127.55 -240.94,255.11 -28.34,28.33 -28.35,56.69 -28.34,85.04z"/>
  <path class="fil1" d="M19629.79 5966.91c-141.72,0 -155.91,-226.77 -155.91,-325.98l-170.07 -0.01 0 212.59c0,127.56 -226.78,269.3 -226.78,-212.58l-198.42 -0.01c0,141.74 28.34,340.17 -85.04,340.17l-3245.64 -0.01c-155.9,0 -141.75,-240.93 -141.75,-340.14 -226.76,-0.01 -198.41,-14.18 -198.41,42.51 0.01,311.81 0,297.64 -198.42,297.64 -155.9,-0.01 -155.91,-184.25 -155.91,-283.46 0.01,-70.88 28.34,-56.7 -198.42,-56.7 0,127.54 28.34,340.16 -99.21,340.16 -368.5,-0.01 -325.98,-85.04 -325.98,-368.5l-170.06 0c0,481.87 70.85,467.71 -326,722.83 -28.34,14.17 -184.25,113.39 -198.42,113.39l99.22 184.24c70.87,-14.18 595.27,-340.15 609.44,-524.4 70.87,14.17 -42.52,99.21 368.5,99.21 85.05,-0.01 155.91,-42.52 198.43,-113.39 42.52,170.07 496.05,170.08 538.58,0 42.53,70.86 113.38,113.39 198.42,113.39l3231.48 -0.01c85.05,0 170.08,-42.5 212.59,-113.38 56.71,113.38 198.42,155.91 311.81,99.22 42.52,-28.35 70.87,-56.69 99.21,-99.22 0,-0.01 184.26,226.78 396.85,85.04 155.92,-113.39 113.39,-566.92 99.21,-566.92 -226.77,0 -198.42,-14.17 -198.42,42.52 28.36,212.59 56.7,311.81 -70.86,311.81z"/>
  <path class="fil1" d="M892.92 5839.35c170.07,0 240.94,340.16 -70.88,127.56 -14.16,-0.01 0,-14.17 -14.17,-14.17 -14.17,0 42.52,-113.38 85.05,-113.38zm-836.22 -623.63l0 609.46c0,439.36 212.59,382.68 467.71,382.68 56.7,-0.01 99.21,-14.17 141.73,-42.52 56.69,-42.52 14.17,-42.52 99.21,0 85.04,42.5 255.12,141.73 382.67,14.17 14.18,-14.18 28.34,-28.34 28.34,-42.52 42.53,42.51 99.21,70.87 170.08,70.87l3245.65 -0.02c85.04,0 170.08,-42.5 212.6,-113.38 56.7,113.38 212.6,155.91 325.98,85.04 28.35,-14.18 56.69,-42.52 85.04,-70.87 0,-14.19 14.17,-14.18 14.17,-28.34 28.34,127.54 411.02,212.6 481.89,-70.87 0.01,-28.36 28.34,-411.02 0,-411.02 -226.77,0 -184.25,-14.17 -184.25,42.52 0,99.2 0,184.25 0,283.46 -14.16,42.51 -226.77,141.73 -226.77,-283.46l-184.24 -0c0,113.38 28.34,325.99 -99.22,325.99 -127.56,0 -127.56,-212.6 -127.56,-325.98l-198.42 -0.01c0,170.08 28.34,340.17 -85.04,340.17 -354.32,-0.01 -3245.65,28.34 -3330.69,-14.17 -42.51,-14.18 -113.38,-325.98 -396.85,-325.98 -198.41,-0.01 -240.94,325.98 -340.16,325.98 -325.98,0 -269.29,56.69 -269.29,-779.52 -42.52,14.17 -212.6,0 -212.59,28.33z"/>
  <path class="fil1" d="M12316.47 5839.35c155.9,0 269.28,354.33 -85.04,113.38 0,-28.35 56.69,-113.38 85.04,-113.38zm-3415.73 -99.22c0,99.22 170.07,184.26 184.25,226.79 -496.05,42.52 -496.05,28.34 -496.05,-354.33l-198.42 0c0,467.7 99.2,510.23 -524.42,836.22 0.01,28.32 85.04,155.9 99.21,184.25 42.52,-14.19 609.45,-340.16 623.62,-524.41 198.43,155.89 467.71,155.91 651.96,-14.18 70.87,70.86 170.08,113.39 255.12,113.39l2466.14 -0.01c70.87,0 127.55,-28.33 170.07,-85.03 467.72,297.62 680.31,-127.56 411.03,-368.5 -354.33,-326 -453.55,240.94 -581.1,240.94l-2508.64 -0.01c-28.34,0 -70.88,-14.16 -99.22,-28.34 0,-14.18 311.81,-382.67 -170.08,-368.5 -70.87,-14.18 -283.46,42.52 -283.46,141.72z"/>
  <path class="fil1" d="M22960.49 5881.86c0,155.9 70.86,325.99 240.94,325.99l3486.6 -0.02c283.46,0 226.76,-311.8 226.76,-595.26l-212.59 0c0,184.24 28.32,368.5 -42.53,368.5l-3401.54 -0.01c-99.21,0 -113.4,-113.38 -113.4,-184.24l0.01 -595.27 -198.43 0 14.18 680.3z"/>
  <path class="fil1" d="M21755.78 5881.86c0,113.38 -170.09,113.39 -226.78,0 -14.16,-70.87 -28.35,-155.9 -28.35,-240.94l-184.25 -0.01 0 212.59c0,56.69 -28.35,99.22 -85.04,113.4 -28.33,-0.01 -70.87,-14.17 -85.03,-28.35l0.01 -297.64 -198.43 0c14.18,226.77 -0,439.38 -14.18,666.15 -99.21,283.46 -651.97,240.94 -651.97,-70.87l0 -212.6 -198.41 0c0,212.59 -14.19,524.42 255.11,651.98 297.63,141.73 807.87,42.52 807.87,-496.06 99.22,56.69 226.77,28.34 283.46,-70.87 0,-14.19 14.17,-28.34 14.17,-28.34 56.69,85.03 155.91,141.73 255.12,141.73 311.81,-0.01 255.12,-411.02 255.12,-609.45l-212.59 0 0 269.28 14.18 0z"/>
  <path class="fil1" d="M7384.2 5655.09c0,-70.87 155.91,-99.21 184.25,70.87 -28.34,14.16 -184.25,42.52 -184.25,-70.87zm-155.9 0c-14.18,127.54 85.03,255.12 226.76,255.12 42.52,-0.01 85.04,0 127.56,-28.35 0,56.69 -56.69,99.22 -113.38,99.22l-892.9 -0.01c-155.91,0 -85.04,-198.41 -113.39,-198.41l-184.24 -0c0,170.08 -14.18,411.02 255.11,411.02l935.43 0c396.86,0 325.98,-467.71 212.6,-651.96 -155.89,-226.79 -453.54,-141.73 -453.53,113.38z"/>
  <path class="fil1" d="M22563.64 5924.38c0,170.07 -382.68,368.51 -524.42,439.38 0.01,28.34 85.04,155.91 99.21,184.25 155.91,-85.04 297.63,-184.25 439.37,-283.46 240.94,-184.27 198.42,-382.68 198.42,-666.14l-212.59 -0 0 325.98z"/>
  <path class="fil1" d="M13223.54 5995.25l0 212.59 226.77 0 0 -212.59 -127.56 0c0,-85.04 28.34,-198.41 127.56,-198.41l0 -42.53c-127.56,0 -226.77,113.39 -226.77,240.95l0 -0.01z"/>
  <polygon class="fil1" points="15207.79,5555.87 15406.2,5555.87 15406.2,5357.45 15207.79,5357.45 "/>
  <polygon class="fil1" points="7341.69,5357.45 7540.11,5357.45 7540.11,5159.03 7341.69,5159.03 "/>
  <polygon class="fil1" points="26744.72,6477.12 26914.8,6477.12 26914.8,6307.06 26744.72,6307.06 "/>
  <polygon class="fil1" points="26631.34,6689.73 26801.41,6689.73 26801.41,6505.48 26631.34,6505.48 "/>
  <path class="fil1" d="M5088.16 5343.28l170.07 0c14.17,0 14.17,0.01 14.17,-14.16l0 -170.09 -184.25 0c0,0 -0.01,184.26 0,184.25z"/>
  <polygon class="fil1" points="5201.55,5541.71 5385.79,5541.71 5385.79,5371.63 5201.55,5371.63 "/>
  <polygon class="fil1" points="14570,5513.36 14754.25,5513.36 14754.25,5329.12 14570,5329.12 "/>
  <polygon class="fil1" points="14810.94,5513.36 14981.02,5513.36 14981.02,5329.12 14810.94,5329.12 "/>
  <polygon class="fil1" points="26532.12,6477.12 26702.21,6477.12 26702.21,6307.06 26532.12,6307.06 "/>
  <polygon class="fil1" points="5003.12,5541.71 5173.2,5541.71 5173.2,5371.63 5003.12,5371.63 "/>
 </g>
</svg>
