<svg xmlns="http://www.w3.org/2000/svg" width="24" height="37.308" viewBox="0 0 24 37.308"><path d="M56.939,59.2a3.84,3.84,0,0,1,3.96-2.335c1.123-.013,1.947.864,2.98,1.139.814-.2,1.458-.8,2.262-1.026a3.988,3.988,0,0,1,4.365,1.591c.538.784.542,1.8,1.046,2.6a15.2,15.2,0,0,0,2.139.781,3.926,3.926,0,0,1,2.166,3.906c.01,1.126-.867,1.95-1.143,2.983.2.777.737,1.412,1,2.169a4.038,4.038,0,0,1-1.2,4.169c-.817.787-2.04.774-2.973,1.335a12.121,12.121,0,0,0-.731,1.967,3.826,3.826,0,0,1-3.97,2.329c-1.116.017-1.94-.86-2.97-1.133-.837.216-1.508.83-2.342,1.05a12.377,12.377,0,0,1-1.644.1q0,4.594,0,9.188c1.2-.84,2.289-1.847,3.571-2.564h.83a43.812,43.812,0,0,1,3.571,2.564c.03-1.86-.053-3.724.03-5.584a1.343,1.343,0,0,1,2.6,0c.07,2.78.017,5.567.027,8.348A1.326,1.326,0,0,1,68.4,93.874c-1.528-1.1-3.006-2.265-4.521-3.375-1.515,1.11-2.993,2.275-4.518,3.372a1.323,1.323,0,0,1-2.123-1.09c-.027-4.591.037-9.185-.03-13.776-.462-.777-.548-1.714-1-2.488a11.977,11.977,0,0,0-1.97-.734A3.842,3.842,0,0,1,51.9,71.82c-.01-1.116.864-1.943,1.139-2.976-.276-1.036-1.153-1.857-1.143-2.983a3.932,3.932,0,0,1,1.5-3.491c.8-.681,1.94-.654,2.81-1.2a12.439,12.439,0,0,0,.731-1.967m3.1.512c-.611.239-.658.97-.85,1.5a3.859,3.859,0,0,1-2.671,2.853c-.6.246-1.465.239-1.764.933-.375.794.339,1.491.631,2.176a4.051,4.051,0,0,1-.4,4.069,1.372,1.372,0,0,0,.033,1.82c.731.448,1.644.468,2.378.917A3.9,3.9,0,0,1,59.1,76.2c.246.6.236,1.468.93,1.767.8.375,1.495-.339,2.179-.631a4.043,4.043,0,0,1,4.069.4,1.373,1.373,0,0,0,1.82-.033c.449-.731.468-1.644.917-2.378a3.9,3.9,0,0,1,2.219-1.711c.6-.249,1.468-.236,1.767-.93.375-.794-.336-1.491-.631-2.176a4.057,4.057,0,0,1,.4-4.073,1.278,1.278,0,0,0-.259-1.953c-.993-.385-2.156-.525-2.893-1.385-.857-.734-1-1.9-1.382-2.89a1.282,1.282,0,0,0-1.957-.259,4.05,4.05,0,0,1-4.069.4C61.526,60.051,60.829,59.34,60.035,59.715Z" transform="translate(-51.879 -56.828)" fill="#c49a26"/><path d="M75.732,77.106a6.089,6.089,0,0,1,2.873-.047,5.324,5.324,0,1,1-2.873.047m.7,2.674a2.6,2.6,0,1,0,3.4,2.1A2.613,2.613,0,0,0,76.433,79.781Z" transform="translate(-65.265 -70.241)" fill="#c49a26"/></svg>