<svg width="115" height="32" viewBox="0 0 115 32" fill="none" xmlns="http://www.w3.org/2000/svg">
<path d="M66.1055 19.1091H64.1636C64.2752 19.2691 64.3673 19.4436 64.44 19.6327C64.5127 19.8267 64.5491 20.0012 64.5491 20.1564C64.5491 20.6073 64.4255 21.0145 64.1782 21.3782C63.9309 21.7467 63.5964 22.0594 63.1745 22.3164C62.7527 22.5733 62.2606 22.7721 61.6982 22.9127C61.1406 23.0533 60.5467 23.1236 59.9164 23.1236H58.0545C57.657 23.1236 57.2764 23.0776 56.9127 22.9855C56.5491 22.8933 56.2073 22.76 55.8873 22.5855C55.5673 22.4158 55.2739 22.2073 55.0073 21.96C54.7406 21.7176 54.5055 21.4412 54.3018 21.1309C53.8218 20.3552 53.5818 19.4461 53.5818 18.4036C53.5818 18.0836 53.5988 17.7661 53.6327 17.4509C53.6715 17.1358 53.7321 16.8133 53.8145 16.4836C53.9018 16.1491 54.0133 15.8024 54.1491 15.4436C54.2897 15.08 54.4618 14.6873 54.6655 14.2655L56.28 15.0436C56.1103 15.4024 55.9697 15.7297 55.8582 16.0255C55.7467 16.3212 55.6545 16.6024 55.5818 16.8691C55.5139 17.1309 55.4655 17.3855 55.4364 17.6327C55.4073 17.8752 55.3927 18.12 55.3927 18.3673C55.3927 19.0703 55.5479 19.6667 55.8582 20.1564C56.0812 20.5248 56.3842 20.8061 56.7673 21C57.1552 21.1988 57.5842 21.2982 58.0545 21.2982H59.9164C60.28 21.2982 60.6242 21.2642 60.9491 21.1964C61.2739 21.1285 61.56 21.0339 61.8073 20.9127C62.0545 20.7915 62.2558 20.6509 62.4109 20.4909C62.5661 20.3358 62.6558 20.1661 62.68 19.9818C62.5394 19.8315 62.36 19.703 62.1418 19.5964C61.9285 19.4945 61.6836 19.4073 61.4073 19.3345C61.1358 19.2667 60.84 19.2133 60.52 19.1745C60.2048 19.1406 59.8752 19.1164 59.5309 19.1018L59.5818 17.2982H66.1055V19.1091ZM69.6176 13C69.6273 13.0339 69.6466 13.1139 69.6757 13.24C69.7097 13.3661 69.746 13.5212 69.7848 13.7055C69.8236 13.8848 69.8624 14.0861 69.9012 14.3091C69.9448 14.5321 69.9836 14.7576 70.0176 14.9855C70.0563 15.2085 70.0854 15.4267 70.1048 15.64C70.1291 15.8533 70.1412 16.04 70.1412 16.2C70.1412 16.6994 70.0588 17.1333 69.8939 17.5018C69.7291 17.8655 69.5133 18.1661 69.2466 18.4036C68.98 18.6412 68.6794 18.8182 68.3448 18.9345C68.0151 19.0509 67.683 19.1091 67.3485 19.1091H64.2139V17.2982H67.3994C67.4576 17.2982 67.54 17.2909 67.6466 17.2764C67.7582 17.257 67.8673 17.2109 67.9739 17.1382C68.0854 17.0655 68.1824 16.9564 68.2648 16.8109C68.3473 16.6606 68.3885 16.457 68.3885 16.2C68.3885 16.0933 68.3788 15.9648 68.3594 15.8145C68.3448 15.6594 68.323 15.4945 68.2939 15.32C68.2648 15.1455 68.2309 14.9685 68.1921 14.7891C68.1582 14.6048 68.1242 14.4327 68.0903 14.2727C68.0563 14.1079 68.0224 13.96 67.9885 13.8291C67.9545 13.6933 67.9279 13.5891 67.9085 13.5164L69.6176 13ZM68.7739 23.0655L67.5521 21.8291L68.7594 20.5782L70.0103 21.8291L68.7739 23.0655ZM65.7266 23.0727L64.5048 21.8364L65.7048 20.5855L66.9557 21.8364L65.7266 23.0727ZM71.581 19.1018V17.2909H74.701C75.2634 17.2909 75.7167 17.2448 76.061 17.1527C76.4052 17.0558 76.6719 16.8982 76.861 16.68C77.0501 16.4618 77.1761 16.1733 77.2391 15.8145C77.3022 15.4558 77.3337 15.0121 77.3337 14.4836V8.62182H79.1373V16.1491C79.1373 16.3188 79.164 16.4739 79.2173 16.6145C79.2707 16.7552 79.3434 16.8764 79.4355 16.9782C79.5325 17.08 79.6464 17.16 79.7773 17.2182C79.9131 17.2715 80.061 17.2982 80.221 17.2982H80.5919V19.1091H80.221C79.741 19.1091 79.324 19.0194 78.9701 18.84C78.6161 18.6558 78.3034 18.3964 78.0319 18.0618C77.6731 18.3964 77.2198 18.6533 76.6719 18.8327C76.124 19.0121 75.467 19.1018 74.701 19.1018H71.581ZM72.4173 16.0982L71.9446 8.90545L73.741 8.69455L74.221 16.0982H72.4173ZM80.2764 19.1091V17.2982H81.7237L82.3346 16.36V8.62182H84.1382V14.1418C84.3322 13.943 84.5358 13.7612 84.7491 13.5964C84.9625 13.4267 85.1855 13.2812 85.4182 13.16C85.651 13.0339 85.8934 12.937 86.1455 12.8691C86.3976 12.7964 86.6595 12.76 86.931 12.76C87.314 12.76 87.6898 12.8158 88.0582 12.9273C88.4267 13.0388 88.7564 13.223 89.0473 13.48C89.3382 13.737 89.571 14.0739 89.7455 14.4909C89.9249 14.9079 90.0146 15.4218 90.0146 16.0327C90.0146 16.6145 89.9176 17.1042 89.7237 17.5018C89.5298 17.8945 89.2801 18.2097 88.9746 18.4473C88.674 18.6848 88.3346 18.8545 87.9564 18.9564C87.5831 19.0582 87.2146 19.1091 86.851 19.1091H80.2764ZM86.931 14.5636C86.6498 14.5636 86.3588 14.6388 86.0582 14.7891C85.7576 14.9394 85.4595 15.1406 85.1637 15.3927C84.8679 15.6448 84.5843 15.9358 84.3128 16.2655C84.0413 16.5952 83.794 16.9394 83.571 17.2982H86.851C86.8752 17.2982 86.9334 17.2958 87.0255 17.2909C87.1176 17.2861 87.2267 17.2739 87.3528 17.2545C87.4788 17.2303 87.6122 17.1939 87.7528 17.1455C87.8934 17.0921 88.0219 17.0194 88.1382 16.9273C88.2546 16.8303 88.3516 16.7115 88.4291 16.5709C88.5067 16.4255 88.5455 16.2461 88.5455 16.0327C88.5455 15.7612 88.4995 15.5333 88.4073 15.3491C88.3152 15.16 88.194 15.0073 88.0437 14.8909C87.8934 14.7745 87.7213 14.6921 87.5273 14.6436C87.3334 14.5903 87.1346 14.5636 86.931 14.5636Z" fill="#E69900"/>
<path d="M34 4.89709C34 4.89709 35.463 3.4231 39.375 3.4231C43.287 3.4231 100.522 3.56909 102.433 3.56909C104.344 3.56909 113.079 4.95601 113.079 15.015C113.079 25.074 104.574 26.521 102.433 26.521C100.292 26.521 44.255 26.642 39.375 26.521C34.495 26.4 34 25.447 34 25.447" stroke="#E69900" stroke-width="2" stroke-linecap="round"/>
<g filter="url(#filter0_d_6882_121)">
<path d="M4.05928 7.61533L5.33153 19.0656C5.35967 19.3189 5.5737 19.5104 5.82847 19.5104H30.7273C30.9752 19.5104 31.1856 19.3289 31.222 19.0837L32.877 7.91177C32.9482 7.43177 32.6644 6.96999 32.2041 6.81654L32.1562 6.80058C31.8229 6.6895 31.4559 6.76141 31.1892 6.99001L26.7374 10.8058C25.8816 11.5393 24.5891 11.4212 23.8805 10.5448L19.2307 4.7937C18.8285 4.29619 18.069 4.29914 17.6706 4.79976L13.074 10.5763C12.3849 11.4422 11.1237 11.584 10.2596 10.8927L5.30524 6.92922C5.07078 6.74165 4.74866 6.70752 4.4801 6.8418C4.19163 6.98603 4.02366 7.29479 4.05928 7.61533Z" fill="#E69900"/>
<path d="M5.38184 23.4945V21.8517C5.38184 21.5755 5.60569 21.3517 5.88184 21.3517H30.6596C30.9358 21.3517 31.1596 21.5755 31.1596 21.8517V23.4945C31.1596 24.5991 30.2642 25.4945 29.1596 25.4945H7.38184C6.27727 25.4945 5.38184 24.5991 5.38184 23.4945Z" fill="#E69900"/>
</g>
<defs>
<filter id="filter0_d_6882_121" x="0.0546875" y="2.42242" width="36.833" height="29.0721" filterUnits="userSpaceOnUse" color-interpolation-filters="sRGB">
<feFlood flood-opacity="0" result="BackgroundImageFix"/>
<feColorMatrix in="SourceAlpha" type="matrix" values="0 0 0 0 0 0 0 0 0 0 0 0 0 0 0 0 0 0 127 0" result="hardAlpha"/>
<feOffset dy="2"/>
<feGaussianBlur stdDeviation="2"/>
<feComposite in2="hardAlpha" operator="out"/>
<feColorMatrix type="matrix" values="0 0 0 0 0.901961 0 0 0 0 0.6 0 0 0 0 0 0 0 0 0.3 0"/>
<feBlend mode="normal" in2="BackgroundImageFix" result="effect1_dropShadow_6882_121"/>
<feBlend mode="normal" in="SourceGraphic" in2="effect1_dropShadow_6882_121" result="shape"/>
</filter>
</defs>
</svg>
