<svg xmlns="http://www.w3.org/2000/svg" width="52.017" height="61.397" viewBox="0 0 52.017 61.397"><g transform="translate(-17.542 -14.206)"><g transform="translate(18.354 14.98)"><circle cx="20.034" cy="20.034" r="20.034" fill="#f0457d"/><circle cx="13.631" cy="13.631" r="13.631" transform="translate(6.316 6.324)" fill="#ffd44d"/><path d="M0,0H8.131V15.058A3.645,3.645,0,0,1,4.486,18.7h-.84A3.646,3.646,0,0,1,0,15.058V0Z" transform="translate(32.71 44.454) rotate(-35.83)" fill="#0099f5"/></g><g transform="translate(18.331 14.98)"><path d="M56.679,43.193a20.042,20.042,0,1,1,1.656-6.34" transform="translate(-18.331 -14.98)" fill="none" stroke="#231f20" stroke-linejoin="round" stroke-width="1.5"/><path d="M51.158,28.634a13.7,13.7,0,1,1-6.1-4.755" transform="translate(-19.989 -16.628)" fill="none" stroke="#231f20" stroke-linejoin="round" stroke-width="1.5"/><path d="M.024,0H8.163V15.058A3.645,3.645,0,0,1,4.517,18.7H3.646A3.645,3.645,0,0,1,0,15.058V0Z" transform="translate(32.614 44.411) rotate(-35.83)" fill="none" stroke="#231f20" stroke-linejoin="round" stroke-width="1.5"/><line x2="3.963" y2="5.5" transform="translate(31.787 36.273)" fill="none" stroke="#231f20" stroke-linejoin="round" stroke-width="1.5"/><line y2="4.858" transform="translate(19.97 9.407)" fill="none" stroke="#fff" stroke-linejoin="round" stroke-width="1.5"/><line y2="4.858" transform="translate(19.97 25.542)" fill="none" stroke="#fff" stroke-linejoin="round" stroke-width="1.5"/><line x1="4.858" transform="translate(25.613 19.907)" fill="none" stroke="#fff" stroke-linejoin="round" stroke-width="1.5"/><line x1="4.858" transform="translate(9.478 19.907)" fill="none" stroke="#fff" stroke-linejoin="round" stroke-width="1.5"/><circle cx="2.615" cy="2.615" r="2.615" transform="translate(17.355 17.34)" fill="#ff9515"/><circle cx="8.068" cy="8.068" r="8.068" transform="translate(11.903 12.109)" fill="none" stroke="#fff" stroke-linejoin="round" stroke-width="1.5"/></g></g></svg>