<svg xmlns="http://www.w3.org/2000/svg" width="38.108" height="38.103" viewBox="0 0 38.108 38.103">
  <g id="plan-free" transform="translate(0.403 0.4)">
    <path id="Path_4301" data-name="Path 4301" d="M214.7,0h.287a10.292,10.292,0,0,1,3.176.583A9.851,9.851,0,1,1,214.7,0m-.793,1.3a8.719,8.719,0,1,0,6.7,2.15,8.719,8.719,0,0,0-6.7-2.15Z" transform="translate(-189.966)" fill="#484848" stroke="#484848" stroke-width="0.8"/>
    <path id="Path_4303" data-name="Path 4303" d="M0,273.615a.647.647,0,0,1,.654-.571c1.164-.012,2.33,0,3.494-.005a2.075,2.075,0,0,1,1.226.313A1.909,1.909,0,0,1,6.218,275q0,6.777,0,13.553a1.9,1.9,0,0,1-1.752,1.893H.582a.66.66,0,0,1-.582-.6v-.06a.692.692,0,0,1,.263-.455,1.017,1.017,0,0,1,.608-.125H4.156a.834.834,0,0,0,.622-.182.707.707,0,0,0,.2-.542q0-6.667,0-13.335a.917.917,0,0,0-.166-.656.73.73,0,0,0-.576-.211c-1.194-.005-2.387.008-3.58-.005a.648.648,0,0,1-.653-.56Z" transform="translate(0 -253.143)" fill="#484848" stroke="#484848" stroke-width="0.8"/>
    <path id="Path_4304" data-name="Path 4304" d="M103.044,307.167c1.355-.026,2.71,0,4.065-.01a6.784,6.784,0,0,1,1.557.086,5.522,5.522,0,0,1,1.677.827,45.417,45.417,0,0,0,3.861,2.619,1.745,1.745,0,0,0,.776.2c1.234.005,2.469-.005,3.7,0a3.4,3.4,0,0,1,2.248.795.615.615,0,0,1-.837.9,2.4,2.4,0,0,0-1.473-.455h-3.643a4.2,4.2,0,0,1-2.243-.847c-1.153-.726-2.182-1.633-3.34-2.351a3.19,3.19,0,0,0-1.34-.528c-1.65-.012-3.3.007-4.953-.009a.615.615,0,0,1-.058-1.228Z" transform="translate(-95.012 -284.772)" fill="#484848" stroke="#484848" stroke-width="0.8"/>
    <path id="Path_4305" data-name="Path 4305" d="M128.691,341.645a2.541,2.541,0,0,1,1.051-.3,2.5,2.5,0,0,1,2.2,1.12,2.623,2.623,0,0,1,.418,1.493v.047a2.784,2.784,0,0,1-.479,1.276,3.516,3.516,0,0,1-1.12.92q-3.865,2.4-7.729,4.811a10.151,10.151,0,0,1-4.012,1.324,14.969,14.969,0,0,1-4.58.018,21.152,21.152,0,0,1-2.89-.788,35.232,35.232,0,0,1-4.707-2.079,5.83,5.83,0,0,0-1.892-.544,10.1,10.1,0,0,0-1.6-.134.928.928,0,0,1-.624-.169.618.618,0,0,1-.02-.9.919.919,0,0,1,.718-.173,10.094,10.094,0,0,1,3.762.708,37.2,37.2,0,0,0,4.631,2.07,14.146,14.146,0,0,0,4.36.944,15.073,15.073,0,0,0,5.171-.8,8.773,8.773,0,0,0,1.589-.876q3.792-2.364,7.585-4.725a1.239,1.239,0,0,0-1.2-2.163q-3.215,1.563-6.427,3.13c-.446.214-.883.444-1.344.626a6.559,6.559,0,0,1-2.018.4c-1.212.076-2.428.077-3.642.039-1.657-.088-3.3-.3-4.945-.539-.289-.05-.643-.043-.837-.3a.622.622,0,0,1,.168-.9,1.272,1.272,0,0,1,.817-.033q2.026.313,4.072.485c1.092.092,2.187.074,3.281.061a11.13,11.13,0,0,0,2.111-.2,5.529,5.529,0,0,0,1.211-.466Q125.232,343.327,128.691,341.645Z" transform="translate(-95.056 -316.47)" fill="#484848" stroke="#484848" stroke-width="0.8"/>
    <path id="Path_4306" data-name="Path 4306" d="M17.694,443.789a.928.928,0,1,1,.334,1.8.952.952,0,0,1-.936-.968.967.967,0,0,1,.6-.832Z" transform="translate(-15.845 -411.391)" fill="#484848" stroke="#484848" stroke-width="0.8"/>
    <g id="favorite" transform="translate(18.029 4.071)">
      <path id="Path_4307" data-name="Path 4307" d="M0,0H13.958V13.958H0Z" fill="none"/>
      <path id="Path_4308" data-name="Path 4308" d="M8.6,12.962a1.161,1.161,0,0,1-1.564-.006L6.971,12.9C3.918,10.136,1.923,8.327,2,6.071a3.175,3.175,0,0,1,1.361-2.5,3.37,3.37,0,0,1,4.455.64,3.364,3.364,0,0,1,4.455-.64,3.175,3.175,0,0,1,1.361,2.5c.081,2.257-1.919,4.065-4.973,6.839l-.058.052Z" transform="translate(-0.835 -1.255)" fill="#484848"/>
    </g>
  </g>
</svg>
