<svg xmlns="http://www.w3.org/2000/svg" xmlns:xlink="http://www.w3.org/1999/xlink" width="442.892" height="317.099" viewBox="0 0 442.892 317.099"><defs><linearGradient id="a" x1="0.874" y1="-0.014" x2="0.333" y2="0.662" gradientUnits="objectBoundingBox"><stop offset="0" stop-color="#d4a397"/><stop offset="1" stop-color="#fff"/></linearGradient><linearGradient id="b" x1="1.023" y1="-0.329" x2="0.285" y2="0.729" xlink:href="#a"/><linearGradient id="c" x1="1.023" y1="-0.373" x2="0.285" y2="0.72" xlink:href="#a"/></defs><g transform="translate(-7.056 -16.1)"><g transform="translate(7.056 16.1)"><path d="M221.937,322.427,15.668,200.516c-6.565-3.684-12.2-9.744-5.8-13.7L216.887,67.449c3.11-1.928,7.827-3.191,10.984-1.354L444.4,191.816c6.565,3.81,7.747,14.461,1.148,18.283L249.161,322.232A27.431,27.431,0,0,1,221.937,322.427Z" transform="translate(-7.056 -8.846)" fill="#ff9f9f"/><path d="M224.368,169.57,202.63,191.377s61.311,46.827,72.777,51.647l39.941-24.5" transform="translate(21.834 6.571)" fill="url(#a)"/><path d="M73.991,167.12,37,185.943s11.6,12.166,23.069,16.986l39.964-24.469" transform="translate(-2.633 6.209)" fill="url(#b)"/><path d="M235.264,16.49l-7.644,3.386,7.357,3.237,1.768-3.8" transform="translate(25.525 -16.042)" fill="#ef7f6c"/><path d="M304.594,241.444,241,204.384a16.952,16.952,0,0,1-8.424-14.645L230.52,21.4c0-4.419,6.886-6.668,10.662-4.419l65.8,38.862a10.9,10.9,0,0,1,5.36,9.388V236.99a5.153,5.153,0,0,1-7.747,4.453Z" transform="translate(25.954 -16.1)" fill="#ef7f6c"/><path d="M300.571,212.795l-8.321,4.4.964-5.8,5.773-1.044" transform="translate(35.073 12.595)" fill="#ef7f6c"/><path d="M297.379,245.228l-63.6-37.06a16.952,16.952,0,0,1-8.424-14.645V23.58a4.5,4.5,0,0,1,6.794-3.879L299.767,59.63a10.9,10.9,0,0,1,5.36,9.388V240.775a5.153,5.153,0,0,1-7.747,4.453Z" transform="translate(25.191 -15.661)" fill="#f4f4f4"/><path d="M300.666,76.967,228.21,35.42V184.1l72.456,41.88Z" transform="translate(25.612 -13.246)" fill="#68e1fd"/><ellipse cx="3.34" cy="4.511" rx="3.34" ry="4.511" transform="translate(279.02 194.338) rotate(-13.43)" fill="#bababc"/><path d="M251.54,41.859h0a1.618,1.618,0,0,0,.815,1.4l14,8.034a1.618,1.618,0,0,0,2.422-1.4v-.344a1.618,1.618,0,0,0-.838-1.412l-14-7.7a1.618,1.618,0,0,0-2.4,1.423Z" transform="translate(29.059 -12.534)" fill="#ccc"/><ellipse cx="1.589" cy="2.164" rx="1.589" ry="2.164" transform="matrix(0.937, -0.349, 0.349, 0.937, 272.657, 22.83)" fill="#ccc"/><path d="M209.124,224.83,176.46,242.493s11.6,12.166,23.069,16.986l39.941-24.5" transform="translate(17.968 14.734)" fill="url(#c)"/><path d="M226.007,220.143a48.546,48.546,0,0,1,.7,7.07c-.172,1.641-3.856,6.358-5.509,7.024s-3.753,1.148-2.755,3.719,10.926-1.745,11.741-2.387,1.7-7,2-6.726.161,7.2,1.148,7.058,0-17.411,0-17.411" transform="translate(24.132 13.798)" fill="#ff831d"/><path d="M208.98,214.066a48.553,48.553,0,0,1-.4,7.093c-.425,1.584-4.786,5.681-6.531,6.083s-3.891.585-3.305,3.248,11.064,0,11.959-.539,2.766-6.657,3.019-6.335-.964,7.139,0,7.15,2.674-17.216,2.674-17.216" transform="translate(21.245 13.068)" fill="#ff831d"/><path d="M225.37,222.539l.287,4.155a12.866,12.866,0,0,0,6.886-2.743V222" transform="translate(25.193 14.316)" fill="#d17213"/><path d="M207.6,216l-.184,4.155a12.866,12.866,0,0,0,7.139-1.963l.218-1.963" transform="translate(22.541 13.43)" fill="#d17213"/><path d="M189.02,106.53s-7.07-8.975-8.769-8.906-1.079,1.79-1.079,1.79-4.522-3.443-7.058-1.056c0,0-2.3-1.148-2.869,0a2,2,0,0,0,.413,2.112s-1.366,1.148-.9,1.871a1.469,1.469,0,0,0,1.228.735s-.826.448-.62,1.148,8.034,6.886,19.029,7.116" transform="translate(16.816 -4.073)" fill="#f7931e"/><path d="M180.387,107.7h-.126a4.246,4.246,0,0,1-.551-1.217,5.6,5.6,0,0,1-.3-1.423,5.842,5.842,0,0,1,.5-2.846.2.2,0,0,0,0-.218,16.309,16.309,0,0,1-2.2-3.34c-.1-.207-.413,0-.31.184a16.159,16.159,0,0,0,1.664,2.686c.379.494.482.6.3,1.148a5.91,5.91,0,0,0-.264,1.251,6.152,6.152,0,0,0,.344,2.743c.149.39.413,1.32.872,1.412a.184.184,0,0,0,.218-.126h0a.184.184,0,0,0-.149-.252Z" transform="translate(18.104 -3.918)" fill="#42210b"/><path d="M178.469,100.963,171.835,98c-.207-.092-.39.218-.184.31l6.622,2.915C178.492,101.365,178.676,101.055,178.469,100.963Z" transform="translate(17.244 -4.004)" fill="#42210b"/><path d="M177.431,102.314a22.163,22.163,0,0,1-7.736-2.422c-.207-.1-.39.207-.184.31a22.656,22.656,0,0,0,7.908,2.479C177.649,102.728,177.649,102.314,177.431,102.314Z" transform="translate(16.928 -3.725)" fill="#42210b"/><path d="M176.847,104.047a31.654,31.654,0,0,1-7.3-1.905c-.218-.08-.31.264-.092.344a31.655,31.655,0,0,0,7.3,1.905C176.985,104.414,177.077,104.07,176.847,104.047Z" transform="translate(16.915 -3.391)" fill="#42210b"/><path d="M209.719,134.32s-9.744,56.032-9.549,91.45c0,0,12.625,6.14,20.143,2.227,0,0,2.892-83.967,6.37-89.867" transform="translate(21.47 1.364)" fill="#5e331f"/><path d="M216.28,137.325s2.582,76.014,3.007,96.718c0,0,17.078,4.12,18.949-.585s-6.5-97.648-6.5-97.648" transform="translate(23.85 1.584)" fill="#5e331f"/><path d="M236.274,233.731c4.935-10.444,3.879-27.545,2.41-36.1s-.516-17.067-.287-30.988-6.519-28.8-6.519-28.8l-4.958.861" transform="translate(25.422 1.885)" fill="#5e331f"/><path d="M220.29,145.077c4.878,1.228,10.329,2.238,14.84-.413,7.506-31.654,2.009-41.467-10.961-45.209a11.741,11.741,0,0,0-12.981,5.452,314.89,314.89,0,0,0-2.709,35.717c0,.62,4.327,2.146,4.924,2.387a47.991,47.991,0,0,0,5.371,1.687Z" transform="translate(22.698 -3.838)" fill="#ffa197"/><path d="M216.679,102.42s-9.641,13.692-29.324.241c0,0-6.76,8.206-5.67,9.457s22.185,17.365,32.262,8.654" transform="translate(18.722 -3.348)" fill="#ffa197"/><path d="M219.083,154.043a.4.4,0,0,0-.792,0q-1.01,39.114.551,78.229c0,.505.815.516.792,0Q218.016,193.146,219.083,154.043Z" transform="translate(24.089 4.228)" fill="#fff"/><path d="M213.064,120.519c-.585-.207-9.4-2.479-9.4-2.479l-1.044,11.89,11.592,4.132" transform="translate(21.832 -1.041)" fill="#ffa197"/><path d="M217.155,100.3h0s-.746,6.772,4.419,4.763a43.086,43.086,0,0,0,6.3-3.053V97.94" transform="translate(23.974 -4.01)" fill="#cc6c62"/><path d="M214.38,87.648s-2.491,13.52,3.179,15.712,10.892-8.034,10.892-11.179C228.451,85.651,221.967,86.214,214.38,87.648Z" transform="translate(23.489 -5.666)" fill="#f7931e"/><path d="M247.076,122.82a4.315,4.315,0,0,0-1.021-2.3c-1.148-1.343-3.03-1.917-4.04-3.443-1.641-2.445,1.01-4.591,1.205-7.013.367-4.453-5.383-4.981-7.885-7.185a8.574,8.574,0,0,1-2.3-4.453c-1.435-5.142-1.733-11.477-6.749-14.633a10.846,10.846,0,0,0-5.211-1.389,9.951,9.951,0,0,0-6.267,1.331,6.622,6.622,0,0,0-2.812,4.9c-.092,1.4.344,3.627,2.054,3.833,1.148.138,1.687-.735,2.4-1.423s1.274-1.779,2.077-2.525a3.673,3.673,0,0,1,1.894-.987c2.858-.448.275,4.683.23,5.739a2.467,2.467,0,0,0,.482,1.653,3.282,3.282,0,0,0,1.733.964c1.366.379,3.742,1.079,2.915,3.03a35.476,35.476,0,0,1-2.123,2.961,5.911,5.911,0,0,0,.23,6.817,14.451,14.451,0,0,0,2.709,2.456,4.775,4.775,0,0,1,2.043,3.191c0,.08,0,.161,0,.23-.264,2.089-1.148,4.74-1.056,7.07a4.166,4.166,0,0,0,.6,2.4,7.369,7.369,0,0,0,1.733,2.2,11.6,11.6,0,0,0,11.041,2.3c1.882-.562,4.04-1.274,5.325-2.858A3.833,3.833,0,0,0,247.076,122.82ZM242.485,110.2a4.692,4.692,0,0,0,0-.872,4.162,4.162,0,0,0-.138-.643,3.2,3.2,0,0,1,.184,1.458Z" transform="translate(23.216 -6.315)" fill="#5e331f"/><ellipse cx="1.928" cy="2.227" rx="1.928" ry="2.227" transform="translate(235.838 87.307)" fill="none" stroke="#42210b" stroke-miterlimit="10" stroke-width="1"/><ellipse cx="1.928" cy="2.227" rx="1.928" ry="2.227" transform="translate(241.416 87.732)" fill="none" stroke="#42210b" stroke-miterlimit="10" stroke-width="1"/><path d="M217.83,94.15c0-.207-.3-.275-.471-.333a1.629,1.629,0,0,0-.425-.069l.115-.551c0-.218-.287-.31-.333-.092s-.092.448-.149.677h0c-.241.069-.941.471-.631.78a.172.172,0,0,0,.287-.172.6.6,0,0,1,.31-.241c-.069.264-.138.528-.218.792-.207.677-.631,1.354-.78,2.02s.252.677.735.8a.173.173,0,1,0,.092-.333c-.585-.149-.448-.471-.253-.918a10.443,10.443,0,0,0,.39-1.033c.115-.344.287-.93.4-1.412a1.229,1.229,0,0,1,.3,0,1.378,1.378,0,0,1,.321.1.149.149,0,0,0,.207.149h0a.172.172,0,0,0,.1-.172Z" transform="translate(23.735 -4.743)" fill="#42210b"/><path d="M219.594,97.427a2.732,2.732,0,0,1-2.112.884.172.172,0,0,0,0,.344,3.064,3.064,0,0,0,2.353-.987C219.984,97.507,219.743,97.266,219.594,97.427Z" transform="translate(24.002 -4.094)" fill="#42210b"/><path d="M208.48,130.6s20.188,7.047,29.106-2.663l-1.446,7.942a27.408,27.408,0,0,1-27.66-5.28Z" transform="translate(22.698 0.421)" fill="#cc6c62"/><path d="M225.445,117.878c-2.72,2.181-6.7,2.043-10.008,2a52.429,52.429,0,0,1-10.961-1.354c-.746-.172-1.067.976-.321,1.148a53.669,53.669,0,0,0,12.786,1.4c3.283,0,6.691-.218,9.354-2.3C226.891,118.245,226.042,117.407,225.445,117.878Z" transform="translate(21.996 -1.085)" fill="#606060"/><path d="M209.6,111.174l-.608,9.377a.574.574,0,1,0,1.148,0l.608-9.377C210.849,110.4,209.656,110.416,209.6,111.174Z" transform="translate(22.773 -2.14)" fill="#cc6c62"/><path d="M219.206,123.378c-4.591-19.2-20.074-32.228-35.729-30.8h-.551a96.407,96.407,0,0,0-13.428,2.3h5.2c-13.566,6.473-20.8,24.389-16.412,42.856,4.029,16.94,16.573,29.083,30.231,30.724l-3.546,1.722s9.974-1.148,13.463-2.422h.1C214.81,163.331,224.038,143.682,219.206,123.378Z" transform="translate(15.094 -4.819)" fill="#68e1fd"/><path d="M219.206,123.378c-4.591-19.2-20.074-32.228-35.729-30.8h-.551a96.407,96.407,0,0,0-13.428,2.3h5.2c-13.566,6.473-20.8,24.389-16.412,42.856,4.029,16.94,16.573,29.083,30.231,30.724l-3.546,1.722s9.974-1.148,13.463-2.422h.1C214.81,163.331,224.038,143.682,219.206,123.378Z" transform="translate(15.094 -4.819)" opacity="0.44"/><ellipse cx="31.298" cy="38.495" rx="31.298" ry="38.495" transform="translate(154.153 97.359) rotate(-13.36)" fill="#68e1fd"/><path d="M183.565,161.857l-.379.057c-6.7,1.021-13.463-1.3-19.041-6.519a35.246,35.246,0,0,1-10.329-20.51c-2.571-16.975,6.4-32.446,20.062-34.535,6.7-1.021,13.463,1.3,19.041,6.519a35.235,35.235,0,0,1,10.329,20.51C205.808,144.2,196.994,159.573,183.565,161.857Zm-9.4-57.386c-11.236,1.917-18.559,15.219-16.332,29.841a31.149,31.149,0,0,0,9.113,18.145c4.591,4.35,10.2,6.289,15.643,5.463h.3C194.124,156,201.447,142.7,199.22,128.079h0a31.149,31.149,0,0,0-9.113-18.145c-4.591-4.35-10.2-6.29-15.643-5.463Z" transform="translate(14.558 -3.689)" fill="#68e1fd"/><path d="M180.386,146.991h-.23c-8.034,1.217-15.827-5.842-17.331-15.747a20.452,20.452,0,0,1,2.227-13.153,13.577,13.577,0,0,1,9.664-7.024c8.034-1.217,15.827,5.842,17.331,15.747a20.452,20.452,0,0,1-2.227,13.153A13.52,13.52,0,0,1,180.386,146.991Zm-5.222-31.826a9.526,9.526,0,0,0-6.576,4.993,16.355,16.355,0,0,0-1.733,10.513c1.148,7.678,6.886,13.2,12.625,12.315a9.48,9.48,0,0,0,6.726-5,16.355,16.355,0,0,0,1.733-10.513c-1.148-7.678-6.886-13.2-12.625-12.315Z" transform="translate(15.913 -2.091)" fill="#68e1fd"/><ellipse cx="4.43" cy="5.67" rx="4.43" ry="5.67" transform="translate(188.201 122.439) rotate(-8.62)" fill="#68e1fd"/><g transform="translate(167.935 96.425)" opacity="0.27"><path d="M183.565,161.857l-.379.057c-6.7,1.021-13.463-1.3-19.041-6.519a35.246,35.246,0,0,1-10.329-20.51c-2.571-16.975,6.4-32.446,20.062-34.535,6.7-1.021,13.463,1.3,19.041,6.519a35.235,35.235,0,0,1,10.329,20.51C205.808,144.2,196.994,159.573,183.565,161.857Zm-9.4-57.386c-11.236,1.917-18.559,15.219-16.332,29.841a31.149,31.149,0,0,0,9.113,18.145c4.591,4.35,10.2,6.289,15.643,5.463h.3C194.124,156,201.447,142.7,199.22,128.079h0a31.149,31.149,0,0,0-9.113-18.145c-4.591-4.35-10.2-6.29-15.643-5.463Z" transform="translate(-153.377 -100.114)"/><path d="M180.386,146.991h-.23c-8.034,1.217-15.827-5.842-17.331-15.747a20.452,20.452,0,0,1,2.227-13.153,13.577,13.577,0,0,1,9.664-7.024c8.034-1.217,15.827,5.842,17.331,15.747a20.452,20.452,0,0,1-2.227,13.153A13.52,13.52,0,0,1,180.386,146.991Zm-5.222-31.826a9.526,9.526,0,0,0-6.576,4.993,16.355,16.355,0,0,0-1.733,10.513c1.148,7.678,6.886,13.2,12.625,12.315a9.48,9.48,0,0,0,6.726-5,16.355,16.355,0,0,0,1.733-10.513c-1.148-7.678-6.886-13.2-12.625-12.315Z" transform="translate(-152.022 -98.517)"/><ellipse cx="4.43" cy="5.67" rx="4.43" ry="5.67" transform="translate(20.265 26.013) rotate(-8.62)"/></g><path d="M214.131,124.768s-2.8-2.066-3.26-2.3,1.079-5.739-2.743-6.7l.735,3.833s-7.254-.78-8.642-.172-.78,2.617-.78,2.617-2.181.057-1.825,1.561a2.031,2.031,0,0,0,1.6,1.607s-1.653,1.251-.7,2.3l.953,1.044a3.994,3.994,0,0,0,.861,2.169c.78.872,9.583-1.021,9.583-1.021l3.719,2.858Z" transform="translate(21.087 -1.376)" fill="#f7931e"/><path d="M206.519,121.078a46.15,46.15,0,0,1-7.414-.138.2.2,0,0,0,0,.4,46.149,46.149,0,0,0,7.414.138C206.771,121.456,206.771,121.009,206.519,121.078Z" transform="translate(21.285 -0.613)" fill="#42210b"/><path d="M206.916,123.361a35.109,35.109,0,0,1-8.16.838.2.2,0,1,0,0,.4,35.579,35.579,0,0,0,8.275-.849C207.283,123.694,207.169,123.3,206.916,123.361Z" transform="translate(21.232 -0.256)" fill="#42210b"/><path d="M206.456,125.78a40.778,40.778,0,0,1-7.231,1.148.2.2,0,0,0,0,.4,41.226,41.226,0,0,0,7.345-1.148C206.812,126.113,206.7,125.735,206.456,125.78Z" transform="translate(21.301 0.102)" fill="#42210b"/><path d="M162.57,124.33l16.481.826-2.881,16.791-2.709-13.141Z" transform="translate(15.916 -0.112)" fill="#754c24"/><path d="M182.488,126.418l-55,38.908-.93-1.767,55.928-38.678" transform="translate(10.597 -0.031)" fill="#754c24"/><path d="M141.26,151.568l-8.8-.608L115.23,161.416l10.548.723-2.3,10.18,15.219-12.3Z" transform="translate(8.923 3.822)" fill="#754c24"/><path d="M333.035,116.9v55.446a3.1,3.1,0,0,1-4.591,2.686L251.1,130.649a3.1,3.1,0,0,1-1.549-2.686V71.725a3.1,3.1,0,0,1,4.591-2.686l76.679,44.13a4.315,4.315,0,0,1,2.215,3.73Z" transform="translate(28.765 -8.336)" fill="#edb033"/><path d="M321.071,114.81v48.767L256.81,126.62V77.83Z" transform="translate(29.837 -6.981)" fill="#fff"/><path d="M321.061,160.436l-15.379-34.041a6.978,6.978,0,0,0-9.182-3.5l-7.552,3.363-14.714-24.814a4.809,4.809,0,0,0-7.024-1.389l-10.33,7.8v15.62Z" transform="translate(29.848 -3.84)" fill="#27d9d3"/><path d="M174.818,72.079,147.789,56.47a4.086,4.086,0,0,0-6.129,3.535V77.531a4.086,4.086,0,0,0,2.008,3.524l27.075,15.9a4.086,4.086,0,0,0,6.163-3.524V75.591a4.086,4.086,0,0,0-2.089-3.512Z" transform="translate(12.827 -10.217)" fill="#f24c4c"/><path d="M159.943,86.75l-4.889,5.876L151.06,81.39" transform="translate(14.216 -6.455)" fill="#f24c4c"/><path d="M157.793,73.655s3.305-5.348,6.565-1.3c1.871,2.3-1.526,9.377-6.393,10.111-4.407.666-10.6-14.438-4.43-14.6C157.54,67.755,157.793,73.655,157.793,73.655Z" transform="translate(14.197 -8.452)" fill="#fff"/><path d="M215.343,51.557,188.349,35.97a4.086,4.086,0,0,0-6.129,3.558v17.5a4.086,4.086,0,0,0,2.043,3.524l26.994,15.9a4.086,4.086,0,0,0,6.163-3.524V55.091a4.086,4.086,0,0,0-2.077-3.535Z" transform="translate(18.819 -13.245)" fill="#f24c4c"/><path d="M200.462,66.26l-4.878,5.865L191.59,60.9" transform="translate(20.203 -9.482)" fill="#f24c4c"/><path d="M198.323,53.165s3.305-5.348,6.565-1.3c1.871,2.3-1.526,9.377-6.393,10.111-4.407.666-10.6-14.438-4.43-14.6C198.07,47.265,198.323,53.165,198.323,53.165Z" transform="translate(20.185 -11.479)" fill="#fff"/><path d="M235.123,148.005,208.129,132.43A4.086,4.086,0,0,0,202,135.965v17.526a4.086,4.086,0,0,0,2.008,3.524L231,172.911a4.086,4.086,0,0,0,6.163-3.524V151.529A4.086,4.086,0,0,0,235.123,148.005Z" transform="translate(21.741 1.004)" fill="#f24c4c"/><path d="M220.243,162.71l-4.889,5.876L211.36,157.35" transform="translate(23.123 4.766)" fill="#f24c4c"/><path d="M226.949,156.462a1.756,1.756,0,0,0,.482-1.148,2.043,2.043,0,0,0-.93-1.7,1.561,1.561,0,0,0-.356-1.813,12.1,12.1,0,0,0-4.074-2.192,1.24,1.24,0,0,1-.3-.241,18.111,18.111,0,0,0,.631-5.417,2.353,2.353,0,0,0-2.41-2.5s-.471,4.028-1.285,5.28a2.215,2.215,0,0,1-2.64,1.148c-.539-.218-4.74-2.146-6.439-2.927v8.034L216.941,157c.069,1.366,3.8,2.686,5.98,3.248a1.148,1.148,0,0,0,.516.356,3.845,3.845,0,0,0,2.3.1,1.4,1.4,0,0,0,.884-1.285,1.458,1.458,0,0,0,.872-.976,1.894,1.894,0,0,0-.539-1.986Z" transform="translate(22.868 2.417)" fill="#fff"/><path d="M209.3,143.68l4.292,1.963V155.72l-4.292-2.41Z" transform="translate(22.819 2.747)" fill="#e2d1cf"/><ellipse cx="18.513" cy="13.038" rx="18.513" ry="13.038" transform="translate(66.824 162.839)" fill="#68e1fd"/><ellipse cx="13.864" cy="5.681" rx="13.864" ry="5.681" transform="translate(71.484 162.495)" fill="#974c26"/><path d="M82.272,168.886c1.148-1.526,2.181-3.133,3.328-4.935,1.469-2.3,2.846-4.648,4.1-7.07a46.713,46.713,0,0,0,3-6.7,55.938,55.938,0,0,0,2.192-7.678q.207-1.033.379-2.066c0-.321.057-.287.057-.241v-.6c.126-1.4.218-2.8.23-4.212A35.4,35.4,0,0,0,92.8,121.21,61.116,61.116,0,0,0,82.9,145.415q-.149.78-.275,1.561s-.138.953-.2,1.331l-.092,1.354q-.1.987-.184,1.986c-.207,2.548-.3,5.119-.287,7.678C81.87,162.494,82.019,165.73,82.272,168.886Zm5.9-38.265q.5-.574,1.033-1.148h0a2.3,2.3,0,0,0-.069,1,3.179,3.179,0,0,0-.964.149Z" transform="translate(3.995 -0.573)" fill="#999a1c"/><path d="M84.7,168.909c.092-1.871.138-3.822.138-5.945,0-2.72-.126-5.452-.379-8.16a46.714,46.714,0,0,0-1.148-7.254,55.939,55.939,0,0,0-2.3-7.644c-.253-.654-.516-1.3-.792-1.94-.126-.3-.1-.275-.08-.23l-.287-.528c-.654-1.24-1.331-2.479-2.077-3.661A35.4,35.4,0,0,0,67.844,123a61.116,61.116,0,0,0,4.775,25.755q.3.735.608,1.458l.551,1.228.585,1.148q.448.9.918,1.767c1.205,2.3,2.514,4.465,3.9,6.611C80.905,163.7,82.765,166.3,84.7,168.909ZM68.98,133.536q.115-.758.275-1.5h0a2.3,2.3,0,0,0,.482.872,3.18,3.18,0,0,0-.757.574Z" transform="translate(1.918 -0.308)" fill="#999a1c"/><path d="M85.684,166.293c-.551-1.044-1.148-2.112-1.848-3.26-.884-1.469-1.825-2.9-2.835-4.281a29.379,29.379,0,0,0-2.938-3.558,35.179,35.179,0,0,0-3.719-3.386l-1.056-.792c-.161-.115-.138-.115-.115-.1l-.321-.2c-.757-.459-1.515-.907-2.3-1.308A22.255,22.255,0,0,0,61.8,147a38.437,38.437,0,0,0,10.869,12.338l.8.585.689.482.7.448,1.067.654q2.077,1.24,4.247,2.3C81.965,164.732,83.836,165.536,85.684,166.293ZM65.771,152.268q-.184-.448-.333-.9h0a1.446,1.446,0,0,0,.539.31A2,2,0,0,0,65.771,152.268Z" transform="translate(1.03 3.237)" fill="#999a1c"/><path d="M82.272,168.886c1.148-1.526,2.181-3.133,3.328-4.935,1.469-2.3,2.846-4.648,4.1-7.07a46.713,46.713,0,0,0,3-6.7,55.938,55.938,0,0,0,2.192-7.678q.207-1.033.379-2.066c0-.321.057-.287.057-.241v-.6c.126-1.4.218-2.8.23-4.212A35.4,35.4,0,0,0,92.8,121.21,61.116,61.116,0,0,0,82.9,145.415q-.149.78-.275,1.561s-.138.953-.2,1.331l-.092,1.354q-.1.987-.184,1.986c-.207,2.548-.3,5.119-.287,7.678C81.87,162.494,82.019,165.73,82.272,168.886Zm5.9-38.265q.5-.574,1.033-1.148h0a2.3,2.3,0,0,0-.069,1,3.179,3.179,0,0,0-.964.149Z" transform="translate(3.995 -0.573)" fill="#999a1c"/><path d="M84.7,168.909c.092-1.871.138-3.822.138-5.945,0-2.72-.126-5.452-.379-8.16a46.714,46.714,0,0,0-1.148-7.254,55.939,55.939,0,0,0-2.3-7.644c-.253-.654-.516-1.3-.792-1.94-.126-.3-.1-.275-.08-.23l-.287-.528c-.654-1.24-1.331-2.479-2.077-3.661A35.4,35.4,0,0,0,67.844,123a61.116,61.116,0,0,0,4.775,25.755q.3.735.608,1.458l.551,1.228.585,1.148q.448.9.918,1.767c1.205,2.3,2.514,4.465,3.9,6.611C80.905,163.7,82.765,166.3,84.7,168.909ZM68.98,133.536q.115-.758.275-1.5h0a2.3,2.3,0,0,0,.482.872,3.18,3.18,0,0,0-.757.574Z" transform="translate(1.918 -0.308)" fill="#999a1c"/><path d="M85.684,166.293c-.551-1.044-1.148-2.112-1.848-3.26-.884-1.469-1.825-2.9-2.835-4.281a29.379,29.379,0,0,0-2.938-3.558,35.179,35.179,0,0,0-3.719-3.386l-1.056-.792c-.161-.115-.138-.115-.115-.1l-.321-.2c-.757-.459-1.515-.907-2.3-1.308A22.255,22.255,0,0,0,61.8,147a38.437,38.437,0,0,0,10.869,12.338l.8.585.689.482.7.448,1.067.654q2.077,1.24,4.247,2.3C81.965,164.732,83.836,165.536,85.684,166.293ZM65.771,152.268q-.184-.448-.333-.9h0a1.446,1.446,0,0,0,.539.31A2,2,0,0,0,65.771,152.268Z" transform="translate(1.03 3.237)" fill="#999a1c"/></g></g></svg>