<svg xmlns="http://www.w3.org/2000/svg" xmlns:xlink="http://www.w3.org/1999/xlink" width="89" height="39" viewBox="0 0 89 39"><defs><radialGradient id="a" cx="0.696" cy="0.5" r="0.657" gradientTransform="matrix(-0.702, -0.712, 0.699, -0.689, 0.853, 1.322)" gradientUnits="objectBoundingBox"><stop offset="0" stop-color="#f0457d" stop-opacity="0.651"/><stop offset="1" stop-color="#ffd44d" stop-opacity="0.149"/></radialGradient></defs><g transform="translate(-1066 -1076)"><rect width="89" height="39" rx="8" transform="translate(1066 1076)" fill="url(#a)"/><g transform="translate(1074.304 1083.686)"><g transform="translate(39.528 0)"><path d="M43.422,27.58h7.408a1.1,1.1,0,0,1,.818.353,1.185,1.185,0,0,1,.328.842v.789a1.148,1.148,0,0,1-.329.827,1.126,1.126,0,0,1-.818.336H44.209a.763.763,0,0,0-.561.224.777.777,0,0,0-.226.565v5.525a.777.777,0,0,0,.224.568.763.763,0,0,0,.563.226h3.649a1.136,1.136,0,0,1,.813.338,1.158,1.158,0,0,1,.334.82v.795a1.179,1.179,0,0,1-.334.842,1.074,1.074,0,0,1-.813.347H44.209a.793.793,0,0,0-.563.216.724.724,0,0,0-.224.526v5.52a.777.777,0,0,0,.226.565.762.762,0,0,0,.561.224h6.621a1.126,1.126,0,0,1,.818.336,1.148,1.148,0,0,1,.329.827v.789a1.185,1.185,0,0,1-.328.842,1.1,1.1,0,0,1-.818.353H41.488a1.141,1.141,0,0,1-.85-.337,1.18,1.18,0,0,1-.328-.858V28.774a1.185,1.185,0,0,1,.328-.842,1.136,1.136,0,0,1,.85-.353Z" transform="translate(-38.745 -27.579)" fill="#bc175a" stroke="#231f20" stroke-miterlimit="10" stroke-width="1.5"/><path d="M40.422,27.58h7.408a1.1,1.1,0,0,1,.818.353,1.185,1.185,0,0,1,.328.842v.789a1.148,1.148,0,0,1-.329.827,1.126,1.126,0,0,1-.818.336H41.209a.763.763,0,0,0-.561.224.777.777,0,0,0-.226.565v5.525a.777.777,0,0,0,.224.568.763.763,0,0,0,.563.226h3.649a1.136,1.136,0,0,1,.813.338,1.158,1.158,0,0,1,.334.82v.795a1.179,1.179,0,0,1-.334.842,1.074,1.074,0,0,1-.813.347H41.209a.793.793,0,0,0-.563.216.724.724,0,0,0-.224.526v5.52a.777.777,0,0,0,.226.565.762.762,0,0,0,.561.224h6.621a1.126,1.126,0,0,1,.818.336,1.148,1.148,0,0,1,.329.827v.789a1.185,1.185,0,0,1-.328.842,1.1,1.1,0,0,1-.818.353H38.488a1.141,1.141,0,0,1-.85-.337,1.18,1.18,0,0,1-.328-.858V28.774a1.185,1.185,0,0,1,.328-.842,1.136,1.136,0,0,1,.85-.353Z" transform="translate(-37.309 -27.579)" fill="#f0457d"/><path d="M37.309,44.809V28.774a1.185,1.185,0,0,1,.328-.842,1.136,1.136,0,0,1,.85-.353h9.342a1.1,1.1,0,0,1,.818.353,1.185,1.185,0,0,1,.328.842v.789a1.148,1.148,0,0,1-.329.827,1.126,1.126,0,0,1-.818.336H41.209a.763.763,0,0,0-.561.224.777.777,0,0,0-.226.565m0,1.442v4.084a.777.777,0,0,0,.224.568.763.763,0,0,0,.563.226h3.649a1.136,1.136,0,0,1,.813.338,1.158,1.158,0,0,1,.334.82v.795a1.179,1.179,0,0,1-.334.842,1.074,1.074,0,0,1-.813.347H41.209a.793.793,0,0,0-.563.216.724.724,0,0,0-.224.526v5.52a.777.777,0,0,0,.226.565.762.762,0,0,0,.561.224h6.621a1.126,1.126,0,0,1,.818.336,1.148,1.148,0,0,1,.329.827v.789a1.185,1.185,0,0,1-.328.842,1.1,1.1,0,0,1-.818.353H38.488a1.141,1.141,0,0,1-.85-.337,1.18,1.18,0,0,1-.328-.858V47.8" transform="translate(-37.309 -27.579)" fill="none" stroke="#231f20" stroke-miterlimit="10" stroke-width="1.5"/></g><g transform="translate(59.129 0)"><path d="M43.422,27.58h7.408a1.1,1.1,0,0,1,.818.353,1.185,1.185,0,0,1,.328.842v.789a1.148,1.148,0,0,1-.329.827,1.126,1.126,0,0,1-.818.336H44.209a.763.763,0,0,0-.561.224.777.777,0,0,0-.226.565v5.525a.777.777,0,0,0,.224.568.763.763,0,0,0,.563.226h3.649a1.136,1.136,0,0,1,.813.338,1.158,1.158,0,0,1,.334.82v.795a1.179,1.179,0,0,1-.334.842,1.074,1.074,0,0,1-.813.347H44.209a.793.793,0,0,0-.563.216.724.724,0,0,0-.224.526v5.52a.777.777,0,0,0,.226.565.762.762,0,0,0,.561.224h6.621a1.126,1.126,0,0,1,.818.336,1.148,1.148,0,0,1,.329.827v.789a1.185,1.185,0,0,1-.328.842,1.1,1.1,0,0,1-.818.353H41.488a1.141,1.141,0,0,1-.85-.337,1.18,1.18,0,0,1-.328-.858V28.774a1.185,1.185,0,0,1,.328-.842,1.136,1.136,0,0,1,.85-.353Z" transform="translate(-38.745 -27.579)" fill="#bc175a" stroke="#231f20" stroke-miterlimit="10" stroke-width="1.5"/><path d="M40.422,27.58h7.408a1.1,1.1,0,0,1,.818.353,1.185,1.185,0,0,1,.328.842v.789a1.148,1.148,0,0,1-.329.827,1.126,1.126,0,0,1-.818.336H41.209a.763.763,0,0,0-.561.224.777.777,0,0,0-.226.565v5.525a.777.777,0,0,0,.224.568.763.763,0,0,0,.563.226h3.649a1.136,1.136,0,0,1,.813.338,1.158,1.158,0,0,1,.334.82v.795a1.179,1.179,0,0,1-.334.842,1.074,1.074,0,0,1-.813.347H41.209a.793.793,0,0,0-.563.216.724.724,0,0,0-.224.526v5.52a.777.777,0,0,0,.226.565.762.762,0,0,0,.561.224h6.621a1.126,1.126,0,0,1,.818.336,1.148,1.148,0,0,1,.329.827v.789a1.185,1.185,0,0,1-.328.842,1.1,1.1,0,0,1-.818.353H38.488a1.141,1.141,0,0,1-.85-.337,1.18,1.18,0,0,1-.328-.858V28.774a1.185,1.185,0,0,1,.328-.842,1.136,1.136,0,0,1,.85-.353Z" transform="translate(-37.309 -27.579)" fill="#f0457d"/><path d="M37.309,44.809V28.774a1.185,1.185,0,0,1,.328-.842,1.136,1.136,0,0,1,.85-.353h9.342a1.1,1.1,0,0,1,.818.353,1.185,1.185,0,0,1,.328.842v.789a1.148,1.148,0,0,1-.329.827,1.126,1.126,0,0,1-.818.336H41.209a.763.763,0,0,0-.561.224.777.777,0,0,0-.226.565m0,1.442v4.084a.777.777,0,0,0,.224.568.763.763,0,0,0,.563.226h3.649a1.136,1.136,0,0,1,.813.338,1.158,1.158,0,0,1,.334.82v.795a1.179,1.179,0,0,1-.334.842,1.074,1.074,0,0,1-.813.347H41.209a.793.793,0,0,0-.563.216.724.724,0,0,0-.224.526v5.52a.777.777,0,0,0,.226.565.762.762,0,0,0,.561.224h6.621a1.126,1.126,0,0,1,.818.336,1.148,1.148,0,0,1,.329.827v.789a1.185,1.185,0,0,1-.328.842,1.1,1.1,0,0,1-.818.353H38.488a1.141,1.141,0,0,1-.85-.337,1.18,1.18,0,0,1-.328-.858V47.8" transform="translate(-37.309 -27.579)" fill="none" stroke="#231f20" stroke-miterlimit="10" stroke-width="1.5"/></g><g transform="translate(0)"><path d="M40.449,27.9a1.136,1.136,0,0,1,.829-.353h9.5a1.2,1.2,0,0,1,1.209,1.195v.789a1.11,1.11,0,0,1-.349.826,1.188,1.188,0,0,1-.86.337H44.062a.747.747,0,0,0-.558.226.777.777,0,0,0-.229.547v5.541a.777.777,0,0,0,.229.568.747.747,0,0,0,.558.205H47.45a1.105,1.105,0,0,1,.845.353,1.163,1.163,0,0,1,.334.837v.795a1.126,1.126,0,0,1-.334.826,1.152,1.152,0,0,1-.845.347H44.062a.747.747,0,0,0-.558.226.772.772,0,0,0-.229.563v8.283a1.115,1.115,0,0,1-.344.826,1.214,1.214,0,0,1-.865.337h-.787a1.167,1.167,0,0,1-.829-.337,1.1,1.1,0,0,1-.349-.826V28.744A1.152,1.152,0,0,1,40.449,27.9Z" transform="translate(-38.536 -27.55)" fill="#ff9515" stroke="#231f20" stroke-miterlimit="10" stroke-width="1.5"/><path d="M37.449,27.9a1.136,1.136,0,0,1,.829-.353h9.5a1.2,1.2,0,0,1,1.209,1.195v.789a1.11,1.11,0,0,1-.349.826,1.188,1.188,0,0,1-.86.337H41.062a.747.747,0,0,0-.558.226.777.777,0,0,0-.229.547v5.541a.777.777,0,0,0,.229.568.747.747,0,0,0,.558.205H44.45a1.105,1.105,0,0,1,.845.353,1.163,1.163,0,0,1,.334.837v.795a1.126,1.126,0,0,1-.334.826,1.152,1.152,0,0,1-.845.347H41.062a.747.747,0,0,0-.558.226.772.772,0,0,0-.229.563v8.283a1.115,1.115,0,0,1-.344.826,1.214,1.214,0,0,1-.865.337h-.787a1.167,1.167,0,0,1-.829-.337,1.1,1.1,0,0,1-.349-.826V28.744A1.153,1.153,0,0,1,37.449,27.9Z" transform="translate(-37.1 -27.55)" fill="#ffd44d"/><path d="M40.275,43.637v6.378a1.115,1.115,0,0,1-.344.826,1.214,1.214,0,0,1-.865.337h-.787a1.167,1.167,0,0,1-.829-.337,1.1,1.1,0,0,1-.349-.826V37.148m0-3.215V28.744a1.2,1.2,0,0,1,1.178-1.195h9.5a1.2,1.2,0,0,1,1.209,1.195v.789a1.11,1.11,0,0,1-.349.826,1.188,1.188,0,0,1-.86.337H41.062a.747.747,0,0,0-.558.226.777.777,0,0,0-.229.547v5.541a.777.777,0,0,0,.229.568.747.747,0,0,0,.558.205H44.45a1.105,1.105,0,0,1,.845.353,1.163,1.163,0,0,1,.334.837v.795a1.126,1.126,0,0,1-.334.826,1.152,1.152,0,0,1-.845.347H41.062a.747.747,0,0,0-.558.226" transform="translate(-37.1 -27.55)" fill="none" stroke="#231f20" stroke-miterlimit="10" stroke-width="1.5"/></g><g transform="translate(19.819 0)"><path d="M49.583,27.569a2.19,2.19,0,0,1,1.632.689,2.3,2.3,0,0,1,.662,1.642V37a2.316,2.316,0,0,1-.36,1.268,2.389,2.389,0,0,1-.99.868.754.754,0,0,0-.422.858l1.866,9.9a.928.928,0,0,1-.151.7.864.864,0,0,1-.6.368l-1.272.21a.916.916,0,0,1-.709-.163,1.006,1.006,0,0,1-.407-.626L46.919,39.994a.828.828,0,0,0-.271-.458.7.7,0,0,0-.485-.184H44.109a.747.747,0,0,0-.558.226.777.777,0,0,0-.229.568V50a1.148,1.148,0,0,1-.328.82,1.126,1.126,0,0,1-.809.338h-.8a1.157,1.157,0,0,1-.85-.332A1.142,1.142,0,0,1,40.21,50V28.727a1.126,1.126,0,0,1,.328-.821,1.141,1.141,0,0,1,.85-.337Zm-6.256,7.846a.772.772,0,0,0,.229.563.747.747,0,0,0,.558.226h3.649a1.038,1.038,0,0,0,.772-.316,1.058,1.058,0,0,0,.292-.726V31.779a1.057,1.057,0,0,0-.318-.747,1.038,1.038,0,0,0-.772-.321H44.088a.752.752,0,0,0-.558.232.772.772,0,0,0-.229.563Z" transform="translate(-38.646 -27.569)" fill="#ff9515" stroke="#231f20" stroke-miterlimit="10" stroke-width="1.5"/><path d="M37.538,27.906a1.141,1.141,0,0,1,.85-.337h8.195a2.19,2.19,0,0,1,1.632.689,2.3,2.3,0,0,1,.662,1.642V37a2.316,2.316,0,0,1-.36,1.268,2.389,2.389,0,0,1-.99.868.754.754,0,0,0-.422.858l1.866,9.9a.928.928,0,0,1-.151.7.864.864,0,0,1-.6.368l-1.272.21a.916.916,0,0,1-.709-.163,1.006,1.006,0,0,1-.407-.626L43.919,39.994a.828.828,0,0,0-.271-.458.7.7,0,0,0-.485-.184H41.109a.747.747,0,0,0-.558.226.777.777,0,0,0-.229.568V50a1.148,1.148,0,0,1-.328.82,1.126,1.126,0,0,1-.809.338h-.8a1.157,1.157,0,0,1-.85-.332A1.142,1.142,0,0,1,37.21,50V30.332m0,0v-1.6a1.126,1.126,0,0,1,.328-.821m2.784,7.509a.772.772,0,0,0,.229.563.747.747,0,0,0,.558.226h3.649a1.038,1.038,0,0,0,.772-.316,1.058,1.058,0,0,0,.3-.726V31.779a1.057,1.057,0,0,0-.318-.747,1.038,1.038,0,0,0-.772-.321H41.088a.752.752,0,0,0-.558.232.772.772,0,0,0-.229.563Z" transform="translate(-37.209 -27.569)" fill="#ffd44d"/><path d="M40.322,45.1v4.931a1.148,1.148,0,0,1-.328.82,1.126,1.126,0,0,1-.809.338h-.8a1.157,1.157,0,0,1-.85-.332,1.142,1.142,0,0,1-.328-.826V31.64m.328-3.684a1.141,1.141,0,0,1,.85-.337h8.195a2.19,2.19,0,0,1,1.632.689,2.3,2.3,0,0,1,.662,1.616v7.1a2.316,2.316,0,0,1-.36,1.268,2.389,2.389,0,0,1-.99.868.754.754,0,0,0-.422.858l1.866,9.9a.928.928,0,0,1-.151.7.864.864,0,0,1-.6.368l-1.272.21a.916.916,0,0,1-.709-.163,1.006,1.006,0,0,1-.407-.626L43.919,40.017a.828.828,0,0,0-.271-.458.7.7,0,0,0-.485-.184H41.109a.747.747,0,0,0-.558.226.777.777,0,0,0-.229.568v3.342m0-8.072a.772.772,0,0,0,.229.563.747.747,0,0,0,.558.226h3.649a1.038,1.038,0,0,0,.772-.316,1.058,1.058,0,0,0,.3-.726V31.8a1.057,1.057,0,0,0-.318-.747,1.038,1.038,0,0,0-.772-.321H41.088a.752.752,0,0,0-.558.232.772.772,0,0,0-.229.563Z" transform="translate(-37.209 -27.593)" fill="none" stroke="#231f20" stroke-miterlimit="10" stroke-width="1.5"/></g></g></g></svg>