<svg xmlns="http://www.w3.org/2000/svg" xmlns:xlink="http://www.w3.org/1999/xlink" width="395.017" height="309.373" viewBox="0 0 395.017 309.373"><defs><linearGradient id="a" x1="0.388" y1="0.867" x2="0.481" y2="0.532" gradientUnits="objectBoundingBox"><stop offset="0" stop-color="#fff" stop-opacity="0"/><stop offset="1" stop-color="#f15a24"/></linearGradient><linearGradient id="b" x1="0.439" y1="0.491" x2="0.66" y2="0.024" xlink:href="#a"/><linearGradient id="c" x1="0.349" y1="0.822" x2="0.64" y2="0.171" xlink:href="#a"/><linearGradient id="d" x1="0.172" y1="0.845" x2="0.494" y2="0.336" xlink:href="#a"/></defs><path d="M205.644,311.128,21.66,202.361c-5.86-3.33-10.877-8.69-5.172-12.209l184.65-106.4c2.775-1.72,6.981-2.841,9.789-1.21l193.118,112.1c5.86,3.4,6.9,12.908,1.043,16.3L229.895,310.951a24.417,24.417,0,0,1-24.251.178Z" transform="translate(-13.98 -4.89)" fill="#ffb7a6"/><path d="M311.993,191.47c-5.549,4.34-11.354,8.346-17.2,12.264l14.428,8.457,21.765-13.762Z" transform="translate(16.874 7.166)" opacity="0.63" fill="url(#a)"/><path d="M305.448,172.61S302.473,198.137,316,203.132s20.766-7.924,20.977-30.522" transform="translate(18.015 5.093)" fill="#06577a"/><ellipse cx="15.771" cy="9.112" rx="15.771" ry="9.112" transform="translate(323.451 168.591)" fill="#f2696a"/><path d="M323.673,157.206s-6.193-8.934-3.485-15.116c0,0,2.22-3.973,5.383-4.595,0,0-.311,8.468,2.841,7.392s0-8.879,0-8.879,3.33-4.439,6.937-4.34,0,7.925,2.519,6.659.155-7.913,3-8.7a59.59,59.59,0,0,1,7.88-1.265s2.686,7.769,0,8.879-6.659,1.476-4.728,3.185,7.259-.255,7.259-.255.333,4.351-1.487,6.226-12.542-2.275-10.655,1.454,8.99,1.865,8.99,1.865-3.629,5.183-7.88,7.547S323.673,157.206,323.673,157.206Z" transform="translate(19.589 0.231)" fill="#8ccc00"/><path d="M324.937,176.375s-4.44-4.439-3.6-8.2c0,0,.844-2.486,2.564-3.185,0,0,.721,4.839,2.4,3.9s-.943-5.028-.943-5.028,1.4-2.9,3.474-3.208.844,4.495,2.142,3.5-.755-4.506.777-5.261a34.4,34.4,0,0,1,4.34-1.554s2.342,4.1.943,5.017-3.607,1.543-2.342,2.309,4.1-.921,4.1-.921.655,2.431-.178,3.7-7.37,0-5.893,1.964,5.305.1,5.305.1a16.782,16.782,0,0,1-3.729,5.117C332.173,176.409,324.937,176.375,324.937,176.375Z" transform="translate(19.78 3.414)" fill="#8ccc00"/><path d="M311.363,169.529s-10.866.422-14.617-5.172c0,0-2.153-4.007-.988-7.014,0,0,6.97,4.817,7.769,1.576s-7.481-4.761-7.481-4.761-2.009-5.205.067-8.191,6.659,4.251,6.948,1.432-6.593-4.384-5.727-7.2a59.582,59.582,0,0,1,3.174-7.325s7.958,1.887,7.447,4.75-2.309,6.382.144,5.7,3.685-6.26,3.685-6.26,3.851,2.053,4.44,4.606-8.668,9.356-4.495,9.767,6.4-6.582,6.4-6.582,2.42,5.849,2.131,10.71S311.363,169.529,311.363,169.529Z" transform="translate(16.916 0.727)" fill="#8ccc00"/><path d="M346.494,131.563q-1.72,1.465-3.474,2.974c.122-1.232.266-2.453.455-3.674.1-.644-.888-.921-.988-.277q-.388,2.453-.588,4.928c-3.041,2.675-6.071,5.461-8.879,8.424a36.625,36.625,0,0,1-.189-6.271.511.511,0,0,0-1.021,0,37.738,37.738,0,0,0,.3,7.247,71.029,71.029,0,0,0-5.05,6.093,20.333,20.333,0,0,1-3.518-8.2c-.122-.644-1.11-.377-.988.277a21.088,21.088,0,0,0,3.8,8.69.522.522,0,0,0,.1.089c-4.517,6.393-7.625,13.574-7.88,21.887a.511.511,0,0,0,1.021,0c.255-8,3.23-14.939,7.558-21.088a39.578,39.578,0,0,0,12.719,1.243c.655,0,.666-1.11,0-1.021a38.779,38.779,0,0,1-12.087-1.11,74.439,74.439,0,0,1,7.148-8.3h.089c2.4.211,4.795.422,7.192.511a8.779,8.779,0,0,0,4.44-.522c.588-.3.067-1.188-.522-.888-1.654.832-3.973.388-5.749.289-1.521-.089-3.041-.222-4.562-.355,3.663-3.618,7.58-6.992,11.365-10.2C347.726,131.863,346.994,131.086,346.494,131.563Z" transform="translate(19.487 0.436)" fill="#06577a"/><path d="M316.784,150.773a.513.513,0,1,0-.988-.277,18.18,18.18,0,0,1-6.582,9.467q-1.743-4.839-3.2-9.789a30.655,30.655,0,0,0,6.016-8.5c.289-.588-.6-1.11-.888-.522a29.866,29.866,0,0,1-5.472,7.869c-1.11-3.774-2.02-7.592-2.819-11.443-.133-.644-1.11-.377-.988.277q1.632,7.9,4.04,15.594a24.074,24.074,0,0,1-5.549-1.831c-.6-.277-1.11.6-.522.888a25.183,25.183,0,0,0,6.482,2.064h0c1.11,3.33,2.3,6.659,3.6,9.989a24.817,24.817,0,0,1-8.879-1.964c-.6-.255-1.11.633-.522.888a26.182,26.182,0,0,0,9.845,2.12q2.475,6.171,5.438,12.142c.3.588,1.176.067.888-.522a160.172,160.172,0,0,1-7.037-16.293h0A19.3,19.3,0,0,0,316.784,150.773Z" transform="translate(17.4 1.204)" fill="#06577a"/><path d="M332.9,161.4l-2.819,4.739a8.878,8.878,0,0,1-.9-1.476c-.289-.6-1.165-.078-.888.522a9.778,9.778,0,0,0,1.176,1.865h0l-3.03,5.161a2.1,2.1,0,0,1-.633-1.232c-.078-.644-1.11-.655-1.021,0a3.23,3.23,0,0,0,1.11,2.109l-3.829,6.426a.515.515,0,1,0,.888.522l5.05-8.468a7.67,7.67,0,0,0,2.5-.377c.622-.2.355-1.2-.277-.988a6.825,6.825,0,0,1-1.587.3l5.117-8.579a.511.511,0,0,0-.855-.522Z" transform="translate(19.863 3.843)" fill="#06577a"/><path d="M157.943,150.79,62.349,207.338,35.89,191.744l68.124-39.967" transform="translate(-11.572 2.696)" opacity="0.63" fill="url(#b)"/><path d="M121.23,169.306V138.762l27.336-15.272v30.288Z" transform="translate(-2.196 -0.304)" fill="#eca016"/><path d="M123.9,138.762,97.263,123.49s-.744,30.788,0,31.276S123.9,169.295,123.9,169.295Z" transform="translate(-4.865 -0.304)" fill="#ffb72f"/><path d="M97.27,125.11l26.593-16.26L151.2,125.11,123.863,140.37Z" transform="translate(-4.828 -1.912)" fill="#ffc863"/><path d="M106.39,118.4l27.691,15.183v15.949l7.969-4.029v-16.36L114.359,113.53Z" transform="translate(-3.826 -1.398)" fill="#fdedcb"/><path d="M244.985,267.027,198.393,297.87,102,241.155l51.309-28.035" transform="translate(-4.308 9.544)" opacity="0.63" fill="url(#c)"/><path d="M188.691,13.543c18.235,11.421,64.084,37.947,79.722,47.536,3.54,2.22,4.084,5.405,4.14,9.567V264.707a6.193,6.193,0,0,1-7.969,1.221l-76.948-43.485c-3.829-2.22-6.837-4.573-6.837-9.012l.666-196.37C181.444,12.81,185.084,11.29,188.691,13.543Z" transform="translate(4.35 -12.498)" fill="#68e1fd"/><path d="M181.594,15.674,206.611,30.1v5.405a2.6,2.6,0,0,0,1.3,2.22l19.356,11.188a1.709,1.709,0,0,0,2.6-1.454V43.532l36.348,21.31a2.309,2.309,0,0,1,1.11,1.987v194.05a1.565,1.565,0,0,1-2.353,1.354L180.784,213.4a8.346,8.346,0,0,0,3.707,7.769c4.362,2.786,81.021,46.171,81.021,46.171s6.06,2.741,7.836-4.495V67.639a7.991,7.991,0,0,0-3.33-6.482c-3.441-2.6-81.665-48.013-81.665-48.013S182.848,10.58,181.594,15.674Z" transform="translate(4.344 -12.499)" fill="#124577"/><path d="M168.66,51.38V69.138a6.97,6.97,0,0,0,5.283,5.893c4.806,1.11,5.461-5.239,5.461-5.239V56.685Z" transform="translate(3.016 -8.227)" fill="#c13d3d"/><path d="M178.09,57.74l.444,18.7a6.97,6.97,0,0,0,5.283,5.893c4.806,1.11,5.461-5.239,5.461-5.239V63.989Z" transform="translate(4.052 -7.528)" fill="#dd842a"/><path d="M188.17,63.47V81.228a6.97,6.97,0,0,0,5.283,5.893c4.806,1.11,5.461-5.239,5.461-5.239V68.775Z" transform="translate(5.159 -6.898)" fill="#c13d3d"/><path d="M197.85,69.31V87.068a6.97,6.97,0,0,0,5.283,5.893c4.806,1.11,5.461-5.239,5.461-5.239V74.615Z" transform="translate(6.223 -6.257)" fill="#dd842a"/><path d="M207.53,74.19V91.948a6.97,6.97,0,0,0,5.283,5.893c4.806,1.11,5.461-5.239,5.461-5.239V79.529Z" transform="translate(7.287 -5.72)" fill="#c13d3d"/><path d="M217.05,80.73V98.488a6.97,6.97,0,0,0,5.283,5.893c4.806,1.11,5.461-5.239,5.461-5.239V86.035Z" transform="translate(8.333 -5.002)" fill="#dd842a"/><path d="M217.05,85.1,242.577,49.12l9.833,6.016L227.8,91.451" transform="translate(8.333 -8.475)" fill="#f29d40"/><path d="M207.53,79.42l25.05-35.96,11.043,6.282L218.1,85.724" transform="translate(7.287 -9.097)" fill="#e04f4f"/><path d="M197.85,73.689,223.877,38.04l9.767,6.016L208.6,80.1" transform="translate(6.223 -9.692)" fill="#f29d40"/><path d="M188.17,67.793,213.431,32.21l11.509,6.471L198.9,74.241" transform="translate(5.159 -10.333)" fill="#e04f4f"/><path d="M178.34,61.751,202.513,26.18l12,6.693L189.25,68.455" transform="translate(4.079 -10.996)" fill="#f29d40"/><path d="M168.66,55.867,192.678,20.44l10.9,6.371L179.4,62.382" transform="translate(3.016 -11.626)" fill="#e04f4f"/><path d="M158.98,50.155,183.985,15.36,193.741,21,169.724,56.425" transform="translate(1.952 -12.184)" fill="#f29d40"/><path d="M260.371,59.66s1.11.233,1.11,2.22V96.086L233.59,112.035l3.885-24.417Z" transform="translate(10.15 -7.317)" fill="#aa2b2b"/><path d="M226.74,87.26v15.916a6.97,6.97,0,0,0,5.283,5.893c4.806,1.11,5.461-5.239,5.461-5.239l-.211-10.466Z" transform="translate(9.397 -4.284)" fill="#c13d3d"/><path d="M237.273,96.959l23.851-36.737-9.778-5.683L226.74,90.855" transform="translate(9.397 -7.879)" fill="#e04f4f"/><path d="M159,46.71V65.367a6.97,6.97,0,0,0,5.283,5.893c4.806,1.11,5.461-5.239,5.461-5.239V52.914Z" transform="translate(1.954 -8.74)" fill="#dd842a"/><path d="M199.587,135.178s3.973-8.091,3.33-8.8-2.908,2.475-2.908,2.475,0-8.291-.71-8.424-1.11,5.172-1.11,5.172-.777-6.16-1.987-6.16,0,5.882,0,5.882-2.12-3.685-2.83-3.4,1.11,4.928,1.11,4.928-1.987-1.665-2.22-1.243,2.053,6.2,3.541,7.592a15.016,15.016,0,0,1,2.475,3.163" transform="translate(5.607 -0.749)" fill="#ffe5d0"/><path d="M216.977,131.92c.544.4-4.051-1.543-12.109,17.991,0,0-2.12-9.312-2.8-15.538a9.389,9.389,0,0,0-7.148-1.576c-.122,4.55-.266,22.3,4.695,24.939,5.7,3.03,11.72,3.33,15.094-4.439C214.713,153.363,225.656,136.2,216.977,131.92Z" transform="translate(5.897 0.623)" fill="#ba5738"/><path d="M233.532,153.873l.544.71c1.731-6.659,2.053-14.684-1.321-20.466-3.108-1.221-6.426-1.432-7-2.053l-8.812-.344a2.664,2.664,0,0,0-2.22,1.11c-2.22,2.974-7.691,11.3-5.794,18.746,2.353,9.267,1.576,16.315,1.743,23.052s-8.091,22.2-7.07,32.186,30.5,16.171,31.842,10.277c4.772-21.088,5.549-32.131,1.287-41.265S233.532,153.873,233.532,153.873Z" transform="translate(6.845 0.601)" fill="#cc7452"/><path d="M231.238,133.88s5.871,2.453,8.635,14.562,3.973,14.184-7.27,21.454-9.989,6.4-9.989,6.4-6.448-3.807-5.25-6.226,14.606-8.713,14.129-12.919-6.559-8.7-6.559-8.7" transform="translate(8.351 0.838)" fill="#cc7452"/><path d="M230.18,149.1a.633.633,0,0,0-1.21.333,27.948,27.948,0,0,1,1.332,5.15c.266,3.185-1.11,4.817-3.518,6.5a45.974,45.974,0,0,1-7.924,4.118.488.488,0,0,0-.3.633.555.555,0,0,0-.266.677,15.761,15.761,0,0,0,3.407,6.9.555.555,0,0,0,.522.178.622.622,0,0,0,.688.311,18.8,18.8,0,0,0,7.148-3.063c.655-.466,0-1.554-.633-1.11a17.891,17.891,0,0,1-6.737,2.908.61.61,0,0,0-.089-.133,14.273,14.273,0,0,1-3.052-6.249c3.907-1.72,8.035-3.54,10.988-6.737C233.188,156.59,231.134,152.528,230.18,149.1Z" transform="translate(8.466 2.467)" fill="#ba5738"/><path d="M180.247,153l90.777,52.442-31.3,18.479L147.45,171.613Z" transform="translate(0.685 2.939)" fill="#ffa364"/><path d="M219.533,164.75a28.047,28.047,0,0,1-5.916,2.22c-2.064.3-3.929-1.576-4.617-.688s3.074,1.354,2.22,1.964-3.263,1.11-3.951,2.464-1.576,3.84.488,5.216,5.117-1.376,7.081-2.553,6.271-4.439,6.271-4.439S220.543,165.771,219.533,164.75Z" transform="translate(7.171 4.23)" fill="#ffe5d0"/><path d="M230.55,218.729v51.465l31.3-19.7V200.25Z" transform="translate(9.816 8.13)" fill="#ffbb8d"/><path d="M147.41,169.78v47.547l92.275,56.215V222.077Z" transform="translate(0.681 4.782)" fill="#e58341"/><path d="M217.375,129.243a15.538,15.538,0,0,1-1.01,5.228c-.921,1.754,2.475,2.4,5.327,1.576s1.476-7.436,1.476-7.436" transform="translate(8.24 0.259)" fill="#ffe5d0"/><path d="M213.28,120.07s-3.441,9.423-.866,10.888,8.99,0,8.99,0" transform="translate(7.718 -0.679)" fill="#e84c1c"/><path d="M212.4,118.468s-1.221,13.318,5.694,14.495,8.3-12.586,6.926-14.495S214.185,115.372,212.4,118.468Z" transform="translate(7.812 -1.064)" fill="#ffe5d0"/><path d="M221.486,129.047a6.548,6.548,0,0,0,.721,5.017,15.538,15.538,0,0,0,8.635-.477c3.707-8.546-.067-21.6-9.1-22.575s-10.433,4.229-10.943,7.314,1.7,2.819,2.564,2.764C221.019,120.59,223.106,124.164,221.486,129.047Z" transform="translate(7.637 -1.688)" fill="#e84c1c"/><path d="M74.733,105.07a4.44,4.44,0,0,1,4.806,0c2.664,1.953,2.675,7.3,0,11.976A12.286,12.286,0,0,1,74.744,122a4.44,4.44,0,0,1-4.806,0c-2.664-1.953-2.675-7.3,0-11.976a12.286,12.286,0,0,1,4.795-4.95Z" transform="translate(-8.051 -2.405)" fill="#68e1fd"/><path d="M76.153,79.452c7.658-3.929,15.327-4.218,21.176.078.844.622.855,2.331,0,3.818A3.94,3.94,0,0,1,95.8,84.923a1.421,1.421,0,0,1-1.532,0C89.261,81.25,82.7,81.5,76.153,84.834s-13.085,9.822-18.047,18.59A3.94,3.94,0,0,1,56.575,105a1.421,1.421,0,0,1-1.532,0c-.855-.622-.855-2.331,0-3.818C60.837,90.939,68.484,83.38,76.153,79.452Z" transform="translate(-9.538 -5.477)" fill="#68e1fd"/><path d="M76.9,66.229c10.555-5.416,21.088-5.716,29.356.311,1.365,1.01.388,4.439-1.521,5.405a1.41,1.41,0,0,1-1.532,0c-7.37-5.427-16.837-5.172-26.237-.333S58.095,85.885,50.7,98.838a3.907,3.907,0,0,1-1.487,1.576,1.432,1.432,0,0,1-1.543,0c-.844-.622-.855-2.331,0-3.818C55.8,82.156,66.341,71.635,76.9,66.229Z" transform="translate(-10.348 -7.05)" fill="#68e1fd"/><path d="M75.375,91.81c4.817-2.464,9.645-2.653,13.318,0,1.365,1,.388,4.439-1.521,5.394a1.432,1.432,0,0,1-1.532,0c-2.83-2.075-6.548-1.942-10.255,0A26.193,26.193,0,0,0,65.2,107.77a3.907,3.907,0,0,1-1.532,1.576,1.432,1.432,0,0,1-1.543,0c-.844-.633-.855-2.342,0-3.818C65.775,99.035,70.58,94.274,75.375,91.81Z" transform="translate(-8.76 -3.995)" fill="#68e1fd"/><path d="M178.27,176.363V164.154l10.921-6.1V170.2Z" transform="translate(4.072 3.494)" fill="#eca016"/><path d="M179.336,164.164l-10.633-6.1s-.3,12.309,0,12.5,10.633,5.8,10.633,5.8Z" transform="translate(3.006 3.495)" fill="#ffb72f"/><path d="M168.69,158.7l10.633-6.5,10.932,6.5-10.932,6.1Z" transform="translate(3.019 2.851)" fill="#ffc863"/><path d="M172.34,156.023l11.065,6.071v6.371l3.185-1.609v-6.537l-11.065-6.249Z" transform="translate(3.42 3.056)" fill="#fdedcb"/><path d="M46.682,205.133l37.192-21.942L57.237,181.26,30.6,195.111C34.673,198.019,42.442,202.27,46.682,205.133Z" transform="translate(-12.153 6.044)" opacity="0.63" fill="url(#d)"/><path d="M59.685,134c-8.5.588-8.058,14.34-8.635,20.044-.144,1.432,2.064,1.909,2.22.466.477-4.75.166-11.188,2.808-15.372.821-1.3,1.787-2.564,3.463-2.675a3.718,3.718,0,0,1,2.775,1.11c.744.677,1.11,3.33,1.265,4.129a33.784,33.784,0,0,1,.144,8.879c-.155,1.432,2.053,1.909,2.22.466C66.4,146.488,67.255,133.425,59.685,134Z" transform="translate(-9.907 0.849)" fill="#8ccc00"/><path d="M70.976,142.26l2.564,4.262,5.105,1.065-3.829,13.208L63.95,153.769" transform="translate(-8.489 1.759)" fill="#dd842a"/><path d="M46.67,156.755l26.2-14.495-.844,21.52L52,165.7Z" transform="translate(-10.388 1.759)" fill="#c13d3d"/><path d="M55.12,159.424l4.051,40.688,24.495-14.706L79.615,147.06Z" transform="translate(-9.459 2.286)" fill="#f29d40"/><path d="M56.322,158.516l-2.764-3.2H46.944L44.18,190.891l7.114,3.274,9.079,5.039Z" transform="translate(-10.661 3.194)" fill="#dd842a"/><path d="M69.663,140.08c-8.524.078-8.879,13.829-9.811,19.489-.233,1.421,1.942,2.031,2.22.6.766-4.717.832-11.165,3.718-15.183,1.188-1.643,3.263-3.03,5.294-1.953,1.831.966,1.853,3.13,2.031,4.939a33.785,33.785,0,0,1-.377,8.879c-.233,1.421,1.942,2.031,2.22.6C75.556,153,77.255,139.991,69.663,140.08Z" transform="translate(-8.941 1.519)" fill="#8ccc00"/></svg>