<svg xmlns="http://www.w3.org/2000/svg" width="74.333" height="71.132" viewBox="0 0 74.333 71.132"><g transform="translate(0 -0.719)"><path d="M2.606,1.4A7.846,7.846,0,0,1,6.331.728Q35.9.741,65.464.732a29.556,29.556,0,0,1,5,.19,5.22,5.22,0,0,1,3.864,4.012V16.718a4.385,4.385,0,0,1-.916.916,31.679,31.679,0,0,1-4.152.1q-30.206.006-60.408,0c-.583-.038-1.284.055-1.685-.481a1.754,1.754,0,0,1,.819-2.88,28.6,28.6,0,0,1,4.253-.131q29.357.013,58.706,0c0-2.357.013-4.713.013-7.074-.059-.8.072-1.778-.562-2.4a2.77,2.77,0,0,0-1.951-.549Q37.395,4.2,6.335,4.208c-.8.059-1.778-.072-2.4.562s-.5,1.6-.562,2.4q.032,24.5.008,48.992a25.166,25.166,0,0,0,.139,4.223,1.7,1.7,0,0,0,1.951,1.166c5.638-.008,11.281,0,16.919-.013a7.262,7.262,0,0,1,2.07.232,1.805,1.805,0,0,1-.021,3.159,15.168,15.168,0,0,1-2.479.114c-5.782-.046-11.564.025-17.346-.03A5.055,5.055,0,0,1,0,60.934V5A5.289,5.289,0,0,1,2.606,1.4Z" fill="#c49a26"/><path d="M16.591,17.175A1.724,1.724,0,0,1,19.332,18.6c.19,1.436-1.719,2.23-2.762,1.411A1.8,1.8,0,0,1,16.591,17.175Z" transform="translate(-9.179 -9.318)" fill="#c49a26"/><path d="M32.589,17.176a1.725,1.725,0,0,1,2.741,1.432c.186,1.432-1.719,2.222-2.762,1.406A1.8,1.8,0,0,1,32.589,17.176Z" transform="translate(-18.419 -9.319)" fill="#c49a26"/><path d="M48.6,17.178a1.723,1.723,0,0,1,2.737,1.428c.186,1.436-1.723,2.23-2.762,1.406A1.8,1.8,0,0,1,48.6,17.178Z" transform="translate(-27.664 -9.321)" fill="#c49a26"/><path d="M138.012,49.869a1.9,1.9,0,0,1,3.277.025V88.725a5.044,5.044,0,0,1-5.055,4.169c-5.355,0-10.711-.017-16.066,0a22.274,22.274,0,0,1-3.315-.11,1.8,1.8,0,0,1-.017-3.159,8.81,8.81,0,0,1,2.492-.237c5.351.034,10.7-.008,16.053.025.659-.051,1.466.106,1.964-.448.646-.621.507-1.609.574-2.416-.021-10.981,0-21.962-.013-32.943A25.732,25.732,0,0,1,138.012,49.869Z" transform="translate(-66.956 -27.854)" fill="#c49a26"/><path d="M58.312,59.848a4.882,4.882,0,0,1,5.034-2.969c1.428-.017,2.475,1.1,3.788,1.449,1.035-.258,1.854-1.018,2.876-1.305a5.07,5.07,0,0,1,5.55,2.023c.684,1,.688,2.293,1.33,3.307a19.336,19.336,0,0,0,2.72.993,4.992,4.992,0,0,1,2.754,4.967c.013,1.432-1.1,2.479-1.453,3.793.258.988.938,1.795,1.275,2.758a5.134,5.134,0,0,1-1.52,5.3c-1.039,1-2.593.984-3.78,1.7a15.411,15.411,0,0,0-.929,2.5,4.865,4.865,0,0,1-5.047,2.961c-1.419.021-2.467-1.094-3.776-1.44-1.064.275-1.917,1.056-2.978,1.335a15.744,15.744,0,0,1-2.091.131q0,5.841,0,11.682c1.529-1.069,2.91-2.348,4.54-3.261h1.056A55.723,55.723,0,0,1,72.2,99.03c.038-2.365-.068-4.735.038-7.1.186-1.7,3.108-1.7,3.3,0,.089,3.535.021,7.079.034,10.614a1.686,1.686,0,0,1-2.695,1.39c-1.943-1.4-3.822-2.88-5.748-4.291-1.926,1.411-3.805,2.893-5.744,4.287a1.682,1.682,0,0,1-2.7-1.385c-.034-5.837.046-11.678-.038-17.515-.587-.988-.7-2.179-1.271-3.163a15.228,15.228,0,0,0-2.5-.933,4.885,4.885,0,0,1-2.969-5.039c-.013-1.419,1.1-2.471,1.449-3.784-.351-1.318-1.466-2.361-1.453-3.793a5,5,0,0,1,1.9-4.439c1.022-.866,2.467-.832,3.573-1.525a15.816,15.816,0,0,0,.929-2.5m3.936.65c-.777.3-.836,1.233-1.081,1.909a4.906,4.906,0,0,1-3.4,3.628c-.769.313-1.863.3-2.243,1.187-.477,1.009.431,1.9.8,2.766a5.151,5.151,0,0,1-.507,5.174,1.745,1.745,0,0,0,.042,2.314c.929.57,2.091.6,3.024,1.166a4.954,4.954,0,0,1,2.175,2.821c.313.769.3,1.867,1.183,2.247,1.014.477,1.9-.431,2.771-.8a5.14,5.14,0,0,1,5.174.507,1.745,1.745,0,0,0,2.314-.042c.57-.929.6-2.091,1.166-3.024a4.954,4.954,0,0,1,2.821-2.175c.769-.317,1.867-.3,2.247-1.183.477-1.009-.427-1.9-.8-2.766a5.158,5.158,0,0,1,.5-5.178,1.625,1.625,0,0,0-.329-2.483c-1.263-.49-2.741-.667-3.679-1.761-1.09-.933-1.267-2.412-1.757-3.674a1.629,1.629,0,0,0-2.488-.329,5.15,5.15,0,0,1-5.174.5C64.144,60.925,63.257,60.022,62.248,60.5Z" transform="translate(-29.968 -32.411)" fill="#c49a26"/><path d="M76.766,77.16a7.743,7.743,0,0,1,3.653-.059,6.768,6.768,0,1,1-3.653.059m.891,3.4a3.3,3.3,0,1,0,4.321,2.669A3.322,3.322,0,0,0,77.657,80.56Z" transform="translate(-41.547 -44.012)" fill="#c49a26"/></g></svg>