<svg width="252" height="42" viewBox="0 0 252 42" fill="none" xmlns="http://www.w3.org/2000/svg">
<g clip-path="url(#clip0_9914_574)">
<path fill-rule="evenodd" clip-rule="evenodd" d="M103.326 20.7668C103.458 26.9473 103.326 33.9174 109.529 37.9938C112.409 39.7334 115.744 40.6023 119.12 40.4927H129.121V34.4437C125.479 34.4437 120.069 34.7069 116.829 34.049C110.214 32.7345 111.288 25.7644 111.288 19.3207C111.288 6.82806 114.936 8.01094 128.312 8.01094C128.588 8.01094 129.119 8.14252 129.119 7.87933V1.83041C129.119 1.69882 129.119 1.69882 128.986 1.69882C122.636 1.69882 114.116 0.909245 109.395 4.46084C103.586 8.66891 103.326 14.1915 103.326 20.7668Z" fill="#CB0101"/>
<path fill-rule="evenodd" clip-rule="evenodd" d="M165.508 10.4334V9.92794H159.721V35.3827C159.721 35.5113 159.72 35.5114 159.86 35.5114H166.024V17.1478C165.974 16.8806 166.025 16.6047 166.166 16.3714C166.308 16.1381 166.529 15.9633 166.792 15.8796C169.625 14.2347 175.413 13.4735 175.413 19.2982V35.5098H181.713V18.4128C181.688 17.1849 181.601 15.9592 181.449 14.7402C181.316 13.7675 180.942 12.8423 180.359 12.0471C179.775 11.2519 178.999 10.6111 178.103 10.182C175.662 9.04255 171.676 9.54809 169.234 10.4349C167.835 10.9418 166.024 12.4611 165.508 11.0688V10.4334Z" fill="#CB0101"/>
<path fill-rule="evenodd" clip-rule="evenodd" d="M139.425 19.0455C139.306 18.3358 139.337 17.6097 139.517 16.9125C139.696 16.2153 140.02 15.5621 140.468 14.9945C142.005 13.4736 146.759 13.3495 147.665 16.3882C147.918 17.4006 148.687 20.1866 146.886 20.1866H140.594C139.688 20.3137 139.425 19.9323 139.425 19.0455ZM133.007 18.9199C133.007 24.1105 132.228 30.4435 136.479 33.6108C138.555 35.0198 141.018 35.7716 143.538 35.7657H151.125C151.125 29.9336 151.504 30.5721 150.231 30.5721C147.832 30.6618 145.429 30.6194 143.034 30.4451C142.489 30.4273 141.954 30.2938 141.465 30.0535C140.977 29.8132 140.547 29.4718 140.204 29.0528C139.688 28.4187 138.279 24.1181 140.468 24.1181H154.472C154.472 18.4206 155.239 12.0875 148.554 10.0612C144.565 8.79458 137.621 8.92014 134.677 13.1013C133.541 14.8376 132.954 16.8678 132.993 18.9334L133.007 18.9199Z" fill="#CB0101"/>
<path fill-rule="evenodd" clip-rule="evenodd" d="M215.887 19.1726C215.887 17.2734 216.002 15.12 218.314 14.3618C219.064 13.9849 219.908 13.8306 220.745 13.9175C221.581 14.0044 222.374 14.3289 223.026 14.8516C223.679 15.3742 224.164 16.0727 224.422 16.8618C224.68 17.6509 224.702 18.4968 224.482 19.2967C224.482 20.0564 224.118 20.3106 223.335 20.3106H216.916C216.77 20.3098 216.628 20.2788 216.495 20.2197C216.362 20.1605 216.242 20.0745 216.145 19.9672C216.048 19.8599 215.976 19.7337 215.932 19.5968C215.887 19.46 215.871 19.3154 215.887 19.1726ZM209.584 18.2858C209.474 21.6649 209.558 25.0475 209.836 28.4172C210.868 33.4837 215.109 35.7641 220.128 35.7641H227.575V30.5722C224.579 30.7405 221.574 30.6554 218.593 30.3179C215.384 29.5582 215.635 25.0002 216.139 24.4857C216.286 24.378 216.454 24.3001 216.631 24.2565C216.808 24.2128 216.99 24.2044 217.171 24.2316H230.924C230.924 18.2784 231.704 13.7204 226.55 10.8073C222.444 8.28156 209.578 8.02888 209.578 18.2904L209.584 18.2858Z" fill="#CB0101"/>
<path fill-rule="evenodd" clip-rule="evenodd" d="M191.335 8.78709C191.335 10.9405 187.367 9.29401 187.367 10.0537V15.1201C192.248 15.1201 191.335 14.2333 191.335 21.5787C191.335 24.9987 191.083 29.6839 192.367 32.2171C194.291 36.1425 199.562 35.507 203.803 35.507V31.0746C202.192 30.9478 200.621 30.5178 199.174 29.8079C197.752 28.7941 197.639 27.4019 197.639 25.6208V16.122C197.639 15.2352 198.024 14.9825 198.922 14.9825H203.942C203.942 9.28349 204.307 9.79045 203.157 9.79045C199.06 9.79045 197.639 10.2974 197.639 8.52386V1.56873H191.335V8.78709Z" fill="#CB0101"/>
<path fill-rule="evenodd" clip-rule="evenodd" d="M84.4333 17.2735C84.4333 22.2084 98.1855 19.6797 98.1855 27.4049C98.1855 33.3567 94.1956 35.3843 88.5466 35.3843H79.2916V31.0792C81.7314 31.0792 88.798 31.4589 90.5915 30.445C91.215 30.1856 91.7114 29.6969 91.9754 29.0827C92.2395 28.4685 92.2498 27.7772 92.0051 27.1552C91.8788 26.8398 91.6882 26.5533 91.445 26.3135C91.2017 26.0738 90.9115 25.8859 90.5915 25.7615C87.1244 23.8608 76.1983 23.9879 78.6381 15.2502C80.4422 8.79154 89.438 9.93103 95.3464 9.93103L95.3568 14.2363C92.524 14.2334 84.4333 13.3466 84.4333 17.2735ZM76.7192 17.0209C76.7192 21.0719 78.1312 23.0996 81.9928 24.746C84.4342 25.887 90.5944 26.8995 90.5944 28.036C90.5944 30.5692 77.6201 28.4158 77.6201 29.5553C77.6201 30.6948 77.3607 36.3953 77.7461 37.0324C81.4757 37.0324 89.3145 37.4122 92.906 36.5254C101.776 34.372 101.903 23.481 95.3479 20.9478C93.169 20.0595 89.6974 19.3029 87.2575 18.4146C86.7416 18.1604 85.9669 17.9076 85.9669 17.2735C85.9669 15.5 93.9365 16.0069 95.868 16.0069C96.3778 16.0069 96.8934 16.0069 96.8934 15.4999V8.78866C96.8934 8.40734 96.7616 8.1545 96.2518 8.1545C88.1493 8.1545 78.5127 6.76078 76.5918 15.6315C76.6961 16.0886 76.7385 16.5573 76.7177 17.0253L76.7192 17.0209Z" fill="#CB0101"/>
<path fill-rule="evenodd" clip-rule="evenodd" d="M241.734 10.4334V9.67526H236.07V35.3843H242.356V18.0376C242.356 17.0238 242.88 16.8965 244.024 16.5167C246.383 15.6452 248.85 15.0919 251.359 14.8718C251.611 14.8718 251.999 14.9974 251.999 14.7447V9.42554C245.584 9.42105 241.734 13.5991 241.734 10.4334Z" fill="#CB0101"/>
<path fill-rule="evenodd" clip-rule="evenodd" d="M64.5084 17.9059V34.8773H59.1111V10.0536H63.8661C63.8661 12.841 65.666 11.9543 66.9481 11.4473C67.464 11.3202 74.1443 9.16683 74.1443 9.92799V14.3589C71.348 14.4798 68.6007 15.1248 66.0494 16.2596C65.1497 16.5123 64.5084 16.7664 64.5084 17.9059ZM65.5397 10.1792C65.5397 9.03968 65.798 8.40721 64.7662 8.40721H57.8271C57.4433 8.40721 57.1855 8.53431 57.1855 8.91414V36.3966C57.1855 36.6508 57.3114 36.7764 57.5693 36.905H65.5397C66.1815 36.905 66.0494 36.0197 66.0494 35.0044V18.0346C68.3562 17.266 70.7199 16.6735 73.1189 16.2625C74.2766 16.0083 75.6861 16.5138 75.6861 15.7541V8.66132C75.6861 7.14198 68.3635 9.2954 67.4653 9.54812C66.567 9.80084 66.0495 10.055 65.5397 10.1821V10.1792Z" fill="#CB0101"/>
<path fill-rule="evenodd" clip-rule="evenodd" d="M8.37562 30.3254V40.1203H1.77679V2.01282C7.10714 2.01282 12.436 1.87823 17.6389 2.01282C23.476 2.1474 26.6487 5.5016 26.9021 11.8077C27.0296 15.0288 27.4104 20.7981 26.0145 23.4824C25.4447 24.9349 24.4564 26.1914 23.1713 27.0975C21.8861 28.0035 20.3602 28.5194 18.7814 28.5817C15.7362 28.7163 13.9594 28.7163 10.9141 28.7163C10.2799 28.8509 8.37562 28.5817 8.37562 30.3269V30.3254ZM0 0.939116V41.3286C0 41.7308 0.127455 42 0.508303 42H9.6441C9.71526 42.0046 9.78657 41.9936 9.85287 41.9677C9.91917 41.9419 9.97881 41.9018 10.0275 41.8504C10.0761 41.799 10.1126 41.7376 10.1342 41.6706C10.1558 41.6037 10.162 41.5328 10.1524 41.4632V30.5945C16.117 30.5945 23.476 31.5336 26.9021 25.7644C29.1857 21.8763 28.8049 17.8477 28.8049 13.1506C28.8049 4.96475 24.9979 0.140568 17.0031 0H0.758661C0.253393 0.269173 0 0.402265 0 0.939116Z" fill="#CB0101"/>
<path fill-rule="evenodd" clip-rule="evenodd" d="M16.7474 22.2755H10.8997V8.45499C13.2631 8.34359 15.6318 8.43364 17.9795 8.72415C18.6414 8.8664 19.2819 9.09203 19.8852 9.39555C20.9747 10.067 21.1113 12.2129 21.1113 13.2837C21.2244 15.4342 21.1334 17.5904 20.8397 19.7243C20.7055 20.2794 20.4231 20.789 20.0218 21.2003C19.7137 21.6237 19.288 21.9504 18.7959 22.1409C18.1193 22.2527 17.4331 22.2978 16.7474 22.2755ZM8.98791 8.18582V22.5417C8.95997 22.7375 8.97401 22.937 9.02912 23.1272C9.08423 23.3174 9.17919 23.4941 9.30788 23.6458C9.43656 23.7976 9.5961 23.921 9.77621 24.0083C9.95631 24.0955 10.1529 24.1445 10.3534 24.1522H10.6251C13.2126 24.2467 15.8035 24.2023 18.3862 24.0191C18.7943 23.8845 19.2025 23.8845 19.6121 23.75C20.3005 23.492 20.9179 23.0782 21.4144 22.5422C21.9109 22.0061 22.2728 21.3626 22.4708 20.6635C22.4708 20.5289 22.6073 20.2612 22.6073 20.1266C22.7549 19.5099 22.8458 18.8812 22.879 18.2483V13.0204C22.9044 11.6215 22.577 10.2382 21.9261 8.99477C21.7584 8.84177 21.6206 8.65981 21.5194 8.45791C20.8293 7.71824 19.9269 7.20338 18.9324 6.98194C17.9586 6.70717 16.95 6.57127 15.9372 6.57824H10.4915C10.0944 6.54617 9.70041 6.66933 9.39465 6.92115C9.08889 7.17297 8.89594 7.53318 8.85742 7.92405C8.98791 7.91658 8.98791 8.05118 8.98791 8.18427V8.18582Z" fill="#CB0101"/>
<path fill-rule="evenodd" clip-rule="evenodd" d="M35.9803 10.3063H44.3348C46.9051 10.3063 51.0186 10.8134 52.1733 13.5963C52.9181 15.4014 53.2262 17.3524 53.0731 19.2952V34.997H48.5756C48.5756 34.3644 48.4469 33.7304 47.8051 33.4776C46.136 32.8436 45.6186 35.2512 39.0638 35.2512C32.8989 35.2512 31.7411 27.2703 34.4374 23.9789C37.2657 20.4333 46.9051 23.7261 47.418 21.1929C47.6759 19.9248 47.5469 16.7591 46.5182 15.7467C45.3471 14.8612 43.8755 14.4531 42.4078 14.6071H35.9821L35.9803 10.3063ZM34.3114 8.91259V16.0068C34.3114 17.0192 43.8189 15.4999 45.2361 17.0192C45.6559 18.1088 45.8307 19.2751 45.7488 20.4377C43.3074 20.4377 37.2656 20.3107 35.3416 21.1975C32.0035 22.8424 31.3572 25.2501 31.3572 28.7987C31.2844 30.2785 31.6306 31.7491 32.357 33.0463C33.0834 34.3434 34.1613 35.416 35.4705 36.1441C38.1699 37.6634 42.5382 37.0308 45.365 35.8898C45.7489 35.7642 46.394 35.3829 46.7778 35.2573C46.7778 35.7642 46.6487 36.651 47.1646 36.651H54.3582C54.4106 36.6585 54.4642 36.6537 54.5145 36.6373C54.5648 36.6209 54.6103 36.5931 54.6478 36.5563C54.6854 36.5194 54.714 36.4745 54.7308 36.425C54.7477 36.3755 54.7526 36.3228 54.7453 36.2711V18.2859C54.741 16.7354 54.4806 15.196 53.9744 13.7279C52.4328 9.29406 47.6776 8.66141 42.7964 8.66141H34.8226C34.5677 8.53281 34.3114 8.65987 34.3114 8.91259Z" fill="#CB0101"/>
<path fill-rule="evenodd" clip-rule="evenodd" d="M40.4727 28.5442C40.4727 27.9087 40.4732 27.2763 41.1165 27.0251C42.6917 26.8103 44.282 26.7254 45.8715 26.771C45.8715 29.5584 46.1267 29.1797 45.2284 29.5581C44.3302 29.9364 41.8903 30.8234 40.9921 29.8125C40.7944 29.6697 40.6407 29.4751 40.549 29.251C40.4573 29.027 40.4309 28.7823 40.4727 28.5442ZM38.6768 28.4172C38.7187 29.3698 39.0311 30.2918 39.5792 31.0776C40.3246 31.7248 41.2819 32.0848 42.2753 32.0914C43.9006 31.9562 45.4783 31.4807 46.9021 30.6964C47.1052 30.5244 47.2674 30.3105 47.3777 30.0699C47.4881 29.8294 47.5438 29.5679 47.5407 29.304C47.6261 28.248 47.5838 27.1859 47.4148 26.1397C47.382 25.9487 47.2923 25.7716 47.1569 25.6312C47.0367 25.4817 46.8774 25.3678 46.6961 25.3011C46.5148 25.2345 46.318 25.2177 46.1278 25.2529C44.458 25.1671 42.7842 25.2095 41.121 25.38C40.5518 25.4663 40.0278 25.7375 39.6325 26.1503C39.2373 26.5631 38.9935 27.0942 38.9391 27.6592C38.841 27.759 38.7667 27.8791 38.722 28.0108C38.6774 28.1426 38.6637 28.2823 38.6813 28.4201L38.6768 28.4172Z" fill="#CB0101"/>
</g>
<defs>
<clipPath id="clip0_9914_574">
<rect width="252" height="42" fill="white"/>
</clipPath>
</defs>
</svg>
