<?xml version="1.0" encoding="UTF-8"?><!DOCTYPE svg PUBLIC "-//W3C//DTD SVG 1.1//EN" "http://www.w3.org/Graphics/SVG/1.1/DTD/svg11.dtd"><svg xmlns="http://www.w3.org/2000/svg"><symbol id="011" viewBox="0 0 128 176"><path d="M30.19 0h3.41c.84.87 2.31 1.57 2.29 2.96.34 5.89-.05 11.79.15 17.69 1.15 1.21 2.49 2.31 3.33 3.78 1.27 3.05.92 7.01-1.61 9.34-3.14 3.33-9.26 3.07-12.06-.59-1.74-1.91-2.05-4.73-1.58-7.18.33-2.32 2.36-3.75 3.83-5.35.03-1.55.05-3.1.07-4.65-4.71.07-9.41-.11-14.11.01-1.57.11-3.42.05-4.6 1.29-1.49 1.48-1.19 3.79-1.33 5.7.05 33 .01 66 .02 99 .06 3.65-.31 7.34.32 10.96.54 2.52 3.4 3.12 5.59 3.03 31.03.03 62.06-.01 93.1.02 3.31-.04 6.68.25 9.96-.34 2.51-.54 3.11-3.38 3.02-5.57.04-35.7-.02-71.4.03-107.1-.07-2.26.1-5.34-2.38-6.44-2.42-.76-5.02-.38-7.48-.84-3.01-1.26-3-6.13-.05-7.45 2.86-.53 5.81-.44 8.68-.05 4.67.88 8.23 4.98 9.21 9.53v148.37c-.87 4.91-4.88 8.89-9.75 9.88H9.88c-4.91-.88-8.9-4.87-9.88-9.75V17.88c.72-3.6 2.98-6.86 6.23-8.6C8.57 7.87 11.38 8.01 14 7.96c4.64.05 9.28.04 13.92.04.11-2.83-.51-6.22 2.27-8M7.91 143.66c.21 2.13-.21 4.5.9 6.44 1.09 1.74 3.31 1.87 5.14 1.9 33.02.01 66.03-.03 99.04.02 2.14-.09 4.87.16 6.2-1.92 1.11-1.94.69-4.31.9-6.44-3.35.41-6.72.4-10.09.34H18c-3.36.06-6.74.07-10.09-.34m0 16c.21 2.13-.21 4.5.9 6.44 1.09 1.74 3.31 1.87 5.14 1.9 33.01.01 66.03-.03 99.04.02 2.13-.09 4.86.16 6.19-1.91 1.12-1.95.7-4.32.91-6.45-3.35.41-6.73.4-10.1.34H18c-3.37.06-6.74.07-10.09-.34z"/><path d="M62.19 0h3.41c.84.87 2.31 1.57 2.29 2.96.34 5.89-.05 11.79.15 17.69 1.48 1.6 3.5 3.03 3.84 5.35.46 2.45.16 5.26-1.58 7.18-2.79 3.66-8.92 3.92-12.06.58-2.53-2.32-2.88-6.29-1.61-9.34.85-1.46 2.17-2.56 3.32-3.77.03-1.55.05-3.1.07-4.65-4.62-.13-9.27.33-13.87-.24-2.97-1.33-3-6.14-.04-7.5 4.57-.61 9.21-.12 13.81-.26.11-2.83-.52-6.22 2.27-8zM94.19 0h3.41c.84.87 2.31 1.57 2.29 2.96.34 5.88-.05 11.79.15 17.69 1.48 1.6 3.51 3.03 3.84 5.35.46 2.46.16 5.27-1.58 7.18-2.8 3.66-8.92 3.92-12.06.59-2.53-2.33-2.88-6.29-1.61-9.34.84-1.47 2.17-2.57 3.32-3.78.03-1.55.05-3.1.07-4.65-4.62-.13-9.27.33-13.87-.24-2.97-1.33-3-6.12-.06-7.49 4.58-.63 9.23-.13 13.83-.27.1-2.83-.52-6.22 2.27-8zM17.55 62.62c2.52-1.9 6.95.03 6.5 3.41.41 3.38-4.11 5.27-6.57 3.29-2.16-1.53-2.12-5.22.07-6.7zM33.55 62.62c1.27-.93 2.99-.52 4.46-.65 6.4.15 12.82-.16 19.22.14 3.51.66 3.84 6.21.67 7.63-3.22.87-6.6.43-9.9.51-4.33-.13-8.69.31-13-.26-3.38-.5-4.21-5.56-1.45-7.37zM92.23 64.13c1.4-2.97 6.15-2.95 7.56 0 .33 1.93.22 3.9.23 5.85 1.98.06 4.03-.22 5.97.33 2.85 1.41 2.79 6.08-.1 7.44-5.01 1.21-10.23-.04-15.3.7-3.04 1.05-3.2 5.78-.21 7 4.23 1.3 8.78-.08 13.07.88 5 1.43 8.9 6.39 8.6 11.67.39 6.57-5.6 12.23-12.04 12.18-.05 1.93.22 3.93-.32 5.81-1.4 2.82-5.99 2.81-7.38-.01-.53-1.84-.28-3.78-.33-5.66-2.15-.24-4.62.27-6.5-1-2.59-1.77-1.91-6.61 1.29-7.21 4.74-.48 9.56.4 14.27-.44 3.43-.78 3.71-6.09.36-7.23-4.45-.6-9.08.38-13.44-.96-4.71-1.64-8.3-6.42-8.01-11.48-.38-6.55 5.59-12.26 12.04-12.16 0-1.9-.16-3.84.24-5.71zM17.55 78.62c2.51-1.9 6.94.02 6.5 3.39.42 3.4-4.11 5.3-6.57 3.31-2.16-1.53-2.12-5.22.07-6.7zM33.55 78.61c1.28-.91 2.99-.51 4.45-.64 7.75.15 15.5-.16 23.23.14 3.52.67 3.84 6.21.66 7.64-3.88.95-7.93.35-11.89.5-5-.14-10.03.33-15-.26-3.38-.5-4.21-5.57-1.45-7.38zM17.55 94.62c2.52-1.9 6.94.03 6.5 3.4.41 3.39-4.1 5.28-6.56 3.31-2.17-1.53-2.14-5.23.06-6.71zM33.56 94.61c1.27-.91 2.98-.51 4.44-.64 5.08.15 10.16-.17 15.23.14 3.52.67 3.83 6.21.66 7.64-2.55.74-5.26.47-7.88.51-3.67-.11-7.36.26-11-.27-3.39-.5-4.22-5.58-1.45-7.38zM17.55 110.62c2.52-1.9 6.94.03 6.5 3.4.41 3.39-4.11 5.28-6.57 3.3-2.16-1.52-2.12-5.22.07-6.7zM33.56 110.61c1.27-.91 2.97-.51 4.44-.64 10.41.15 20.83-.15 31.23.14 3.52.68 3.84 6.21.66 7.63-1.9.61-3.93.49-5.9.54-8.67-.07-17.35 0-26.03-.03-1.5-.14-3.24.08-4.49-.93-2.16-1.54-2.11-5.23.09-6.71z"/></symbol><symbol id="012" viewBox="0 0 176 152"><path d="M9.64 0h156.57c4.85.93 8.72 4.84 9.79 9.63v108.58c-1.07 5.54-6.2 10.18-11.98 9.79h-56.01c.04 4.03-.25 8.09.17 12.11.07 1.41.91 2.74 2.2 3.35 2.61.81 5.54.14 8.07 1.16 2.63 1.79 1.78 5.74-.59 7.38H58.32c-2.62-1.46-3.43-5.56-.77-7.38 2.53-1.02 5.45-.36 8.07-1.17 1.28-.6 2.13-1.92 2.2-3.33.68-5.97-.38-12.02.44-17.98.94-2.34 3.68-2.15 5.75-2.18 29 .09 57.99-.01 86.99.06 1.9-.16 4.22.16 5.69-1.33 1.49-1.48 1.18-3.79 1.33-5.7-.04-31-.03-61.99 0-92.99-.08-3.2.33-6.5-.57-9.62-1.11-2.49-4.18-2.33-6.46-2.4-46.67.04-93.33.02-140 .01-3.53.1-7.17-.41-10.61.56-2.49 1.12-2.33 4.18-2.4 6.46C8.02 46 8.01 77 7.98 108c.08 3.2-.35 6.51.57 9.62 1.11 2.49 4.18 2.33 6.45 2.4 12.67-.06 25.33.03 38-.06 1.65.03 3.33-.02 4.95.35 2.89 1.33 2.85 6.15-.09 7.42-1.6.34-3.24.28-4.86.31-11-.08-22-.03-33-.04-3.62-.04-7.27.23-10.87-.23-4.61-.91-8.07-4.94-9.13-9.41V9.79C.95 4.95 4.84 1.06 9.64 0M76 128c-.08 5.34.26 10.69-.31 16.01 8.2-.02 16.41-.02 24.62 0-.57-5.32-.23-10.67-.31-16.01H76z"/><path d="M19.55 19.61c1.3-.88 2.99-.51 4.46-.64 4.68.1 9.37-.06 14.05.05 2.19-.29 4.24 1.73 3.92 3.92.06 5.37.05 10.74 0 16.11.29 2.2-1.73 4.26-3.93 3.93-5.36.06-10.73.06-16.1 0-2.2.33-4.21-1.73-3.93-3.92-.11-4.69.05-9.38-.06-14.07.07-1.88-.29-4.23 1.59-5.38M26 27v8h8v-8h-8zM55.55 19.61c1.29-.88 2.98-.52 4.45-.64 12.33.06 24.66.03 36.99.01 1.28.08 2.85-.12 3.82.94 2.67 2.18.97 7.61-2.76 7.06-12.35.09-24.7-.05-37.05.05-1.63-.02-3.27.03-4.88-.25-2.68-1.29-3.03-5.49-.57-7.17zM55.55 35.61c1.3-.88 2.98-.52 4.45-.64 3.75.09 7.51-.16 11.25.15 3.86.67 3.73 7.35-.19 7.78-4.7.2-9.43.2-14.13 0-3.35-.39-4.1-5.55-1.38-7.29zM19.55 55.61c1.3-.88 2.98-.52 4.45-.64 4.68.09 9.37-.06 14.06.05 2.19-.28 4.25 1.73 3.92 3.92.06 5.37.05 10.75 0 16.12.28 2.19-1.73 4.24-3.92 3.92-5.37.06-10.74.06-16.11 0-2.2.33-4.22-1.73-3.93-3.93-.11-4.68.05-9.37-.06-14.06.07-1.88-.29-4.23 1.59-5.38M26 63v8h8v-8h-8zM55.55 55.61c1.3-.88 2.98-.52 4.46-.64 15.35.09 30.7-.03 46.04.05 4.31-.54 5.51 6.1 1.83 7.75-2.6.41-5.25.22-7.88.24-11.66-.02-23.33-.01-35-.01-2.96-.03-5.94.21-8.88-.22-2.68-1.3-3.03-5.5-.57-7.17zM55.55 71.61c1.29-.88 2.98-.52 4.45-.64 7 .06 14 .02 21 .01 1.29.08 2.85-.12 3.81.94 2.67 2.19.97 7.61-2.76 7.06-8.03.05-16.07.05-24.11 0-3.94.55-5.51-5.38-2.39-7.37zM17.55 88.61c1.3-.88 2.98-.52 4.45-.64 44.33.06 88.66.03 133 .01 1.28.08 2.84-.11 3.81.94 2.08 1.8 1.57 5.65-.93 6.86-2.94.43-5.93.19-8.88.22H26.99c-2.95-.03-5.93.21-8.86-.22-2.69-1.29-3.04-5.49-.58-7.17zM85.55 104.61c2.52-1.88 6.91.03 6.5 3.39.42 3.4-4.07 5.27-6.55 3.34-2.18-1.52-2.15-5.24.05-6.73z"/></symbol><symbol id="013" viewBox="0 0 176 136"><path d="M46.22 0h83.34c3.11 1.39 3.46 6.27.29 7.77-2.93.44-5.9.2-8.85.24C99 8 77 8 55 8.01c-2.95-.04-5.92.2-8.85-.23-3.16-1.52-2.77-6.13.07-7.78zM6.21 13.29c2.96-1.74 6.51-1.22 9.79-1.31 3.3.1 6.64-.25 9.92.28 2.92 1.4 2.88 6.16-.07 7.51-4.91.73-9.93-.33-14.82.55-2.51.56-3.13 3.4-3.03 5.6-.02 31.69.04 63.38-.02 95.08.04 2.26-.09 5.33 2.38 6.44 2.77.92 5.77.49 8.64.58 47.69-.05 95.38 0 143.07-.03 2.2.1 5.04-.5 5.61-3.01.94-7.57-.25-15.26.55-22.84 1.51-3.15 5.99-2.65 7.77-.01v23.98c-.86 4.92-4.88 8.92-9.75 9.89H9.89c-4.91-.86-8.92-4.88-9.89-9.76V21.89c.69-3.61 2.97-6.84 6.21-8.6z"/><path d="M37.56 12.61c1.28-.94 2.98-.51 4.45-.64 31.36.07 62.72 0 94.07.04 4.29-.49 5.46 6.13 1.79 7.78-2.6.4-5.25.18-7.87.21H46.01c-2.63-.04-5.27.2-7.88-.21-2.68-1.3-3.06-5.51-.57-7.18z"/><path d="M150.14 19.77c-3.23-1.4-2.9-7.1.7-7.65 4.74-.28 9.5-.13 14.25-.09 5.37.07 9.87 4.62 10.91 9.72v67.82c-.95 1.27-2.11 2.72-3.91 2.4-14.69.07-29.39.03-44.08.01-2.1.11-4.83-.19-6.13 1.88-1.95 2.86-3 6.23-4.89 9.12-2.15 3.27-6.07 5.32-10 5.04-12.66-.03-25.33-.03-37.99 0-3.93.28-7.83-1.77-9.98-5.03-1.9-2.9-2.96-6.27-4.91-9.14-1.29-2.06-4.02-1.76-6.12-1.87-9.01.02-18.02.03-27.03.03-1.36-.09-3.01.15-3.95-1.11-2.43-2.26-.72-7.33 2.86-6.87 10.37-.1 20.75.02 31.13-.05 3.73-.27 7.43 1.56 9.64 4.54 2.13 2.99 3.18 6.59 5.24 9.62 1.3 2.07 4.04 1.77 6.13 1.88 10.66-.03 21.32-.03 31.98 0 2.09-.11 4.83.19 6.13-1.87 2.06-3.03 3.11-6.64 5.24-9.63 2.21-2.98 5.91-4.81 9.65-4.54 14.33.04 28.66.01 42.99.02-.01-19.36.02-38.72-.01-58.07.1-2.2-.51-5.05-3.02-5.61-4.9-.87-9.92.18-14.83-.55z"/><path d="M33.09 24.21c2.62-.38 5.28-.19 7.91-.21 33 0 66.01.01 99.01-.01 6.45-.45 12.45 5.56 12 12.01-.03 12.03.01 24.06-.02 36.09.48 3.69-4.86 5.37-7.04 2.74-1.1-.96-.93-2.53-.97-3.84.05-10.66-.01-21.32.04-31.99-.11-1.91.17-4.21-1.33-5.69-1.18-1.26-3.05-1.25-4.65-1.31H37.97c-1.6.06-3.47.05-4.66 1.31-1.26 1.19-1.25 3.06-1.31 4.66-.02 11.37.03 22.74-.01 34.11.49 3.69-4.85 5.38-7.03 2.75-1.12-.95-.93-2.53-.98-3.84.04-11.67.02-23.33.01-35-.37-5.46 3.86-10.61 9.1-11.78z"/><path d="M41.56 40.62c1.6-1.17 3.89-.79 5.42.34 11.45 7.29 22.9 14.58 34.36 21.87 3.67 2.56 8.81 2.83 12.62.4 11.93-7.47 23.74-15.14 35.65-22.62 2.53-1.86 6.88.06 6.43 3.41.37 2.09-1.53 3.35-3.03 4.3-10.16 6.42-20.29 12.89-30.44 19.35-2.69 1.69-5.3 3.64-8.4 4.55-5.68 1.83-12.15.99-17.15-2.26-11.6-7.42-23.23-14.77-34.83-22.19-2.74-1.22-3.11-5.49-.63-7.15z"/></symbol><symbol id="014" viewBox="0 0 176 170"><path d="M6.17 2.32C8.84.8 12.01.83 14.99.74 61.66.76 108.33.75 155 .75c3.95.03 7.94-.25 11.85.45 4.62.97 8.16 4.97 9.15 9.5v27.9c-.62.83-1.34 1.56-2.17 2.17-3.26.47-6.56.19-9.83.23-47.68.01-95.35-.01-143.03.01-1.38-.09-3.04.13-3.99-1.14-2.04-2.05-1.09-6.35 1.94-6.82 3.33-.54 6.72-.27 10.07-.31 46.34.02 92.67 0 139 .01-.01-5.58.03-11.16.03-16.75-.14-1.9.17-4.21-1.33-5.69-1.18-1.26-3.05-1.19-4.62-1.3-49.02-.03-98.05.03-147.07-.03-1.9.14-4.21-.17-5.69 1.33-1.5 1.48-1.19 3.78-1.33 5.69.05 38.67.01 77.33.02 116 .05 3.33-.28 6.71.33 10 .45 2.08 2.68 2.99 4.62 2.76 13.35-.02 26.71.01 40.06-.03 1.64.05 3.32.03 4.9.55 2.94 1.35 2.89 6.14-.05 7.48-1.93.34-3.91.25-5.87.27-13.69-.11-27.38.06-41.07-.07-5.37-.05-9.84-4.59-10.92-9.67V10.86c.72-3.57 2.95-6.8 6.17-8.54z"/><path d="M17.55 17.62c2.49-1.95 6.93.03 6.49 3.38.45 3.4-4.07 5.28-6.54 3.34-2.17-1.52-2.14-5.25.05-6.72zM33.55 17.62c2.5-1.95 6.93.04 6.49 3.39.44 3.39-4.07 5.26-6.54 3.33-2.17-1.51-2.15-5.25.05-6.72zM49.56 17.62c2.5-1.94 6.92.04 6.48 3.38.44 3.4-4.08 5.28-6.54 3.33-2.17-1.51-2.14-5.25.06-6.71zM168.24 51.14c1.5-3.15 6.08-2.73 7.76.06v91.94c-1 5.57-6.19 10.25-11.97 9.87-12.68.01-25.36-.04-38.04.01-2.61-.03-5.26.16-7.85-.26-2.94-1.34-2.99-6.14-.04-7.48 1.9-.6 3.93-.52 5.9-.56 12.67.08 25.34-.02 38.01.06 1.56-.12 3.47.25 4.65-1.06 1.53-1.47 1.2-3.81 1.36-5.72-.05-26 0-52-.03-78 .03-2.95-.21-5.93.25-8.86zM67.11 63.98c1.78-4.69 6.97-7.59 11.92-7.03 3.38-.04 5.86 2.6 8.97 3.43 2.45-.61 4.39-2.41 6.81-3.09 4.81-1.45 10.38.61 13.14 4.79 1.62 2.36 1.63 5.43 3.15 7.83 1.93 1.27 4.36 1.39 6.44 2.35 4.36 2.07 7.05 6.97 6.52 11.76.03 3.39-2.61 5.87-3.44 8.98.61 2.34 2.22 4.25 3.02 6.53 1.23 4.42.03 9.58-3.6 12.55-2.46 2.37-6.14 2.33-8.95 4.02-1.16 1.78-1.37 3.98-2.2 5.92-1.79 4.7-6.99 7.61-11.95 7.01-3.36.05-5.84-2.59-8.94-3.41-2.52.65-4.54 2.5-7.05 3.16-1.64.28-3.3.25-4.95.31 0 9.22-.01 18.44 0 27.66 3.62-2.53 6.89-5.56 10.75-7.72h2.5c3.85 2.15 7.13 5.19 10.75 7.72.09-5.6-.16-11.21.09-16.81.44-4.02 7.36-4.02 7.82-.01.21 8.37.05 16.76.08 25.13.44 3.34-3.93 5.19-6.38 3.29-4.6-3.31-9.05-6.82-13.61-10.16-4.56 3.34-9.01 6.85-13.6 10.15-2.43 1.99-6.84.03-6.39-3.28-.08-13.82.11-27.65-.09-41.47-1.39-2.34-1.65-5.16-3.01-7.49-1.79-1.17-3.99-1.38-5.93-2.21-4.69-1.79-7.6-6.98-7.03-11.93-.03-3.36 2.6-5.85 3.43-8.96-.83-3.12-3.47-5.59-3.44-8.98-.4-4 1.31-8.08 4.51-10.51 2.42-2.05 5.84-1.97 8.46-3.61 1.15-1.78 1.37-3.98 2.2-5.92m9.32 1.54c-1.84.72-1.98 2.92-2.56 4.52-.9 4.01-4.03 7.5-8.04 8.59-1.82.74-4.41.72-5.31 2.81-1.13 2.39 1.02 4.49 1.9 6.55 2.01 3.91 1.22 8.7-1.2 12.25-1.17 1.6-1.5 4.02.1 5.48 2.2 1.35 4.95 1.41 7.16 2.76 2.41 1.55 4.41 3.87 5.15 6.68.74 1.82.71 4.42 2.8 5.32 2.4 1.13 4.5-1.02 6.56-1.9 3.91-2.02 8.71-1.22 12.25 1.2 1.6 1.17 4.02 1.5 5.48-.1 1.35-2.2 1.41-4.95 2.76-7.16 1.55-2.41 3.87-4.41 6.68-5.15 1.82-.75 4.42-.71 5.32-2.8 1.13-2.39-1.01-4.49-1.9-6.55-2.02-3.91-1.22-8.71 1.19-12.26 1.38-1.75 1.5-4.83-.78-5.88-2.99-1.16-6.49-1.58-8.71-4.17-2.58-2.21-3-5.71-4.16-8.7-1.05-2.28-4.13-2.16-5.89-.78-3.54 2.41-8.34 3.21-12.25 1.19-2.06-.89-4.16-3.03-6.55-1.9z"/><path d="M83.39 77.5c2.81-.75 5.81-.77 8.65-.14 6.95 1.64 12.34 8.45 12.02 15.65.44 8.61-7.45 16.46-16.05 16.05-8.62.44-16.5-7.44-16.07-16.06-.31-6.99 4.77-13.62 11.45-15.5m2.11 8.05c-3.1 1.03-5.46 4.14-5.28 7.45-.25 4.17 3.61 8.02 7.77 7.78 4.63.29 8.59-4.38 7.74-8.91-.45-4.73-5.8-7.89-10.23-6.32z"/></symbol><symbol id="1515222-200" viewBox="0 0 200 200"><path d="M65.18 60.25c22.27-.58 44.6-.1 66.89-.23 8.51-.23 16.13 7.43 15.91 15.93.03 16.05.03 32.1 0 48.14.19 8.49-7.44 16.1-15.93 15.89-21.37.03-42.75.03-64.12 0-6.41.09-12.57-4.16-14.83-10.15-1.32-3.1-1.09-6.53-1.11-9.82.04-14.69-.03-29.39.03-44.08-.16-7.51 5.75-14.51 13.16-15.68m-1.96 8.94c9.47 10.35 19.8 19.9 29.57 29.97 2.06 1.95 4.03 4.75 7.21 4.62 2.62.13 4.5-1.9 6.18-3.6 10.15-10.36 20.64-20.38 30.64-30.87-1.85-.76-3.77-1.45-5.8-1.32-18.66.02-37.33 0-55.99.01-3.95.07-8.08-.51-11.81 1.19m-3.21 8.48c.01 16.03-.08 32.05.03 48.07 7.59-8.42 14.97-17.05 22.46-25.57-7.48-7.51-14.99-15-22.49-22.5m57.47 22.5c7.49 8.52 14.87 17.14 22.46 25.57.13-16.02.03-32.05.05-48.07-7.51 7.5-15.02 14.99-22.51 22.5m-29.33 5.74c-7.5 8.63-15.16 17.14-22.55 25.88 5.81.41 11.63.13 17.44.21 17.11-.14 34.24.28 51.34-.22-7.4-8.73-15.04-17.25-22.56-25.87-2.97 3.41-7.08 6.16-11.78 6.03-4.74.17-8.89-2.6-11.89-6.03z"/></symbol><symbol id="1515231-200" viewBox="0 0 200 200"><path d="M78.19 64.25c6.09-11.1 21.23-15.25 32.51-9.96 7.69 3.29 13.9 11.02 13.32 19.69-.35 7.61.79 15.39-.95 22.88-1.14 4.88-3.83 9.22-7.06 12.99-.01.82-.02 2.47-.02 3.29 7.03 2.51 14.1 4.91 21.13 7.43 3.75 1.28 7 3.93 8.89 7.43 2.76 4.89 1.96 10.74 1.92 16.12.12 2.57-2.53 4.21-4.89 3.88H56.91c-2.33.31-4.97-1.3-4.85-3.87-.02-5.39-.85-11.27 1.94-16.17 1.89-3.49 5.15-6.12 8.89-7.4 7.02-2.51 14.08-4.92 21.11-7.41 0-.81.01-2.44.02-3.26-2.72-3.19-5.13-6.72-6.44-10.74C75.33 93 76.14 86.35 76 79.94c.03-5.26-.62-10.94 2.19-15.69m8.08 2.06c-3.04 3.53-2.19 8.45-2.28 12.73.23 6.85-1.07 14.25 2.49 20.5 1.59 3.69 6.36 5.89 5.56 10.45-.34 3.15 1.22 7.91-2.4 9.58-8.46 3.35-17.28 5.78-25.68 9.27-4.16 2.06-4.18 7.16-3.99 11.16h80.06c.28-4.2-.01-9.67-4.6-11.48-8.02-3.1-16.26-5.64-24.32-8.62-1.33-.46-2.71-1.36-2.94-2.87-.33-3.33-.32-6.71-.01-10.05 1.38-2.73 4.08-4.59 5.36-7.41 3.54-6.29 2.25-13.71 2.48-20.58-.13-4.07.77-8.68-1.87-12.16-6.37-8.85-21.14-9.07-27.86-.52z"/></symbol><symbol id="1515265-200" viewBox="0 0 200 200"><path d="M56.02 67.93c-.23-8.52 7.44-16.16 15.96-15.91 18.7-.03 37.4-.03 56.1 0 8.51-.22 16.13 7.45 15.9 15.94.03 13.37.03 26.74 0 40.1.08 6.41-4.16 12.56-10.14 14.83-2.8 1.2-5.9 1.13-8.88 1.13-7.68-.05-15.36.01-23.03-.04-6.46 7.55-12.66 15.33-19.17 22.83-2.19 2.61-7 .62-6.73-2.77-.1-6.67.01-13.35-.03-20.02-3.56 0-7.3.15-10.59-1.45-5.61-2.46-9.47-8.38-9.39-14.51-.04-13.38-.03-26.76 0-40.13m8.01-.01c-.05 13.39-.05 26.79 0 40.18-.06 3.28 2.2 6.37 5.27 7.43 3.52.95 7.21.22 10.8.51 2.08-.08 3.96 1.83 3.86 3.91.15 4.33-.02 8.66.05 12.98 3.92-4.71 7.86-9.41 11.75-14.15 1.09-1.27 2.28-2.91 4.18-2.75 9.39-.12 18.79.06 28.18-.06 4.17.08 7.92-3.66 7.85-7.82.06-13.4.05-26.8 0-40.2.13-4.2-3.62-8.02-7.83-7.92-18.74-.05-37.49-.05-56.23 0-4.22-.12-8.01 3.67-7.88 7.89z"/><path d="M82.35 84.33c2.51-1.28 5.81.89 5.66 3.7.12 3.09-3.86 5.18-6.31 3.26-2.55-1.6-2.14-5.86.65-6.96zM98.27 84.37c2.51-1.35 5.86.8 5.75 3.62.14 3.14-3.92 5.25-6.37 3.26-2.47-1.6-2.09-5.74.62-6.88zM114.38 84.31c2.52-1.23 5.76.92 5.63 3.71.13 3.11-3.9 5.21-6.35 3.24-2.52-1.63-2.08-5.87.72-6.95z"/></symbol><symbol id="1515313-200" viewBox="0 0 200 200"><path d="M91.52 52.74c11.92-2.14 24.62.38 34.73 7.07 11.91 7.72 20.08 20.95 21.47 35.1 1.46 13.03-2.77 26.55-11.39 36.43-9.17 10.75-23.27 17.05-37.4 16.64-14.15-.21-27.98-7.16-36.66-18.32-9.09-11.36-12.42-26.98-8.91-41.08C57.58 70.5 73.2 55.81 91.52 52.74M69.21 74.39c-7.26 8.68-10.55 20.54-8.72 31.72 1.25 8.55 5.59 16.41 11.58 22.56 1.32-8.99 6.8-17.17 14.83-21.5-2.1-2.28-4.26-4.63-5.37-7.58-3.24-7.47-1.17-16.79 4.86-22.24 5.88-5.62 15.31-6.96 22.53-3.24 7.32 3.55 11.94 11.9 10.95 20-.44 5.06-3.23 9.56-6.79 13.06 8.04 4.35 13.49 12.52 14.84 21.52 6.45-6.63 10.95-15.27 11.83-24.54 1.39-12.06-3.21-24.57-11.95-32.96-8.07-7.9-19.61-12.09-30.88-11.15-10.67.76-20.92 6.09-27.71 14.35m27.21 6.14c-3.94 1.21-7.13 4.58-8.08 8.6-1.92 6.86 3.53 14.44 10.63 14.82 7.13.85 13.84-5.86 12.97-12.99-.38-7.38-8.53-12.86-15.52-10.43m-10.03 36.83c-4.89 4.31-6.78 10.99-6.44 17.34 12.25 6.98 27.88 6.97 40.12-.02.3-6.34-1.59-12.99-6.46-17.31-7.26-7.09-19.96-7.1-27.22-.01z"/></symbol><symbol id="1515359-200" viewBox="0 0 200 200"><path d="M72.05 63.86c-.11-4.2 3.67-7.94 7.86-7.81 19.02-.14 38.06.03 57.09-.08 2.56.06 5.41-.18 7.57 1.47 2.47 1.62 3.58 4.62 3.43 7.49-.02 21.71.04 43.43-.03 65.15.22 7.46-6.49 14.14-13.95 13.89-22.34.07-44.68 0-67.02.04-5.22.3-10.55-2.32-13.13-6.95-2.07-3.29-1.9-7.3-1.9-11.03.11-11.39-.08-22.78.08-34.16-.08-3.82 3.05-7.42 6.87-7.74 4.35-.34 8.72-.05 13.08-.13.07-6.71-.12-13.43.05-20.14M80 64v57.02c-.05 5.01.48 10.16-1.15 15 15.72-.05 31.45-.01 47.17-.02 3.26-.05 6.55.26 9.78-.28 2.93-.71 4.47-3.85 4.2-6.7.01-21.67-.01-43.35 0-65.02H80M60 92c-.01 12.01.02 24.03-.03 36.04.08 1.9-.08 4.04 1.21 5.61 2.05 2.89 6.72 3.15 9.13.58 1.71-1.57 1.68-4.04 1.71-6.17-.04-12.02-.01-24.04-.02-36.06H60z"/><path d="M90.31 72.36c11.18-.88 22.5-.07 33.73-.39 2.74 0 7.07-.53 7.78 3.05.39 5.66.19 11.38.11 17.05.13 2.6-2.51 4.25-4.89 3.93-12-.11-24.02.25-36.01-.18-4.91-1.56-2.47-7.99-3.04-11.81.56-3.77-1.65-9.28 2.32-11.65M96 80v8h28v-8H96zM90.29 104.37c11.18-.9 22.5-.07 33.74-.4 2.42.18 5.62-.62 7.24 1.72 1.92 2.41-.11 6.43-3.2 6.24-11.01.2-22.03-.03-33.05.11-2.13-.12-4.9.36-6.28-1.72-1.49-1.91-.66-5 1.55-5.95zM90.3 120.37c7.17-.9 14.48-.08 21.7-.4 2.43.18 5.67-.63 7.29 1.74 1.88 2.41-.12 6.39-3.2 6.22-7.03.22-14.07-.04-21.1.11-1.94-.16-4.32.34-5.83-1.22-1.98-1.81-1.32-5.42 1.14-6.45z"/></symbol><symbol id="1515370-200" viewBox="0 0 200 200"><path d="M91.51 52.74c11.92-2.15 24.63.38 34.74 7.08 11.9 7.7 20.05 20.91 21.46 35.03 1.42 12.57-2.43 25.61-10.46 35.39-8.5 10.57-21.66 17.23-35.23 17.71-14.9.75-29.9-6.03-39.23-17.65-9.3-11.21-12.89-26.79-9.61-40.96 3.97-18.41 19.76-33.5 38.33-36.6m3.79 7.53c-11.96 1.33-23.07 8.45-29.34 18.71-6.07 9.69-7.6 22.05-4.14 32.95 2.88 9.35 9.37 17.51 17.8 22.48 8.68 5.19 19.37 6.87 29.22 4.59 10.12-2.24 19.22-8.66 24.79-17.39 5.79-8.88 7.76-20.13 5.37-30.46-2.34-10.61-9.28-20.07-18.63-25.57-7.47-4.48-16.43-6.32-25.07-5.31z"/><path d="M96.19 71.02c.54-3.97 7.07-3.95 7.62.01.51 5.81 0 11.66.21 17.48 4.38 2.13 7.97 6.36 7.82 11.44.25 7.1-6.89 13.32-13.9 11.84-6.56-1.05-11.22-8.19-9.47-14.62.81-4.02 4.04-6.83 7.51-8.65.2-5.83-.3-11.69.21-17.5m2.11 25.34c-2.48 1.04-3.12 4.69-1.11 6.5 2.06 2.24 6.21.96 6.73-2.02.82-3.08-2.8-5.97-5.62-4.48zM78.33 76.33c2.84-1.47 6.45 1.47 5.59 4.55-.55 2.97-4.68 4.21-6.74 1.98-2.02-1.82-1.36-5.5 1.15-6.53zM118.34 76.33c2.51-1.27 5.81.87 5.67 3.68.13 3.08-3.81 5.18-6.28 3.3-2.57-1.58-2.19-5.86.61-6.98zM70.35 96.32c2.52-1.25 5.79.89 5.66 3.69.14 3.11-3.87 5.21-6.33 3.26-2.53-1.61-2.11-5.85.67-6.95zM126.29 96.35c2.52-1.32 5.87.84 5.72 3.68.12 3.08-3.83 5.16-6.29 3.28-2.54-1.58-2.19-5.82.57-6.96zM78.47 116.61c2.31-1.31 4.33.74 6.09 1.98 7.13 5.96 17.75 7.01 26.08 3.02 3.17-1.3 5.45-4.04 8.51-5.51 3.33-.93 6.32 3.44 4.11 6.14-11.66 12.92-34.09 13.08-46.08.5-1.8-1.79-.97-5.14 1.29-6.13z"/></symbol><symbol id="1515435-200" viewBox="0 0 200 200"><path d="M81.36 58.42c2-3.89 6.23-6.47 10.62-6.39 5.38-.07 10.76-.08 16.14 0 4.32-.04 8.47 2.51 10.47 6.33 1.67 2.92 1.35 6.4 1.48 9.64 5.7.09 11.41-.19 17.11.11 5.95.33 10.93 5.88 10.79 11.82-.03 8.35.26 16.72-.15 25.05-.73 3.62-5.07 2.98-7.82 3.11-.04 9.31.07 18.62-.03 27.92.2 6.38-5.51 12.12-11.88 11.95-18.72.07-37.44.06-56.15.01-6.37.18-12.12-5.54-11.91-11.92-.1-9.32.01-18.64-.03-27.96-2.74-.14-7.11.52-7.82-3.1-.41-8.35-.12-16.74-.14-25.1-.15-5.96 4.89-11.5 10.86-11.79 5.67-.29 11.36-.01 17.04-.1.12-3.21-.21-6.67 1.42-9.58m7.33 3.3c-1.06 1.89-.56 4.21-.77 6.28h24.16c-.22-2.61.59-6.35-2.41-7.65-4.5-.8-9.12-.15-13.66-.38-2.45.19-5.7-.64-7.32 1.75M60.07 79.87c-.22 6.71.01 13.42-.07 20.13h27.91c.24-2.61-.6-6.35 2.42-7.65 4.52-.8 9.16-.15 13.74-.38 2.42.18 5.65-.62 7.24 1.77 1.04 1.89.56 4.19.78 6.26H140c-.08-6.7.15-13.4-.07-20.09.14-2.58-2.47-4.24-4.84-3.91H64.97c-2.37-.33-5.04 1.27-4.9 3.87M96 100v12h8v-12h-8m-28 8c.07 9.38-.12 18.76.07 28.13-.13 2.6 2.54 4.18 4.89 3.86 18.05.01 36.1.02 54.15 0 2.38.32 4.97-1.37 4.82-3.94.19-9.35 0-18.7.07-28.05h-20.01c-.07 3.22.37 6.52-.36 9.69-1.33 2.97-5.04 2.22-7.66 2.34-4.53-.22-9.13.41-13.61-.37-4.03-2.32-1.82-7.89-2.35-11.66H68z"/></symbol><symbol id="1515607-200" viewBox="0 0 200 200"><path d="M84.69 57.62c1.03-3.96 5.5-6.46 9.43-5.43 2.13.41 3.69 2.04 5.21 3.46 13.43 13.59 27.08 26.98 40.49 40.59 4.11 3.9 2.05 11.68-3.47 13.01-8.5 2.12-17.11 3.8-25.65 5.8 3.99 4.1 8.19 8.01 12.1 12.18 3.52 3.73 4.16 9.73 1.69 14.19-3.43 6.95-13.72 8.81-19.28 3.36-4.55-4.29-8.83-8.85-13.31-13.21-3.56 2.33-7.56 4.23-11.89 4.33-7.52.5-15.09-3.49-18.96-9.95-4.63-7.34-3.97-17.6 1.7-24.2 4.85-5.51 10.57-10.22 15.35-15.78 2.71-9.29 4.13-18.97 6.59-28.35m7.68 2.4c-1.99 8.91-4.01 17.81-5.99 26.71 6.97 6.92 13.92 13.86 20.88 20.78l26.73-5.82c-13.87-13.9-27.74-27.79-41.62-41.67M69.32 106.4c-4.66 4.79-4.31 13.18.47 17.76 4.58 4.83 13.01 5.16 17.81.48 4.34-4.11 8.46-8.45 12.72-12.64-6.1-6.12-12.21-12.23-18.32-18.34-4.2 4.28-8.55 8.4-12.68 12.74M97.66 126c4.65 4.41 8.84 9.33 13.76 13.43 3.84 2.54 8.75-3.1 5.65-6.53-4.14-4.61-8.76-8.78-13.07-13.24-2.12 2.11-4.23 4.22-6.34 6.34zM112.27 52.37c15.76-2.23 30.95 12.9 29.6 28.66-.6 2.62-4.09 3.91-6.22 2.22-1.79-1.16-1.49-3.53-1.85-5.35-.58-8.17-6.99-15.43-14.92-17.28-2.17-.44-4.39-.51-6.54-1.03-3.09-1.1-3.07-5.99-.07-7.22z"/></symbol><symbol id="1515651-200" viewBox="0 0 200 200"><path d="M89.26 56.29c4.08-5.1 11.83-5.34 17.47-3.09 5.33 2.33 6.59 8.41 7.28 13.58a67.66 67.66 0 0 1 7.74 4.48c3.62-1.24 7.38-3.14 11.31-2.18 5.99 1.27 9.69 7.39 10.76 13.02.87 5.91-3.82 10.18-7.99 13.47.19 2.94.18 5.89 0 8.83 2.76 2.52 6.23 4.71 7.43 8.46 2.07 5.8-1.37 11.99-5.55 15.89-4.64 3.94-11 2.25-15.99.01a75.497 75.497 0 0 1-7.71 4.44c-.71 5.15-1.98 11.2-7.28 13.56-5.63 2.33-13.42 1.98-17.44-3.17-2.42-2.91-2.56-6.85-3.3-10.39a67.922 67.922 0 0 1-7.76-4.48c-3.58 1.23-7.3 3.1-11.19 2.21-6.02-1.2-9.71-7.28-10.89-12.88-1.04-6.05 3.85-10.34 8.04-13.74a49.63 49.63 0 0 1 0-8.62c-2.66-2.59-6.12-4.72-7.36-8.41-2.23-6.03 1.35-12.66 5.99-16.46 4.64-3.5 10.61-1.68 15.43.4 2.48-1.64 5.07-3.12 7.73-4.45.65-3.59.77-7.59 3.28-10.48m7.9 3.92c-4.62 2.45-1.57 9.51-5.29 12.66-3.26 1.66-6.73 2.99-9.54 5.4-3.45 3.31-7.74-.45-11.47-1.19-3.81-1.63-5.98 3.03-6.79 5.97.32 3.56 4.36 4.94 6.53 7.33 3.34 2.23 1.13 6.42 1.43 9.63-.21 3.18 1.85 7.37-1.52 9.51-2.2 2.37-6.21 3.88-6.43 7.5.83 2.46 2.04 5.61 4.87 6.26 3.78-.38 7.08-2.98 10.9-2.99 2.83 1.22 4.95 3.66 7.83 4.82 1.73.96 4.04 1.3 5.19 3.04 1.44 3.3.96 7.16 2.59 10.39 1.94 2.18 5.58 1.8 8.05.89 3.33-2.98 1.49-8.44 4.02-11.91 2.02-1.48 4.52-2.06 6.61-3.4 2.11-1.12 3.76-3.01 6.03-3.83 3.79.09 7.07 2.59 10.84 3.01 2.84-.64 4.07-3.82 4.89-6.3-.26-3.57-4.29-5.03-6.43-7.45-3.37-2.17-1.33-6.33-1.52-9.52.22-2.63-.99-5.34-.14-7.88 1.59-2.17 3.94-3.6 5.9-5.4 5.16-2.98-.47-12.56-5.59-9.33-3.35.87-7.34 3.97-10.42.88-2.97-2.68-6.88-3.78-10.18-5.87-2.07-3.3-1.18-7.63-3.04-11.03-1.76-2.09-4.93-1.52-7.32-1.19z"/><path d="M97.2 84.24c9.4-1.98 19.11 6.16 18.78 15.76.26 8.93-8.15 16.8-17.04 15.95-8.88-.33-16.17-9.14-14.82-17.93.74-6.81 6.33-12.68 13.08-13.78m.13 8.21c-3.13 1.06-5.39 4.23-5.34 7.55-.1 4.27 3.73 8.1 8 8 4.65.12 8.68-4.43 7.94-9.03-.48-4.88-6.02-8.32-10.6-6.52z"/></symbol><symbol id="1515744-200" viewBox="0 0 200 200"><path d="M52.03 61.92c-.16-6.33 5.51-12.03 11.84-11.89 14.73-.05 29.47-.05 44.2 0 5.97-.14 11.5 4.93 11.83 10.9.17 3.33.26 6.69-.05 10.01-.6 3.57-6.09 4.13-7.46.8-.93-3.48 0-7.16-.53-10.7-.41-2.19-2.75-3.28-4.8-3.04-10.87 0-21.75-.01-32.62.01 9.04 4.22 18.17 8.25 27.17 12.54 1.75.72 2.31 2.68 2.19 4.41 0 15.69-.01 31.38 0 47.07 2.63-.13 6.41.62 7.66-2.46.8-3.46-.02-7.07.48-10.57.52-2.74 4.26-4.01 6.34-2.14 2.38 2 1.28 5.49 1.56 8.18.32 4.49-.75 9.46-4.55 12.29-3.15 2.78-7.54 2.76-11.49 2.71-.07 5.35.12 10.7-.05 16.05.11 2.65-3.02 4.8-5.41 3.51-11.92-5.31-23.74-10.86-35.63-16.26-6.37-2.71-10.79-9.38-10.7-16.31-.01-18.37-.04-36.74.02-55.11m8.06-1.56c-.21 18.56-.03 37.11-.1 55.66-.34 4.2 2.09 8.39 5.98 10.04 9.99 4.62 20.02 9.14 30.02 13.73-.06-21.11.16-42.23-.1-63.34-12.02-5.18-23.78-10.93-35.8-16.09z"/><path d="M128.34 78.88c-.9-3.5 3.87-6.2 6.39-3.66 4.11 3.9 8.1 7.96 12.06 12.02 1.57 1.4 1.61 4.03.04 5.45-4.13 4.25-8.29 8.49-12.6 12.56-2.72 2.55-7.56-.65-6.23-4.18 1.45-2.85 4.26-4.71 6.36-7.07-6.45-.15-12.93.24-19.37-.17-3.91-.72-3.91-6.99.01-7.7 6.45-.38 12.92-.02 19.38-.16-2-2.34-5.08-4.07-6.04-7.09z"/></symbol><symbol id="basket" viewBox="0 0 200 200"><path d="M54.28 52.37c5.63-1.14 12.19-.33 16.41 3.9 4.27 4.19 5.07 10.44 7.32 15.73H88c.13-5.65-.27-11.32.17-16.95.3-2.25 2.74-3.24 4.77-3.05 10.05 0 20.1-.01 30.15 0 2.38-.32 4.99 1.34 4.85 3.93.2 5.35-.02 10.71.06 16.07 5.38.08 10.76-.14 16.14.06 2.91-.12 4.7 3.31 3.44 5.8-3.31 10-6.64 20-10.01 29.98-1.55 4.85-6.43 8.29-11.51 8.14-10.7.04-21.4.03-32.09 0-5.21.21-10.16-3.32-11.74-8.26C77.2 93.78 72.2 79.83 67.21 65.87c-.68-1.82-1.58-3.73-3.34-4.75-2.85-1.83-6.45-.62-9.57-1.49-3.02-1.23-3.04-6.02-.02-7.26M96 60v12h24V60H96M80.82 80c3.03 8.38 5.92 16.8 9.03 25.14.58 2.28 2.97 3.05 5.08 2.87 10.38-.06 20.77.07 31.15-.06 2.27.2 3.77-1.75 4.27-3.74 2.71-8.06 5.39-16.14 8.1-24.2C119.24 80 100.03 80 80.82 80zM88.38 124.54c6.99-2.47 15.16 3 15.57 10.38.9 7.18-5.89 13.95-13.07 13.02-6.38-.42-11.6-6.66-10.84-13.02.34-4.73 3.81-9 8.34-10.38m1.98 7.78c-2.78 1.1-3.21 5.32-.69 6.94 2.45 1.96 6.46-.13 6.34-3.24.13-2.8-3.13-4.95-5.65-3.7zM120.37 124.54c6.99-2.47 15.17 3 15.58 10.38.89 7.18-5.88 13.94-13.06 13.02-7.08-.42-12.49-8.01-10.55-14.85.96-3.99 4.12-7.34 8.03-8.55m1.89 7.83c-2.73 1.17-3.07 5.37-.53 6.93 2.46 1.9 6.4-.21 6.28-3.29.13-2.84-3.24-5-5.75-3.64z"/></symbol><symbol id="en" viewBox="0 0 512.001 512.001"><path d="M482.449 354.877l-.006-39.552-.006-39.551-.006-39.552-.006-39.552-.006-39.552-.001-11.516a35.282 35.282 0 0 0-13.874-28.036 35.513 35.513 0 0 0-3.775-2.521l-64.164-37.031-68.534-39.552-58.47-33.742a35.274 35.274 0 0 0-19.71-4.658 35.252 35.252 0 0 0-15.577 4.664l-58.412 33.736-68.479 39.552-64.236 37.101c-1.251.722-6.697 5.037-6.697 5.037a35.273 35.273 0 0 0-10.941 25.526l.001 4.453.001 6.988.001 9.695.005 29.857v.446l.003 16.677.004 22.428.005 27.96.003 11.592.006 39.551.006 39.552.001 11.516a35.288 35.288 0 0 0 13.874 28.036 35.513 35.513 0 0 0 3.775 2.521l64.164 37.031 68.532 39.552 58.467 33.744a35.291 35.291 0 0 0 35.287-.006l58.412-33.737 68.479-39.552 64.236-37.1a35.327 35.327 0 0 0 3.677-2.451 35.288 35.288 0 0 0 13.963-28.111l-.002-11.443z" fill="#f5f5f5"/><g fill="#ff4b55"><path d="M253.932 38.462h78.137L273.602 4.719a35.274 35.274 0 0 0-19.71-4.658c.015.262.04.521.04.787v37.614zM253.932 196.67h228.491l-.007-39.552H253.932zM253.932 117.566h214.61a35.513 35.513 0 0 0-3.775-2.521l-64.164-37.031h-146.67v39.552h-.001zM253.932 250.651c0 7.473-6.058 13.531-13.531 13.531H29.569l.003 11.592h452.864l-.006-39.552H253.932v14.429zM47.234 396.95l64.164 37.031h289.177l64.236-37.1a35.327 35.327 0 0 0 3.677-2.451H43.459a35.76 35.76 0 0 0 3.775 2.52zM238.399 507.276a35.291 35.291 0 0 0 35.287-.006l58.412-33.737H179.932l58.467 33.743zM29.584 354.877h452.865l-.006-39.552H29.577z"/></g><path d="M253.892.062a35.252 35.252 0 0 0-15.577 4.664l-58.412 33.736-68.479 39.552-64.236 37.101c-1.251.722-6.697 5.037-6.697 5.037a35.273 35.273 0 0 0-10.941 25.526l.001 4.453.001 6.988.001 9.695.005 29.857v.446l.003 16.677.004 22.428.005 27.96h210.832c7.473 0 13.531-6.058 13.531-13.531V.849c-.001-.266-.026-.525-.041-.787z" fill="#41479b"/><g fill="#f5f5f5"><path d="M85.107 136.207l-9.468-.074-2.995-8.983a1.24 1.24 0 0 0-.364-.536 1.275 1.275 0 0 0-1.695 0 1.257 1.257 0 0 0-.364.536l-2.995 8.983-9.469.074c-1.226.009-1.735 1.573-.749 2.302l7.617 5.625-2.855 9.028c-.37 1.168.961 2.136 1.958 1.423l7.703-5.506 7.703 5.506c.997.712 2.328-.255 1.958-1.423l-2.855-9.028 7.617-5.625c.986-.727.479-2.292-.747-2.302zM85.107 183.194l-9.468-.074-2.995-8.983c-.387-1.162-2.033-1.162-2.421 0l-2.995 8.983-9.469.074c-1.226.009-1.735 1.573-.749 2.302l7.617 5.625-2.855 9.028c-.37 1.17.961 2.136 1.958 1.423l7.703-5.506 7.703 5.506c.997.712 2.328-.254 1.958-1.423l-2.855-9.028 7.617-5.625c.984-.728.477-2.292-.749-2.302zM85.107 230.181l-9.468-.074-2.995-8.983c-.387-1.163-2.033-1.163-2.421 0l-2.995 8.983-9.469.074c-1.226.01-1.735 1.573-.749 2.302l7.617 5.625-2.267 7.163-.59 1.863c-.37 1.17.961 2.136 1.958 1.423l4.599-3.287 3.105-2.219 3.104 2.219 4.599 3.287c.997.712 2.328-.254 1.958-1.423l-.59-1.863-2.267-7.163 7.617-5.625c.987-.728.48-2.293-.746-2.302zM121.577 112.259l-9.469-.074-2.995-8.983c-.387-1.162-2.033-1.162-2.421 0l-2.995 8.983-9.469.074c-1.226.009-1.735 1.573-.749 2.302l7.617 5.625-2.034 6.431-.822 2.597c-.37 1.168.961 2.136 1.958 1.423l5.625-4.02 2.078-1.486 2.078 1.486 5.625 4.02c.997.712 2.328-.254 1.958-1.423l-.822-2.597-2.034-6.431 7.617-5.625c.987-.729.48-2.294-.746-2.302zM122.324 161.547c.986-.729.477-2.292-.749-2.302l-9.469-.074-2.995-8.983c-.387-1.163-2.033-1.163-2.421 0l-2.995 8.983-9.469.074c-1.226.01-1.735 1.573-.749 2.302l6.257 4.62 1.36 1.005-2.856 9.028c-.37 1.17.961 2.136 1.958 1.423l7.703-5.506 7.703 5.506c.997.712 2.328-.254 1.958-1.423l-2.856-9.028 1.36-1.005 6.26-4.62zM121.577 206.231l-9.469-.074-.146-.439-2.849-8.543c-.387-1.163-2.033-1.163-2.421 0l-2.849 8.543-.146.439-9.469.074c-1.226.01-1.735 1.573-.749 2.302l7.617 5.625-2.855 9.028c-.37 1.17.961 2.136 1.958 1.423l7.703-5.506 7.703 5.506c.997.712 2.328-.254 1.958-1.423l-2.855-9.028 7.617-5.625c.985-.728.478-2.292-.748-2.302zM158.047 89.221l-9.469-.074-.695-2.084-2.301-6.898c-.387-1.163-2.033-1.163-2.421 0l-2.301 6.898-.695 2.084-9.469.074c-1.226.009-1.735 1.573-.749 2.302l7.617 5.625-2.855 9.028c-.37 1.168.961 2.136 1.958 1.423l7.703-5.506 7.703 5.506c.997.712 2.328-.255 1.958-1.423l-2.855-9.028 7.617-5.625c.988-.728.48-2.292-.746-2.302zM158.047 136.207l-9.469-.074-2.995-8.983a1.248 1.248 0 0 0-.364-.536 1.275 1.275 0 0 0-1.695 0 1.257 1.257 0 0 0-.364.536l-2.995 8.983-9.469.074c-1.226.009-1.735 1.573-.749 2.302l7.617 5.625-2.855 9.028c-.37 1.168.961 2.136 1.958 1.423l7.703-5.506 7.703 5.506c.997.712 2.328-.255 1.958-1.423l-2.855-9.028 7.617-5.625c.988-.727.48-2.292-.746-2.302zM158.047 183.194l-9.469-.074-2.995-8.983c-.387-1.162-2.033-1.162-2.421 0l-2.995 8.983-9.469.074c-1.226.009-1.735 1.573-.749 2.302l7.617 5.625-2.855 9.028c-.37 1.17.961 2.136 1.958 1.423l7.703-5.506 7.703 5.506c.997.712 2.328-.254 1.958-1.423l-2.855-9.028 7.617-5.625c.986-.728.478-2.292-.748-2.302zM158.047 230.181l-9.469-.074-2.995-8.983c-.387-1.163-2.033-1.163-2.421 0l-2.995 8.983-9.469.074c-1.226.01-1.735 1.573-.749 2.302l7.617 5.625-2.267 7.163-.59 1.863c-.37 1.17.961 2.136 1.958 1.423l4.599-3.287 3.105-2.219 3.104 2.219 4.599 3.287c.997.712 2.328-.254 1.958-1.423l-.59-1.863-2.266-7.163 7.617-5.625c.988-.728.48-2.293-.746-2.302zM174.038 73.198l-2.855 9.028c-.37 1.168.961 2.136 1.958 1.423l7.703-5.506 7.703 5.506c.997.712 2.328-.255 1.958-1.423l-2.856-9.028 7.617-5.625c.986-.729.477-2.292-.749-2.302l-9.469-.074-2.995-8.983c-.387-1.162-2.033-1.162-2.421 0l-2.995 8.983-9.469.074c-1.226.009-1.735 1.573-.747 2.302l7.617 5.625zM194.518 112.259l-9.469-.074-2.995-8.983c-.387-1.162-2.033-1.162-2.421 0l-2.995 8.983-9.469.074c-1.226.009-1.735 1.573-.747 2.302l7.617 5.625-2.034 6.431-.822 2.597c-.37 1.168.961 2.136 1.958 1.423l5.625-4.02 2.078-1.486 2.078 1.486 5.625 4.02c.997.712 2.328-.254 1.958-1.423l-.822-2.597-2.034-6.431 7.617-5.625c.986-.729.478-2.294-.748-2.302zM195.265 161.547c.986-.729.477-2.292-.749-2.302l-9.469-.074-2.995-8.983c-.387-1.163-2.033-1.163-2.421 0l-2.995 8.983-9.469.074c-1.226.01-1.735 1.573-.747 2.302l6.257 4.62 1.36 1.005-2.855 9.028c-.37 1.17.961 2.136 1.958 1.423l7.703-5.506 7.703 5.506c.997.712 2.328-.254 1.958-1.423l-2.855-9.028 1.36-1.005 6.256-4.62zM194.518 206.231l-9.469-.074-.146-.439-2.849-8.543c-.387-1.163-2.033-1.163-2.421 0l-2.849 8.543-.146.439-9.469.074c-1.226.01-1.735 1.573-.747 2.302l7.617 5.625-2.855 9.028c-.37 1.17.961 2.136 1.958 1.423l7.703-5.506 7.703 5.506c.997.712 2.328-.254 1.958-1.423l-2.856-9.028 7.617-5.625c.985-.728.477-2.292-.749-2.302zM230.988 42.234l-9.469-.074-2.995-8.983c-.387-1.163-2.033-1.163-2.421 0l-2.995 8.983-9.469.074c-1.226.009-1.735 1.573-.749 2.302l4.029 2.975 3.588 2.649-2.855 9.028c-.37 1.168.961 2.136 1.958 1.422l7.703-5.506 7.703 5.506c.997.714 2.328-.254 1.958-1.422l-2.857-9.028 3.588-2.649 4.029-2.975c.989-.728.48-2.293-.746-2.302zM230.988 89.221l-9.469-.074-.695-2.084-2.301-6.898c-.387-1.163-2.033-1.163-2.421 0l-2.301 6.898-.695 2.084-9.469.074c-1.226.009-1.735 1.573-.749 2.302l7.617 5.625-2.855 9.028c-.37 1.168.961 2.136 1.958 1.423l7.703-5.506 7.703 5.506c.997.712 2.328-.255 1.958-1.423l-2.857-9.028 7.617-5.625c.991-.728.482-2.292-.744-2.302zM230.988 136.207l-9.469-.074-2.995-8.983a1.24 1.24 0 0 0-.364-.536 1.275 1.275 0 0 0-1.695 0 1.257 1.257 0 0 0-.364.536l-2.995 8.983-9.469.074c-1.226.009-1.735 1.573-.749 2.302l7.617 5.625-2.855 9.028c-.37 1.168.961 2.136 1.958 1.423l7.703-5.506 7.703 5.506c.997.712 2.328-.255 1.958-1.423l-2.857-9.028 7.617-5.625c.991-.727.482-2.292-.744-2.302zM210.509 191.121l-2.855 9.028c-.37 1.17.961 2.136 1.958 1.423l7.703-5.506 7.703 5.506c.997.712 2.328-.254 1.958-1.423l-2.857-9.028 7.617-5.625c.986-.729.477-2.293-.747-2.302l-9.469-.074-2.995-8.983c-.387-1.162-2.033-1.162-2.421 0l-2.995 8.983-9.469.074c-1.226.009-1.735 1.573-.749 2.302l7.618 5.625zM230.988 230.181l-9.469-.074-2.995-8.983c-.387-1.163-2.033-1.163-2.421 0l-2.995 8.983-9.469.074c-1.226.01-1.735 1.573-.749 2.302l7.617 5.625-2.266 7.163-.59 1.863c-.37 1.17.961 2.136 1.958 1.423l4.599-3.287 3.104-2.219 3.104 2.219 4.599 3.287c.997.712 2.328-.254 1.958-1.423l-.59-1.863-2.267-7.163 7.617-5.625c.99-.728.481-2.293-.745-2.302z"/></g></symbol><symbol id="fa" viewBox="0 0 512.003 512.003"><path d="M482.448 351.353l-.001-4.629-.001-4.498v-4.539l-.027-163.377-.001-4.539-.001-4.498-.001-5.206-.003-12.865v-1.6c0-.98-.055-1.951-.135-2.917a35.276 35.276 0 0 0-17.513-27.639L273.602 4.725a35.284 35.284 0 0 0-35.287.006L47.19 115.118a35.28 35.28 0 0 0-16.843 23.157 35.321 35.321 0 0 0-.796 7.405l.003 14.966.001 4.629.001 4.498v4.539l.027 163.377.001 4.539.001 4.498.001 5.206.003 12.865v1.6c0 .98.055 1.951.135 2.917a35.276 35.276 0 0 0 17.514 27.639l191.163 110.323a35.287 35.287 0 0 0 35.287-.006l191.125-110.389a35.28 35.28 0 0 0 16.843-23.157c.516-2.408.796-4.886.796-7.405l-.004-14.966z" fill="#f5f5f5"/><path d="M33.244 167.418v2.356h4.406v-2.356c0-1.183.958-2.142 2.142-2.142h35.415c1.183 0 2.142.958 2.142 2.142v2.356h4.406v-2.356c0-1.183.958-2.142 2.142-2.142h35.415c1.183 0 2.142.958 2.142 2.142v2.356h4.406v-2.356c0-1.183.958-2.142 2.142-2.142h35.415c1.183 0 2.142.958 2.142 2.142v2.356h4.349v-2.356c0-1.183.958-2.142 2.142-2.142h35.473c1.183 0 2.142.958 2.142 2.142v2.356h4.404v-2.356c0-1.183.958-2.142 2.142-2.142h35.418c1.183 0 2.142.958 2.142 2.142v2.356h4.404v-2.356c0-1.183.958-2.142 2.142-2.142h35.418c1.183 0 2.142.958 2.142 2.142v2.356h4.404v-2.356c0-1.183.958-2.142 2.142-2.142h35.418c1.183 0 2.142.958 2.142 2.142v2.356h4.461v-2.356c0-1.183.958-2.142 2.142-2.142h35.36c1.183 0 2.142.958 2.142 2.142v2.356h4.404v-2.356c0-1.183.958-2.142 2.142-2.142h35.418c1.183 0 2.142.958 2.142 2.142v2.356h4.461v-2.356c0-1.183.958-2.142 2.142-2.142h35.358c1.183 0 2.142.958 2.142 2.142v2.356h4.461v-2.356c0-1.183.958-2.142 2.142-2.142h1.52l-.001-5.206a2.13 2.13 0 0 1-1.453.577h-.065a2.141 2.141 0 0 1-2.142-2.142v-9.159c0-1.183.958-2.142 2.142-2.142h1.517v-1.6c0-.98-.055-1.951-.135-2.917h-1.381a2.141 2.141 0 0 1-2.142-2.142v-.235c0-1.183.958-2.142 2.142-2.142h.711a35.276 35.276 0 0 0-16.843-23.12L273.602 4.725a35.284 35.284 0 0 0-35.287.006L47.19 115.118a35.28 35.28 0 0 0-16.843 23.157c.201-.062.412-.106.635-.106h.12c1.183 0 2.142.958 2.142 2.142v18.194a2.141 2.141 0 0 1-2.142 2.142h-1.547l.001 4.629h1.547c1.183 0 2.141.96 2.141 2.142zm370.518-8.913a2.141 2.141 0 0 1-2.142 2.142h-.177a2.141 2.141 0 0 1-2.142-2.142v-.122c0-1.183.958-2.142 2.142-2.142h.177c1.183 0 2.142.958 2.142 2.142v.122zm48.508-13.442v-4.751c0-1.183.958-2.142 2.142-2.142h.122c1.183 0 2.142.958 2.142 2.142v13.787c0 1.183.958 2.142 2.142 2.142h.12a2.141 2.141 0 0 0 2.142-2.142v-13.787c0-1.183.958-2.142 2.142-2.142h.122c1.183 0 2.142.958 2.142 2.142v13.787c0 1.183.958 2.142 2.142 2.142h.177a2.141 2.141 0 0 0 2.142-2.142v-13.787c0-1.183.958-2.142 2.142-2.142h.062c1.183 0 2.142.958 2.142 2.142v18.194a2.141 2.141 0 0 1-2.142 2.142h-17.74a2.141 2.141 0 0 1-2.142-2.142v-4.639a2.141 2.141 0 0 0-2.142-2.142h-8.875a2.141 2.141 0 0 0-2.142 2.142v.232c0 1.183.958 2.142 2.142 2.142h4.471c1.182 0 2.142.958 2.142 2.142v.122a2.141 2.141 0 0 1-2.142 2.142h-8.93a2.141 2.141 0 0 1-2.142-2.142v-9.159c0-1.183.958-2.142 2.142-2.142h13.334a2.14 2.14 0 0 0 2.143-2.141zm-61.78-4.752c0-1.183.958-2.142 2.142-2.142h53.093c1.182 0 2.142.958 2.142 2.142v.235a2.141 2.141 0 0 1-2.142 2.142h-53.094a2.141 2.141 0 0 1-2.142-2.142v-.235h.001zm0 9.035c0-1.183.958-2.142 2.142-2.142h17.74c1.182 0 2.142.958 2.142 2.142v4.752c0 1.183.958 2.142 2.142 2.142h9.045a2.141 2.141 0 0 0 2.142-2.142v-.232a2.141 2.141 0 0 0-2.142-2.142h-4.584a2.141 2.141 0 0 1-2.142-2.142v-.235c0-1.183.958-2.142 2.142-2.142h8.933c1.183 0 2.142.958 2.142 2.142v9.159a2.141 2.141 0 0 1-2.142 2.142h-17.743a2.141 2.141 0 0 1-2.142-2.142v-4.639a2.141 2.141 0 0 0-2.142-2.142h-8.985a2.141 2.141 0 0 0-2.142 2.142v4.639a2.141 2.141 0 0 1-2.142 2.142h-.122a2.141 2.141 0 0 1-2.142-2.142v-9.16zm-74.994 9.159a2.141 2.141 0 0 1-2.142 2.142h-.065a2.141 2.141 0 0 1-2.142-2.142v-.122c0-1.183.958-2.142 2.142-2.142h.065c1.183 0 2.142.958 2.142 2.142v.122zm48.564-13.442v-4.751c0-1.183.958-2.142 2.142-2.142h.122c1.183 0 2.142.958 2.142 2.142v13.787c0 1.183.958 2.142 2.142 2.142h.12a2.141 2.141 0 0 0 2.142-2.142v-13.787c0-1.183.958-2.142 2.142-2.142h.122c1.183 0 2.142.958 2.142 2.142v13.787c0 1.183.958 2.142 2.142 2.142h.12a2.141 2.141 0 0 0 2.142-2.142v-13.787c0-1.183.958-2.142 2.142-2.142h.122c1.183 0 2.142.958 2.142 2.142v18.194a2.141 2.141 0 0 1-2.142 2.142h-17.743a2.141 2.141 0 0 1-2.142-2.142v-4.639a2.141 2.141 0 0 0-2.142-2.142h-8.985a2.141 2.141 0 0 0-2.142 2.142v.232c0 1.183.958 2.142 2.142 2.142h4.581c1.183 0 2.142.958 2.142 2.142v.122a2.141 2.141 0 0 1-2.142 2.142h-8.93a2.141 2.141 0 0 1-2.142-2.142v-9.159c0-1.183.958-2.142 2.142-2.142h13.334a2.141 2.141 0 0 0 2.143-2.141zm-61.781-4.752c0-1.183.958-2.142 2.142-2.142h53.093c1.183 0 2.142.958 2.142 2.142v.235a2.141 2.141 0 0 1-2.142 2.142h-53.093a2.141 2.141 0 0 1-2.142-2.142v-.235zm0 9.035c0-1.183.958-2.142 2.142-2.142h17.798c1.183 0 2.142.958 2.142 2.142v4.752c0 1.183.958 2.142 2.142 2.142h8.875a2.141 2.141 0 0 0 2.142-2.142v-.232a2.141 2.141 0 0 0-2.142-2.142h-4.471a2.141 2.141 0 0 1-2.142-2.142v-.235c0-1.183.958-2.142 2.142-2.142h8.933c1.183 0 2.142.958 2.142 2.142v9.159a2.141 2.141 0 0 1-2.142 2.142h-17.799a2.141 2.141 0 0 1-2.142-2.142v-4.639a2.141 2.141 0 0 0-2.142-2.142h-8.93a2.141 2.141 0 0 0-2.142 2.142v4.639a2.141 2.141 0 0 1-2.142 2.142h-.122a2.141 2.141 0 0 1-2.142-2.142v-9.16zm-74.994 9.159a2.141 2.141 0 0 1-2.142 2.142h-.065a2.141 2.141 0 0 1-2.142-2.142v-.122c0-1.183.958-2.142 2.142-2.142h.065c1.183 0 2.142.958 2.142 2.142v.122zm46.425-11.3a2.141 2.141 0 0 0 2.142-2.142v-4.751c0-1.183.958-2.142 2.142-2.142h.12c1.183 0 2.142.958 2.142 2.142v13.787c0 1.183.958 2.142 2.142 2.142h.122a2.141 2.141 0 0 0 2.142-2.142v-13.787c0-1.183.958-2.142 2.142-2.142h.12c1.183 0 2.142.958 2.142 2.142v13.787c0 1.183.958 2.142 2.142 2.142h.12a2.141 2.141 0 0 0 2.142-2.142v-13.787c0-1.183.958-2.142 2.142-2.142h.122c1.183 0 2.142.958 2.142 2.142v18.194a2.141 2.141 0 0 1-2.142 2.142h-17.74a2.141 2.141 0 0 1-2.142-2.142v-4.639a2.141 2.141 0 0 0-2.142-2.142h-8.988a2.141 2.141 0 0 0-2.142 2.142v.232c0 1.183.958 2.142 2.142 2.142h4.581c1.183 0 2.142.958 2.142 2.142v.122a2.141 2.141 0 0 1-2.142 2.142h-8.988a2.141 2.141 0 0 1-2.142-2.142v-9.159c0-1.183.958-2.142 2.142-2.142h13.395v.001zm-59.641-6.894c0-1.183.958-2.142 2.142-2.142h53.093c1.183 0 2.142.958 2.142 2.142v.235a2.141 2.141 0 0 1-2.142 2.142h-53.093a2.141 2.141 0 0 1-2.142-2.142v-.235zm0 9.035c0-1.183.958-2.142 2.142-2.142h17.798c1.183 0 2.142.958 2.142 2.142v4.752c0 1.183.958 2.142 2.142 2.142h8.93a2.141 2.141 0 0 0 2.142-2.142v-.232a2.141 2.141 0 0 0-2.142-2.142h-4.581a2.141 2.141 0 0 1-2.142-2.142v-.235c0-1.183.958-2.142 2.142-2.142h8.988c1.183 0 2.142.958 2.142 2.142v9.159a2.141 2.141 0 0 1-2.142 2.142h-17.799a2.141 2.141 0 0 1-2.142-2.142v-4.639a2.141 2.141 0 0 0-2.142-2.142h-8.93a2.142 2.142 0 0 0-2.142 2.142v4.639a2.141 2.141 0 0 1-2.142 2.142h-.122a2.141 2.141 0 0 1-2.142-2.142v-9.16zm-74.994 9.159a2.141 2.141 0 0 1-2.142 2.142h-.12a2.141 2.141 0 0 1-2.142-2.142v-.122c0-1.183.958-2.142 2.142-2.142h.12c1.183 0 2.142.958 2.142 2.142v.122zm48.567-13.442v-4.751c0-1.183.958-2.142 2.142-2.142h.12c1.183 0 2.142.958 2.142 2.142v13.787c0 1.183.958 2.142 2.142 2.142h.065a2.141 2.141 0 0 0 2.142-2.142v-13.787c0-1.183.958-2.142 2.142-2.142h.177c1.183 0 2.142.958 2.142 2.142v13.787c0 1.183.958 2.142 2.142 2.142h.122a2.141 2.141 0 0 0 2.142-2.142v-13.787c0-1.183.958-2.142 2.142-2.142h.12c1.183 0 2.142.958 2.142 2.142v18.194a2.141 2.141 0 0 1-2.142 2.142h-17.74a2.141 2.141 0 0 1-2.142-2.142v-4.639a2.141 2.141 0 0 0-2.142-2.142h-8.988a2.141 2.141 0 0 0-2.142 2.142v.232c0 1.183.958 2.142 2.142 2.142h4.526c1.183 0 2.142.958 2.142 2.142v.122a2.141 2.141 0 0 1-2.142 2.142h-8.988a2.142 2.142 0 0 1-2.142-2.142v-9.159c0-1.183.958-2.142 2.142-2.142h13.449a2.141 2.141 0 0 0 2.143-2.141zm-61.781-4.752c0-1.183.958-2.142 2.142-2.142h53.035c1.183 0 2.142.958 2.142 2.142v.235a2.141 2.141 0 0 1-2.142 2.142h-53.036a2.141 2.141 0 0 1-2.142-2.142l.001-.235zm0 9.035c0-1.183.958-2.142 2.142-2.142h17.74c1.182 0 2.142.958 2.142 2.142v4.752c0 1.183.958 2.142 2.142 2.142h8.93a2.141 2.141 0 0 0 2.142-2.142v-.232a2.141 2.141 0 0 0-2.142-2.142h-4.526a2.141 2.141 0 0 1-2.142-2.142v-.235c0-1.183.958-2.142 2.142-2.142h8.988c1.183 0 2.142.958 2.142 2.142v9.159a2.141 2.141 0 0 1-2.142 2.142h-17.798a2.141 2.141 0 0 1-2.142-2.142v-4.639a2.141 2.141 0 0 0-2.142-2.142h-8.93a2.141 2.141 0 0 0-2.142 2.142v4.639a2.141 2.141 0 0 1-2.142 2.142h-.12a2.141 2.141 0 0 1-2.142-2.142v-9.16zm-74.997 9.159a2.141 2.141 0 0 1-2.142 2.142h-.12a2.142 2.142 0 0 1-2.142-2.142v-.122c0-1.183.958-2.142 2.142-2.142h.12c1.183 0 2.142.958 2.142 2.142v.122zm48.51-13.442v-4.751c0-1.183.958-2.142 2.142-2.142h.122c1.183 0 2.142.958 2.142 2.142v13.787c0 1.183.958 2.142 2.142 2.142h.177a2.141 2.141 0 0 0 2.142-2.142v-13.787c0-1.183.958-2.142 2.142-2.142h.177c1.183 0 2.142.958 2.142 2.142v13.787c0 1.183.958 2.142 2.142 2.142h.065a2.141 2.141 0 0 0 2.142-2.142v-13.787c0-1.183.958-2.142 2.142-2.142h.12c1.183 0 2.142.958 2.142 2.142v18.194a2.141 2.141 0 0 1-2.142 2.142h-17.798a2.141 2.141 0 0 1-2.142-2.142v-4.639a2.141 2.141 0 0 0-2.142-2.142h-8.93a2.141 2.141 0 0 0-2.142 2.142v.232c0 1.183.958 2.142 2.142 2.142h4.584c1.183 0 2.142.958 2.142 2.142v.122a2.141 2.141 0 0 1-2.142 2.142h-8.988a2.141 2.141 0 0 1-2.142-2.142v-9.159c0-1.183.958-2.142 2.142-2.142h13.334a2.141 2.141 0 0 0 2.143-2.141zm-61.723-4.752c0-1.183.958-2.142 2.142-2.142h53.093c1.183 0 2.142.958 2.142 2.142v.235a2.141 2.141 0 0 1-2.142 2.142H39.792a2.141 2.141 0 0 1-2.142-2.142l.001-.235zm0 9.035c0-1.183.958-2.142 2.142-2.142h17.74c1.183 0 2.142.958 2.142 2.142v4.752c0 1.183.958 2.142 2.142 2.142h8.988a2.141 2.141 0 0 0 2.142-2.142v-.232a2.141 2.141 0 0 0-2.142-2.142h-4.526a2.142 2.142 0 0 1-2.142-2.142v-.235c0-1.183.958-2.142 2.142-2.142h8.93c1.183 0 2.142.958 2.142 2.142v9.159a2.141 2.141 0 0 1-2.142 2.142H57.413a2.141 2.141 0 0 1-2.142-2.142v-4.639a2.141 2.141 0 0 0-2.142-2.142h-8.933a2.141 2.141 0 0 0-2.142 2.142v4.639a2.141 2.141 0 0 1-2.142 2.142h-.12a2.141 2.141 0 0 1-2.142-2.142c.001.001.001-9.16.001-9.16z" fill="#73af00"/><path d="M478.757 344.582v-2.356h-4.406v2.356a2.141 2.141 0 0 1-2.142 2.142h-35.415a2.141 2.141 0 0 1-2.142-2.142v-2.356h-4.406v2.356a2.141 2.141 0 0 1-2.142 2.142h-35.415a2.141 2.141 0 0 1-2.142-2.142v-2.356h-4.406v2.356a2.141 2.141 0 0 1-2.142 2.142h-35.415a2.141 2.141 0 0 1-2.142-2.142v-2.356h-4.349v2.356a2.141 2.141 0 0 1-2.142 2.142h-35.473a2.141 2.141 0 0 1-2.142-2.142v-2.356h-4.404v2.356a2.141 2.141 0 0 1-2.142 2.142h-35.418a2.141 2.141 0 0 1-2.142-2.142v-2.356h-4.404v2.356a2.141 2.141 0 0 1-2.142 2.142h-35.418a2.141 2.141 0 0 1-2.142-2.142v-2.356h-4.404v2.356a2.141 2.141 0 0 1-2.142 2.142h-35.417a2.141 2.141 0 0 1-2.142-2.142v-2.356h-4.461v2.356a2.141 2.141 0 0 1-2.142 2.142h-35.36a2.141 2.141 0 0 1-2.142-2.142v-2.356h-4.404v2.356a2.141 2.141 0 0 1-2.142 2.142H83.953a2.141 2.141 0 0 1-2.142-2.142v-2.356H77.35v2.356a2.141 2.141 0 0 1-2.142 2.142H39.85a2.141 2.141 0 0 1-2.142-2.142v-2.356h-4.461v2.356a2.141 2.141 0 0 1-2.142 2.142h-1.52l.001 5.206a2.13 2.13 0 0 1 1.453-.577h.065c1.183 0 2.142.958 2.142 2.142v9.159a2.141 2.141 0 0 1-2.142 2.142h-1.516v1.6c0 .98.055 1.951.135 2.917h1.381c1.183 0 2.142.958 2.142 2.142v.236a2.141 2.141 0 0 1-2.142 2.142h-.711a35.276 35.276 0 0 0 16.843 23.12l191.161 110.325a35.284 35.284 0 0 0 35.287-.006l191.125-110.389a35.28 35.28 0 0 0 16.843-23.157 2.14 2.14 0 0 1-.635.106h-.12a2.141 2.141 0 0 1-2.142-2.142v-18.194c0-1.183.958-2.142 2.142-2.142h1.547l-.001-4.629h-1.547a2.143 2.143 0 0 1-2.139-2.143zm-370.516 8.912c0-1.183.958-2.142 2.142-2.142h.177c1.183 0 2.142.958 2.142 2.142v.122a2.141 2.141 0 0 1-2.142 2.142h-.177a2.141 2.141 0 0 1-2.142-2.142v-.122zm-48.509 13.443v4.752a2.141 2.141 0 0 1-2.142 2.142h-.122a2.141 2.141 0 0 1-2.142-2.142v-13.787a2.141 2.141 0 0 0-2.142-2.142h-.12a2.141 2.141 0 0 0-2.142 2.142v13.787a2.141 2.141 0 0 1-2.142 2.142h-.122a2.141 2.141 0 0 1-2.142-2.142v-13.787a2.141 2.141 0 0 0-2.142-2.142h-.177a2.141 2.141 0 0 0-2.142 2.142v13.787a2.141 2.141 0 0 1-2.142 2.142h-.062a2.141 2.141 0 0 1-2.142-2.142v-18.194c0-1.183.958-2.142 2.142-2.142h17.74c1.183 0 2.142.958 2.142 2.142v4.639c0 1.183.958 2.142 2.142 2.142h8.875a2.141 2.141 0 0 0 2.142-2.142v-.232a2.141 2.141 0 0 0-2.142-2.142h-4.471a2.142 2.142 0 0 1-2.142-2.142v-.122c0-1.183.958-2.142 2.142-2.142h8.93c1.183 0 2.142.958 2.142 2.142v9.159a2.141 2.141 0 0 1-2.142 2.142H61.874a2.14 2.14 0 0 0-2.142 2.14zm61.781 4.751a2.141 2.141 0 0 1-2.142 2.142H66.278a2.142 2.142 0 0 1-2.142-2.142v-.236c0-1.183.958-2.142 2.142-2.142h53.093c1.183 0 2.142.958 2.142 2.142v.236zm0-9.035a2.141 2.141 0 0 1-2.142 2.142h-17.74a2.141 2.141 0 0 1-2.142-2.142v-4.752a2.141 2.141 0 0 0-2.142-2.142h-9.045a2.141 2.141 0 0 0-2.142 2.142v.232c0 1.183.958 2.142 2.142 2.142h4.584c1.183 0 2.142.958 2.142 2.142v.236a2.141 2.141 0 0 1-2.142 2.142h-8.933a2.141 2.141 0 0 1-2.142-2.142v-9.159c0-1.183.958-2.142 2.142-2.142h17.743c1.183 0 2.142.958 2.142 2.142v4.639c0 1.183.958 2.142 2.142 2.142h8.985a2.141 2.141 0 0 0 2.142-2.142v-4.639c0-1.183.958-2.142 2.142-2.142h.122c1.183 0 2.142.958 2.142 2.142v9.159zm74.994-9.159c0-1.183.958-2.142 2.142-2.142h.065c1.183 0 2.142.958 2.142 2.142v.122a2.141 2.141 0 0 1-2.142 2.142h-.065a2.141 2.141 0 0 1-2.142-2.142v-.122zm-48.564 13.443v4.752a2.141 2.141 0 0 1-2.142 2.142h-.122a2.141 2.141 0 0 1-2.142-2.142v-13.787a2.141 2.141 0 0 0-2.142-2.142h-.12a2.141 2.141 0 0 0-2.142 2.142v13.787a2.141 2.141 0 0 1-2.142 2.142h-.122a2.141 2.141 0 0 1-2.142-2.142v-13.787a2.141 2.141 0 0 0-2.142-2.142h-.12a2.141 2.141 0 0 0-2.142 2.142v13.787a2.141 2.141 0 0 1-2.142 2.142h-.122a2.141 2.141 0 0 1-2.142-2.142v-18.194c0-1.183.958-2.142 2.142-2.142h17.742c1.183 0 2.142.958 2.142 2.142v4.639c0 1.183.958 2.142 2.142 2.142h8.985a2.141 2.141 0 0 0 2.142-2.142v-.232a2.141 2.141 0 0 0-2.142-2.142h-4.581a2.141 2.141 0 0 1-2.142-2.142v-.122c0-1.183.958-2.142 2.142-2.142h8.93c1.183 0 2.142.958 2.142 2.142v9.159a2.141 2.141 0 0 1-2.142 2.142h-13.334a2.138 2.138 0 0 0-2.142 2.14zm61.781 4.751a2.141 2.141 0 0 1-2.142 2.142h-53.093a2.141 2.141 0 0 1-2.142-2.142v-.236c0-1.183.958-2.142 2.142-2.142h53.093c1.183 0 2.142.958 2.142 2.142v.236zm0-9.035a2.141 2.141 0 0 1-2.142 2.142h-17.798a2.141 2.141 0 0 1-2.142-2.142v-4.752a2.141 2.141 0 0 0-2.142-2.142h-8.875a2.142 2.142 0 0 0-2.142 2.142v.232c0 1.183.958 2.142 2.142 2.142h4.471c1.183 0 2.142.958 2.142 2.142v.236a2.141 2.141 0 0 1-2.142 2.142h-8.933a2.141 2.141 0 0 1-2.142-2.142v-9.159c0-1.183.958-2.142 2.142-2.142h17.798c1.183 0 2.142.958 2.142 2.142v4.639c0 1.183.958 2.142 2.142 2.142h8.93a2.141 2.141 0 0 0 2.142-2.142v-4.639c0-1.183.958-2.142 2.142-2.142h.122c1.183 0 2.142.958 2.142 2.142l.001 9.159zm74.993-9.159c0-1.183.958-2.142 2.142-2.142h.065c1.183 0 2.142.958 2.142 2.142v.122a2.141 2.141 0 0 1-2.142 2.142h-.065a2.141 2.141 0 0 1-2.142-2.142v-.122zm-46.425 11.301a2.141 2.141 0 0 0-2.142 2.142v4.752a2.141 2.141 0 0 1-2.142 2.142h-.12a2.141 2.141 0 0 1-2.142-2.142v-13.787a2.141 2.141 0 0 0-2.142-2.142h-.122a2.141 2.141 0 0 0-2.142 2.142v13.787a2.141 2.141 0 0 1-2.142 2.142h-.12a2.141 2.141 0 0 1-2.142-2.142v-13.787a2.141 2.141 0 0 0-2.142-2.142h-.12a2.141 2.141 0 0 0-2.142 2.142v13.787a2.141 2.141 0 0 1-2.142 2.142h-.122a2.141 2.141 0 0 1-2.142-2.142v-18.194c0-1.183.958-2.142 2.142-2.142h17.74c1.183 0 2.142.958 2.142 2.142v4.639c0 1.183.958 2.142 2.142 2.142h8.988a2.142 2.142 0 0 0 2.142-2.142v-.232a2.141 2.141 0 0 0-2.142-2.142h-4.581a2.141 2.141 0 0 1-2.142-2.142v-.122c0-1.183.958-2.142 2.142-2.142h8.988c1.183 0 2.142.958 2.142 2.142v9.159a2.141 2.141 0 0 1-2.142 2.142h-13.394v-.002h-.001zm59.641 6.893a2.141 2.141 0 0 1-2.142 2.142h-53.093a2.141 2.141 0 0 1-2.142-2.142v-.236c0-1.183.958-2.142 2.142-2.142h53.093c1.183 0 2.142.958 2.142 2.142v.236zm0-9.035a2.141 2.141 0 0 1-2.142 2.142h-17.798a2.141 2.141 0 0 1-2.142-2.142v-4.752a2.141 2.141 0 0 0-2.142-2.142h-8.93a2.141 2.141 0 0 0-2.142 2.142v.232c0 1.183.958 2.142 2.142 2.142h4.581c1.183 0 2.142.958 2.142 2.142v.236a2.141 2.141 0 0 1-2.142 2.142h-8.988a2.141 2.141 0 0 1-2.142-2.142v-9.159c0-1.183.958-2.142 2.142-2.142h17.798c1.183 0 2.142.958 2.142 2.142v4.639c0 1.183.958 2.142 2.142 2.142h8.93a2.141 2.141 0 0 0 2.142-2.142v-4.639c0-1.183.958-2.142 2.142-2.142h.122c1.183 0 2.142.958 2.142 2.142v9.159h.001zm74.995-9.159c0-1.183.958-2.142 2.142-2.142h.12c1.183 0 2.142.958 2.142 2.142v.122a2.141 2.141 0 0 1-2.142 2.142h-.12a2.141 2.141 0 0 1-2.142-2.142v-.122zm-48.567 13.443v4.752a2.141 2.141 0 0 1-2.142 2.142h-.12a2.141 2.141 0 0 1-2.142-2.142v-13.787a2.141 2.141 0 0 0-2.142-2.142h-.065a2.141 2.141 0 0 0-2.142 2.142v13.787a2.141 2.141 0 0 1-2.142 2.142h-.177a2.141 2.141 0 0 1-2.142-2.142v-13.787a2.141 2.141 0 0 0-2.142-2.142h-.122a2.141 2.141 0 0 0-2.142 2.142v13.787a2.141 2.141 0 0 1-2.142 2.142h-.12a2.141 2.141 0 0 1-2.142-2.142v-18.194c0-1.183.958-2.142 2.142-2.142h17.74c1.183 0 2.142.958 2.142 2.142v4.639c0 1.183.958 2.142 2.142 2.142h8.988a2.141 2.141 0 0 0 2.142-2.142v-.232a2.141 2.141 0 0 0-2.142-2.142h-4.526a2.141 2.141 0 0 1-2.142-2.142v-.122c0-1.183.958-2.142 2.142-2.142h8.988c1.182 0 2.142.958 2.142 2.142v9.159a2.141 2.141 0 0 1-2.142 2.142h-13.449a2.139 2.139 0 0 0-2.143 2.14zm61.781 4.751A2.141 2.141 0 0 1 384 373.83h-53.036a2.141 2.141 0 0 1-2.142-2.142v-.236c0-1.183.958-2.142 2.142-2.142H384c1.183 0 2.142.958 2.142 2.142v.236zm0-9.035a2.141 2.141 0 0 1-2.142 2.142h-17.74a2.141 2.141 0 0 1-2.142-2.142v-4.752a2.141 2.141 0 0 0-2.142-2.142h-8.93a2.141 2.141 0 0 0-2.142 2.142v.232c0 1.183.958 2.142 2.142 2.142h4.526c1.183 0 2.142.958 2.142 2.142v.236a2.141 2.141 0 0 1-2.142 2.142h-8.988a2.141 2.141 0 0 1-2.142-2.142v-9.159c0-1.183.958-2.142 2.142-2.142h17.798c1.183 0 2.142.958 2.142 2.142v4.639c0 1.183.958 2.142 2.142 2.142h8.93a2.141 2.141 0 0 0 2.142-2.142v-4.639c0-1.183.958-2.142 2.142-2.142h.12c1.183 0 2.142.958 2.142 2.142v9.159zm74.996-9.159c0-1.183.958-2.142 2.142-2.142h.12c1.183 0 2.142.958 2.142 2.142v.122a2.141 2.141 0 0 1-2.142 2.142h-.12a2.141 2.141 0 0 1-2.142-2.142v-.122zm-48.509 13.443v4.752a2.141 2.141 0 0 1-2.142 2.142h-.122a2.141 2.141 0 0 1-2.142-2.142v-13.787a2.141 2.141 0 0 0-2.142-2.142h-.177a2.141 2.141 0 0 0-2.142 2.142v13.787a2.141 2.141 0 0 1-2.142 2.142h-.177a2.141 2.141 0 0 1-2.142-2.142v-13.787a2.141 2.141 0 0 0-2.142-2.142h-.065a2.141 2.141 0 0 0-2.142 2.142v13.787a2.141 2.141 0 0 1-2.142 2.142h-.12a2.141 2.141 0 0 1-2.142-2.142v-18.194c0-1.183.958-2.142 2.142-2.142h17.798c1.183 0 2.142.958 2.142 2.142v4.639c0 1.183.958 2.142 2.142 2.142h8.93a2.141 2.141 0 0 0 2.142-2.142v-.232a2.141 2.141 0 0 0-2.142-2.142h-4.584a2.141 2.141 0 0 1-2.142-2.142v-.122c0-1.183.958-2.142 2.142-2.142h8.988c1.183 0 2.142.958 2.142 2.142v9.159a2.141 2.141 0 0 1-2.142 2.142h-13.335a2.139 2.139 0 0 0-2.142 2.14zm61.722 4.751a2.141 2.141 0 0 1-2.142 2.142h-53.093a2.141 2.141 0 0 1-2.142-2.142v-.236c0-1.183.958-2.142 2.142-2.142h53.093c1.183 0 2.142.958 2.142 2.142v.236zm0-9.035a2.141 2.141 0 0 1-2.142 2.142h-17.74a2.141 2.141 0 0 1-2.142-2.142v-4.752a2.141 2.141 0 0 0-2.142-2.142h-8.988a2.141 2.141 0 0 0-2.142 2.142v.232c0 1.183.958 2.142 2.142 2.142h4.526c1.182 0 2.142.958 2.142 2.142v.236a2.141 2.141 0 0 1-2.142 2.142h-8.93a2.141 2.141 0 0 1-2.142-2.142v-9.159c0-1.183.958-2.142 2.142-2.142h17.795c1.183 0 2.142.958 2.142 2.142v4.639c0 1.183.958 2.142 2.142 2.142h8.933a2.141 2.141 0 0 0 2.142-2.142v-4.639c0-1.183.958-2.142 2.142-2.142h.12c1.183 0 2.142.958 2.142 2.142v9.159z" fill="#ff4b55"/><g fill="#f5f5f5"><path d="M478.755 172.17v-2.397h-4.461v2.397a2.141 2.141 0 0 1-2.142 2.142h-35.358a2.141 2.141 0 0 1-2.142-2.142v-2.397h-4.461v2.397a2.141 2.141 0 0 1-2.142 2.142h-35.418a2.141 2.141 0 0 1-2.142-2.142v-2.397h-4.404v2.397a2.141 2.141 0 0 1-2.142 2.142h-35.36a2.141 2.141 0 0 1-2.142-2.142v-2.397h-4.461v2.397a2.141 2.141 0 0 1-2.142 2.142H304.42a2.141 2.141 0 0 1-2.142-2.142v-2.397h-4.404v2.397a2.141 2.141 0 0 1-2.142 2.142h-35.418a2.141 2.141 0 0 1-2.142-2.142v-2.397h-4.404v2.397a2.141 2.141 0 0 1-2.142 2.142h-35.418a2.141 2.141 0 0 1-2.142-2.142v-2.397h-4.404v2.397a2.141 2.141 0 0 1-2.142 2.142h-35.473a2.142 2.142 0 0 1-2.142-2.142v-2.397h-4.349v2.397a2.141 2.141 0 0 1-2.142 2.142h-35.413a2.141 2.141 0 0 1-2.142-2.142v-2.397h-4.404v2.397a2.141 2.141 0 0 1-2.142 2.142H83.898a2.141 2.141 0 0 1-2.142-2.142v-2.397H77.35v2.397a2.141 2.141 0 0 1-2.142 2.142H39.792a2.141 2.141 0 0 1-2.142-2.142v-2.397h-4.406v2.397a2.141 2.141 0 0 1-2.142 2.142h-1.546l.027 163.377h1.521c1.183 0 2.142.958 2.142 2.142v2.397h4.461v-2.397c0-1.183.958-2.142 2.142-2.142h35.358c1.183 0 2.142.958 2.142 2.142v2.397h4.461v-2.397c0-1.183.958-2.142 2.142-2.142h35.418c1.183 0 2.142.958 2.142 2.142v2.397h4.404v-2.397c0-1.183.958-2.142 2.142-2.142h35.36c1.183 0 2.142.958 2.142 2.142v2.397h4.461v-2.397c0-1.183.958-2.142 2.142-2.142h35.418c1.183 0 2.142.958 2.142 2.142v2.397h4.404v-2.397c0-1.183.958-2.142 2.142-2.142h35.418c1.183 0 2.142.958 2.142 2.142v2.397h4.404v-2.397c0-1.183.958-2.142 2.142-2.142h35.418c1.183 0 2.142.958 2.142 2.142v2.397h4.404v-2.397c0-1.183.958-2.142 2.142-2.142h35.473c1.182 0 2.142.958 2.142 2.142v2.397h4.349v-2.397c0-1.183.958-2.142 2.142-2.142h35.414c1.183 0 2.142.958 2.142 2.142v2.397h4.406v-2.397c0-1.183.958-2.142 2.142-2.142h35.415c1.183 0 2.142.958 2.142 2.142v2.397h4.406v-2.397c0-1.183.958-2.142 2.142-2.142h35.415c1.183 0 2.142.958 2.142 2.142v2.397h4.406v-2.397c0-1.183.958-2.142 2.142-2.142h1.546l-.027-163.377h-1.521a2.142 2.142 0 0 1-2.144-2.142zM33.244 158.505v-18.194a2.141 2.141 0 0 0-2.142-2.142h-.12c-.222 0-.432.044-.635.106a35.321 35.321 0 0 0-.796 7.405l.003 14.966h1.547a2.14 2.14 0 0 0 2.143-2.141zM39.792 142.688h53.093a2.141 2.141 0 0 0 2.142-2.142v-.235a2.141 2.141 0 0 0-2.142-2.142H39.792a2.141 2.141 0 0 0-2.142 2.142v.235a2.143 2.143 0 0 0 2.142 2.142zM39.792 160.647h.12a2.141 2.141 0 0 0 2.142-2.142v-4.639c0-1.183.958-2.142 2.142-2.142h8.933c1.183 0 2.142.958 2.142 2.142v4.639c0 1.183.958 2.142 2.142 2.142h17.795a2.141 2.141 0 0 0 2.142-2.142v-9.159a2.141 2.141 0 0 0-2.142-2.142h-8.93a2.142 2.142 0 0 0-2.142 2.142v.235c0 1.183.958 2.142 2.142 2.142h4.526c1.183 0 2.142.958 2.142 2.142v.232a2.141 2.141 0 0 1-2.142 2.142h-8.988a2.142 2.142 0 0 1-2.142-2.142v-4.752a2.141 2.141 0 0 0-2.142-2.142h-17.74a2.141 2.141 0 0 0-2.142 2.142v9.159a2.143 2.143 0 0 0 2.142 2.143z"/><path d="M81.756 149.346v9.159c0 1.183.958 2.142 2.142 2.142h8.988a2.141 2.141 0 0 0 2.142-2.142v-.122a2.141 2.141 0 0 0-2.142-2.142h-4.584a2.141 2.141 0 0 1-2.142-2.142v-.232c0-1.183.958-2.142 2.142-2.142h8.93c1.183 0 2.142.958 2.142 2.142v4.639c0 1.183.958 2.142 2.142 2.142h17.798a2.141 2.141 0 0 0 2.142-2.142v-18.194a2.141 2.141 0 0 0-2.142-2.142h-.12a2.141 2.141 0 0 0-2.142 2.142v13.787a2.141 2.141 0 0 1-2.142 2.142h-.065a2.141 2.141 0 0 1-2.142-2.142v-13.787a2.141 2.141 0 0 0-2.142-2.142h-.177a2.141 2.141 0 0 0-2.142 2.142v13.787a2.141 2.141 0 0 1-2.142 2.142h-.177a2.141 2.141 0 0 1-2.142-2.142v-13.787a2.141 2.141 0 0 0-2.142-2.142h-.122a2.141 2.141 0 0 0-2.142 2.142v4.751a2.141 2.141 0 0 1-2.142 2.142H83.898a2.141 2.141 0 0 0-2.142 2.141zM48.723 156.241h-.12a2.142 2.142 0 0 0-2.142 2.142v.122c0 1.183.958 2.142 2.142 2.142h.12a2.141 2.141 0 0 0 2.142-2.142v-.122a2.142 2.142 0 0 0-2.142-2.142zM128.003 160.647h.12a2.141 2.141 0 0 0 2.142-2.142v-4.639c0-1.183.958-2.142 2.142-2.142h8.93c1.183 0 2.142.958 2.142 2.142v4.639c0 1.183.958 2.142 2.142 2.142h17.798a2.141 2.141 0 0 0 2.142-2.142v-9.159a2.141 2.141 0 0 0-2.142-2.142h-8.988a2.141 2.141 0 0 0-2.142 2.142v.235c0 1.183.958 2.142 2.142 2.142h4.526c1.183 0 2.142.958 2.142 2.142v.232a2.141 2.141 0 0 1-2.142 2.142h-8.93a2.141 2.141 0 0 1-2.142-2.142v-4.752a2.141 2.141 0 0 0-2.142-2.142h-17.74a2.141 2.141 0 0 0-2.142 2.142v9.159c0 1.185.959 2.143 2.142 2.143zM128.003 142.688h53.035a2.141 2.141 0 0 0 2.142-2.142v-.235a2.141 2.141 0 0 0-2.142-2.142h-53.036a2.141 2.141 0 0 0-2.142 2.142v.235a2.143 2.143 0 0 0 2.143 2.142z"/><path d="M169.908 149.346v9.159c0 1.183.958 2.142 2.142 2.142h8.988a2.141 2.141 0 0 0 2.142-2.142v-.122a2.141 2.141 0 0 0-2.142-2.142h-4.526a2.141 2.141 0 0 1-2.142-2.142v-.232c0-1.183.958-2.142 2.142-2.142h8.988c1.183 0 2.142.958 2.142 2.142v4.639c0 1.183.958 2.142 2.142 2.142h17.74a2.141 2.141 0 0 0 2.142-2.142v-18.194a2.141 2.141 0 0 0-2.142-2.142h-.12a2.141 2.141 0 0 0-2.142 2.142v13.787a2.141 2.141 0 0 1-2.142 2.142h-.122a2.141 2.141 0 0 1-2.142-2.142v-13.787a2.141 2.141 0 0 0-2.142-2.142h-.177a2.141 2.141 0 0 0-2.142 2.142v13.787a2.141 2.141 0 0 1-2.142 2.142h-.065a2.141 2.141 0 0 1-2.142-2.142v-13.787a2.141 2.141 0 0 0-2.142-2.142h-.12a2.141 2.141 0 0 0-2.142 2.142v4.751a2.141 2.141 0 0 1-2.142 2.142h-13.449a2.143 2.143 0 0 0-2.143 2.141zM136.933 156.241h-.12a2.141 2.141 0 0 0-2.142 2.142v.122c0 1.183.958 2.142 2.142 2.142h.12a2.141 2.141 0 0 0 2.142-2.142v-.122a2.141 2.141 0 0 0-2.142-2.142zM216.21 142.688h53.093a2.141 2.141 0 0 0 2.142-2.142v-.235a2.141 2.141 0 0 0-2.142-2.142H216.21a2.141 2.141 0 0 0-2.142 2.142v.235a2.143 2.143 0 0 0 2.142 2.142zM216.21 160.647h.122a2.141 2.141 0 0 0 2.142-2.142v-4.639c0-1.183.958-2.142 2.142-2.142h8.93c1.183 0 2.142.958 2.142 2.142v4.639c0 1.183.958 2.142 2.142 2.142h17.798a2.141 2.141 0 0 0 2.142-2.142v-9.159a2.141 2.141 0 0 0-2.142-2.142h-8.988a2.141 2.141 0 0 0-2.142 2.142v.235c0 1.183.958 2.142 2.142 2.142h4.581c1.183 0 2.142.958 2.142 2.142v.232a2.141 2.141 0 0 1-2.142 2.142h-8.93a2.141 2.141 0 0 1-2.142-2.142v-4.752a2.141 2.141 0 0 0-2.142-2.142h-17.798a2.141 2.141 0 0 0-2.142 2.142v9.159a2.144 2.144 0 0 0 2.143 2.143z"/><path d="M225.143 156.241h-.065a2.141 2.141 0 0 0-2.142 2.142v.122c0 1.183.958 2.142 2.142 2.142h.065a2.141 2.141 0 0 0 2.142-2.142v-.122a2.141 2.141 0 0 0-2.142-2.142zM258.174 149.346v9.159c0 1.183.958 2.142 2.142 2.142h8.988a2.141 2.141 0 0 0 2.142-2.142v-.122a2.141 2.141 0 0 0-2.142-2.142h-4.581a2.141 2.141 0 0 1-2.142-2.142v-.232c0-1.183.958-2.142 2.142-2.142h8.988c1.183 0 2.142.958 2.142 2.142v4.639c0 1.183.958 2.142 2.142 2.142h17.74a2.141 2.141 0 0 0 2.142-2.142v-18.194a2.141 2.141 0 0 0-2.142-2.142h-.122a2.141 2.141 0 0 0-2.142 2.142v13.787a2.141 2.141 0 0 1-2.142 2.142h-.12a2.141 2.141 0 0 1-2.142-2.142v-13.787a2.141 2.141 0 0 0-2.142-2.142h-.12a2.141 2.141 0 0 0-2.142 2.142v13.787a2.141 2.141 0 0 1-2.142 2.142h-.122a2.142 2.142 0 0 1-2.142-2.142v-13.787a2.141 2.141 0 0 0-2.142-2.142h-.12a2.141 2.141 0 0 0-2.142 2.142v4.751a2.141 2.141 0 0 1-2.142 2.142h-13.394a2.142 2.142 0 0 0-2.143 2.141zM304.421 142.688h53.093a2.141 2.141 0 0 0 2.142-2.142v-.235a2.141 2.141 0 0 0-2.142-2.142h-53.093a2.141 2.141 0 0 0-2.142 2.142v.235c0 1.184.959 2.142 2.142 2.142zM313.354 156.241h-.065a2.141 2.141 0 0 0-2.142 2.142v.122c0 1.183.958 2.142 2.142 2.142h.065a2.141 2.141 0 0 0 2.142-2.142v-.122a2.141 2.141 0 0 0-2.142-2.142z"/><path d="M346.442 149.346v9.159c0 1.183.958 2.142 2.142 2.142h8.93a2.141 2.141 0 0 0 2.142-2.142v-.122a2.141 2.141 0 0 0-2.142-2.142h-4.581a2.141 2.141 0 0 1-2.142-2.142v-.232c0-1.183.958-2.142 2.142-2.142h8.985c1.183 0 2.142.958 2.142 2.142v4.639c0 1.183.958 2.142 2.142 2.142h17.743a2.141 2.141 0 0 0 2.142-2.142v-18.194a2.141 2.141 0 0 0-2.142-2.142h-.122a2.141 2.141 0 0 0-2.142 2.142v13.787a2.141 2.141 0 0 1-2.142 2.142h-.12a2.141 2.141 0 0 1-2.142-2.142v-13.787a2.141 2.141 0 0 0-2.142-2.142h-.122a2.141 2.141 0 0 0-2.142 2.142v13.787a2.141 2.141 0 0 1-2.142 2.142h-.12a2.141 2.141 0 0 1-2.142-2.142v-13.787a2.141 2.141 0 0 0-2.142-2.142h-.122a2.141 2.141 0 0 0-2.142 2.142v4.751a2.141 2.141 0 0 1-2.142 2.142h-13.334a2.142 2.142 0 0 0-2.143 2.141zM304.421 160.647h.122a2.141 2.141 0 0 0 2.142-2.142v-4.639c0-1.183.958-2.142 2.142-2.142h8.93c1.183 0 2.142.958 2.142 2.142v4.639c0 1.183.958 2.142 2.142 2.142h17.798a2.141 2.141 0 0 0 2.142-2.142v-9.159a2.141 2.141 0 0 0-2.142-2.142h-8.933a2.141 2.141 0 0 0-2.142 2.142v.235c0 1.183.958 2.142 2.142 2.142h4.471c1.183 0 2.142.958 2.142 2.142v.232a2.141 2.141 0 0 1-2.142 2.142h-8.875a2.141 2.141 0 0 1-2.142-2.142v-4.752a2.141 2.141 0 0 0-2.142-2.142h-17.797a2.141 2.141 0 0 0-2.142 2.142v9.159c0 1.185.959 2.143 2.142 2.143zM434.653 149.346v9.159c0 1.183.958 2.142 2.142 2.142h8.93a2.142 2.142 0 0 0 2.142-2.142v-.122a2.141 2.141 0 0 0-2.142-2.142h-4.471a2.141 2.141 0 0 1-2.142-2.142v-.232c0-1.183.958-2.142 2.142-2.142h8.875c1.183 0 2.142.958 2.142 2.142v4.639c0 1.183.958 2.142 2.142 2.142h17.74a2.141 2.141 0 0 0 2.142-2.142v-18.194a2.141 2.141 0 0 0-2.142-2.142h-.062a2.141 2.141 0 0 0-2.142 2.142v13.787a2.141 2.141 0 0 1-2.142 2.142h-.177a2.141 2.141 0 0 1-2.142-2.142v-13.787a2.141 2.141 0 0 0-2.142-2.142h-.122a2.141 2.141 0 0 0-2.142 2.142v13.787a2.141 2.141 0 0 1-2.142 2.142h-.12a2.141 2.141 0 0 1-2.142-2.142v-13.787a2.141 2.141 0 0 0-2.142-2.142h-.122a2.141 2.141 0 0 0-2.142 2.142v4.751a2.141 2.141 0 0 1-2.142 2.142h-13.334a2.142 2.142 0 0 0-2.143 2.141z"/><path d="M392.631 142.688h53.093a2.142 2.142 0 0 0 2.142-2.142v-.235a2.141 2.141 0 0 0-2.142-2.142h-53.093a2.141 2.141 0 0 0-2.142 2.142v.235a2.143 2.143 0 0 0 2.142 2.142zM401.62 156.241h-.177a2.141 2.141 0 0 0-2.142 2.142v.122c0 1.183.958 2.142 2.142 2.142h.177a2.141 2.141 0 0 0 2.142-2.142v-.122c0-1.184-.96-2.142-2.142-2.142z"/><path d="M392.631 160.647h.122a2.141 2.141 0 0 0 2.142-2.142v-4.639c0-1.183.958-2.142 2.142-2.142h8.985c1.183 0 2.142.958 2.142 2.142v4.639c0 1.183.958 2.142 2.142 2.142h17.743a2.141 2.141 0 0 0 2.142-2.142v-9.159a2.141 2.141 0 0 0-2.142-2.142h-8.933a2.141 2.141 0 0 0-2.142 2.142v.235c0 1.183.958 2.142 2.142 2.142h4.584c1.183 0 2.142.958 2.142 2.142v.232a2.141 2.141 0 0 1-2.142 2.142h-9.045a2.141 2.141 0 0 1-2.142-2.142v-4.752a2.141 2.141 0 0 0-2.142-2.142h-17.74a2.141 2.141 0 0 0-2.142 2.142v9.159a2.143 2.143 0 0 0 2.142 2.143zM478.755 140.311v.235c0 1.183.958 2.142 2.142 2.142h1.381a35.33 35.33 0 0 0-.67-4.519h-.711a2.142 2.142 0 0 0-2.142 2.142zM478.755 149.346v9.159c0 1.183.958 2.142 2.142 2.142h.065a2.12 2.12 0 0 0 1.453-.577l-.003-12.865h-1.517a2.14 2.14 0 0 0-2.14 2.141zM33.244 169.773v-2.356a2.141 2.141 0 0 0-2.142-2.142h-1.547l.001 4.498h3.688zM33.244 172.17v-2.397h-3.688v4.539h1.546c1.184 0 2.142-.96 2.142-2.142zM77.35 167.418a2.141 2.141 0 0 0-2.142-2.142H39.792a2.141 2.141 0 0 0-2.142 2.142v2.356h39.699l.001-2.356zM121.455 167.418a2.141 2.141 0 0 0-2.142-2.142H83.898a2.141 2.141 0 0 0-2.142 2.142v2.356h39.699v-2.356z"/><path d="M39.792 174.312h35.415a2.141 2.141 0 0 0 2.142-2.142v-2.397H37.651v2.397c0 1.182.959 2.142 2.141 2.142zM83.898 174.312h35.415a2.141 2.141 0 0 0 2.142-2.142v-2.397H81.756v2.397c0 1.182.958 2.142 2.142 2.142zM209.665 167.418a2.141 2.141 0 0 0-2.142-2.142H172.05a2.142 2.142 0 0 0-2.142 2.142v2.356h39.757v-2.356zM165.561 167.418a2.141 2.141 0 0 0-2.142-2.142h-35.415a2.141 2.141 0 0 0-2.142 2.142v2.356h39.699v-2.356z"/><path d="M172.05 174.312h35.473a2.141 2.141 0 0 0 2.142-2.142v-2.397h-39.757v2.397c0 1.182.96 2.142 2.142 2.142zM128.003 174.312h35.415a2.141 2.141 0 0 0 2.142-2.142v-2.397h-39.699v2.397c0 1.182.959 2.142 2.142 2.142zM253.77 167.418a2.141 2.141 0 0 0-2.142-2.142H216.21a2.141 2.141 0 0 0-2.142 2.142v2.356h39.702v-2.356zM297.876 167.418a2.141 2.141 0 0 0-2.142-2.142h-35.418a2.141 2.141 0 0 0-2.142 2.142v2.356h39.702v-2.356z"/><path d="M260.316 174.312h35.418a2.141 2.141 0 0 0 2.142-2.142v-2.397h-39.702v2.397c0 1.182.959 2.142 2.142 2.142zM216.21 174.312h35.418a2.141 2.141 0 0 0 2.142-2.142v-2.397h-39.702v2.397a2.144 2.144 0 0 0 2.142 2.142zM386.087 167.418a2.141 2.141 0 0 0-2.142-2.142h-35.36a2.141 2.141 0 0 0-2.142 2.142v2.356h39.644v-2.356zM341.981 167.418a2.141 2.141 0 0 0-2.142-2.142h-35.418a2.141 2.141 0 0 0-2.142 2.142v2.356h39.702v-2.356z"/><path d="M304.421 174.312h35.418a2.141 2.141 0 0 0 2.142-2.142v-2.397h-39.702v2.397c0 1.182.959 2.142 2.142 2.142zM348.584 174.312h35.36a2.141 2.141 0 0 0 2.142-2.142v-2.397h-39.644v2.397c0 1.182.959 2.142 2.142 2.142zM474.294 167.418a2.141 2.141 0 0 0-2.142-2.142h-35.358a2.141 2.141 0 0 0-2.142 2.142v2.356h39.64v-2.356h.002zM430.192 167.418a2.141 2.141 0 0 0-2.142-2.142h-35.419a2.141 2.141 0 0 0-2.142 2.142v2.356h39.702v-2.356h.001z"/><path d="M392.631 174.312h35.418a2.141 2.141 0 0 0 2.142-2.142v-2.397h-39.702v2.397a2.144 2.144 0 0 0 2.142 2.142zM436.795 174.312h35.358a2.141 2.141 0 0 0 2.142-2.142v-2.397h-39.64v2.397a2.14 2.14 0 0 0 2.14 2.142zM478.755 167.418v2.356h3.661l-.001-4.498h-1.52c-1.182 0-2.14.96-2.14 2.142z"/><path d="M478.755 169.773v2.397c0 1.183.958 2.142 2.142 2.142h1.521l-.001-4.539h-3.662zM478.757 353.494v18.194c0 1.183.958 2.142 2.142 2.142h.12c.222 0 .432-.044.635-.106.516-2.408.796-4.886.796-7.405l-.003-14.966h-1.546a2.143 2.143 0 0 0-2.144 2.141zM472.209 351.353h-.12a2.141 2.141 0 0 0-2.142 2.142v4.639a2.141 2.141 0 0 1-2.142 2.142h-8.933a2.141 2.141 0 0 1-2.142-2.142v-4.639a2.141 2.141 0 0 0-2.142-2.142h-17.795a2.141 2.141 0 0 0-2.142 2.142v9.159c0 1.183.958 2.142 2.142 2.142h8.93a2.142 2.142 0 0 0 2.142-2.142v-.236a2.141 2.141 0 0 0-2.142-2.142h-4.526a2.141 2.141 0 0 1-2.142-2.142v-.232c0-1.183.958-2.142 2.142-2.142h8.988c1.183 0 2.142.958 2.142 2.142v4.752c0 1.183.958 2.142 2.142 2.142h17.74a2.141 2.141 0 0 0 2.142-2.142v-9.159a2.141 2.141 0 0 0-2.142-2.142zM430.247 362.653v-9.159a2.141 2.141 0 0 0-2.142-2.142h-8.988a2.141 2.141 0 0 0-2.142 2.142v.122c0 1.183.958 2.142 2.142 2.142h4.584c1.183 0 2.142.958 2.142 2.142v.232a2.141 2.141 0 0 1-2.142 2.142h-8.93a2.141 2.141 0 0 1-2.142-2.142v-4.639a2.141 2.141 0 0 0-2.142-2.142h-17.798a2.141 2.141 0 0 0-2.142 2.142v18.194c0 1.183.958 2.142 2.142 2.142h.12a2.141 2.141 0 0 0 2.142-2.142V357.9c0-1.183.958-2.142 2.142-2.142h.065c1.183 0 2.142.958 2.142 2.142v13.787c0 1.183.958 2.142 2.142 2.142h.177a2.141 2.141 0 0 0 2.142-2.142V357.9c0-1.183.958-2.142 2.142-2.142h.177c1.183 0 2.142.958 2.142 2.142v13.787c0 1.183.958 2.142 2.142 2.142h.122a2.141 2.141 0 0 0 2.142-2.142v-4.752c0-1.183.958-2.142 2.142-2.142h13.334a2.14 2.14 0 0 0 2.143-2.14z"/><path d="M463.279 355.759h.12a2.141 2.141 0 0 0 2.142-2.142v-.122a2.141 2.141 0 0 0-2.142-2.142h-.12a2.141 2.141 0 0 0-2.142 2.142v.122a2.143 2.143 0 0 0 2.142 2.142zM472.209 369.311h-53.093a2.141 2.141 0 0 0-2.142 2.142v.236c0 1.183.958 2.142 2.142 2.142h53.093a2.141 2.141 0 0 0 2.142-2.142v-.236a2.141 2.141 0 0 0-2.142-2.142zM375.07 355.759h.12a2.141 2.141 0 0 0 2.142-2.142v-.122a2.141 2.141 0 0 0-2.142-2.142h-.12a2.141 2.141 0 0 0-2.142 2.142v.122c0 1.183.958 2.142 2.142 2.142z"/><path d="M384 351.353h-.12a2.141 2.141 0 0 0-2.142 2.142v4.639a2.141 2.141 0 0 1-2.142 2.142h-8.93a2.141 2.141 0 0 1-2.142-2.142v-4.639a2.141 2.141 0 0 0-2.142-2.142h-17.798a2.141 2.141 0 0 0-2.142 2.142v9.159c0 1.183.958 2.142 2.142 2.142h8.988a2.141 2.141 0 0 0 2.142-2.142v-.236a2.141 2.141 0 0 0-2.142-2.142h-4.526a2.141 2.141 0 0 1-2.142-2.142v-.232c0-1.183.958-2.142 2.142-2.142h8.93c1.183 0 2.142.958 2.142 2.142v4.752c0 1.183.958 2.142 2.142 2.142H384a2.141 2.141 0 0 0 2.142-2.142v-9.159c0-1.183-.96-2.142-2.142-2.142zM342.094 362.653v-9.159a2.141 2.141 0 0 0-2.142-2.142h-8.988a2.141 2.141 0 0 0-2.142 2.142v.122c0 1.183.958 2.142 2.142 2.142h4.526c1.183 0 2.142.958 2.142 2.142v.232a2.141 2.141 0 0 1-2.142 2.142h-8.988a2.141 2.141 0 0 1-2.142-2.142v-4.639a2.141 2.141 0 0 0-2.142-2.142h-17.74a2.141 2.141 0 0 0-2.142 2.142v18.194c0 1.183.958 2.142 2.142 2.142h.12a2.141 2.141 0 0 0 2.142-2.142V357.9c0-1.183.958-2.142 2.142-2.142h.122c1.183 0 2.142.958 2.142 2.142v13.787c0 1.183.958 2.142 2.142 2.142h.177a2.141 2.141 0 0 0 2.142-2.142V357.9c0-1.183.958-2.142 2.142-2.142h.065c1.183 0 2.142.958 2.142 2.142v13.787c0 1.183.958 2.142 2.142 2.142h.12a2.141 2.141 0 0 0 2.142-2.142v-4.752c0-1.183.958-2.142 2.142-2.142h13.449a2.139 2.139 0 0 0 2.143-2.14z"/><path d="M384 369.311h-53.035a2.141 2.141 0 0 0-2.142 2.142v.236c0 1.183.958 2.142 2.142 2.142H384a2.141 2.141 0 0 0 2.142-2.142v-.236c0-1.183-.96-2.142-2.142-2.142zM253.828 362.653v-9.159a2.141 2.141 0 0 0-2.142-2.142h-8.988a2.141 2.141 0 0 0-2.142 2.142v.122c0 1.183.958 2.142 2.142 2.142h4.581c1.182 0 2.142.958 2.142 2.142v.232a2.141 2.141 0 0 1-2.142 2.142h-8.988a2.141 2.141 0 0 1-2.142-2.142v-4.639a2.141 2.141 0 0 0-2.142-2.142h-17.74a2.141 2.141 0 0 0-2.142 2.142v18.194c0 1.183.958 2.142 2.142 2.142h.122a2.141 2.141 0 0 0 2.142-2.142V357.9c0-1.183.958-2.142 2.142-2.142h.12c1.183 0 2.142.958 2.142 2.142v13.787c0 1.183.958 2.142 2.142 2.142h.12a2.141 2.141 0 0 0 2.142-2.142V357.9c0-1.183.958-2.142 2.142-2.142h.122c1.183 0 2.142.958 2.142 2.142v13.787c0 1.183.958 2.142 2.142 2.142h.12a2.141 2.141 0 0 0 2.142-2.142v-4.752c0-1.183.958-2.142 2.142-2.142h13.394a2.139 2.139 0 0 0 2.143-2.14z"/><path d="M295.791 369.311h-53.093a2.141 2.141 0 0 0-2.142 2.142v.236c0 1.183.958 2.142 2.142 2.142h53.093a2.141 2.141 0 0 0 2.142-2.142v-.236a2.141 2.141 0 0 0-2.142-2.142zM295.791 351.353h-.122a2.141 2.141 0 0 0-2.142 2.142v4.639a2.141 2.141 0 0 1-2.142 2.142h-8.93a2.141 2.141 0 0 1-2.142-2.142v-4.639a2.141 2.141 0 0 0-2.142-2.142h-17.798a2.141 2.141 0 0 0-2.142 2.142v9.159c0 1.183.958 2.142 2.142 2.142h8.988a2.141 2.141 0 0 0 2.142-2.142v-.236a2.141 2.141 0 0 0-2.142-2.142h-4.581a2.141 2.141 0 0 1-2.142-2.142v-.232c0-1.183.958-2.142 2.142-2.142h8.93c1.183 0 2.142.958 2.142 2.142v4.752c0 1.183.958 2.142 2.142 2.142h17.798a2.141 2.141 0 0 0 2.142-2.142v-9.159a2.143 2.143 0 0 0-2.143-2.142z"/><path d="M286.859 355.759h.065a2.141 2.141 0 0 0 2.142-2.142v-.122a2.141 2.141 0 0 0-2.142-2.142h-.065a2.141 2.141 0 0 0-2.142 2.142v.122c0 1.183.959 2.142 2.142 2.142zM207.582 351.353h-.122a2.141 2.141 0 0 0-2.142 2.142v4.639a2.141 2.141 0 0 1-2.142 2.142h-8.93a2.141 2.141 0 0 1-2.142-2.142v-4.639a2.141 2.141 0 0 0-2.142-2.142h-17.798a2.141 2.141 0 0 0-2.142 2.142v9.159c0 1.183.958 2.142 2.142 2.142h8.933a2.141 2.141 0 0 0 2.142-2.142v-.236a2.141 2.141 0 0 0-2.142-2.142h-4.471a2.142 2.142 0 0 1-2.142-2.142v-.232c0-1.183.958-2.142 2.142-2.142h8.875c1.183 0 2.142.958 2.142 2.142v4.752c0 1.183.958 2.142 2.142 2.142h17.798a2.141 2.141 0 0 0 2.142-2.142v-9.159a2.144 2.144 0 0 0-2.143-2.142zM207.582 369.311h-53.093a2.141 2.141 0 0 0-2.142 2.142v.236c0 1.183.958 2.142 2.142 2.142h53.093a2.141 2.141 0 0 0 2.142-2.142v-.236c0-1.183-.96-2.142-2.142-2.142z"/><path d="M198.648 355.759h.065a2.141 2.141 0 0 0 2.142-2.142v-.122a2.141 2.141 0 0 0-2.142-2.142h-.065a2.141 2.141 0 0 0-2.142 2.142v.122a2.143 2.143 0 0 0 2.142 2.142zM165.561 362.653v-9.159a2.141 2.141 0 0 0-2.142-2.142h-8.93a2.141 2.141 0 0 0-2.142 2.142v.122c0 1.183.958 2.142 2.142 2.142h4.581c1.183 0 2.142.958 2.142 2.142v.232a2.141 2.141 0 0 1-2.142 2.142h-8.985a2.141 2.141 0 0 1-2.142-2.142v-4.639a2.141 2.141 0 0 0-2.142-2.142h-17.743a2.141 2.141 0 0 0-2.142 2.142v18.194c0 1.183.958 2.142 2.142 2.142h.122a2.141 2.141 0 0 0 2.142-2.142V357.9c0-1.183.958-2.142 2.142-2.142h.12c1.183 0 2.142.958 2.142 2.142v13.787c0 1.183.958 2.142 2.142 2.142h.122a2.141 2.141 0 0 0 2.142-2.142V357.9c0-1.183.958-2.142 2.142-2.142h.12c1.183 0 2.142.958 2.142 2.142v13.787c0 1.183.958 2.142 2.142 2.142h.122a2.141 2.141 0 0 0 2.142-2.142v-4.752c0-1.183.958-2.142 2.142-2.142h13.334a2.14 2.14 0 0 0 2.143-2.14zM77.35 362.653v-9.159a2.141 2.141 0 0 0-2.142-2.142h-8.93a2.142 2.142 0 0 0-2.142 2.142v.122c0 1.183.958 2.142 2.142 2.142h4.471c1.183 0 2.142.958 2.142 2.142v.232a2.141 2.141 0 0 1-2.142 2.142h-8.875a2.142 2.142 0 0 1-2.142-2.142v-4.639a2.141 2.141 0 0 0-2.142-2.142H39.85a2.141 2.141 0 0 0-2.142 2.142v18.194c0 1.183.958 2.142 2.142 2.142h.062a2.141 2.141 0 0 0 2.142-2.142V357.9c0-1.183.958-2.142 2.142-2.142h.177c1.182 0 2.142.958 2.142 2.142v13.787c0 1.183.958 2.142 2.142 2.142h.122a2.141 2.141 0 0 0 2.142-2.142V357.9c0-1.183.958-2.142 2.142-2.142h.12c1.183 0 2.142.958 2.142 2.142v13.787c0 1.183.958 2.142 2.142 2.142h.122a2.141 2.141 0 0 0 2.142-2.142v-4.752c0-1.183.958-2.142 2.142-2.142h13.334a2.139 2.139 0 0 0 2.143-2.14zM110.383 355.759h.177a2.141 2.141 0 0 0 2.142-2.142v-.122a2.141 2.141 0 0 0-2.142-2.142h-.177a2.141 2.141 0 0 0-2.142 2.142v.122c0 1.183.959 2.142 2.142 2.142z"/><path d="M119.371 351.353h-.122a2.141 2.141 0 0 0-2.142 2.142v4.639a2.141 2.141 0 0 1-2.142 2.142h-8.985a2.141 2.141 0 0 1-2.142-2.142v-4.639a2.141 2.141 0 0 0-2.142-2.142H83.953a2.141 2.141 0 0 0-2.142 2.142v9.159c0 1.183.958 2.142 2.142 2.142h8.933a2.141 2.141 0 0 0 2.142-2.142v-.236a2.141 2.141 0 0 0-2.142-2.142h-4.584a2.141 2.141 0 0 1-2.142-2.142v-.232c0-1.183.958-2.142 2.142-2.142h9.046c1.182 0 2.142.958 2.142 2.142v4.752c0 1.183.958 2.142 2.142 2.142h17.74a2.141 2.141 0 0 0 2.142-2.142v-9.159a2.143 2.143 0 0 0-2.143-2.142zM119.371 369.311H66.278a2.142 2.142 0 0 0-2.142 2.142v.236c0 1.183.958 2.142 2.142 2.142h53.093a2.141 2.141 0 0 0 2.142-2.142v-.236a2.142 2.142 0 0 0-2.142-2.142zM33.247 362.653v-9.159a2.141 2.141 0 0 0-2.142-2.142h-.065a2.12 2.12 0 0 0-1.453.577l.003 12.865h1.516a2.14 2.14 0 0 0 2.141-2.141zM33.247 371.688v-.236a2.141 2.141 0 0 0-2.142-2.142h-1.381c.127 1.53.351 3.038.671 4.519h.711a2.14 2.14 0 0 0 2.141-2.141zM478.757 342.226v2.356c0 1.183.958 2.142 2.142 2.142h1.547l-.001-4.498h-3.688z"/><path d="M478.757 339.831v2.397h3.688v-4.539h-1.546a2.142 2.142 0 0 0-2.142 2.142zM436.795 346.724h35.415a2.141 2.141 0 0 0 2.142-2.142v-2.356h-39.699v2.356c0 1.183.959 2.142 2.142 2.142zM392.69 346.724h35.415a2.141 2.141 0 0 0 2.142-2.142v-2.356h-39.699v2.356c0 1.183.958 2.142 2.142 2.142z"/><path d="M430.247 339.831a2.141 2.141 0 0 0-2.142-2.142H392.69a2.141 2.141 0 0 0-2.142 2.142v2.397h39.699v-2.397zM474.351 339.831a2.141 2.141 0 0 0-2.142-2.142h-35.415a2.141 2.141 0 0 0-2.142 2.142v2.397h39.699v-2.397zM348.584 346.724h35.415a2.141 2.141 0 0 0 2.142-2.142v-2.356h-39.699v2.356c0 1.183.959 2.142 2.142 2.142zM304.479 346.724h35.473a2.142 2.142 0 0 0 2.142-2.142v-2.356h-39.757v2.356c0 1.183.96 2.142 2.142 2.142z"/><path d="M386.142 339.831a2.141 2.141 0 0 0-2.142-2.142h-35.415a2.141 2.141 0 0 0-2.142 2.142v2.397h39.699v-2.397zM342.094 339.831a2.141 2.141 0 0 0-2.142-2.142h-35.473a2.141 2.141 0 0 0-2.142 2.142v2.397h39.757v-2.397zM260.373 346.724h35.418a2.141 2.141 0 0 0 2.142-2.142v-2.356h-39.702v2.356c0 1.183.96 2.142 2.142 2.142zM216.268 346.724h35.418a2.141 2.141 0 0 0 2.142-2.142v-2.356h-39.702v2.356c0 1.183.96 2.142 2.142 2.142z"/><path d="M297.933 339.831a2.141 2.141 0 0 0-2.142-2.142h-35.418a2.141 2.141 0 0 0-2.142 2.142v2.397h39.702v-2.397zM253.828 339.831a2.141 2.141 0 0 0-2.142-2.142h-35.418a2.141 2.141 0 0 0-2.142 2.142v2.397h39.702v-2.397zM128.058 346.724h35.36a2.141 2.141 0 0 0 2.142-2.142v-2.356h-39.644v2.356c0 1.183.959 2.142 2.142 2.142zM172.164 346.724h35.418a2.141 2.141 0 0 0 2.142-2.142v-2.356h-39.702v2.356c0 1.183.958 2.142 2.142 2.142z"/><path d="M165.561 339.831a2.141 2.141 0 0 0-2.142-2.142h-35.36a2.141 2.141 0 0 0-2.142 2.142v2.397h39.644v-2.397zM209.724 339.831a2.141 2.141 0 0 0-2.142-2.142h-35.418a2.141 2.141 0 0 0-2.142 2.142v2.397h39.702v-2.397zM83.953 346.724h35.418a2.141 2.141 0 0 0 2.142-2.142v-2.356H81.811v2.356c0 1.183.958 2.142 2.142 2.142zM39.85 346.724h35.358a2.141 2.141 0 0 0 2.142-2.142v-2.356H37.708v2.356c0 1.183.96 2.142 2.142 2.142z"/><path d="M77.35 339.831a2.141 2.141 0 0 0-2.142-2.142H39.85a2.141 2.141 0 0 0-2.142 2.142v2.397h39.64v-2.397h.002zM121.513 339.831a2.141 2.141 0 0 0-2.142-2.142H83.953a2.141 2.141 0 0 0-2.142 2.142v2.397h39.702v-2.397zM33.247 344.582v-2.356h-3.661l.001 4.498h1.52c1.181 0 2.14-.959 2.14-2.142zM33.247 342.226v-2.397a2.141 2.141 0 0 0-2.142-2.142h-1.521l.001 4.539h3.662z"/></g><g fill="#ff4b55"><path d="M248.269 211.816a7.988 7.988 0 0 0 7.765-2.146c3.069 3.107 8.098 3.18 11.278.149 2.072-1.997 2.922-5.03 2.182-7.765-2.698 4.364-8.393 5.768-12.757 3.033-.221-.149-.517-.297-.702-.445-4.104 3.033-9.909 2.219-13.016-1.848-.111-.224-.332-.519-.481-.74-1.109 4.291 1.479 8.726 5.731 9.762zM265.496 298.21c9.94-5.457 18.235-14.055 22.784-25.379 7.745-19.412 2.867-41.321-11.948-55.534-.51-.489-1.282.165-.913.767 14.612 23.83 8.856 55.146-13.756 72.305l1.081-69.222a3.058 3.058 0 0 0-1.135-2.426l-3.677-2.972a3.058 3.058 0 0 0-3.858.01l-3.624 2.963a3.055 3.055 0 0 0-1.122 2.413l1.051 69.272c-22.616-17.152-28.385-48.495-13.795-72.341.369-.602-.405-1.255-.915-.766-14.788 14.212-19.696 36.12-11.952 55.531 4.548 11.323 12.843 19.922 22.785 25.378-6.327 2.168-12.978 3.319-19.702 3.125-.71-.02-.854.978-.174 1.186 8.544 2.593 17.332 2.772 25.593.92l3.244 6.295a.603.603 0 0 0 1.071.001l3.265-6.291c8.263 1.848 17.053 1.667 25.603-.926.68-.206.537-1.205-.172-1.185-6.729.192-13.397-.958-19.734-3.124z"/><path d="M305.955 233.855a42.9 42.9 0 0 0-23.594-20.238c-.63-.221-1.121.611-.606 1.035 22.203 18.29 26.654 50.865 9.484 74.448-.888 1.183-1.849 2.441-2.774 3.474 21.077-11.314 28.88-37.64 17.49-58.719zM220.795 289.101c-17.17-23.584-12.754-56.157 9.444-74.447.516-.425.024-1.257-.607-1.035-10.045 3.53-18.434 10.733-23.555 20.237-11.462 21.078-3.587 47.406 17.528 58.72-.998-1.035-1.959-2.292-2.81-3.475z"/></g></symbol><symbol id="facebook" viewBox="0 0 408.788 408.788"><path d="M353.701 0H55.087C24.665 0 .002 24.662.002 55.085v298.616c0 30.423 24.662 55.085 55.085 55.085h147.275l.251-146.078h-37.951a8.954 8.954 0 0 1-8.954-8.92l-.182-47.087a8.955 8.955 0 0 1 8.955-8.989h37.882v-45.498c0-52.8 32.247-81.55 79.348-81.55h38.65a8.955 8.955 0 0 1 8.955 8.955v39.704a8.955 8.955 0 0 1-8.95 8.955l-23.719.011c-25.615 0-30.575 12.172-30.575 30.035v39.389h56.285c5.363 0 9.524 4.683 8.892 10.009l-5.581 47.087a8.955 8.955 0 0 1-8.892 7.901h-50.453l-.251 146.078h87.631c30.422 0 55.084-24.662 55.084-55.084V55.085C408.786 24.662 384.124 0 353.701 0z" /></symbol><symbol id="google-plus" viewBox="0 0 491.858 491.858"><path d="M377.472 224.957H201.319v58.718H308.79c-16.032 51.048-63.714 88.077-120.055 88.077-69.492 0-125.823-56.335-125.823-125.824 0-69.492 56.333-125.823 125.823-125.823 34.994 0 66.645 14.289 89.452 37.346l42.622-46.328c-34.04-33.355-80.65-53.929-132.074-53.929C84.5 57.193 0 141.693 0 245.928s84.5 188.737 188.736 188.737c91.307 0 171.248-64.844 188.737-150.989v-58.718l-.001-.001zM491.858 224.857h-36.031v-36.031h-30.886v36.031H388.91v30.883h36.031v36.032h30.886V255.74h36.031z"/></symbol><symbol id="instagram" viewBox="0 0 512 512"><path d="M373.659 0H138.341C62.06 0 0 62.06 0 138.341v235.318C0 449.94 62.06 512 138.341 512h235.318C449.94 512 512 449.94 512 373.659V138.341C512 62.06 449.94 0 373.659 0zm96.977 373.659c0 53.473-43.503 96.977-96.977 96.977H138.341c-53.473 0-96.977-43.503-96.977-96.977V138.341c0-53.473 43.503-96.977 96.977-96.977h235.318c53.473 0 96.977 43.503 96.977 96.977v235.318z"/><path d="M370.586 238.141c-3.64-24.547-14.839-46.795-32.386-64.342-17.547-17.546-39.795-28.746-64.341-32.385a114.73 114.73 0 0 0-33.682 0c-30.336 4.499-57.103 20.541-75.372 45.172-18.269 24.631-25.854 54.903-21.355 85.237 4.499 30.335 20.541 57.102 45.172 75.372 19.996 14.831 43.706 22.619 68.153 22.619 5.667 0 11.375-.418 17.083-1.265 30.336-4.499 57.103-20.541 75.372-45.172 18.27-24.63 25.855-54.901 21.356-85.236zm-102.795 89.491c-19.405 2.882-38.77-1.973-54.527-13.66-15.757-11.687-26.019-28.811-28.896-48.216-2.878-19.405 1.973-38.77 13.66-54.527 11.688-15.757 28.811-26.019 48.217-28.897a73.42 73.42 0 0 1 21.545.001c32.231 4.779 57.098 29.645 61.878 61.877 5.94 40.058-21.817 77.482-61.877 83.422zM400.049 111.951a20.83 20.83 0 0 0-14.625-6.058 20.826 20.826 0 0 0-14.625 6.058 20.814 20.814 0 0 0-6.058 14.625 20.814 20.814 0 0 0 6.058 14.625 20.83 20.83 0 0 0 14.625 6.058 20.826 20.826 0 0 0 14.625-6.058 20.83 20.83 0 0 0 6.058-14.625 20.826 20.826 0 0 0-6.058-14.625z"/></symbol><symbol id="lang" viewBox="0 0 512 512"><path d="M51.48 0h173.9c4.09.7 7.69 3.61 8.85 7.65 8.88 25.89 17.68 51.8 26.6 77.67 66.06.03 132.13-.01 198.19.02 14.51-.01 28.82 6.36 38.65 17.01 8.48 8.97 13.45 20.97 14.33 33.25v325.8c-.79 12.79-6.14 25.28-15.15 34.43-9.23 9.59-22.14 15.35-35.4 16.17H285.46c-3.05-1.06-5.99-3.04-7.26-6.12-9.66-26.45-19.75-52.75-29.55-79.16-65.23-.16-130.46 0-195.69-.08-14-.02-27.83-5.91-37.6-15.92C6.29 401.64.89 389.2 0 376.43V51.58C.52 37.74 6.53 24.19 16.64 14.7 25.95 5.75 38.6.54 51.48 0M24.16 40.21c-2.3 4.92-2.99 10.42-2.84 15.8.02 105.66 0 211.33.01 316.99-.28 12.26 7.27 24.16 18.38 29.27 5.35 2.64 11.39 3.28 17.28 3.07 96.91-.01 193.81-.03 290.72-.02-43.76-128-87.56-255.98-131.33-383.98-54.45-.02-108.91-.04-163.37.01-12.22-.04-23.94 7.7-28.85 18.86m243.94 66.43c33.25 97.83 66.44 195.69 99.23 293.68 2.13.33 2.03 2.9 2.78 4.49 1.2 4.65 4.61 9.23 2.93 14.19-.75 3.15-3.42 5.24-5.44 7.58-18.77 21.34-37.37 42.83-56.21 64.11 49.55-.11 99.11.06 148.66-.08 16.42-.33 30.77-15.12 30.59-31.55.03-107.02.04-214.03 0-321.05.05-16.36-14.28-31.04-30.64-31.31-63.97-.12-127.94.01-191.9-.06m3.26 320c6.78 18.08 13.61 36.14 20.33 54.25 15.84-18.09 31.64-36.2 47.51-54.25-22.61.03-45.23.03-67.84 0z"/><path d="M139.26 135.21c2.89-8.69 17.39-8.62 20.17.12 17.74 49.58 35.43 99.17 53.14 148.76 2.19 5.2-.58 11.71-5.82 13.75-5.46 2.45-12.46-.73-14.2-6.45-6.79-18.91-13.49-37.86-20.3-56.77-15.31.09-30.61-.01-45.92.05-6.75 19.08-13.56 38.14-20.42 57.18-1.9 5.39-8.57 8.31-13.83 6.07-5.42-1.97-8.29-8.69-5.98-13.98 17.73-49.58 35.4-99.17 53.16-148.73m-5.2 78.14c10.2-.04 20.41-.03 30.61 0-5.11-14.31-10.21-28.63-15.34-42.94-5.11 14.31-10.31 28.58-15.27 42.94zM412.35 213.51c3.16-3.18 6.35-6.35 9.54-9.51.8 0 2.41-.01 3.22-.01 3.46 3.39 6.81 6.89 10.31 10.23.03 1.21.06 2.43.1 3.64-3.5 3.3-6.63 7.02-10.33 10.07l-3.44.16c-3.47-3.37-6.83-6.85-10.29-10.22.21-1.44-.48-3.33.89-4.36zM347.45 217.58c6.02-.32 12.03-.89 18.07-1.16-.02 25.19-.05 50.39.01 75.58.31 5.3.38 11.25 4.07 15.48 2.98 3.59 7.95 4.3 12.34 4.5 13.38.08 26.79.16 40.13-1.11 6.2-.61 12.46-1.89 17.95-4.98.41-3.03.55-6.09.5-9.14-10.99 2.63-23.03 4.8-33.95.76-5.77-2.03-9.67-7.46-10.54-13.41-1.35-9.24-.54-19 3.43-27.53 3.18-6.82 9.03-12.6 16.36-14.73 10.67-3.03 23.52-.11 30.37 9.03 7.38 9.74 9.13 22.35 9.94 34.21.36 10.77.72 22.35-4.95 31.97-4.77 8.15-13.87 12.48-22.75 14.54-13.57 3.17-27.57 2.82-41.4 3.18-9.38-.21-19.84-.03-27.47-6.38-8.37-7.2-9.98-18.97-10.51-29.36-.66-27.15-.83-54.31-1.6-81.45m65.27 44.17c-2.14 3.56-2.27 8.19-2.29 12.31.07 3.94 4.06 6.34 7.67 6.35 7.15.2 14.36.31 21.46-.73-1.08-5.81-2.56-12.04-6.88-16.35-5.28-5.08-13.8-4.65-19.96-1.58z"/></symbol><symbol id="left-arrow" viewBox="0 0 512 512"><path fill="#cb0101" d="M491.318 235.318H20.682C9.26 235.318 0 244.578 0 256c0 11.423 9.26 20.682 20.682 20.682h470.636c11.423 0 20.682-9.259 20.682-20.682 0-11.422-9.259-20.682-20.682-20.682z"/><path fill="#cb0101" d="M49.932 256L211.795 94.136c8.077-8.077 8.077-21.172 0-29.249-8.077-8.076-21.172-8.076-29.249 0L6.058 241.375c-8.077 8.077-8.077 21.172 0 29.249l176.488 176.488a20.616 20.616 0 0 0 14.625 6.058 20.616 20.616 0 0 0 14.625-6.058c8.077-8.077 8.077-21.172 0-29.249L49.932 256z"/></symbol><symbol id="left-white-arrow" viewBox="0 0 512 512"><path fill="#FFF" d="M491.318 235.318H20.682C9.26 235.318 0 244.578 0 256c0 11.423 9.26 20.682 20.682 20.682h470.636c11.423 0 20.682-9.259 20.682-20.682 0-11.422-9.259-20.682-20.682-20.682z"/><path fill="#FFF" d="M49.932 256L211.795 94.136c8.077-8.077 8.077-21.172 0-29.249-8.077-8.076-21.172-8.076-29.249 0L6.058 241.375c-8.077 8.077-8.077 21.172 0 29.249l176.488 176.488a20.616 20.616 0 0 0 14.625 6.058 20.616 20.616 0 0 0 14.625-6.058c8.077-8.077 8.077-21.172 0-29.249L49.932 256z"/></symbol><symbol id="linkedin" viewBox="0 0 512 512"><g><path d="M119.18 164.715H16.396a8.258 8.258 0 0 0-8.258 8.258v330.204a8.256 8.256 0 0 0 8.258 8.258H119.18a8.256 8.256 0 0 0 8.258-8.258V172.973a8.258 8.258 0 0 0-8.258-8.258zM67.825.563C30.426.563 0 30.956 0 68.314c0 37.374 30.426 67.779 67.825 67.779 37.369 0 67.771-30.406 67.771-67.779C135.597 30.956 105.195.563 67.825.563zM380.621 156.508c-41.282 0-71.799 17.747-90.309 37.911v-21.446a8.258 8.258 0 0 0-8.258-8.258H183.62a8.258 8.258 0 0 0-8.258 8.258v330.204a8.256 8.256 0 0 0 8.258 8.258h102.56a8.256 8.256 0 0 0 8.258-8.258V339.803c0-55.053 14.954-76.501 53.331-76.501 41.796 0 45.117 34.383 45.117 79.334v160.543a8.256 8.256 0 0 0 8.258 8.258h102.598a8.256 8.256 0 0 0 8.258-8.258V322.056c0-81.862-15.609-165.548-131.379-165.548z"/></g></symbol><symbol id="mobile" viewBox="0 0 27.442 27.442"><path d="M19.494 0H7.948a1.997 1.997 0 0 0-1.997 1.999v23.446c0 1.102.892 1.997 1.997 1.997h11.546a1.998 1.998 0 0 0 1.997-1.997V1.999A1.999 1.999 0 0 0 19.494 0zm-8.622 1.214h5.7c.144 0 .261.215.261.481s-.117.482-.261.482h-5.7c-.145 0-.26-.216-.26-.482s.115-.481.26-.481zm2.85 24.255a1.275 1.275 0 1 1 0-2.55 1.275 1.275 0 0 1 0 2.55zm6.273-4.369H7.448V3.373h12.547V21.1z"/></symbol><symbol id="no_avatar"><path fill="#DCE1EA" d="M0 0h500v500H0V0z"/><path fill="#FFF" d="M130.22 355.312c10.061-26.646 26.064-31.697 38.871-33.988 12.796-2.299 43.897-10.117 46.633-17.459.884-2.379 1.188-6.911 1.205-11.945 7.3 6.067 17.883 12.426 30.904 12.996.63.027 1.26.045 1.889.045 11.478 0 22.644-4.595 33.342-13.668-.005 5.28.286 10.098 1.207 12.572 2.734 7.34 33.834 15.157 46.631 17.459 12.804 2.291 28.807 7.342 38.868 33.988 10.06 26.656-249.61 26.656-239.55 0zm169.273-114.393s-.909 15.642-14.963 32.775l-.02-.017c-11.828 13.633-23.958 20.235-36.11 19.777-16.533-.688-28.939-14.424-32.138-18.329v-.01c-15.189-17.683-16.091-34.196-16.091-34.196s-8.223 1.381-12.794-18.381c-4.571-19.765 4.571-15.162 4.571-15.162-11.888-62.478 36.64-79.481 36.64-79.481 8.9-2.697 15.909-3.077 21.244-2.527 5.35-.548 12.344-.17 21.254 2.527 0 0 48.525 17.003 36.642 79.481 0 0 9.145-4.6 4.574 15.162-4.574 19.762-12.809 18.381-12.809 18.381z"/></symbol><symbol id="plus" viewBox="0 0 31.444 31.444"><path d="M1.119 16.841a1.118 1.118 0 0 1-1.111-1.127c0-.619.492-1.111 1.111-1.111h13.475V1.127A1.133 1.133 0 0 1 15.722 0c.619 0 1.111.508 1.111 1.127v13.476h13.475c.619 0 1.127.492 1.127 1.111s-.508 1.127-1.127 1.127H16.833v13.476c0 .619-.492 1.127-1.111 1.127a1.131 1.131 0 0 1-1.127-1.127V16.841H1.119z"/></symbol><symbol id="right-arrow" viewBox="0 0 31.49 31.49"><path fill="#cb0101" d="M21.205 5.007a1.112 1.112 0 0 0-1.587 0 1.12 1.12 0 0 0 0 1.571l8.047 8.047H1.111A1.106 1.106 0 0 0 0 15.737c0 .619.492 1.127 1.111 1.127h26.554l-8.047 8.032c-.429.444-.429 1.159 0 1.587a1.112 1.112 0 0 0 1.587 0l9.952-9.952a1.093 1.093 0 0 0 0-1.571l-9.952-9.953z"/></symbol><symbol id="telegram" viewBox="0 0 300 300"><path d="M5.299 144.645l69.126 25.8 26.756 86.047c1.712 5.511 8.451 7.548 12.924 3.891l38.532-31.412a11.496 11.496 0 0 1 14.013-.391l69.498 50.457c4.785 3.478 11.564.856 12.764-4.926L299.823 29.22c1.31-6.316-4.896-11.585-10.91-9.259L5.218 129.402c-7.001 2.7-6.94 12.612.081 15.243zm91.57 12.066l135.098-83.207c2.428-1.491 4.926 1.792 2.841 3.726L123.313 180.87a23.112 23.112 0 0 0-7.163 13.829l-3.798 28.146c-.503 3.758-5.782 4.131-6.819.494l-14.607-51.325c-1.673-5.854.765-12.107 5.943-15.303z"/></symbol><symbol id="twitter" viewBox="0 0 410.155 410.155"><path d="M403.632 74.18a162.414 162.414 0 0 1-28.28 9.537 88.177 88.177 0 0 0 23.275-37.067c1.295-4.051-3.105-7.554-6.763-5.385a163.188 163.188 0 0 1-43.235 17.862 11.02 11.02 0 0 1-2.702.336c-2.766 0-5.455-1.027-7.57-2.891-16.156-14.239-36.935-22.081-58.508-22.081-9.335 0-18.76 1.455-28.014 4.325-28.672 8.893-50.795 32.544-57.736 61.724-2.604 10.945-3.309 21.9-2.097 32.56a3.166 3.166 0 0 1-.797 2.481 3.278 3.278 0 0 1-2.753 1.091c-62.762-5.831-119.358-36.068-159.363-85.14-2.04-2.503-5.952-2.196-7.578.593-7.834 13.44-11.974 28.812-11.974 44.454 0 23.972 9.631 46.563 26.36 63.032a79.24 79.24 0 0 1-20.169-7.808c-3.06-1.7-6.825.485-6.868 3.985-.438 35.612 20.412 67.3 51.646 81.569a79.567 79.567 0 0 1-16.786-1.399c-3.446-.658-6.341 2.611-5.271 5.952 10.138 31.651 37.39 54.981 70.002 60.278-27.066 18.169-58.585 27.753-91.39 27.753l-10.227-.006c-3.151 0-5.816 2.054-6.619 5.106-.791 3.006.666 6.177 3.353 7.74 36.966 21.513 79.131 32.883 121.955 32.883 37.485 0 72.549-7.439 104.219-22.109 29.033-13.449 54.689-32.674 76.255-57.141 20.09-22.792 35.8-49.103 46.692-78.201 10.383-27.737 15.871-57.333 15.871-85.589v-1.346c-.001-4.537 2.051-8.806 5.631-11.712a174.776 174.776 0 0 0 35.16-38.591c2.573-3.849-1.485-8.673-5.719-6.795z"/></symbol></svg>