<svg id="Layer_5" data-name="Layer 5" xmlns="http://www.w3.org/2000/svg" viewBox="0 0 73.7 73.7"><defs><style>.cls-1{fill:#cd161a;}</style></defs><title>R_</title><path class="cls-1" d="M50.18,25.63H48.87v-4A6.92,6.92,0,0,0,42,14.68H31.79a6.93,6.93,0,0,0-6.92,6.92v4h-1.3a8.3,8.3,0,0,0-8.29,8.29v10.5a8.3,8.3,0,0,0,8.29,8.29h2.94V55a6.81,6.81,0,0,0,6.8,6.81h7.12A6.81,6.81,0,0,0,47.24,55V52.71h2.94a8.3,8.3,0,0,0,8.29-8.29V33.92A8.3,8.3,0,0,0,50.18,25.63Zm-22.31-4a3.93,3.93,0,0,1,3.92-3.92H42a3.92,3.92,0,0,1,3.91,3.92v4h-18ZM44.24,55a3.82,3.82,0,0,1-3.81,3.81H33.31A3.81,3.81,0,0,1,29.51,55V46.47H44.24ZM55.47,44.42a5.3,5.3,0,0,1-5.29,5.29H47.24V46.47h2.29a1.5,1.5,0,0,0,0-3H24.21a1.5,1.5,0,0,0,0,3h2.3v3.24H23.57a5.29,5.29,0,0,1-5.29-5.29V33.92a5.29,5.29,0,0,1,5.29-5.29H50.18a5.3,5.3,0,0,1,5.29,5.29Z"/><path class="cls-1" d="M32.67,34.55h-7a1.5,1.5,0,1,0,0,3h7a1.5,1.5,0,0,0,0-3Z"/></svg>