<svg id="Layer_5" data-name="Layer 5" xmlns="http://www.w3.org/2000/svg" viewBox="0 0 73.7 73.7"><defs><style>.cls-1{fill:#cd161a;}</style></defs><title>R_</title><path class="cls-1" d="M40.28,15.81c-11.13,0-19.85,8.53-19.85,19.42,0,10.43,8.52,26.5,19.85,26.5s19.85-16.07,19.85-26.5C60.13,24.34,51.41,15.81,40.28,15.81Zm0,42.92c-9.3,0-16.85-14.22-16.85-23.5A16.47,16.47,0,0,1,40.28,18.81,16.47,16.47,0,0,1,57.13,35.23C57.13,44.51,49.58,58.73,40.28,58.73Z"/><path class="cls-1" d="M40.28,27.21a8,8,0,1,0,8,8A8,8,0,0,0,40.28,27.21Zm0,13a5,5,0,1,1,5-5A5,5,0,0,1,40.28,40.26Z"/></svg>