<svg id="Layer_5" data-name="Layer 5" xmlns="http://www.w3.org/2000/svg" viewBox="0 0 73.7 73.7"><defs><style>.cls-1{fill:#cd161a;}</style></defs><title>R_</title><path class="cls-1" d="M60.33,48.75c-1-2.17-8.79-7.4-11.25-7.12-1.26.14-2.6,1.24-3.9,2.29-.33.27-.77.64-1.1.87-4.37-2.5-8.38-8-9.5-9.66a15.52,15.52,0,0,1,1.05-1.2,13.55,13.55,0,0,0,1.66-2c.72-1.15.38-2.91-1.07-5.53-1-1.74-5.16-8.24-8.06-8.24-4.09,0-6.78,3.82-7.73,6.07-2.2,5.24.86,13.86,7.79,22C34,52.93,42.85,59.4,51.78,59.4A18.07,18.07,0,0,0,56,58.89a6.35,6.35,0,0,0,3.88-3.64C60.75,53.46,61.31,50.82,60.33,48.75ZM57.19,54a3.51,3.51,0,0,1-1.9,2c-9,2.23-18.68-4.6-24.79-11.74s-9-14.76-7.3-18.84c.6-1.45,2.4-4.17,4.87-4.23,1.73.63,6.58,7.51,6.59,9.31a14.13,14.13,0,0,1-1.21,1.41c-1.16,1.23-2.47,2.62-1.82,4.18a1.83,1.83,0,0,0,.13.24c.22.34,5.44,8.37,11.52,11.47,1.2.6,2.29-.29,3.8-1.52a12.59,12.59,0,0,1,2.3-1.63c1.54.21,7.6,4.18,8.24,5.41A5.29,5.29,0,0,1,57.19,54Z"/></svg>