<svg 
 xmlns="http://www.w3.org/2000/svg"
 xmlns:xlink="http://www.w3.org/1999/xlink"
 width="35px" height="30px">
<path fill-rule="evenodd"  fill="rgb(217, 57, 45)"
 d="M33.910,29.982 L1.421,29.982 C-1.659,29.904 1.236,26.939 1.236,26.939 L15.277,2.311 C17.761,-0.719 19.864,2.359 19.864,2.359 L33.862,26.939 C36.442,29.681 33.910,29.982 33.910,29.982 ZM20.193,9.477 C20.193,8.228 18.918,7.216 17.678,7.216 C16.438,7.216 15.199,8.228 15.199,9.477 L15.199,18.898 C15.199,20.146 16.204,21.157 17.445,21.157 C18.685,21.157 20.193,20.146 20.193,18.898 L20.193,9.477 ZM17.754,22.382 C16.353,22.382 15.216,23.525 15.216,24.937 C15.216,26.348 16.353,27.492 17.754,27.492 C19.157,27.492 20.293,26.348 20.293,24.937 C20.293,23.525 19.157,22.382 17.754,22.382 Z"/>
</svg>