<svg xmlns="http://www.w3.org/2000/svg" width="164.282" height="110.027" viewBox="0 0 164.282 110.027">
  <g id="ifb-icon" transform="translate(-27.42 -100.47)">
    <rect id="Rectangle_2889" data-name="Rectangle 2889" width="151.632" height="107.569" rx="8.36" transform="translate(32.383 100.47)" fill="#24285b"/>
    <path id="Path_4289" data-name="Path 4289" d="M27.42,373.95H191.7V380.2a3.149,3.149,0,0,1-3.15,3.149H30.577a3.15,3.15,0,0,1-3.157-3.131v-6.255Z" transform="translate(0 -172.858)" fill="#c3c7c9"/>
    <path id="Path_4290" data-name="Path 4290" d="M206.34,373.95l2.038,3.477h28.688l1.891-3.477Z" transform="translate(-113.089 -172.858)" fill="#24285b"/>
    <rect id="Rectangle_2890" data-name="Rectangle 2890" width="142.353" height="90.585" rx="3.27" transform="translate(36.725 106.655)" fill="#0099f5"/>
    <path id="Path_4291" data-name="Path 4291" d="M194.653,219.628H52.3l.151-83.948h142.2Z" transform="translate(-15.726 -22.255)" fill="#fff"/>
    <path id="Path_4292" data-name="Path 4292" d="M87.455,123.922a1.439,1.439,0,1,1-.42-1.02,1.442,1.442,0,0,1,.42,1.02Z" transform="translate(-36.123 -13.912)" fill="#69e0a2"/>
    <path id="Path_4293" data-name="Path 4293" d="M63.7,123.922a1.439,1.439,0,1,1-.421-1.021A1.442,1.442,0,0,1,63.7,123.922Z" transform="translate(-21.111 -13.912)" fill="#f0457d"/>
    <path id="Path_4294" data-name="Path 4294" d="M75.1,123.922a1.439,1.439,0,1,1-.421-1.021,1.442,1.442,0,0,1,.421,1.021Z" transform="translate(-28.317 -13.912)" fill="#ffd44d"/>
    <path id="Path_4295" data-name="Path 4295" d="M165.976,254.023l3.606-.048-.979-5.306-2.943.835a.482.482,0,0,0-.342.5l.18,3.558a.478.478,0,0,0,.478.464Z" transform="translate(-87.16 -93.672)" fill="#ffd44d"/>
    <path id="Path_4296" data-name="Path 4296" d="M200.16,188.91s6.792.533,18.349-5.7,19.213-16.925,20.3-16.539,6.542-.419,9.691,23.32-1.821,27.444-3.624,26.83-13.084-8.117-21.038-9.629-19.044-.427-19.044-.427Z" transform="translate(-109.183 -41.838)" fill="#ffd44d"/>
    <path id="Path_4297" data-name="Path 4297" d="M207.14,254.036l2.049,7.907s11.089-1.1,19.044.423c7.524,1.435,18.029,8.231,20.663,9.474C240.173,254.18,217.354,253.422,207.14,254.036Z" transform="translate(-113.595 -96.978)" fill="#f9bb0d"/>
    <path id="Path_4298" data-name="Path 4298" d="M172.63,229.1l.927,5.033.419,2.259a5.668,5.668,0,0,0,6.31,4.735l14.6-.662a.482.482,0,0,0,.441-.534l-1.689-19.4a.471.471,0,0,0-.519-.441l-16.068,2.075A5.916,5.916,0,0,0,172.63,229.1Z" transform="translate(-91.716 -75.604)" fill="#f0457d"/>
    <path id="Path_4299" data-name="Path 4299" d="M185.071,264.686l2.8,9.055a.46.46,0,0,0,.493.331l1.729-.206a.445.445,0,0,1,.4.158l12.234,14.349a.449.449,0,0,0,.736-.04l4.739-6.851a.508.508,0,0,0-.118-.7c-1.652-1.141-7.819-5.563-8.783-8.6-.765-2.417-.074-3.374.43-3.738a.508.508,0,0,0,.14-.67l-2.91-4.827a.456.456,0,0,0-.445-.224l-11.038,1.332a.486.486,0,0,0-.408.629Z" transform="translate(-99.632 -102.554)" fill="#f0457d"/>
    <path id="Path_4300" data-name="Path 4300" d="M311.157,191.695c1.623,12.83.762,23.548-1.917,23.916s-6.167-9.739-7.786-22.562-.762-23.548,1.917-23.916S309.538,178.861,311.157,191.695Z" transform="translate(-172.691 -43.394)" fill="#24285b"/>
    <path id="Path_4301" data-name="Path 4301" d="M304.307,214.859s6.571-1.862,7.359,6.969-5.416,8.279-5.416,8.279a57.453,57.453,0,0,1-1.943-15.247Z" transform="translate(-175.01 -72.198)" fill="#0099f5"/>
    <path id="Path_4302" data-name="Path 4302" d="M294.553,184.58a9.831,9.831,0,0,0-.21,1.575c-.1,1.015-.254,2.491-.368,4.316,0,.92,0,1.921-.026,2.995v2.546c0,.3.04.592.059.894.088,1.207.18,2.476.28,3.79.026.331.048.662.074,1s.1.666.14,1q.154,1.008.313,2.046t.313,2.046c.059.335.092.673.169,1s.155.651.228.971q.453,1.921.868,3.679c.074.291.132.585.213.868l.265.828c.173.545.346,1.074.508,1.586l.92,2.84c.673,1.681,1.255,3.028,1.656,3.959a8.89,8.89,0,0,0,.673,1.424,9.9,9.9,0,0,0-.5-1.5l-1.509-4.025-.854-2.84-.482-1.578-.25-.824c-.077-.28-.132-.574-.2-.865-.269-1.17-.545-2.4-.835-3.679-.074-.316-.147-.64-.221-.964s-.107-.659-.166-.99q-.155-1-.309-2.031t-.313-2.031c-.048-.335-.118-.666-.14-1s-.055-.662-.081-.986c-.107-1.306-.21-2.576-.305-3.764-.022-.3-.059-.6-.066-.89s0-.581,0-.865c0-.57,0-1.126-.018-1.659,0-1.071-.026-2.068-.037-2.98.1-1.8.173-3.267.228-4.312A9.432,9.432,0,0,0,294.553,184.58Z" transform="translate(-168.465 -53.163)" fill="#fff"/>
    <path id="Path_4303" data-name="Path 4303" d="M187.87,276.272l.71,2.289,13.124-2.289-.195-.412Z" transform="translate(-101.415 -110.858)" fill="#db2868"/>
  </g>
</svg>
