<svg xmlns="http://www.w3.org/2000/svg" width="62" height="62.001" viewBox="0 0 62 62.001"><g transform="translate(-1428 -489.739)"><g transform="translate(1490 551.74) rotate(-180)" fill="#fff" stroke="#c4c4c4" stroke-width="1" opacity="0.6"><circle cx="1" cy="1" r="1" stroke="none"/><circle cx="1" cy="1" r="0.5" fill="none"/></g><g transform="translate(1480 551.74) rotate(-180)" fill="#fff" stroke="#c4c4c4" stroke-width="1" opacity="0.6"><circle cx="1" cy="1" r="1" stroke="none"/><circle cx="1" cy="1" r="0.5" fill="none"/></g><g transform="translate(1470 551.74) rotate(-180)" fill="#fff" stroke="#c4c4c4" stroke-width="1" opacity="0.6"><circle cx="1" cy="1" r="1" stroke="none"/><circle cx="1" cy="1" r="0.5" fill="none"/></g><g transform="translate(1460 551.74) rotate(-180)" fill="#fff" stroke="#c4c4c4" stroke-width="1" opacity="0.7"><circle cx="1" cy="1" r="1" stroke="none"/><circle cx="1" cy="1" r="0.5" fill="none"/></g><g transform="translate(1450 551.74) rotate(-180)" fill="#fff" stroke="#c4c4c4" stroke-width="1" opacity="0.7"><circle cx="1" cy="1" r="1" stroke="none"/><circle cx="1" cy="1" r="0.5" fill="none"/></g><g transform="translate(1440 551.74) rotate(-180)" fill="#fff" stroke="#c4c4c4" stroke-width="1"><circle cx="1" cy="1" r="1" stroke="none"/><circle cx="1" cy="1" r="0.5" fill="none"/></g><g transform="translate(1430 551.74) rotate(-180)" fill="#fff" stroke="#c4c4c4" stroke-width="1"><circle cx="1" cy="1" r="1" stroke="none"/><circle cx="1" cy="1" r="0.5" fill="none"/></g><g transform="translate(1490 541.74) rotate(-180)" fill="#fff" stroke="#c4c4c4" stroke-width="1" opacity="0.6"><circle cx="1" cy="1" r="1" stroke="none"/><circle cx="1" cy="1" r="0.5" fill="none"/></g><g transform="translate(1480 541.74) rotate(-180)" fill="#fff" stroke="#c4c4c4" stroke-width="1" opacity="0.6"><circle cx="1" cy="1" r="1" stroke="none"/><circle cx="1" cy="1" r="0.5" fill="none"/></g><g transform="translate(1470 541.74) rotate(-180)" fill="#fff" stroke="#c4c4c4" stroke-width="1" opacity="0.6"><circle cx="1" cy="1" r="1" stroke="none"/><circle cx="1" cy="1" r="0.5" fill="none"/></g><g transform="translate(1460 541.74) rotate(-180)" fill="#fff" stroke="#c4c4c4" stroke-width="1" opacity="0.7"><circle cx="1" cy="1" r="1" stroke="none"/><circle cx="1" cy="1" r="0.5" fill="none"/></g><g transform="translate(1450 541.74) rotate(-180)" fill="#fff" stroke="#c4c4c4" stroke-width="1" opacity="0.7"><circle cx="1" cy="1" r="1" stroke="none"/><circle cx="1" cy="1" r="0.5" fill="none"/></g><g transform="translate(1440.001 541.74) rotate(-180)" fill="#fff" stroke="#c4c4c4" stroke-width="1"><circle cx="1" cy="1" r="1" stroke="none"/><circle cx="1" cy="1" r="0.5" fill="none"/></g><g transform="translate(1430 541.74) rotate(-180)" fill="#fff" stroke="#c4c4c4" stroke-width="1"><circle cx="1" cy="1" r="1" stroke="none"/><circle cx="1" cy="1" r="0.5" fill="none"/></g><g transform="translate(1490 531.74) rotate(-180)" fill="#fff" stroke="#c4c4c4" stroke-width="1" opacity="0.6"><circle cx="1" cy="1" r="1" stroke="none"/><circle cx="1" cy="1" r="0.5" fill="none"/></g><g transform="translate(1480 531.739) rotate(-180)" fill="#fff" stroke="#c4c4c4" stroke-width="1" opacity="0.6"><circle cx="1" cy="1" r="1" stroke="none"/><circle cx="1" cy="1" r="0.5" fill="none"/></g><g transform="translate(1470 531.74) rotate(-180)" fill="#fff" stroke="#c4c4c4" stroke-width="1" opacity="0.6"><circle cx="1" cy="1" r="1" stroke="none"/><circle cx="1" cy="1" r="0.5" fill="none"/></g><g transform="translate(1460 531.74) rotate(-180)" fill="#fff" stroke="#c4c4c4" stroke-width="1" opacity="0.6"><circle cx="1" cy="1" r="1" stroke="none"/><circle cx="1" cy="1" r="0.5" fill="none"/></g><g transform="translate(1450 531.74) rotate(-180)" fill="#fff" stroke="#c4c4c4" stroke-width="1" opacity="0.6"><circle cx="1" cy="1" r="1" stroke="none"/><circle cx="1" cy="1" r="0.5" fill="none"/></g><g transform="translate(1440 531.74) rotate(-180)" fill="#fff" stroke="#c4c4c4" stroke-width="1" opacity="0.6"><circle cx="1" cy="1" r="1" stroke="none"/><circle cx="1" cy="1" r="0.5" fill="none"/></g><g transform="translate(1430 531.739) rotate(-180)" fill="#fff" stroke="#c4c4c4" stroke-width="1"><circle cx="1" cy="1" r="1" stroke="none"/><circle cx="1" cy="1" r="0.5" fill="none"/></g><g transform="translate(1490 521.74) rotate(-180)" fill="#fff" stroke="#c4c4c4" stroke-width="1" opacity="0.7"><circle cx="1" cy="1" r="1" stroke="none"/><circle cx="1" cy="1" r="0.5" fill="none"/></g><g transform="translate(1480 521.74) rotate(-180)" fill="#fff" stroke="#c4c4c4" stroke-width="1" opacity="0.7"><circle cx="1" cy="1" r="1" stroke="none"/><circle cx="1" cy="1" r="0.5" fill="none"/></g><g transform="translate(1470 521.74) rotate(-180)" fill="#fff" stroke="#c4c4c4" stroke-width="1" opacity="0.7"><circle cx="1" cy="1" r="1" stroke="none"/><circle cx="1" cy="1" r="0.5" fill="none"/></g><g transform="translate(1460 521.74) rotate(-180)" fill="#fff" stroke="#c4c4c4" stroke-width="1" opacity="0.6"><circle cx="1" cy="1" r="1" stroke="none"/><circle cx="1" cy="1" r="0.5" fill="none"/></g><g transform="translate(1450 521.74) rotate(-180)" fill="#fff" stroke="#c4c4c4" stroke-width="1" opacity="0.6"><circle cx="1" cy="1" r="1" stroke="none"/><circle cx="1" cy="1" r="0.5" fill="none"/></g><g transform="translate(1440 521.74) rotate(-180)" fill="#fff" stroke="#c4c4c4" stroke-width="1" opacity="0.6"><circle cx="1" cy="1" r="1" stroke="none"/><circle cx="1" cy="1" r="0.5" fill="none"/></g><g transform="translate(1430 521.74) rotate(-180)" fill="#fff" stroke="#c4c4c4" stroke-width="1" opacity="0.6"><circle cx="1" cy="1" r="1" stroke="none"/><circle cx="1" cy="1" r="0.5" fill="none"/></g><g transform="translate(1490 511.74) rotate(-180)" fill="#fff" stroke="#c4c4c4" stroke-width="1" opacity="0.7"><circle cx="1" cy="1" r="1" stroke="none"/><circle cx="1" cy="1" r="0.5" fill="none"/></g><g transform="translate(1480 511.74) rotate(-180)" fill="#fff" stroke="#c4c4c4" stroke-width="1" opacity="0.7"><circle cx="1" cy="1" r="1" stroke="none"/><circle cx="1" cy="1" r="0.5" fill="none"/></g><g transform="translate(1470 511.74) rotate(-180)" fill="#fff" stroke="#c4c4c4" stroke-width="1" opacity="0.6"><circle cx="1" cy="1" r="1" stroke="none"/><circle cx="1" cy="1" r="0.5" fill="none"/></g><g transform="translate(1460 511.74) rotate(-180)" fill="#fff" stroke="#c4c4c4" stroke-width="1" opacity="0.6"><circle cx="1" cy="1" r="1" stroke="none"/><circle cx="1" cy="1" r="0.5" fill="none"/></g><g transform="translate(1450 511.74) rotate(-180)" fill="#fff" stroke="#c4c4c4" stroke-width="1" opacity="0.6"><circle cx="1" cy="1" r="1" stroke="none"/><circle cx="1" cy="1" r="0.5" fill="none"/></g><g transform="translate(1440 511.74) rotate(-180)" fill="#fff" stroke="#c4c4c4" stroke-width="1" opacity="0.6"><circle cx="1" cy="1" r="1" stroke="none"/><circle cx="1" cy="1" r="0.5" fill="none"/></g><g transform="translate(1430 511.74) rotate(-180)" fill="#fff" stroke="#c4c4c4" stroke-width="1" opacity="0.6"><circle cx="1" cy="1" r="1" stroke="none"/><circle cx="1" cy="1" r="0.5" fill="none"/></g><g transform="translate(1490 501.74) rotate(-180)" fill="#fff" stroke="#c4c4c4" stroke-width="1"><circle cx="1" cy="1" r="1" stroke="none"/><circle cx="1" cy="1" r="0.5" fill="none"/></g><g transform="translate(1480 501.74) rotate(-180)" fill="#fff" stroke="#c4c4c4" stroke-width="1"><circle cx="1" cy="1" r="1" stroke="none"/><circle cx="1" cy="1" r="0.5" fill="none"/></g><g transform="translate(1470 501.74) rotate(-180)" fill="#fff" stroke="#c4c4c4" stroke-width="1" opacity="0.6"><circle cx="1" cy="1" r="1" stroke="none"/><circle cx="1" cy="1" r="0.5" fill="none"/></g><g transform="translate(1460 501.74) rotate(-180)" fill="#fff" stroke="#c4c4c4" stroke-width="1" opacity="0.6"><circle cx="1" cy="1" r="1" stroke="none"/><circle cx="1" cy="1" r="0.5" fill="none"/></g><g transform="translate(1450 501.74) rotate(-180)" fill="#fff" stroke="#c4c4c4" stroke-width="1" opacity="0.6"><circle cx="1" cy="1" r="1" stroke="none"/><circle cx="1" cy="1" r="0.5" fill="none"/></g><g transform="translate(1440 501.74) rotate(-180)" fill="#fff" stroke="#c4c4c4" stroke-width="1" opacity="0.6"><circle cx="1" cy="1" r="1" stroke="none"/><circle cx="1" cy="1" r="0.5" fill="none"/></g><g transform="translate(1430 501.74) rotate(-180)" fill="#fff" stroke="#c4c4c4" stroke-width="1" opacity="0.6"><circle cx="1" cy="1" r="1" stroke="none"/><circle cx="1" cy="1" r="0.5" fill="none"/></g><g transform="translate(1490 491.739) rotate(-180)" fill="#fff" stroke="#c4c4c4" stroke-width="1" opacity="0.8"><circle cx="1" cy="1" r="1" stroke="none"/><circle cx="1" cy="1" r="0.5" fill="none"/></g><g transform="translate(1480 491.74) rotate(-180)" fill="#fff" stroke="#c4c4c4" stroke-width="1" opacity="0.6"><circle cx="1" cy="1" r="1" stroke="none"/><circle cx="1" cy="1" r="0.5" fill="none"/></g><g transform="translate(1470 491.74) rotate(-180)" fill="#fff" stroke="#c4c4c4" stroke-width="1" opacity="0.6"><circle cx="1" cy="1" r="1" stroke="none"/><circle cx="1" cy="1" r="0.5" fill="none"/></g><g transform="translate(1460 491.74) rotate(-180)" fill="#fff" stroke="#c4c4c4" stroke-width="1" opacity="0.6"><circle cx="1" cy="1" r="1" stroke="none"/><circle cx="1" cy="1" r="0.5" fill="none"/></g><g transform="translate(1450 491.74) rotate(-180)" fill="#fff" stroke="#c4c4c4" stroke-width="1" opacity="0.6"><circle cx="1" cy="1" r="1" stroke="none"/><circle cx="1" cy="1" r="0.5" fill="none"/></g><g transform="translate(1440.001 491.74) rotate(-180)" fill="#fff" stroke="#c4c4c4" stroke-width="1" opacity="0.6"><circle cx="1" cy="1" r="1" stroke="none"/><circle cx="1" cy="1" r="0.5" fill="none"/></g><g transform="translate(1430 491.74) rotate(-180)" fill="#fff" stroke="#c4c4c4" stroke-width="1" opacity="0.6"><circle cx="1" cy="1" r="1" stroke="none"/><circle cx="1" cy="1" r="0.5" fill="none"/></g></g></svg>