<svg xmlns="http://www.w3.org/2000/svg" width="118.3" height="39.341" viewBox="0 0 118.3 39.341"><g transform="translate(-1605.385 -354.5)"><path d="M3581.922-862.853a15.487,15.487,0,0,1,6.449-1.872,13.01,13.01,0,0,1,6.075,1.872s2.752,2.308,5.657,2.308,5.959-2.308,5.959-2.308a18.575,18.575,0,0,1,7.177-1.872c3.495,0,5.1,1.4,6.8,1.872" transform="translate(-1936.479 1219.725)" fill="none" stroke="#f3f3f3" stroke-linecap="round" stroke-width="1"/><path d="M0,1.872A15.488,15.488,0,0,1,6.45,0a13.01,13.01,0,0,1,6.075,1.872S15.277,4.18,18.181,4.18s5.96-2.308,5.96-2.308A18.572,18.572,0,0,1,31.318,0c3.494,0,5.1,1.4,6.8,1.872" transform="translate(1644.118 393.341) rotate(180)" fill="none" stroke="#f3f3f3" stroke-linecap="round" stroke-width="1"/><path d="M0,1.872A15.488,15.488,0,0,1,6.45,0a13.01,13.01,0,0,1,6.075,1.872S15.277,4.18,18.181,4.18s5.96-2.308,5.96-2.308A18.572,18.572,0,0,1,31.318,0c3.494,0,5.1,1.4,6.8,1.872" transform="translate(1723.004 373.821) rotate(180)" fill="none" stroke="#f3f3f3" stroke-linecap="round" stroke-width="1"/><path d="M3581.922-862.853a15.487,15.487,0,0,1,6.449-1.872,13.01,13.01,0,0,1,6.075,1.872s2.752,2.308,5.657,2.308,5.959-2.308,5.959-2.308a18.575,18.575,0,0,1,7.177-1.872c3.495,0,5.1,1.4,6.8,1.872" transform="translate(-1936.479 1239.246)" fill="none" stroke="#f3f3f3" stroke-linecap="round" stroke-width="1"/><path d="M0,1.872A15.488,15.488,0,0,1,6.45,0a13.01,13.01,0,0,1,6.075,1.872S15.277,4.18,18.181,4.18s5.96-2.308,5.96-2.308A18.572,18.572,0,0,1,31.318,0c3.494,0,5.1,1.4,6.8,1.872" transform="translate(1644.118 373.821) rotate(180)" fill="none" stroke="#f3f3f3" stroke-linecap="round" stroke-width="1"/><path d="M3581.922-862.853a15.487,15.487,0,0,1,6.449-1.872,13.01,13.01,0,0,1,6.075,1.872s2.752,2.308,5.657,2.308,5.959-2.308,5.959-2.308a18.575,18.575,0,0,1,7.177-1.872c3.495,0,5.1,1.4,6.8,1.872" transform="translate(-1936.479 1223.906)" fill="none" stroke="#f3f3f3" stroke-linecap="round" stroke-width="1"/><path d="M0,1.872A15.488,15.488,0,0,1,6.45,0a13.01,13.01,0,0,1,6.075,1.872S15.277,4.18,18.181,4.18s5.96-2.308,5.96-2.308A18.572,18.572,0,0,1,31.318,0c3.494,0,5.1,1.4,6.8,1.872" transform="translate(1644.118 389.161) rotate(180)" fill="none" stroke="#f3f3f3" stroke-linecap="round" stroke-width="1"/><path d="M0,1.872A15.488,15.488,0,0,1,6.45,0a13.01,13.01,0,0,1,6.075,1.872S15.277,4.18,18.181,4.18s5.96-2.308,5.96-2.308A18.572,18.572,0,0,1,31.318,0c3.494,0,5.1,1.4,6.8,1.872" transform="translate(1723.004 368.941) rotate(180)" fill="none" stroke="#f3f3f3" stroke-linecap="round" stroke-width="1"/><path d="M3581.922-862.853a15.487,15.487,0,0,1,6.449-1.872,13.01,13.01,0,0,1,6.075,1.872s2.752,2.308,5.657,2.308,5.959-2.308,5.959-2.308a18.575,18.575,0,0,1,7.177-1.872c3.495,0,5.1,1.4,6.8,1.872" transform="translate(-1936.479 1244.126)" fill="none" stroke="#f3f3f3" stroke-linecap="round" stroke-width="1"/><path d="M0,1.872A15.488,15.488,0,0,1,6.45,0a13.01,13.01,0,0,1,6.075,1.872S15.277,4.18,18.181,4.18s5.96-2.308,5.96-2.308A18.572,18.572,0,0,1,31.318,0c3.494,0,5.1,1.4,6.8,1.872" transform="translate(1644.118 368.941) rotate(180)" fill="none" stroke="#f3f3f3" stroke-linecap="round" stroke-width="1"/><path d="M0,1.872A15.488,15.488,0,0,1,6.45,0a13.01,13.01,0,0,1,6.075,1.872S15.277,4.18,18.181,4.18s5.96-2.308,5.96-2.308A18.572,18.572,0,0,1,31.318,0c3.494,0,5.1,1.4,6.8,1.872" transform="translate(1723.004 383.581) rotate(180)" fill="none" stroke="#f3f3f3" stroke-linecap="round" stroke-width="1"/><path d="M3581.922-862.853a15.487,15.487,0,0,1,6.449-1.872,13.01,13.01,0,0,1,6.075,1.872s2.752,2.308,5.657,2.308,5.959-2.308,5.959-2.308a18.575,18.575,0,0,1,7.177-1.872c3.495,0,5.1,1.4,6.8,1.872" transform="translate(-1936.479 1229.485)" fill="none" stroke="#f3f3f3" stroke-linecap="round" stroke-width="1"/><path d="M0,1.872A15.488,15.488,0,0,1,6.45,0a13.01,13.01,0,0,1,6.075,1.872S15.277,4.18,18.181,4.18s5.96-2.308,5.96-2.308A18.572,18.572,0,0,1,31.318,0c3.494,0,5.1,1.4,6.8,1.872" transform="translate(1644.118 383.581) rotate(180)" fill="none" stroke="#f3f3f3" stroke-linecap="round" stroke-width="1"/><path d="M0,1.872A15.488,15.488,0,0,1,6.45,0a13.01,13.01,0,0,1,6.075,1.872S15.277,4.18,18.181,4.18s5.96-2.308,5.96-2.308A18.572,18.572,0,0,1,31.318,0c3.494,0,5.1,1.4,6.8,1.872" transform="translate(1723.004 363.361) rotate(180)" fill="none" stroke="#f3f3f3" stroke-linecap="round" stroke-width="1"/><path d="M3581.922-862.853a15.487,15.487,0,0,1,6.449-1.872,13.01,13.01,0,0,1,6.075,1.872s2.752,2.308,5.657,2.308,5.959-2.308,5.959-2.308a18.575,18.575,0,0,1,7.177-1.872c3.495,0,5.1,1.4,6.8,1.872" transform="translate(-1936.479 1249.706)" fill="none" stroke="#f3f3f3" stroke-linecap="round" stroke-width="1"/><path d="M0,1.872A15.488,15.488,0,0,1,6.45,0a13.01,13.01,0,0,1,6.075,1.872S15.277,4.18,18.181,4.18s5.96-2.308,5.96-2.308A18.572,18.572,0,0,1,31.318,0c3.494,0,5.1,1.4,6.8,1.872" transform="translate(1723.004 378.701) rotate(180)" fill="none" stroke="#f3f3f3" stroke-linecap="round" stroke-width="1"/><path d="M3581.922-862.853a15.487,15.487,0,0,1,6.449-1.872,13.01,13.01,0,0,1,6.075,1.872s2.752,2.308,5.657,2.308,5.959-2.308,5.959-2.308a18.575,18.575,0,0,1,7.177-1.872c3.495,0,5.1,1.4,6.8,1.872" transform="translate(-1936.479 1234.366)" fill="none" stroke="#f3f3f3" stroke-linecap="round" stroke-width="1"/><path d="M0,1.872A15.488,15.488,0,0,1,6.45,0a13.01,13.01,0,0,1,6.075,1.872S15.277,4.18,18.181,4.18s5.96-2.308,5.96-2.308A18.572,18.572,0,0,1,31.318,0c3.494,0,5.1,1.4,6.8,1.872" transform="translate(1644.118 378.701) rotate(180)" fill="none" stroke="#f3f3f3" stroke-linecap="round" stroke-width="1"/><path d="M0,1.872A15.488,15.488,0,0,1,6.45,0a13.01,13.01,0,0,1,6.075,1.872S15.277,4.18,18.181,4.18s5.96-2.308,5.96-2.308A18.572,18.572,0,0,1,31.318,0c3.494,0,5.1,1.4,6.8,1.872" transform="translate(1723.004 359.181) rotate(180)" fill="none" stroke="#f3f3f3" stroke-linecap="round" stroke-width="1"/><path d="M3581.922-862.853a15.487,15.487,0,0,1,6.449-1.872,13.01,13.01,0,0,1,6.075,1.872s2.752,2.308,5.657,2.308,5.959-2.308,5.959-2.308a18.575,18.575,0,0,1,7.177-1.872c3.495,0,5.1,1.4,6.8,1.872" transform="translate(-1936.479 1253.886)" fill="none" stroke="#f3f3f3" stroke-linecap="round" stroke-width="1"/></g></svg>