<svg xmlns="http://www.w3.org/2000/svg" width="322.068" height="315.177" viewBox="0 0 322.068 315.177"><g transform="translate(-18.48 -33.68)"><g transform="translate(18.48 46.906)"><path d="M241.543,170.706,198.61,134l.446-.515,42.384,36.234,51.348-65.672,20.207,14.627L354.252,64.29l.549.412-41.67,54.917-20.214-14.627Z" transform="translate(-74.973 -56.507)" fill="#ebebeb"/><path d="M42.044,304.187a2.327,2.327,0,1,1-2.327-2.327,2.327,2.327,0,0,1,2.327,2.327Z" transform="translate(-24.411 -131.014)" fill="#ebebeb"/><circle cx="4.592" cy="4.592" r="4.592" transform="translate(119.265 72.646)" fill="#ebebeb"/><path d="M40.918,262.425l-.508-.46,50.057-55.294,11.311,9.836,45.109-48.527.5.467-45.562,49.014-11.3-9.829Z" transform="translate(-25.358 -89.026)" fill="#ebebeb"/><circle cx="5.985" cy="5.985" r="5.985" transform="translate(273.781)" fill="#4caf50"/><path d="M427.668,58.69a22.748,22.748,0,0,1-2.615,3.137l-.988,1.071-.1.11-.117-.089a12.266,12.266,0,0,1-2.025-1.688,12.9,12.9,0,0,1,2.217,1.421h-.22l.968-1.084A23.865,23.865,0,0,1,427.668,58.69Z" transform="translate(-144.978 -54.75)" fill="#fff"/><path d="M108.88,141.81c.583-4.283-5.45-7.8-9.987-8.168-2.162-.172-4.407.158-6.459-.556-4.441-1.544-6.177-7.282-10.543-9.108-3.24-1.373-6.974-.151-10.11,1.428s-6.246,3.569-9.753,3.8c-3.048.192-6.363-.94-9.033.556-1.99,1.105-3.034,3.432-4.866,4.75a11.725,11.725,0,0,1-6.356,1.73c-2.238.124-4.53.144-6.562,1.071s-3.7,3.068-3.281,5.258Z" transform="translate(-22.678 -75.039)" fill="#ebebeb"/><path d="M441.5,130.941c.2-1.435-1.826-2.608-3.35-2.745a8.745,8.745,0,0,1-2.169-.192c-1.489-.515-2.059-2.443-3.535-3.054a4.158,4.158,0,0,0-3.391.48,8.842,8.842,0,0,1-3.274,1.27c-1.023.069-2.135-.309-3.027.192-.686.371-1.016,1.139-1.634,1.592a3.865,3.865,0,0,1-2.135.577,5.93,5.93,0,0,0-2.2.364,1.73,1.73,0,0,0-1.1,1.764Z" transform="translate(-143.055 -75.468)" fill="#f5f5f5"/><path d="M109.111,77.091c.192-1.435-1.833-2.615-3.349-2.746a8.744,8.744,0,0,1-2.169-.192c-1.489-.515-2.059-2.443-3.535-3.054a4.154,4.154,0,0,0-3.391.48,8.62,8.62,0,0,1-3.274,1.27c-1.023.069-2.135-.309-3.027.185-.686.378-1.016,1.146-1.634,1.6a3.885,3.885,0,0,1-2.135.577,5.909,5.909,0,0,0-2.2.364A1.743,1.743,0,0,0,83.3,77.352Z" transform="translate(-38.806 -58.58)" fill="#fafafa"/><path d="M140.75,266.766l13.618-30.255,13.988-8.4,8.69-18.91L202,215.041l18.614,57.1L191.8,286.3l-23.447,14.3Z" transform="translate(-56.827 -101.954)" fill="#f5f5f5"/><path d="M430.771,356.006l-24.634-49.172-11.4-17.063L381.3,227.62l-16.185-13.46-16.26,22.65-22.211,5.532L306.16,261.932l41.224,43.743,24.3,25.622,18.978,35.444,36.426,34.435C426.715,400.84,430.771,356.006,430.771,356.006Z" transform="translate(-108.704 -103.51)" fill="#ebebeb"/><path d="M18.48,424.691l2.512-33.372,13.419-20.859,8.786-39.7,15.972-9.376L78.9,288.2,97.695,275.48l38.993,38.561,25.739-27.723,19.843,6.61-8.175,10.165-20.639,3.995L112.8,342.539,81.187,359.966,72.759,375.19l-18.292,2.677Z" transform="translate(-18.48 -122.741)" fill="#ebebeb"/></g><g transform="translate(98.903 226.791)"><path d="M152.109,331.393c-1.105,1.572-3.253,1.05-4.249.089a8.012,8.012,0,0,1-1.8-3.686c-.872-3.041-1.757-6.225-1.105-9.321a5.162,5.162,0,0,1,1.194-2.54,2.7,2.7,0,0,1,2.56-.851,4.042,4.042,0,0,1,2.244,2.354,22.273,22.273,0,0,1,2.2,9.534,7.784,7.784,0,0,1-1.043,4.42" transform="translate(-138.499 -315.029)" fill="#db0101"/><g transform="translate(6.233)" opacity="0.2"><path d="M152.109,331.393c-1.105,1.572-3.253,1.05-4.249.089a8.012,8.012,0,0,1-1.8-3.686c-.872-3.041-1.757-6.225-1.105-9.321a5.162,5.162,0,0,1,1.194-2.54,2.7,2.7,0,0,1,2.56-.851,4.042,4.042,0,0,1,2.244,2.354,22.273,22.273,0,0,1,2.2,9.534,7.784,7.784,0,0,1-1.043,4.42" transform="translate(-144.732 -315.029)"/></g><path d="M145.122,350.086a9.568,9.568,0,0,0-5.937-.721,4.928,4.928,0,0,0-2.931,1.311,2.074,2.074,0,0,0,0,2.924,2.815,2.815,0,0,0,1.846.474c1.572,0,3.308-.3,4.564.645.686.542,1.187,1.435,2.059,1.7a2.059,2.059,0,0,0,2.224-1,3.432,3.432,0,0,0,.254-2.546,3.9,3.9,0,0,0-2.08-2.794Z" transform="translate(-135.651 -325.74)" fill="#db0101"/><path d="M159.352,335.969a5.759,5.759,0,0,1-.892-5.278,10.227,10.227,0,0,1,3.13-4.537,16.807,16.807,0,0,1,5.6-3.3,5.9,5.9,0,0,1,2.519-.426,2.636,2.636,0,0,1,2.114,1.277c.583,1.126,0,2.485-.59,3.6a42.113,42.113,0,0,1-3.679,5.6,9.889,9.889,0,0,1-4.043,3.466c-1.682.638-3.432.57-4.317-.6" transform="translate(-142.715 -317.347)" fill="#db0101"/><path d="M151.836,366.906a3.5,3.5,0,0,1-.1-.686c-.048-.522-.117-1.181-.192-1.956a28.148,28.148,0,0,0-.439-2.869,21.708,21.708,0,0,0-1.043-3.384,12.239,12.239,0,0,0-1.73-3.061,6.321,6.321,0,0,0-2.183-1.819,6.128,6.128,0,0,0-1.839-.577,3.494,3.494,0,0,1-.686-.1,3.484,3.484,0,0,1,.728,0,5.444,5.444,0,0,1,1.915.494,6.411,6.411,0,0,1,2.306,1.833,12,12,0,0,1,1.791,3.13,20.8,20.8,0,0,1,1.036,3.432,24.474,24.474,0,0,1,.384,2.9c.062.831.082,1.5.1,1.97a4.562,4.562,0,0,1-.041.693Z" transform="translate(-138.15 -326.76)" fill="#263238"/><path d="M153.728,356.561a1.071,1.071,0,0,1,0-.336v-.947c0-.824,0-2.018-.041-3.494-.069-2.951-.323-7.022-.817-11.5s-1.146-8.5-1.743-11.387c-.144-.686-.281-1.373-.419-1.942s-.233-1.071-.343-1.469-.158-.686-.22-.92a1.091,1.091,0,0,1-.055-.329,1.592,1.592,0,0,1,.11.309c.076.24.165.542.281.913s.247.885.391,1.455.3,1.215.46,1.942a107.152,107.152,0,0,1,1.833,11.4c.494,4.482.686,8.566.734,11.517,0,1.483,0,2.677-.055,3.5,0,.391-.041.686-.055.954A2.216,2.216,0,0,1,153.728,356.561Z" transform="translate(-140.179 -317.918)" fill="#263238"/><path d="M155.352,349.789a6.918,6.918,0,0,1,0-1,19.616,19.616,0,0,1,.3-2.691,35.956,35.956,0,0,1,.879-3.919,34.1,34.1,0,0,1,1.64-4.64,24.709,24.709,0,0,1,4.8-7.5A11.728,11.728,0,0,1,164.11,329c.172-.151.329-.3.487-.412l.439-.3a6.121,6.121,0,0,1,.831-.535,29.756,29.756,0,0,0-2.745,2.443,26.084,26.084,0,0,0-4.695,7.468,37.9,37.9,0,0,0-1.647,4.6c-.432,1.441-.686,2.746-.933,3.878a23.669,23.669,0,0,0-.391,2.663,6.648,6.648,0,0,1-.1.988Z" transform="translate(-141.824 -319.019)" fill="#263238"/><path d="M441.242,402.68a4.715,4.715,0,0,0-3.384,1.5,8.347,8.347,0,0,0-1.86,3.281,15.044,15.044,0,0,0,0,7.55c2.615-.776,4.345-3.432,5.141-4.8,1.249-2.21,2.176-6.967.082-7.509" transform="translate(-229.695 -342.519)" fill="#db0101"/><path d="M428.009,421.442a4.043,4.043,0,0,0,.686-3.988,5.367,5.367,0,0,0-2.876-2.979,2.231,2.231,0,0,0-1.894-.151,1.73,1.73,0,0,0-.865,1.517,3.522,3.522,0,0,0,.528,1.743c1.023,1.833,2.347,3.432,4.407,3.857" transform="translate(-225.79 -346.126)" fill="#db0101"/><path d="M428.609,430.357a1.676,1.676,0,0,0,.158-.487c.082-.323.192-.789.316-1.373a17.474,17.474,0,0,0,.412-4.619,8.7,8.7,0,0,0-1.462-4.386,5.831,5.831,0,0,0-.947-1.05,1.373,1.373,0,0,0-.426-.3,11.835,11.835,0,0,1,1.208,1.462,9.074,9.074,0,0,1,1.373,4.3,20.068,20.068,0,0,1-.33,4.564A15.743,15.743,0,0,0,428.609,430.357Z" transform="translate(-226.919 -347.368)" fill="#263238"/><path d="M438.165,407.84a4.395,4.395,0,0,0-.426.734c-.261.487-.625,1.187-1.064,2.059-.879,1.743-2.059,4.18-3.281,6.9s-2.279,5.21-3.006,7.028c-.371.906-.686,1.64-.844,2.155a4.972,4.972,0,0,0-.275.8,4.265,4.265,0,0,0,.371-.762l.927-2.121c.776-1.8,1.853-4.269,3.082-6.987s2.375-5.162,3.205-6.932l.982-2.1a5.752,5.752,0,0,0,.329-.776Z" transform="translate(-227.737 -344.137)" fill="#263238"/><path d="M434.491,426.824a9.431,9.431,0,0,1,7.475-4.3c.755,0,1.668.13,1.984.817s-.165,1.489-.686,2.059a8.072,8.072,0,0,1-8.792,1.661" transform="translate(-229.368 -348.741)" fill="#db0101"/><path d="M439.352,425.432a1.708,1.708,0,0,0-.494,0,3.786,3.786,0,0,0-.583.041,7.605,7.605,0,0,0-.762.1,9.612,9.612,0,0,0-1.915.57,11.2,11.2,0,0,0-2.155,1.181,11.562,11.562,0,0,0-1.819,1.647,9.861,9.861,0,0,0-1.16,1.634,5.943,5.943,0,0,0-.35.686,3.436,3.436,0,0,0-.22.535,1.96,1.96,0,0,0-.144.474c.055,0,.288-.645.879-1.592a10.471,10.471,0,0,1,1.187-1.565,11.2,11.2,0,0,1,3.878-2.746,10.6,10.6,0,0,1,1.86-.611C438.645,425.494,439.352,425.487,439.352,425.432Z" transform="translate(-227.888 -349.649)" fill="#263238"/></g><g transform="translate(18.48 201.663)"><path d="M340.128,447.126a2.258,2.258,0,0,1-.4,0l-1.146.034-4.262.055-14.414.055.137-.062-2.526,3.075-10.913,13.206-3.343,3.974-.92,1.071a2.277,2.277,0,0,1-.343.357,3.063,3.063,0,0,1,.288-.4l.872-1.112,3.247-4.043,10.838-13.274c.865-1.05,1.716-2.059,2.526-3.075l.055-.062h.082l14.414.062,4.262.055h1.146a1.816,1.816,0,0,1,.4.089Z" transform="translate(-107.399 -331.266)" fill="#263238"/><path d="M213.437,402.36l-42.658-1.4L158.96,416.266,140.235,424.6,130.07,446.172,141.9,432.437l22.774-3.816L180.9,411.716Z" transform="translate(-53.477 -316.852)" fill="#f5f5f5"/><path d="M18.48,425.613s.2-.281.611-.824l1.826-2.4,7.077-9.266c6.177-8.065,15.162-19.781,26.377-34.4v-.041h.048l18.292-2.691-.1.062c2.643-4.8,5.491-9.9,8.415-15.231h.041l31.573-17.441h0l40.723-35.5h.082l20.632-3.995-.1.062,10.515-13.089,9.952-12.355.069-.082h.11l22.465,5h.055l.034.041,64.389,67.951h0c7.138,13.371,13.487,25.245,18.944,35.458h0l26.769,25.4,7.111,6.761,1.826,1.75c.412.391.611.6.611.6l-.632-.577-1.846-1.723-7.152-6.726-26.878-25.327h0l-19-35.437h0L216.89,283.7l.089.055-22.431-5.024.178-.062-9.952,12.355-10.543,13.1-.041.055h-.062l-20.639,3.988.082-.041L112.9,343.571h0L81.283,360.977l.062-.055L72.9,376.146v.055h-.069l-18.3,2.67.076-.048c-11.243,14.6-20.255,26.288-26.46,34.319l-7.179,9.287-1.853,2.382C18.7,425.345,18.48,425.613,18.48,425.613Z" transform="translate(-18.48 -278.42)" fill="#263238"/><path d="M216.455,402.23l-.172.062-.522.158-2.011.577-7.55,2.107-26.082,7.145.082-.041c-3.212,3.343-6.685,6.967-10.3,10.714l-5.937,6.177-.041.041h-.055l-22.753,3.789.082-.048-9.98,11.483-2.746,3.151-.734.817c-.165.178-.261.268-.261.268s.076-.1.233-.3.4-.487.686-.844c.631-.755,1.544-1.826,2.7-3.2l9.891-11.565.034-.041h.048l22.76-3.844-.1.048c1.929-2.011,3.912-4.077,5.93-6.177L179.967,412h.076l26.082-7.028,7.55-2,2.059-.522.522-.13Z" transform="translate(-52.665 -317.25)" fill="#263238"/><path d="M313.234,380.918c0,.1-9.28.178-20.729.178s-20.735-.082-20.735-.178,9.28-.178,20.735-.178S313.234,380.843,313.234,380.918Z" transform="translate(-97.918 -310.51)" fill="#263238"/></g><g transform="translate(80.611 33.68)"><path d="M333.027,218.2a31.752,31.752,0,0,0-.213-3.933l-8.024,1.785c-.082.508-1.091,6.912-.92,7.55l9.005,2.492S333.027,218.429,333.027,218.2Z" transform="translate(-176.383 -90.318)" fill="#ffbe9d"/><path d="M336.168,228.314a.512.512,0,0,1,.041-.172c.1-.879,0-4.695-.426-4.853s-1.826.11-1.922.618.22,4.8.22,4.8.089.686,1.229.837C336.01,229.645,336.168,228.314,336.168,228.314Z" transform="translate(-179.517 -93.132)" fill="#ffbe9d"/><path d="M332.839,230.314a.512.512,0,0,1,.041-.172c.089-.879.034-4.695-.432-4.853s-1.826.11-1.915.618.213,4.8.213,4.8.1.686,1.235.837C332.681,231.645,332.839,230.314,332.839,230.314Z" transform="translate(-178.473 -93.759)" fill="#ffbe9d"/><path d="M329.579,231.31a.664.664,0,0,1,.034-.178c.1-.872.041-4.688-.426-4.853s-1.826.117-1.915.618.213,4.8.213,4.8.1.686,1.229.844C329.421,232.641,329.579,231.31,329.579,231.31Z" transform="translate(-177.451 -94.069)" fill="#ffbe9d"/><path d="M326.329,232.25a.565.565,0,0,1,.041-.178c.089-.872.034-4.688-.432-4.853s-1.826.117-1.915.618.22,4.8.22,4.8.089.686,1.229.844C326.171,233.574,326.329,232.25,326.329,232.25Z" transform="translate(-176.431 -94.364)" fill="#ffbe9d"/><path d="M333.806,225.83a7.859,7.859,0,0,1,.178,1.86,6.863,6.863,0,0,1-.062,1.839,7.859,7.859,0,0,1-.178-1.86A6.813,6.813,0,0,1,333.806,225.83Z" transform="translate(-179.474 -93.943)" fill="#eb996e"/><path d="M330.536,225.81a29.224,29.224,0,0,1,.185,5.292,15.7,15.7,0,0,1-.213-2.643,14.829,14.829,0,0,1,.028-2.649Z" transform="translate(-178.456 -93.937)" fill="#eb996e"/><g transform="translate(149.72 132.065)" opacity="0.78"><path d="M327.206,226.09a29.227,29.227,0,0,1,.185,5.292,15.7,15.7,0,0,1-.213-2.643A14.749,14.749,0,0,1,327.206,226.09Z" transform="translate(-327.132 -226.09)" fill="#eb996e"/></g><path d="M323.89,217.18s-3.178,7.214-2.711,7.66a10.659,10.659,0,0,0,1.922,1.139Z" transform="translate(-175.53 -91.23)" fill="#ffbe9d"/><path d="M289.721,71.015,287.394,98l-13.515-1.078c-.082-1.579,0-7.681,0-7.681s-5.621-.879-5.69-6.5c-.034-2.745.357-8.374.769-13.46a10.4,10.4,0,0,1,10.982-9.547h0a10.4,10.4,0,0,1,9.781,11.284Z" transform="translate(-158.925 -41.845)" fill="#ffbe9d"/><path d="M276.5,101.669a13.041,13.041,0,0,0,7.33-2.059s-1.73,4.05-7.344,3.542Z" transform="translate(-161.529 -54.357)" fill="#eb996e"/><path d="M272.52,79.06a.817.817,0,0,0,.776.817.782.782,0,0,0,.83-.728.8.8,0,0,0-.776-.81.769.769,0,0,0-.831.721Z" transform="translate(-160.284 -47.685)" fill="#263238"/><path d="M271.091,77.393c.1.11.686-.343,1.572-.343s1.5.439,1.592.329-.055-.233-.336-.432a2.176,2.176,0,0,0-2.519,0C271.132,77.159,271.022,77.345,271.091,77.393Z" transform="translate(-159.829 -47.124)" fill="#263238"/><path d="M284.61,79.066a.81.81,0,0,0,.776.81.769.769,0,0,0,.824-.728.8.8,0,0,0-.769-.81.769.769,0,0,0-.831.728Z" transform="translate(-164.076 -47.685)" fill="#263238"/><path d="M283.464,77.614c.1.1.686-.35,1.572-.343s1.5.432,1.592.329-.055-.24-.329-.439a2.237,2.237,0,0,0-1.277-.391,2.059,2.059,0,0,0-1.249.4C283.506,77.388,283.416,77.614,283.464,77.614Z" transform="translate(-163.713 -47.194)" fill="#263238"/><path d="M277.926,84.048a5.971,5.971,0,0,0-1.373-.254c-.22,0-.432-.062-.467-.213a1.118,1.118,0,0,1,.144-.686c.213-.535.426-1.1.686-1.682a28.892,28.892,0,0,0,1.462-4.393,28.5,28.5,0,0,0-1.819,4.262c-.213.59-.426,1.153-.625,1.688a1.263,1.263,0,0,0-.11.865.529.529,0,0,0,.364.323,1.278,1.278,0,0,0,.371.055A5.491,5.491,0,0,0,277.926,84.048Z" transform="translate(-161.311 -47.21)" fill="#263238"/><path d="M281.352,88.22c-.144,0-.144.933-.947,1.6s-1.8.563-1.805.686.22.178.645.192a2.327,2.327,0,0,0,1.51-.529,2,2,0,0,0,.728-1.332C281.517,88.447,281.414,88.22,281.352,88.22Z" transform="translate(-162.191 -50.785)" fill="#263238"/><path d="M283.147,72.785c.082.24.947.124,1.963.247s1.833.4,1.963.192-.082-.323-.412-.549a3.315,3.315,0,0,0-1.455-.515,3.432,3.432,0,0,0-1.537.178C283.3,72.49,283.106,72.675,283.147,72.785Z" transform="translate(-163.615 -45.742)" fill="#263238"/><path d="M271.55,73.738c.151.2.748,0,1.462,0s1.325.13,1.462-.076-.034-.3-.3-.48a2.135,2.135,0,0,0-2.361.069C271.57,73.443,271.481,73.642,271.55,73.738Z" transform="translate(-159.973 -45.968)" fill="#263238"/><path d="M292.076,62.022a2.128,2.128,0,0,0-1.764-2.238,2.594,2.594,0,0,0-3.713-3.267,3.37,3.37,0,0,0-5.937-1.2,3.569,3.569,0,0,0-6.033.954,3.919,3.919,0,0,0-5.793.824,5.272,5.272,0,0,0-1.922-.309,2.334,2.334,0,0,0-2.025,1.284,1.531,1.531,0,0,0,.577,1.812,1.867,1.867,0,1,0-.844,3.624,1.071,1.071,0,0,0-.583.982,2,2,0,0,0,1.318,1.455,7.221,7.221,0,0,0,5.127-.082c1.661-.556,3.2-1.428,4.846-2.059s4.4-1.682,6.054-1.1a3.033,3.033,0,0,1,.686.35,4.455,4.455,0,0,1,1.634,2.855.605.605,0,0,1,0,.11c.22,1.606.185,3.233.419,4.8a7.275,7.275,0,0,0,1.97,4.331c.487.453,1.373.769,1.75.233a1.284,1.284,0,0,0,.2-.734c.22-2.794.824-5.361,1.146-8.092a8.092,8.092,0,0,1,1.524-1.853A4.358,4.358,0,0,0,292.076,62.022Z" transform="translate(-157.306 -40.051)" fill="#263238"/><path d="M280.885,60.04a1.311,1.311,0,0,1-.076-.748,2.855,2.855,0,0,1,.9-1.846,2.931,2.931,0,0,1,2.951-.583,2.279,2.279,0,0,1,1.373,1.242,1.579,1.579,0,0,1,.041,1.036,1.222,1.222,0,0,1-.728.81,1.167,1.167,0,0,1-1.091-.124,1.085,1.085,0,0,1-.4-1,1.373,1.373,0,0,1,.453-.892,2.127,2.127,0,0,1,.824-.453,3.432,3.432,0,0,1,2.993.487,2.059,2.059,0,0,1,.728.961,1.667,1.667,0,0,1,.048.906c-.13.494-.412.645-.412.631a1.894,1.894,0,0,0,.275-.686,1.578,1.578,0,0,0-.1-.81,1.935,1.935,0,0,0-.686-.824,3.24,3.24,0,0,0-2.745-.384,1.373,1.373,0,0,0-1.03,1.071.734.734,0,0,0,.268.686.8.8,0,0,0,.748.076,1.057,1.057,0,0,0,.494-1.373,1.991,1.991,0,0,0-1.174-1.064,2.746,2.746,0,0,0-2.677.46,2.9,2.9,0,0,0-.933,1.682C280.871,59.772,280.933,60.04,280.885,60.04Z" transform="translate(-162.876 -40.897)" fill="#455a64"/><path d="M290.88,56.284a1.462,1.462,0,0,1,.508-.1,5.67,5.67,0,0,1,1.414.041,3.281,3.281,0,0,1,1.894.961,2.107,2.107,0,0,1,.3,2.546,1.653,1.653,0,0,1-.3.35l-.185-.3a1.476,1.476,0,0,1,1.338.178,1.647,1.647,0,0,1,.721,1.009,2.43,2.43,0,0,1-.439,1.949,3.692,3.692,0,0,1-.961.9c-.261.172-.412.24-.426.22s.117-.124.343-.323a4.523,4.523,0,0,0,.844-.933,2.237,2.237,0,0,0,.323-1.73,1.324,1.324,0,0,0-.59-.8,1.153,1.153,0,0,0-1.023-.137l-.92.371.741-.686a1.372,1.372,0,0,0,.24-.275,1.682,1.682,0,0,0,.227-1.133,1.874,1.874,0,0,0-.474-1,3.164,3.164,0,0,0-1.7-.933C291.649,56.257,290.88,56.36,290.88,56.284Z" transform="translate(-166.042 -40.731)" fill="#455a64"/><path d="M301.79,65c.041,0,.144.192.144.535a1.915,1.915,0,0,1-1.682,1.874c-.343,0-.549-.041-.542-.089a3.432,3.432,0,0,0,1.469-.769A3.378,3.378,0,0,0,301.79,65Z" transform="translate(-168.811 -43.503)" fill="#455a64"/><path d="M267.75,60.332a1.551,1.551,0,0,1,.529-.432,3.672,3.672,0,0,1,4.338.577,2.142,2.142,0,0,1,.686,1.551,1.3,1.3,0,0,1-1.345,1.229.988.988,0,0,1-.8-.611,1.373,1.373,0,0,1-.062-.94,1.8,1.8,0,0,1,1.215-1.194,2.292,2.292,0,0,1,1.517,0,3.274,3.274,0,0,1,1.112.686,5.552,5.552,0,0,1,1.112,1.483,2.176,2.176,0,0,1,.268.618,3.666,3.666,0,0,1-.391-.549,6.075,6.075,0,0,0-1.153-1.373,2.471,2.471,0,0,0-2.354-.583,1.5,1.5,0,0,0-.988.961c-.13.453.082,1.071.563,1.105a.961.961,0,0,0,.94-.892,1.826,1.826,0,0,0-.556-1.3,3.432,3.432,0,0,0-2.313-1.009,3.754,3.754,0,0,0-1.723.329,5.778,5.778,0,0,1-.59.343Z" transform="translate(-158.788 -41.759)" fill="#455a64"/><path d="M296.7,79.8c.1-.041,3.864-1.139,3.741,2.7s-3.953,2.924-3.96,2.814S296.7,79.8,296.7,79.8Z" transform="translate(-167.798 -48.089)" fill="#ffbe9d"/><path d="M298.258,84.468a1.547,1.547,0,0,0,.178.1.686.686,0,0,0,.5,0,1.661,1.661,0,0,0,.81-1.462,2.321,2.321,0,0,0-.151-.968.789.789,0,0,0-.487-.529.336.336,0,0,0-.4.172c-.055.1-.034.178-.055.185s-.076-.062-.041-.22a.446.446,0,0,1,.158-.24.515.515,0,0,1,.371-.082.947.947,0,0,1,.686.618,2.293,2.293,0,0,1,.192,1.078,1.73,1.73,0,0,1-1.03,1.627.728.728,0,0,1-.6-.117C298.265,84.564,298.245,84.475,298.258,84.468Z" transform="translate(-168.355 -48.653)" fill="#eb996e"/><path d="M258.367,351.145l2.5,11.5s-10.852,6.4-10.6,8.566l22.465-4.036L269.576,349.1Z" transform="translate(-153.304 -132.604)" fill="#263238"/><path d="M272.711,374.612l-.391-1.812-21.4,4.551s-.92.618-.686,1.3Z" transform="translate(-153.282 -140.037)" fill="#455a64"/><path d="M294.007,353.92l.371,11.764s-11.833,4.331-11.977,6.507l22.836.1.172-18.354Z" transform="translate(-163.383 -134.115)" fill="#263238"/><g transform="translate(119.009 236.326)" opacity="0.6"><path d="M305.232,379.843l-.055-1.853-21.875.6s-1.016.439-.906,1.153Z" transform="translate(-282.388 -377.99)" fill="#455a64"/></g><path d="M254.92,334.633s-11.668-57.415-11.71-58.568L264.117,265l8.1,67.381Z" transform="translate(-151.092 -106.228)" fill="#263238"/><path d="M291.251,313.98,275.08,214.456V193l22.088,2.059c.281.837,7.509,119.065,7.509,119.065l-2.279-.13H291.251" transform="translate(-161.087 -83.647)" fill="#263238"/><path d="M252.373,190.78l-9.163,62.007,20.488-4.969,8.353-55.02Z" transform="translate(-151.092 -82.951)" fill="#263238"/><path d="M284.18,198.44v.3l.1.892c.089.789.22,1.942.391,3.432.35,2.965.879,7.255,1.565,12.554,1.373,10.591,3.432,25.2,5.669,41.34,1.112,8.079,2.135,15.787,3.006,22.781.226,1.75.4,3.466.686,5.12s.5,3.26.734,4.8c.474,3.1.913,6,1.311,8.635.8,5.285,1.421,9.561,1.833,12.519.206,1.476.357,2.622.446,3.432.048.391.076.686.089.892a1.229,1.229,0,0,1,0,.227c0,.062-.034,0-.034,0h.041a1.082,1.082,0,0,0,0-.233,5.364,5.364,0,0,0-.062-.892c-.069-.782-.206-1.936-.391-3.432-.378-2.958-.975-7.241-1.743-12.526-.391-2.643-.817-5.539-1.277-8.641q-.35-2.327-.728-4.8c-.24-1.654-.412-3.37-.638-5.12-.851-7.008-1.867-14.709-2.979-22.781-2.231-16.144-4.338-30.75-5.752-41.333-.686-5.285-1.263-9.568-1.654-12.54l-.446-3.432c-.048-.384-.089-.686-.117-.885S284.18,198.44,284.18,198.44Z" transform="translate(-163.941 -85.353)" fill="#455a64"/><path d="M261.439,313.973a1.882,1.882,0,0,0-.034-.3l-.117-.858c-.13-.762-.316-1.874-.563-3.3-.5-2.876-1.229-7.022-2.128-12.135l-7.125-40.029a9.213,9.213,0,0,1-.172-2.9c.124-.961.281-1.929.426-2.883q.446-2.862.872-5.642c.583-3.7,1.153-7.262,1.723-10.653,1.126-6.788,2.217-12.883,3.192-18s1.826-9.232,2.478-12.066c.309-1.421.59-2.519.762-3.26.082-.364.144-.686.192-.851a1.889,1.889,0,0,0,.062-.288s-.034.089-.089.281-.124.48-.22.844c-.192.741-.487,1.833-.81,3.247-.686,2.835-1.572,6.953-2.574,12.06s-2.107,11.2-3.247,17.983c-.577,3.4-1.153,6.96-1.743,10.659-.288,1.846-.577,3.734-.879,5.642-.137.961-.3,1.908-.426,2.9a9.72,9.72,0,0,0,.178,2.986c2.814,15.615,5.361,29.761,7.207,40.009.933,5.107,1.689,9.245,2.21,12.121l.618,3.295c.076.364.13.652.172.851A1.183,1.183,0,0,1,261.439,313.973Z" transform="translate(-153.527 -86.096)" fill="#455a64"/><path d="M275.078,223.24c-.075,0,.879,6.445,2.135,14.359s2.334,14.3,2.409,14.3-.879-6.445-2.135-14.359S275.154,223.226,275.078,223.24Z" transform="translate(-161.085 -93.131)" fill="#455a64"/><path d="M298.35,368.994a2.586,2.586,0,0,0,.529.089c.343.041.844.089,1.455.137,1.229.1,2.931.185,4.8.22s3.583,0,4.8-.062a13.764,13.764,0,0,0,1.462-.089,1.763,1.763,0,0,0,.529-.075,15.025,15.025,0,0,0-1.991-.034h-4.8c-1.874,0-3.576-.1-4.8-.137A14.526,14.526,0,0,0,298.35,368.994Z" transform="translate(-168.385 -138.838)" fill="#455a64"/><path d="M260.27,365.419a3.055,3.055,0,0,0,.686-.034l1.86-.192c1.572-.185,3.734-.446,6.122-.762s4.544-.6,6.1-.831l1.853-.281a3.108,3.108,0,0,0,.686-.137,3.254,3.254,0,0,0-.686,0l-1.86.192c-1.572.178-3.734.446-6.122.755s-4.544.6-6.109.837l-1.846.281A3.325,3.325,0,0,0,260.27,365.419Z" transform="translate(-156.442 -137.014)" fill="#455a64"/><path d="M109,45.551s9.074-3.542,15.272-1.771,8.065,5.6,12.712,5.292c3.693-.261,6.308-1.86,7.639-5.786s1.332-8.827,13.94-8.36c9.65.357,10.625,1.771,10.625,1.771l1.036,25.677c-5.491-.865-11.051-1.489-17.043-.645a7.193,7.193,0,0,0-5.621,6.177c-.686,5.491-6.335,7.619-9.712,7.619-4.8,0-7.276-3.267-11.373-4.214C120.044,69.821,109,74.324,109,74.324Z" transform="translate(-109 -34.061)" fill="#db0101"/><path d="M201.386,128.451l-5.546-.391.144,8.7,5.951,4.345.6-.22.343-9.9Z" transform="translate(-136.235 -63.28)" fill="#eb996e"/><path d="M159.308,70.559c-.1,0-.261-4.256-.364-9.506s-.1-9.513,0-9.513.261,4.249.364,9.506S159.4,70.553,159.308,70.559Z" transform="translate(-124.64 -39.281)" fill="#263238"/><path d="M144.628,63c.1,0,.178,4.4.178,9.815s-.075,9.822-.178,9.822-.178-4.4-.178-9.822S144.532,63,144.628,63Z" transform="translate(-120.118 -42.875)" fill="#263238"/><g transform="translate(24.263 12.746)" opacity="0.2"><path d="M144.6,74.935c-.069,1.97,0,4.585,0,4.585a8.75,8.75,0,0,0,6.068,1.03h.048a6.685,6.685,0,0,0,4.461-4.8,7.551,7.551,0,0,0,.261-2.286,199.2,199.2,0,0,1-1.05-21.209,10.913,10.913,0,0,1-10.035,2.162Z" transform="translate(-144.35 -52.25)"/></g><g transform="translate(0.728 9.99)" opacity="0.6"><path d="M132.937,54.059a4.9,4.9,0,0,1-.844-.48l-2.244-1.373a24.318,24.318,0,0,0-7.928-3.35,17.887,17.887,0,0,0-8.532.508,35.4,35.4,0,0,0-3.329,1.373,5.49,5.49,0,0,1,.824-.522,15.939,15.939,0,0,1,2.43-1.071,17.2,17.2,0,0,1,8.676-.618,22.98,22.98,0,0,1,8,3.48c.94.6,1.675,1.126,2.183,1.489A4.983,4.983,0,0,1,132.937,54.059Z" transform="translate(-110.06 -48.235)" fill="#fff"/></g><g transform="translate(36.851 2.528)" opacity="0.6"><path d="M171.743,37.539c0,.062-.686,0-1.757.11a8.539,8.539,0,0,0-6.61,4.6c-.494.961-.645,1.627-.686,1.606a4.318,4.318,0,0,1,.48-1.716,8.072,8.072,0,0,1,6.816-4.743A4.359,4.359,0,0,1,171.743,37.539Z" transform="translate(-162.69 -37.363)" fill="#fff"/></g><path d="M196.732,33.68l7.324,203.469-1.263.3L195.27,33.776Z" transform="translate(-136.056 -33.68)" fill="#263238"/><path d="M211.249,137.761l-2.746-9.877-9.76-6.864s-1.139.686.6,3.26l2.19,3.02s-.069,3.933,1.805,6.239l-.6,5.326Z" transform="translate(-137.031 -61.072)" fill="#ffbe9d"/><path d="M195.305,130.651a10.619,10.619,0,0,1,2.745,2.581,1.922,1.922,0,0,1,.206.933.734.734,0,0,1-.384.686.686.686,0,0,1-.631-.062,2.148,2.148,0,0,1-.508-.426l-1.881-1.942a2.169,2.169,0,0,1-.652-1.071.748.748,0,0,1,1.078-.686" transform="translate(-135.721 -64.073)" fill="#ffbe9d"/><path d="M195.3,134.345a10.853,10.853,0,0,1,2.745,2.581,1.956,1.956,0,0,1,.206.933.734.734,0,0,1-.384.686.755.755,0,0,1-.638-.062,2.115,2.115,0,0,1-.5-.426l-1.86-1.894a2.2,2.2,0,0,1-.645-1.071.755.755,0,0,1,1.078-.686" transform="translate(-135.727 -65.248)" fill="#ffbe9d"/><path d="M195.875,138.321a10.619,10.619,0,0,1,2.746,2.581,1.846,1.846,0,0,1,.206.933.741.741,0,0,1-.378.686.728.728,0,0,1-.638-.062,2.292,2.292,0,0,1-.508-.426l-1.881-1.942a2.271,2.271,0,0,1-.652-1.071.748.748,0,0,1,1.078-.686" transform="translate(-135.9 -66.478)" fill="#ffbe9d"/><path d="M195.962,128.126a3.577,3.577,0,0,1,1.139.817,1.3,1.3,0,0,1,.233,1.373.577.577,0,0,1-.439.336.686.686,0,0,1-.384-.1,3.649,3.649,0,0,1-.748-.46,5.6,5.6,0,0,1-.625-.686.686.686,0,0,1-.178-.879c.144-.329.288-.522,1-.439" transform="translate(-135.932 -63.284)" fill="#ffbe9d"/><path d="M213.1,138.22l14.819,13.309L223.1,162.154l-17-18.141Z" transform="translate(-139.453 -66.466)" fill="#ffbe9d"/><path d="M212.74,130.584l13.185,10.035s12.266-20.921,13.35-22.218a15.614,15.614,0,0,1,3.837-2.691l-1.524,26.817s-6.63,16.933-15.739,16.013c-6.974-.686-19.019-19.095-19.019-19.095Z" transform="translate(-139.682 -59.407)" fill="#db0101"/><g transform="translate(84.166 80.882)" opacity="0.2"><path d="M233.454,151.52a11.579,11.579,0,0,0-1.332,9.609,1.414,1.414,0,0,0,.535.851,1.036,1.036,0,0,0,1.318-.439,3.1,3.1,0,0,0,.343-1.483,3.432,3.432,0,0,0,.968,1.277,1.187,1.187,0,0,0,1.489-.055c.439-.48.192-1.242-.069-1.839q-1.688-3.816-3.37-7.632" transform="translate(-231.623 -151.52)"/></g><path d="M217.375,141.75a48.57,48.57,0,0,1-3.02,5.059,49.333,49.333,0,0,1-3.315,4.866,47.133,47.133,0,0,1,3.02-5.059,48.947,48.947,0,0,1,3.315-4.866Z" transform="translate(-141.002 -67.573)" fill="#263238"/><path d="M215.213,141.16c0-.034.137-.206.439-.1a.57.57,0,0,1,.35.412.6.6,0,0,1-1,.528.57.57,0,0,1-.137-.522c.076-.316.316-.357.323-.309a1.01,1.01,0,0,0-.069.336c.014.192.165.384.4.261a.268.268,0,0,0,0-.48C215.384,141.173,215.24,141.2,215.213,141.16Z" transform="translate(-142.196 -67.347)" fill="#263238"/><path d="M234.4,158.342a9.431,9.431,0,0,1-.1-6.342c.1,0-.178,1.428-.144,3.178S234.5,158.315,234.4,158.342Z" transform="translate(-148.14 -70.788)" fill="#263238"/><path d="M237.164,158.265a15.437,15.437,0,0,1-2.684-6.225,33.278,33.278,0,0,1,1.325,3.123A32.332,32.332,0,0,1,237.164,158.265Z" transform="translate(-148.354 -70.801)" fill="#263238"/><path d="M285.525,110.19l-1.977-3.96H269.134l-2.265,4.475-8.923,2.018-3.837,57.436a4,4,0,0,0,.508,2.059h0l35.005,1.373,1.421.583c1.256-.776.474-3.974.487-5.491l.453-28.443,6.926-22.733Z" transform="translate(-154.51 -56.434)" fill="#db0101"/><g transform="translate(116.073 50.112)" opacity="0.2"><path d="M278.11,112.3l2.546-2.546,2.869,6.9A72.2,72.2,0,0,0,292.9,110.1l-9.7,3.109q-1.235-3.253-2.457-6.521a25.115,25.115,0,0,1-2.444,5.649" transform="translate(-278.11 -106.69)"/></g><path d="M328.538,187.347l-9.438.487V160.75L309.34,145.4l6.926-22.733c1.428.563,12.183,27.565,14.922,34.9a8.12,8.12,0,0,1,.508,3.308Z" transform="translate(-171.832 -61.589)" fill="#db0101"/><path d="M258.583,133c.1,0-.371,5.567-1.043,12.4s-1.3,12.355-1.373,12.355.371-5.566,1.043-12.41S258.487,132.959,258.583,133Z" transform="translate(-155.153 -64.829)" fill="#263238"/><path d="M279.33,106.71a34.547,34.547,0,0,1-1.716,4.619l-.192.467a1.174,1.174,0,0,1-.316.474.556.556,0,0,1-.625.041c-.165-.082-.281-.172-.4-.247l-1.3-.879a5.814,5.814,0,0,1-1.139-.885,6.177,6.177,0,0,1,1.277.686l1.338.81c.254.165.515.35.631.213a2.747,2.747,0,0,0,.4-.8,33.352,33.352,0,0,1,2.045-4.5Z" transform="translate(-160.635 -56.584)" fill="#263238"/><path d="M293.4,110.319a14.936,14.936,0,0,1-2.2.885c-1.373.508-3.281,1.181-5.395,1.9l-1.153.391-.158.055-.062-.151c-.741-1.8-1.373-3.391-1.833-4.544a11.529,11.529,0,0,1-.652-1.867,12.93,12.93,0,0,1,.872,1.778c.5,1.126,1.181,2.7,1.942,4.5l-.227-.1,1.153-.4c2.114-.686,4.036-1.373,5.429-1.805A16.016,16.016,0,0,1,293.4,110.319Z" transform="translate(-163.238 -56.672)" fill="#263238"/><path d="M313.339,123.86c0,.1-2,.686-4.352,1.7s-4.118,2.183-4.187,2.059a4.544,4.544,0,0,1,1.1-.837,22.649,22.649,0,0,1,6.081-2.7,4.461,4.461,0,0,1,1.359-.22Z" transform="translate(-170.408 -61.963)" fill="#263238"/><path d="M279.755,106.71a.594.594,0,0,1,0,.172v.508c0,.446.041,1.1.048,1.942,0,1.682,0,4.118-.11,7.131-.213,6.026-.968,14.332-2.169,23.44-.583,4.564-1.229,8.923-1.661,12.849a83.808,83.808,0,0,0-.577,10.543,53.075,53.075,0,0,0,.563,7.09c.1.837.233,1.476.3,1.915a2.882,2.882,0,0,0,.075.5.639.639,0,0,1,0,.172.689.689,0,0,1-.048-.165c-.034-.137-.069-.3-.117-.494-.082-.432-.24-1.071-.364-1.908a48.165,48.165,0,0,1-.686-7.111,79.277,79.277,0,0,1,.494-10.577c.419-3.967,1.05-8.3,1.634-12.856,1.2-9.108,1.99-17.393,2.272-23.405.151-3.006.2-5.443.227-7.125v-2.443A.618.618,0,0,1,279.755,106.71Z" transform="translate(-161.061 -56.584)" fill="#263238"/><path d="M333.5,210.609a35.448,35.448,0,0,1-5-.069,35.048,35.048,0,0,1-4.983-.419,34.67,34.67,0,0,1,5,.062,35.927,35.927,0,0,1,4.99.426Z" transform="translate(-176.276 -88.997)" fill="#263238"/><path d="M325.744,212.315v.254a.158.158,0,0,0,.275.1c.124-.1.082-.206-.034-.288s-.213-.048-.247-.082.062-.2.323-.158a.446.446,0,0,1,.343.268.494.494,0,0,1-.721.583.481.481,0,0,1-.192-.4C325.538,212.329,325.723,212.267,325.744,212.315Z" transform="translate(-176.897 -89.647)" fill="#263238"/><g transform="translate(133.971 78.178)" opacity="0.2"><path d="M307.84,153.14q-1.544-2.78-3.075-5.56a76.428,76.428,0,0,0,2.059,29.3q.48-11.813.954-23.618" transform="translate(-304.186 -147.58)"/></g><g transform="translate(94.665 56.969)" opacity="0.2"><path d="M246.92,126.674a7.351,7.351,0,0,0,8.518,2.691A2.512,2.512,0,0,0,257.5,130.5a5.9,5.9,0,0,0,2.368-.46,18.47,18.47,0,0,0,11.483-13.364c-4.441,1.558-7.433,5.862-11.792,7.646a11.119,11.119,0,0,1-10.577-1.091Z" transform="translate(-246.92 -116.68)"/></g><path d="M286.471,140.738a2.69,2.69,0,0,1,.556-.041l1.64-.041c1.428,0,3.48-.062,5.958-.076h.165v.165c-.165,2.169-.343,4.681-.542,7.358v.1l-.089.048-.364.192-3.988,2.1-.1.048-.089-.069-3.7-3.027-.055-.048v-.076c.178-1.99.323-3.645.426-4.873.055-.529.1-.968.137-1.318a2,2,0,0,1,.062-.439,3.2,3.2,0,0,1,0,.5c0,.357-.041.81-.062,1.373-.069,1.208-.158,2.842-.268,4.8l-.055-.124,3.734,2.986h-.185l3.974-2.107.371-.192-.1.144.583-7.351.158.165c-2.409,0-4.427-.048-5.862-.075l-1.675-.041A4.8,4.8,0,0,1,286.471,140.738Z" transform="translate(-164.468 -67.207)" fill="#263238"/><path d="M294.581,145.473a46.748,46.748,0,0,1-8.161-.151,23.043,23.043,0,0,1,4.084-.1,23.6,23.6,0,0,1,4.077.254Z" transform="translate(-164.643 -68.647)" fill="#fafafa"/><path d="M294.472,147.534a47.151,47.151,0,0,1-8.2-.151,47.159,47.159,0,0,1,8.2.151Z" transform="translate(-164.596 -69.294)" fill="#fafafa"/><path d="M260.816,201.849c0,.1-.734,0-1.208-.748s-.329-1.435-.233-1.373a6.987,6.987,0,0,0,.529,1.2C260.309,201.513,260.851,201.753,260.816,201.849Z" transform="translate(-156.131 -85.756)" fill="#263238"/><path d="M262.333,200.651a2.485,2.485,0,0,1-.988-1.62,2.457,2.457,0,0,1,.1-1.9c.1,0,0,.844.247,1.812S262.436,200.589,262.333,200.651Z" transform="translate(-156.734 -84.942)" fill="#263238"/><path d="M300.253,196.51a5.862,5.862,0,0,1-2.423,5.155,19.672,19.672,0,0,0,1.558-2.416,19.582,19.582,0,0,0,.865-2.739Z" transform="translate(-168.222 -84.748)" fill="#263238"/><path d="M280.061,110.98h1.894l.81,1.407-.8,2.2-1.888-.213-.741-1.586Z" transform="translate(-162.423 -57.923)" fill="#455a64"/><path d="M257.72,115.287s-11.394,7.337-17.214,4.407-13.041-6.521-19.541-5.663a31.052,31.052,0,0,0-10.865,3.432l-2.059,4.949,5.264,1.894s7.674-3.706,13.254-2.711c3.9.686,11.387,4.667,16.432,4.29s12.012-3.967,16.6-10.412Z" transform="translate(-140.061 -58.84)" fill="#455a64"/><path d="M281.778,116.743a2.375,2.375,0,0,1-.741-.336,2.5,2.5,0,0,1-.686-.467,2.306,2.306,0,0,1,.748.343A2.341,2.341,0,0,1,281.778,116.743Z" transform="translate(-162.74 -59.479)" fill="#263238"/><path d="M282.866,112.67a9.965,9.965,0,0,1-1.263,1.146,10.137,10.137,0,0,1-1.373,1.036,9.969,9.969,0,0,1,1.263-1.146,10.138,10.138,0,0,1,1.373-1.036Z" transform="translate(-162.702 -58.453)" fill="#263238"/><path d="M282.075,112.851a5.436,5.436,0,0,1-1.805-1.9c.034,0,.391.439.885.961S282.1,112.817,282.075,112.851Z" transform="translate(-162.715 -57.914)" fill="#263238"/><path d="M268.544,126.289a2.6,2.6,0,0,1-.254-.59c-.144-.371-.329-.885-.522-1.455s-.364-1.091-.48-1.469a3.8,3.8,0,0,1-.158-.625,2.8,2.8,0,0,1,.254.59c.144.371.329.885.522,1.455s.364,1.091.474,1.469A3.5,3.5,0,0,1,268.544,126.289Z" transform="translate(-158.594 -61.426)" fill="#fafafa"/><path d="M272.443,124.219a12.059,12.059,0,0,1-1.043-1.572,13.04,13.04,0,0,1-.92-1.647A24.579,24.579,0,0,1,272.443,124.219Z" transform="translate(-159.644 -61.066)" fill="#fafafa"/><path d="M276.084,121.76a8.042,8.042,0,0,1-1.167-1.05,8.125,8.125,0,0,1-1.057-1.16,18.117,18.117,0,0,1,2.224,2.21Z" transform="translate(-160.704 -60.611)" fill="#fafafa"/><path d="M279.448,119.07a4.592,4.592,0,0,1-.879-.645,4.475,4.475,0,0,1-.789-.755,3.8,3.8,0,0,1,.879.645,3.756,3.756,0,0,1,.789.755Z" transform="translate(-161.934 -60.021)" fill="#fafafa"/><path d="M263.155,128.476a22.6,22.6,0,0,1-.2-2.485,20.8,20.8,0,0,1-.062-2.492,41.115,41.115,0,0,1,.261,4.976Z" transform="translate(-157.261 -61.85)" fill="#fafafa"/><path d="M257.59,129.049s.1-1.277.316-2.842.419-2.835.453-2.828a26.854,26.854,0,0,1-.309,2.842A26.982,26.982,0,0,1,257.59,129.049Z" transform="translate(-155.602 -61.812)" fill="#fafafa"/><path d="M253.416,121.69c.034,0-.329,1.373-.824,3.061s-.913,3.027-.954,3.02.329-1.373.817-3.061A31.209,31.209,0,0,1,253.416,121.69Z" transform="translate(-153.734 -61.282)" fill="#fafafa"/><path d="M249.408,119.87c.041,0-.4,1.421-.968,3.137s-1.071,3.109-1.112,3.1.4-1.414.975-3.137S249.374,119.856,249.408,119.87Z" transform="translate(-152.383 -60.711)" fill="#fafafa"/><path d="M243.925,117.25s-.35,1.537-.858,3.432-.954,3.377-.988,3.37.343-1.537.851-3.432S243.884,117.243,243.925,117.25Z" transform="translate(-150.736 -59.89)" fill="#fafafa"/><path d="M238.095,115.62c.041,0-.261,1.517-.686,3.37s-.769,3.35-.81,3.336.261-1.517.686-3.363S238.06,115.613,238.095,115.62Z" transform="translate(-149.017 -59.378)" fill="#fafafa"/><path d="M232.722,114.58c.041,0,.089,1.6.1,3.576s0,3.59-.041,3.59-.082-1.606-.1-3.583S232.688,114.58,232.722,114.58Z" transform="translate(-147.79 -59.052)" fill="#fafafa"/><path d="M227.379,121.751a2.058,2.058,0,0,1-.082-.288c-.055-.268-.11-.535-.172-.81-.137-.686-.3-1.627-.453-2.677s-.268-2-.329-2.7c0-.275-.048-.542-.069-.817a.864.864,0,0,1,0-.3,1.554,1.554,0,0,1,.055.3,6.843,6.843,0,0,0,.11.817c.124.858.24,1.73.371,2.684s.281,1.826.419,2.684l.124.81a1,1,0,0,1,.027.3Z" transform="translate(-145.776 -58.921)" fill="#fafafa"/><path d="M221.434,123.059c-.034,0-.6-1.586-1.256-3.555s-1.153-3.59-1.119-3.6.6,1.579,1.256,3.555S221.475,123.045,221.434,123.059Z" transform="translate(-143.517 -59.466)" fill="#fafafa"/><path d="M216.207,125.011c-.034,0-.769-1.455-1.64-3.295s-1.551-3.336-1.517-3.356.776,1.462,1.647,3.295S216.241,124.977,216.207,125.011Z" transform="translate(-141.632 -60.238)" fill="#fafafa"/><path d="M210.737,126.254a4.7,4.7,0,0,1-.81-1.277,4.269,4.269,0,0,1-.487-1.428c.041,0,.254.625.611,1.373S210.772,126.227,210.737,126.254Z" transform="translate(-140.501 -61.866)" fill="#fafafa"/></g></g></svg>