<svg xmlns="http://www.w3.org/2000/svg" width="250.614" height="186.737" viewBox="0 0 250.614 186.737"><g transform="translate(0 -55)"><g transform="translate(0 55)"><rect width="250.614" height="0.125" transform="translate(0 164.102)" fill="#ebebeb"/><rect width="26.6" height="0.125" transform="translate(198.902 172.167)" fill="#ebebeb"/><rect width="29.402" height="0.125" transform="translate(136.615 170.598)" fill="#ebebeb"/><rect width="9.619" height="0.125" transform="translate(190.567 169.876)" fill="#ebebeb"/><rect width="21.648" height="0.125" transform="translate(50.358 168.357)" fill="#ebebeb"/><rect width="7.739" height="0.125" transform="translate(39.828 168.357)" fill="#ebebeb"/><rect width="27.167" height="0.125" transform="translate(65.896 170.473)" fill="#ebebeb"/><path d="M137.849,196.747H41.072a2.862,2.862,0,0,1-2.862-2.862V57.837A2.862,2.862,0,0,1,41.072,55h96.777a2.862,2.862,0,0,1,2.862,2.862V193.885A2.862,2.862,0,0,1,137.849,196.747ZM41.072,55.1a2.742,2.742,0,0,0-2.737,2.737V193.885a2.742,2.742,0,0,0,2.737,2.737h96.777a2.742,2.742,0,0,0,2.737-2.737V57.837a2.742,2.742,0,0,0-2.737-2.737Z" transform="translate(-19.058 -55)" fill="#ebebeb"/><path d="M354.149,196.747H257.362a2.867,2.867,0,0,1-2.862-2.862V57.837A2.867,2.867,0,0,1,257.362,55h96.787A2.862,2.862,0,0,1,357,57.837V193.885A2.862,2.862,0,0,1,354.149,196.747ZM257.362,55.1a2.742,2.742,0,0,0-2.737,2.737V193.885a2.742,2.742,0,0,0,2.737,2.737h96.787a2.742,2.742,0,0,0,2.737-2.737V57.837a2.742,2.742,0,0,0-2.737-2.737Z" transform="translate(-126.937 -55)" fill="#ebebeb"/><path d="M210.29,227.4c-12.821-16.621-18.756-32.916-34.344-8.937a154.624,154.624,0,0,1-17.668-21.818c-24.284-37.828-48.7-14.536-68.528,11.157S47,279.837,47,279.837H253.391S223.187,244.125,210.29,227.4Z" transform="translate(-23.442 -115.74)" fill="#f5f5f5"/><path d="M239.821,288.8c-6.641-12.466-9.694-24.7-17.834-6.351-7.739,17.448-27.568,45.431-27.568,45.431h67.586S246.452,301.264,239.821,288.8Z" transform="translate(-96.971 -163.787)" fill="#f0f0f0"/><path d="M60.918,83.564A2.22,2.22,0,0,1,62.311,84a21.263,21.263,0,0,1,9.588-2.3,7.288,7.288,0,0,1,3.509.857c3.263-2.251,7.468-3.844,10.566-3.844,1.759,0,2.877.5,3.3,1.378A25.315,25.315,0,0,1,99,77.65c4.541,0,6.1,2.356,4.381,5.664,2.14.055,3.945,1.363,2.406,2.536H55.64c.06-.075.12-.145.19-.221a7.518,7.518,0,0,1,5.087-2.065Z" transform="translate(-27.752 -66.297)" fill="#fafafa"/><path d="M166.587,114.286a1.068,1.068,0,0,1,.8.311,11.1,11.1,0,0,1,5.7-1.674,3.443,3.443,0,0,1,2,.627h0c2-1.634,4.511-2.8,6.346-2.8,1,0,1.659.376,1.865,1a13.1,13.1,0,0,1,5.794-1.774c2.065,0,3.007,1.038,2.792,2.631a6.8,6.8,0,0,1,2.742-.737c1.1,0,1.639.5,1.584,1.348a2.816,2.816,0,0,1,.291,0c1.684.135,2.376,1.2,1.609,2.411H163.64a4.266,4.266,0,0,1,2.947-1.348Z" transform="translate(-81.619 -82.422)" fill="#fafafa"/><path d="M76.1,146.587a.722.722,0,0,1,.546.216,7.7,7.7,0,0,1,3.945-1.158,2.4,2.4,0,0,1,1.4.431h0a7.935,7.935,0,0,1,4.386-1.93c.717,0,1.148.256,1.293.692a9.022,9.022,0,0,1,4.01-1.228c1.428,0,2.085.717,1.935,1.819a4.636,4.636,0,0,1,1.895-.5c.762,0,1.133.366,1.093.932h.2c1.168.1,1.639.827,1.113,1.664H74.06A2.962,2.962,0,0,1,76.1,146.587Z" transform="translate(-36.939 -99.196)" fill="#fafafa"/><circle cx="17.488" cy="17.488" r="17.488" transform="translate(182.407 7.659)" fill="#f0f0f0"/><path d="M308.4,98.26a2.25,2.25,0,0,1,1.393.426,21.323,21.323,0,0,1,9.583-2.3,7.353,7.353,0,0,1,3.509.857C326.141,95,330.352,93.4,333.449,93.4c1.759,0,2.877.5,3.3,1.373a25.315,25.315,0,0,1,9.724-2.436c4.541,0,6.1,2.356,4.381,5.664,2.14.06,3.945,1.363,2.406,2.536H303.12c.06-.07.12-.145.19-.221A7.488,7.488,0,0,1,308.4,98.26Z" transform="translate(-151.188 -73.624)" fill="#fafafa"/><path d="M377.4,155.841a1.037,1.037,0,0,1,.8.316,11.093,11.093,0,0,1,5.7-1.679,3.418,3.418,0,0,1,2,.627h0c2-1.634,4.511-2.792,6.341-2.792,1.033,0,1.664.371,1.87,1a13.1,13.1,0,0,1,5.789-1.774c2.065,0,3.007,1.038,2.8,2.631a6.777,6.777,0,0,1,2.742-.737c1.1,0,1.639.526,1.584,1.348h.286c1.689.14,2.376,1.2,1.614,2.411H374.46a4.261,4.261,0,0,1,2.942-1.353Z" transform="translate(-186.77 -103.151)" fill="#fafafa"/></g><g transform="translate(28.124 230.39)"><ellipse cx="97.183" cy="5.674" rx="97.183" ry="5.674" fill="#f5f5f5"/></g><g transform="translate(119.657 79.645)"><rect width="0.501" height="4.07" transform="translate(76.101 90.618) rotate(-17.05)" fill="#b0bec5"/><rect width="0.501" height="12.11" transform="translate(71.494 75.59) rotate(-17.05)" fill="#b0bec5"/><path d="M294,158H276.174L239.007,279.162a6.315,6.315,0,0,0,6.04,8.155h80.086a6.315,6.315,0,0,0,6.04-8.165Z" transform="translate(-238.73 -131.019)" fill="#b0bec5"/><path d="M328.885,158h-8.912l-11.3,129.317h51.346a6.316,6.316,0,0,0,6.04-8.165Z" transform="translate(-273.613 -131.019)" fill="#263238" opacity="0.2"/><path d="M344.835,158H340.65l12.756,129.317h22.555a6.315,6.315,0,0,0,6.04-8.165Z" transform="translate(-289.564 -131.019)" fill="#263238" opacity="0.2"/><path d="M276.17,158h4.3l-30.74,129.317h-4.681a6.315,6.315,0,0,1-6.04-8.165Z" transform="translate(-238.727 -131.019)" fill="#fff" opacity="0.2"/><path d="M314.161,148.39h0a11.829,11.829,0,0,1,11.428,8.756l5.754,21.4-1.529,6.767-5.854-5.544-5.549,12.741-5.052-8.857-6.275,8.857-2.727-13.283-5.7,7.559-1.353-8.741,5.413-20.831A11.829,11.829,0,0,1,314.161,148.39Z" transform="translate(-267.942 -126.226)" fill="#b0bec5"/><path d="M314.161,148.39h0a11.829,11.829,0,0,1,11.428,8.756l5.754,21.4-1.529,6.767-5.854-5.544-5.549,12.741-5.052-8.857-6.275,8.857-2.727-13.283-5.7,7.559-1.353-8.741,5.413-20.831A11.829,11.829,0,0,1,314.161,148.39Z" transform="translate(-267.942 -126.226)" fill="#fff" opacity="0.7"/><path d="M299.717,283.848a.5.5,0,0,1-.456-.291l-8.5-18.405a.5.5,0,0,1,.115-.576l33.081-30.986-20.55-40.038a.531.531,0,0,1-.05-.316l7.188-42.77a.508.508,0,1,1,1,.165l-7.163,42.6,20.641,40.229a.5.5,0,0,1-.1.591l-33.081,31,8.34,18.089a.5.5,0,0,1-.241.667A.532.532,0,0,1,299.717,283.848Z" transform="translate(-264.66 -127.049)" fill="#fff"/><circle cx="5.097" cy="5.097" r="5.097" transform="translate(53.764 110.428) rotate(-76.72)" fill="#b0bec5"/><path d="M352.669,316.967a5.6,5.6,0,1,1,5.6-5.6A5.6,5.6,0,0,1,352.669,316.967Zm0-10.19a4.6,4.6,0,1,0,4.6,4.591A4.6,4.6,0,0,0,352.669,306.777Z" transform="translate(-292.766 -204.722)" fill="#fff"/><circle cx="5.112" cy="5.112" r="5.112" transform="matrix(0.16, -0.987, 0.987, 0.16, 21.227, 141.664)" fill="#b0bec5"/><path d="M286.149,379.3a5.6,5.6,0,1,1,5.6-5.594A5.6,5.6,0,0,1,286.149,379.3Zm0-10.19a4.6,4.6,0,1,0,4.6,4.6A4.6,4.6,0,0,0,286.149,369.107Z" transform="translate(-259.587 -235.811)" fill="#fff"/><circle cx="5.097" cy="5.097" r="5.097" transform="translate(34.09 61.175)" fill="#b0bec5"/><path d="M311.339,236.417a5.6,5.6,0,1,1,5.6-5.6A5.6,5.6,0,0,1,311.339,236.417Zm0-10.195a4.6,4.6,0,1,0,4.6,4.6A4.6,4.6,0,0,0,311.339,226.222Z" transform="translate(-272.151 -164.546)" fill="#fff"/><circle cx="5.112" cy="5.112" r="5.112" transform="matrix(0.16, -0.987, 0.987, 0.16, 40.703, 27.233)" fill="#b0bec5"/><path d="M325.679,151.077a5.6,5.6,0,1,1,5.6-5.594,5.6,5.6,0,0,1-5.6,5.594Zm0-10.19a4.6,4.6,0,1,0,4.6,4.6,4.6,4.6,0,0,0-4.6-4.6Z" transform="translate(-279.304 -121.981)" fill="#fff"/><path d="M330.721,127.7a.5.5,0,0,1-.5-.5V104.671a.5.5,0,1,1,1,0V127.2A.5.5,0,0,1,330.721,127.7Z" transform="translate(-284.361 -104.17)" fill="#b0bec5"/><path d="M290.89,115.81c4.511,1.534,8.982-1.5,13.478,0v-7.659c-4.511-1.5-8.987,1.534-13.478,0Z" transform="translate(-264.745 -105.941)" fill="#b0bec5"/><path d="M300.71,108.425v7.654c2.852-.376,5.7-1.253,8.556-.281v-7.659C306.414,107.167,303.562,108.044,300.71,108.425Z" transform="translate(-269.643 -105.929)" opacity="0.2"/><path d="M304.33,112.38c4.511,1.534,8.987-1.5,13.478,0v-7.654c-4.511-1.534-8.982,1.5-13.478,0Z" transform="translate(-271.448 -104.225)" fill="#b0bec5"/></g><g transform="translate(65.007 82.787)"><path d="M155.817,215.356l1.559,2.506-4.476.571a20.833,20.833,0,0,1,.426-2.456,1.153,1.153,0,0,1,1.358-.872Z" transform="translate(-141.269 -162.631)" fill="#7f3e3b"/><path d="M157.005,224.655l-3.484-1.068-.622-2.376,4.476-.571Z" transform="translate(-141.269 -165.404)" fill="#7f3e3b"/><path d="M184.77,143.659c.531-.165,1.173-.386,1.764-.591s1.2-.431,1.8-.662c1.188-.471,2.366-.957,3.509-1.5a23.057,23.057,0,0,0,6.015-3.834,8.317,8.317,0,0,0,1-1.143l.1-.145c.025,0,.13-.256-.075.211a1.884,1.884,0,0,0-.1.837v.15l.025.105a.724.724,0,0,0,.035.1v.06c.065.145.085.135.075.11a2.075,2.075,0,0,0-.12-.185,8.749,8.749,0,0,0-1.123-1.153c-.456-.4-.937-.812-1.439-1.213-2-1.6-4.215-3.178-6.356-4.757l1.3-2.441a52.323,52.323,0,0,1,7.518,3.584c.611.361,1.228.732,1.839,1.163a13.473,13.473,0,0,1,1.885,1.549,4.782,4.782,0,0,1,1.083,1.594l.065.175.065.221a1.051,1.051,0,0,0,.055.226,2.442,2.442,0,0,1,.035.276,3.083,3.083,0,0,1-.16,1.333,3.164,3.164,0,0,1-.321.657l-.165.281a12.839,12.839,0,0,1-1.5,2,25.9,25.9,0,0,1-7.308,5.228,42.484,42.484,0,0,1-3.92,1.744q-1,.391-2,.737c-.682.241-1.323.436-2.085.652Z" transform="translate(-157.165 -118.998)" fill="#7f3e3b"/><path d="M186.177,125.665l-2.667,1.744,3.819.877.977-2.7Z" transform="translate(-156.537 -117.995)" fill="#7f3e3b"/><path d="M195.355,127.008l-3.273-1.418-1,2.692s2.6,2.727,4.25.907Z" transform="translate(-160.313 -117.995)" fill="#7f3e3b"/><path d="M148.047,166.447c-1.233,2.235-2.481,4.546-3.669,6.827s-2.356,4.6-3.328,6.892c-.251.576-.5,1.143-.687,1.709l-.075.19a.2.2,0,0,0,0-.055v-.04a.421.421,0,0,0,0,.256,4.125,4.125,0,0,0,.536,1.193,13.6,13.6,0,0,0,.962,1.383A51.816,51.816,0,0,0,147,190.225l-1.544,2.291a30.844,30.844,0,0,1-6.872-4.747,15.535,15.535,0,0,1-1.549-1.669,9.127,9.127,0,0,1-1.348-2.276,5.313,5.313,0,0,1-.381-1.674,4.466,4.466,0,0,1,.05-1,4.282,4.282,0,0,1,.115-.536l.085-.281c.2-.687.416-1.363.647-2a76.517,76.517,0,0,1,3.2-7.518c1.193-2.426,2.431-4.772,3.814-7.117Z" transform="translate(-132.492 -136.999)" fill="#7f3e3b"/><path d="M167.141,137.16c-.326,3.388.155,6.666-.6,9.609,0,0,.842,2.732,5.844,2.732,5.514,0,2.506-2.732,2.506-2.732-3.032-.717-3.037-2.942-2.6-5.037Z" transform="translate(-148.073 -123.766)" fill="#7f3e3b"/><path d="M164.659,155.643c-.426-.862-.9-1.855,0-2.165,1-.341,6.376-.687,8.265-.045a2,2,0,0,1,1.429,2.4Z" transform="translate(-146.879 -131.703)" fill="#263238"/><path d="M142.712,403.185a4.573,4.573,0,0,1-1-.361.09.09,0,0,1-.05-.09.1.1,0,0,1,.06-.085c.165-.055,1.6-.566,2-.251a.3.3,0,0,1,.105.3.556.556,0,0,1-.3.451A1.193,1.193,0,0,1,142.712,403.185Zm-.7-.431a1.943,1.943,0,0,0,1.413.226.381.381,0,0,0,.2-.311c0-.075,0-.105-.035-.12C143.384,402.383,142.592,402.564,142.01,402.754Z" transform="translate(-135.663 -256.009)" fill="#b0bec5"/><path d="M141.731,401.752l-.05-.025a.1.1,0,0,1-.025-.1c0-.05.351-1.163.887-1.439a.5.5,0,0,1,.426-.035h0a.306.306,0,0,1,.241.306c0,.456-.977,1.153-1.434,1.283Zm1.133-1.428a.321.321,0,0,0-.231.04,2.266,2.266,0,0,0-.727,1.133c.466-.221,1.108-.767,1.113-1.038,0-.025,0-.08-.115-.12h0Z" transform="translate(-135.659 -254.927)" fill="#b0bec5"/><path d="M194.171,408.3a4.594,4.594,0,0,1-1.053-.145.1.1,0,0,1-.07-.075.09.09,0,0,1,.045-.1c.145-.1,1.444-.892,1.89-.662a.306.306,0,0,1,.16.271.561.561,0,0,1-.2.5A1.208,1.208,0,0,1,194.171,408.3Zm-.777-.281a1.918,1.918,0,0,0,1.428-.07.381.381,0,0,0,.13-.346c0-.075-.035-.1-.06-.11C194.662,407.369,193.926,407.715,193.394,408.015Z" transform="translate(-161.294 -258.493)" fill="#b0bec5"/><path d="M193.145,407.2a.115.115,0,0,1-.055,0,.105.105,0,0,1-.04-.09c0-.05.1-1.208.566-1.589a.536.536,0,0,1,.406-.125h0a.311.311,0,0,1,.3.251c.085.451-.717,1.328-1.133,1.554Zm.812-1.634a.351.351,0,0,0-.221.085,2.315,2.315,0,0,0-.476,1.263c.416-.316.927-1,.877-1.248,0-.025,0-.08-.14-.1h-.04Z" transform="translate(-161.295 -257.554)" fill="#b0bec5"/><path d="M184.6,400.256h3.679l.04-8.526h-3.684Z" transform="translate(-157.08 -250.739)" fill="#7f3e3b"/><path d="M133.13,393.661l3.519.682,2.927-8.36-3.519-.682Z" transform="translate(-131.409 -247.531)" fill="#7f3e3b"/><path d="M135.412,401.5l-4.06-.862a.306.306,0,0,0-.346.18l-1.273,3.078a.566.566,0,0,0,.416.757c1.418.276,2.12.341,3.9.722,1.093.231,3.328.827,4.842,1.148s1.97-1.143,1.373-1.413a9.477,9.477,0,0,1-4.316-3.263.917.917,0,0,0-.536-.346Z" transform="translate(-129.696 -255.176)" fill="#263238"/><path d="M186.959,407.89h-4.01a.311.311,0,0,0-.306.251l-.6,3.273a.556.556,0,0,0,.556.652c1.449,0,3.544-.105,5.368-.105,2.13,0,2.235.115,4.737.115,1.5,0,1.87-1.529,1.233-1.669-2.907-.627-3.509-.7-6.07-2.231A1.76,1.76,0,0,0,186.959,407.89Z" transform="translate(-155.8 -258.799)" fill="#263238"/><path d="M147.083,157.493c-3.388.927-7.393,10.3-7.393,10.3l7.779,4.4s1.819-3.318,3.614-7.428C152.963,160.45,152.737,155.954,147.083,157.493Z" transform="translate(-134.681 -133.754)" fill="#263238"/><path d="M175.96,173.493c0,4.11-.276,9.223-.887,15.568h-19.7c-.241-2.857.937-16.215-1.865-29.708a2.266,2.266,0,0,1,1.885-2.717c1.193-.175,2.687-.356,4.155-.426a72.814,72.814,0,0,1,8.37,0,33.266,33.266,0,0,1,3.438.5,4.316,4.316,0,0,1,3.338,3.063,38.012,38.012,0,0,1,1.123,7.834C175.92,169.3,175.975,171.247,175.96,173.493Z" transform="translate(-141.548 -133.208)" fill="#263238"/><path d="M178.632,162.259c3.067,1.7,10.12-.241,10.12-.241l-.366-9.548a27.883,27.883,0,0,0-7.428,2C176.156,156.42,175.173,160.344,178.632,162.259Z" transform="translate(-153.077 -131.402)" fill="#263238"/><path d="M183.727,154.78s-1.423.5-1.95.657c-1.89,2.075-3.068,6.581-3.068,6.581l2.406,3.178C180.2,160.489,183.727,154.78,183.727,154.78Z" transform="translate(-154.143 -132.555)" fill="#b0bec5"/><path d="M183.727,154.78s-1.423.5-1.95.657c-1.89,2.075-3.068,6.581-3.068,6.581l2.406,3.178C180.2,160.489,183.727,154.78,183.727,154.78Z" transform="translate(-154.143 -132.555)" opacity="0.2"/><path d="M192.774,200.03c-1.88,1.449-5.614-1.92-5.614-1.92l.11,1.709c3.423,2.862,5.448,1.444,5.448,1.444a4.365,4.365,0,0,0,.055-1.233Z" transform="translate(-158.357 -154.166)" fill="#b0bec5"/><path d="M192.774,200.03c-1.88,1.449-5.614-1.92-5.614-1.92l.11,1.709c3.423,2.862,5.448,1.444,5.448,1.444a4.365,4.365,0,0,0,.055-1.233Z" transform="translate(-158.357 -154.166)" opacity="0.2"/><path d="M160.952,156.09a9.74,9.74,0,0,0-1.669.271,11.764,11.764,0,0,0-.546,6.777l2.165-.972A15.033,15.033,0,0,1,160.952,156.09Z" transform="translate(-144.048 -133.208)" fill="#b0bec5"/><path d="M160.952,156.09a9.74,9.74,0,0,0-1.669.271,11.764,11.764,0,0,0-.546,6.777l2.165-.972A15.033,15.033,0,0,1,160.952,156.09Z" transform="translate(-144.048 -133.208)" opacity="0.2"/><path d="M155.63,167.938c1.178-1.84,10.22-1.634,12.175-.125s4.316,17.959,1.423,19.8-16.235,2.717-16.33-1,2.942-10.185,2.581-12.32S154.031,170.444,155.63,167.938Z" transform="translate(-141.267 -138.46)" fill="#b0bec5"/><path d="M158.6,180.436s3.3,1.283,10.275-.276C167.517,180.872,160.349,182.491,158.6,180.436Z" transform="translate(-144.112 -145.213)" fill="#263238" opacity="0.4"/><path d="M165.626,179.2c.04.306-.13.556-.386.556a.616.616,0,0,1-.536-.556c-.04-.306.13-.556.381-.556A.617.617,0,0,1,165.626,179.2Z" transform="translate(-147.154 -144.455)" fill="#263238" opacity="0.4"/><path d="M181.154,189.217h-.035a.12.12,0,0,1-.085-.155c1.063-3.509.932-8.29-.391-14.28a8.982,8.982,0,0,1,.406-5.388.127.127,0,1,1,.211.14,8.9,8.9,0,0,0-.376,5.193c1.338,6.015,1.469,10.882.391,14.405A.13.13,0,0,1,181.154,189.217Z" transform="translate(-154.998 -139.815)" fill="#263238" opacity="0.4"/><g transform="translate(3.135 137.769)" opacity="0.2"><path d="M188.334,391.73l-.02,4.4H184.63l.02-4.4Z" transform="translate(-160.23 -388.507)"/><path d="M137.464,385.3l3.519.682-1.514,4.311-3.519-.682Z" transform="translate(-135.95 -385.3)"/></g><path d="M158.415,221.85s-3.093,28.134-4.982,38.66c-2.065,11.528-12.766,47.782-12.766,47.782l-6.6-1.4s7.368-33.9,8.36-45.331c1.073-12.405,3.273-39.727,3.273-39.727Z" transform="translate(-131.878 -165.997)" fill="#b0bec5"/><path d="M141.676,388.518l-1.123,2.411-7.423-1.579.531-2.251Z" transform="translate(-131.409 -248.429)" fill="#263238"/><path d="M174.648,241.831c-4.792.947-3.589,18.966-2.646,28.234,1.138-6.551,2.692-19.157,3.739-28.1a1.669,1.669,0,0,0-1.093-.13Z" transform="translate(-150.366 -175.954)" opacity="0.2"/><path d="M183.7,221.87s1.569,27.532,1.6,38.76c.03,11.679-2.571,49.922-2.571,49.922h-6.235s-1.679-37.562-2.4-49.03c-.787-12.531-3.343-39.652-3.343-39.652Z" transform="translate(-150.173 -166.017)" fill="#b0bec5"/><path d="M188.76,393.84c.03,0-.251,2.591-.251,2.591h-7.589l-.291-2.311Z" transform="translate(-155.1 -251.791)" fill="#263238"/><path d="M184.413,129.6c.04.3.231.5.426.5s.316-.271.276-.566-.236-.5-.426-.5S184.372,129.3,184.413,129.6Z" transform="translate(-156.983 -119.711)" fill="#263238"/><path d="M184.83,131.2a11.1,11.1,0,0,0,1.769,2.371,1.694,1.694,0,0,1-1.378.411Z" transform="translate(-157.195 -120.794)" fill="#630f0f"/><path d="M183.074,125.964a.191.191,0,0,0,.11-.12.175.175,0,0,0-.125-.216,1.724,1.724,0,0,0-1.5.431.175.175,0,1,0,.236.256,1.353,1.353,0,0,1,1.2-.346.19.19,0,0,0,.085-.005Z" transform="translate(-155.524 -117.999)" fill="#263238"/><path d="M164.465,125.106c.737,3.594,1,5.724,3.078,7.393a4.757,4.757,0,0,0,7.754-3.3c.321-3.328-.937-8.641-4.691-9.719a4.807,4.807,0,0,0-6.14,5.629Z" transform="translate(-146.98 -114.835)" fill="#7f3e3b"/><path d="M168.446,121.245c-.612,1.895-4.01,5.514-5.218,5.794s-4.511-2.576-4.807-4.07c-1.2-.135-2.506-2.536-.682-3.479-1.353-.687-1-4.27,1.749-4.01-1.674-1.614.336-4.346,2.621-3.619.546-1.393,3.634-2.286,5.413-.14,1.388-.782,3.819.792,3.639,3.148a3.814,3.814,0,0,1-2.677,3.163C169.082,118.739,168.446,121.245,168.446,121.245Z" transform="translate(-143.232 -110.438)" fill="#263238"/><path d="M176.324,129.35a4.341,4.341,0,0,0,1.388,2.316c.927.792,1.669.145,1.649-.942,0-1-.526-2.566-1.569-2.942S176.094,128.272,176.324,129.35Z" transform="translate(-152.93 -119.044)" fill="#7f3e3b"/></g></g></svg>