<svg xmlns="http://www.w3.org/2000/svg" width="329.564" height="245.565" viewBox="0 0 329.564 245.565">
  <g id="grey-mountain" transform="translate(0 -55)">
    <g id="freepik--background-complete--inject-133" transform="translate(0 55)">
      <rect id="Rectangle_2764" data-name="Rectangle 2764" width="329.564" height="0.165" transform="translate(0 215.799)" fill="#ebebeb"/>
      <rect id="Rectangle_2765" data-name="Rectangle 2765" width="34.98" height="0.165" transform="translate(261.562 226.404)" fill="#ebebeb"/>
      <rect id="Rectangle_2766" data-name="Rectangle 2766" width="38.664" height="0.165" transform="translate(179.652 224.341)" fill="#ebebeb"/>
      <rect id="Rectangle_2767" data-name="Rectangle 2767" width="12.649" height="0.165" transform="translate(250.601 223.392)" fill="#ebebeb"/>
      <rect id="Rectangle_2768" data-name="Rectangle 2768" width="28.468" height="0.165" transform="translate(66.223 221.395)" fill="#ebebeb"/>
      <rect id="Rectangle_2769" data-name="Rectangle 2769" width="10.177" height="0.165" transform="translate(52.374 221.395)" fill="#ebebeb"/>
      <rect id="Rectangle_2770" data-name="Rectangle 2770" width="35.725" height="0.165" transform="translate(86.656 224.176)" fill="#ebebeb"/>
      <path id="Path_3452" data-name="Path 3452" d="M169.238,241.4H41.974a3.764,3.764,0,0,1-3.764-3.764V58.731A3.764,3.764,0,0,1,41.974,55H169.238A3.764,3.764,0,0,1,173,58.764V237.638A3.764,3.764,0,0,1,169.238,241.4ZM41.974,55.132a3.605,3.605,0,0,0-3.6,3.6V237.638a3.605,3.605,0,0,0,3.6,3.6H169.238a3.605,3.605,0,0,0,3.6-3.6V58.731a3.605,3.605,0,0,0-3.6-3.6Z" transform="translate(-13.025 -55)" fill="#ebebeb"/>
      <path id="Path_3453" data-name="Path 3453" d="M385.541,241.4H258.264a3.77,3.77,0,0,1-3.764-3.764V58.731A3.77,3.77,0,0,1,258.264,55H385.541a3.764,3.764,0,0,1,3.75,3.731V237.638A3.764,3.764,0,0,1,385.541,241.4ZM258.264,55.132a3.605,3.605,0,0,0-3.6,3.6V237.638a3.605,3.605,0,0,0,3.6,3.6H385.541a3.605,3.605,0,0,0,3.6-3.6V58.731a3.605,3.605,0,0,0-3.6-3.6Z" transform="translate(-86.752 -55)" fill="#ebebeb"/>
      <path id="Path_3454" data-name="Path 3454" d="M261.731,243.352c-16.86-21.857-24.665-43.285-45.163-11.752-9.228-9.748-17.329-19.5-23.234-28.692-31.935-49.744-64.041-19.115-90.116,14.672S47,312.3,47,312.3H318.409S278.69,265.34,261.731,243.352Z" transform="translate(-16.021 -96.511)" fill="#f5f5f5"/>
      <path id="Path_3455" data-name="Path 3455" d="M254.124,293.747c-8.733-16.393-12.748-32.475-23.452-8.351C220.5,308.34,194.42,345.139,194.42,345.139H283.3S262.844,310.133,254.124,293.747Z" transform="translate(-66.272 -129.347)" fill="#f0f0f0"/>
      <path id="Path_3456" data-name="Path 3456" d="M62.581,85.428a2.92,2.92,0,0,1,1.832.567,27.961,27.961,0,0,1,12.609-3.025A9.583,9.583,0,0,1,81.636,84.1c4.291-2.959,9.821-5.056,13.894-5.056,2.314,0,3.783.659,4.337,1.813a33.29,33.29,0,0,1,12.787-3.2c5.972,0,8.028,3.1,5.761,7.448,2.814.073,5.187,1.793,3.164,3.335H55.64c.079-.1.158-.191.25-.29a9.887,9.887,0,0,1,6.69-2.716Z" transform="translate(-18.966 -62.721)" fill="#fafafa"/>
      <path id="Path_3457" data-name="Path 3457" d="M167.516,115.642a1.4,1.4,0,0,1,1.048.409,14.6,14.6,0,0,1,7.494-2.2,4.528,4.528,0,0,1,2.637.824h0c2.637-2.149,5.932-3.678,8.345-3.678,1.318,0,2.182.494,2.452,1.318a17.221,17.221,0,0,1,7.62-2.333c2.716,0,3.955,1.364,3.671,3.46a8.938,8.938,0,0,1,3.605-.969c1.45,0,2.155.659,2.083,1.773a3.706,3.706,0,0,1,.382,0c2.215.178,3.124,1.575,2.116,3.17H163.64a5.609,5.609,0,0,1,3.876-1.773Z" transform="translate(-55.78 -73.741)" fill="#fafafa"/>
      <path id="Path_3458" data-name="Path 3458" d="M76.743,147.525a.949.949,0,0,1,.718.283,10.124,10.124,0,0,1,5.187-1.523,3.157,3.157,0,0,1,1.839.567h0a10.434,10.434,0,0,1,5.767-2.538c.943,0,1.509.336,1.7.91a11.864,11.864,0,0,1,5.273-1.615c1.879,0,2.742.943,2.544,2.393a6.1,6.1,0,0,1,2.491-.659c1,0,1.49.481,1.437,1.226h.264c1.536.125,2.155,1.088,1.463,2.188H74.06A3.9,3.9,0,0,1,76.743,147.525Z" transform="translate(-25.245 -85.205)" fill="#fafafa"/>
      <circle id="Ellipse_39" data-name="Ellipse 39" cx="22.997" cy="22.997" r="22.997" transform="translate(239.87 10.071)" fill="#f0f0f0"/>
      <path id="Path_3459" data-name="Path 3459" d="M310.061,100.124a2.959,2.959,0,0,1,1.832.56,28.04,28.04,0,0,1,12.6-3.025,9.669,9.669,0,0,1,4.614,1.127c4.284-2.953,9.821-5.049,13.894-5.049,2.314,0,3.783.659,4.337,1.806a33.289,33.289,0,0,1,12.787-3.2c5.972,0,8.028,3.1,5.761,7.448,2.815.079,5.187,1.793,3.164,3.335H303.12c.079-.092.158-.191.25-.29A9.848,9.848,0,0,1,310.061,100.124Z" transform="translate(-103.325 -67.728)" fill="#fafafa"/>
      <path id="Path_3460" data-name="Path 3460" d="M378.329,157.2a1.364,1.364,0,0,1,1.048.415,14.587,14.587,0,0,1,7.5-2.208,4.5,4.5,0,0,1,2.637.824h0c2.637-2.149,5.932-3.671,8.338-3.671,1.358,0,2.188.488,2.459,1.318a17.222,17.222,0,0,1,7.613-2.333c2.716,0,3.955,1.364,3.678,3.46a8.911,8.911,0,0,1,3.605-.969c1.45,0,2.155.692,2.083,1.773h.376c2.221.185,3.124,1.575,2.122,3.17H374.46a5.6,5.6,0,0,1,3.869-1.78Z" transform="translate(-127.643 -87.908)" fill="#fafafa"/>
    </g>
    <g id="freepik--Shadow--inject-133" transform="translate(36.984 285.642)">
      <ellipse id="freepik--path--inject-133" cx="127.798" cy="7.461" rx="127.798" ry="7.461" fill="#f5f5f5"/>
    </g>
    <g id="freepik--Goal--inject-133" transform="translate(157.352 87.409)">
      <rect id="Rectangle_2771" data-name="Rectangle 2771" width="0.659" height="5.352" transform="translate(100.075 119.165) rotate(-17.05)" fill="#b0bec5"/>
      <rect id="Rectangle_2772" data-name="Rectangle 2772" width="0.659" height="15.925" transform="translate(94.016 99.403) rotate(-17.05)" fill="#b0bec5"/>
      <path id="Path_3461" data-name="Path 3461" d="M311.413,158H287.968L239.094,317.331a8.305,8.305,0,0,0,7.943,10.724H352.352a8.3,8.3,0,0,0,7.942-10.737Z" transform="translate(-238.73 -122.519)" fill="#b0bec5"/>
      <path id="Path_3462" data-name="Path 3462" d="M335.253,158H323.533L308.67,328.055h67.521a8.305,8.305,0,0,0,7.943-10.737Z" transform="translate(-262.569 -122.519)" fill="#263238" opacity="0.2"/>
      <path id="Path_3463" data-name="Path 3463" d="M346.154,158h-5.5l16.775,170.055h29.661a8.305,8.305,0,0,0,7.942-10.737Z" transform="translate(-273.47 -122.519)" fill="#263238" opacity="0.2"/>
      <path id="Path_3464" data-name="Path 3464" d="M287.966,158h5.649L253.19,328.055h-6.156a8.3,8.3,0,0,1-7.943-10.737Z" transform="translate(-238.727 -122.519)" fill="#fff" opacity="0.2"/>
      <path id="Path_3465" data-name="Path 3465" d="M319.473,148.39h0A15.555,15.555,0,0,1,334.5,159.9l7.567,28.145-2.01,8.9-7.7-7.29-7.3,16.755-6.644-11.647-8.252,11.647-3.586-17.467-7.5,9.94-1.78-11.5L304.419,160A15.555,15.555,0,0,1,319.473,148.39Z" transform="translate(-258.693 -119.243)" fill="#b0bec5"/>
      <path id="Path_3466" data-name="Path 3466" d="M319.473,148.39h0A15.555,15.555,0,0,1,334.5,159.9l7.567,28.145-2.01,8.9-7.7-7.29-7.3,16.755-6.644-11.647-8.252,11.647-3.586-17.467-7.5,9.94-1.78-11.5L304.419,160A15.555,15.555,0,0,1,319.473,148.39Z" transform="translate(-258.693 -119.243)" fill="#fff" opacity="0.7"/>
      <path id="Path_3467" data-name="Path 3467" d="M302.551,326a.659.659,0,0,1-.6-.382l-11.172-24.2a.659.659,0,0,1,.152-.758l43.5-40.747-27.024-52.651a.7.7,0,0,1-.066-.415l9.452-56.243a.668.668,0,1,1,1.318.218l-9.419,56.026,27.143,52.9a.659.659,0,0,1-.132.778l-43.5,40.76,10.968,23.788a.659.659,0,0,1-.316.877A.7.7,0,0,1,302.551,326Z" transform="translate(-256.45 -119.806)" fill="#fff"/>
      <circle id="Ellipse_40" data-name="Ellipse 40" cx="6.703" cy="6.703" r="6.703" transform="translate(70.701 145.216) rotate(-76.72)" fill="#b0bec5"/>
      <path id="Path_3468" data-name="Path 3468" d="M354.432,320.495a7.362,7.362,0,1,1,7.362-7.362A7.363,7.363,0,0,1,354.432,320.495Zm0-13.4a6.044,6.044,0,1,0,6.044,6.038A6.044,6.044,0,0,0,354.432,307.095Z" transform="translate(-275.658 -172.89)" fill="#fff"/>
      <circle id="Ellipse_41" data-name="Ellipse 41" cx="6.722" cy="6.722" r="6.722" transform="matrix(0.16, -0.987, 0.987, 0.16, 27.914, 186.291)" fill="#b0bec5"/>
      <path id="Path_3469" data-name="Path 3469" d="M287.913,382.825a7.362,7.362,0,1,1,7.362-7.356A7.362,7.362,0,0,1,287.913,382.825Zm0-13.4a6.044,6.044,0,1,0,6.044,6.044A6.044,6.044,0,0,0,287.913,369.425Z" transform="translate(-252.984 -194.136)" fill="#fff"/>
      <circle id="Ellipse_42" data-name="Ellipse 42" cx="6.703" cy="6.703" r="6.703" transform="translate(44.829 80.447)" fill="#b0bec5"/>
      <path id="Path_3470" data-name="Path 3470" d="M313.1,239.945a7.362,7.362,0,1,1,7.362-7.362A7.363,7.363,0,0,1,313.1,239.945Zm0-13.407a6.044,6.044,0,1,0,6.044,6.044A6.044,6.044,0,0,0,313.1,226.538Z" transform="translate(-261.57 -145.433)" fill="#fff"/>
      <circle id="Ellipse_43" data-name="Ellipse 43" cx="6.722" cy="6.722" r="6.722" transform="matrix(0.16, -0.987, 0.987, 0.16, 53.525, 35.813)" fill="#b0bec5"/>
      <path id="Path_3471" data-name="Path 3471" d="M327.442,154.6a7.362,7.362,0,1,1,7.362-7.356,7.363,7.363,0,0,1-7.362,7.356Zm0-13.4a6.044,6.044,0,1,0,6.044,6.044,6.044,6.044,0,0,0-6.044-6.044Z" transform="translate(-266.458 -116.343)" fill="#fff"/>
      <path id="Path_3472" data-name="Path 3472" d="M330.879,135.109a.659.659,0,0,1-.659-.659V104.829a.659.659,0,0,1,1.318,0V134.45A.659.659,0,0,1,330.879,135.109Z" transform="translate(-269.915 -104.17)" fill="#b0bec5"/>
      <path id="Path_3473" data-name="Path 3473" d="M290.89,118.358c5.932,2.017,11.812-1.977,17.724,0V108.287c-5.932-1.977-11.818,2.017-17.724,0Z" transform="translate(-256.508 -105.38)" fill="#b0bec5"/>
      <path id="Path_3474" data-name="Path 3474" d="M300.71,108.655v10.065c3.75-.494,7.5-1.648,11.251-.369V108.279C308.211,107,304.46,108.154,300.71,108.655Z" transform="translate(-259.856 -105.372)" opacity="0.2"/>
      <path id="Path_3475" data-name="Path 3475" d="M304.33,114.932c5.932,2.017,11.818-1.977,17.724,0V104.867c-5.932-2.017-11.812,1.977-17.724,0Z" transform="translate(-261.089 -104.208)" fill="#b0bec5"/>
    </g>
    <g id="freepik--Character--inject-133" transform="translate(85.486 91.541)">
      <path id="Path_3476" data-name="Path 3476" d="M156.736,215.443l2.05,3.3-5.886.751a27.392,27.392,0,0,1,.56-3.23,1.516,1.516,0,0,1,1.786-1.147Z" transform="translate(-137.605 -146.108)" fill="#7f3e3b"/>
      <path id="Path_3477" data-name="Path 3477" d="M158.3,225.92l-4.581-1.4-.817-3.124,5.886-.751Z" transform="translate(-137.605 -148.003)" fill="#7f3e3b"/>
      <path id="Path_3478" data-name="Path 3478" d="M184.77,148.718c.7-.218,1.542-.508,2.32-.778s1.582-.567,2.366-.87c1.562-.62,3.111-1.259,4.614-1.977a30.32,30.32,0,0,0,7.91-5.042,10.939,10.939,0,0,0,1.318-1.5l.132-.191c.033,0,.171-.336-.1.277a2.479,2.479,0,0,0-.132,1.1v.2l.033.138a.952.952,0,0,0,.046.125v.079c.086.191.112.178.1.145a2.736,2.736,0,0,0-.158-.244,11.506,11.506,0,0,0-1.476-1.516c-.6-.527-1.233-1.068-1.892-1.6-2.637-2.109-5.543-4.179-8.358-6.255l1.714-3.21a68.807,68.807,0,0,1,9.887,4.713c.8.475,1.615.962,2.419,1.529a17.718,17.718,0,0,1,2.478,2.037,6.288,6.288,0,0,1,1.424,2.1l.086.231.086.29a1.384,1.384,0,0,0,.073.3,3.208,3.208,0,0,1,.046.363,4.054,4.054,0,0,1-.211,1.753,4.16,4.16,0,0,1-.422.863l-.217.369a16.885,16.885,0,0,1-1.977,2.637,34.058,34.058,0,0,1-9.61,6.875,55.87,55.87,0,0,1-5.154,2.294q-1.318.514-2.637.969c-.9.316-1.74.573-2.742.857Z" transform="translate(-148.469 -116.288)" fill="#7f3e3b"/>
      <path id="Path_3479" data-name="Path 3479" d="M187.017,125.689l-3.507,2.294,5.023,1.153,1.285-3.546Z" transform="translate(-148.04 -115.603)" fill="#7f3e3b"/>
      <path id="Path_3480" data-name="Path 3480" d="M196.7,127.455l-4.3-1.865-1.318,3.54s3.421,3.586,5.589,1.193Z" transform="translate(-150.62 -115.603)" fill="#7f3e3b"/>
      <path id="Path_3481" data-name="Path 3481" d="M152.063,167.315c-1.621,2.94-3.263,5.978-4.825,8.977s-3.1,6.044-4.377,9.063c-.33.758-.659,1.5-.9,2.248l-.1.25a.263.263,0,0,0,0-.073v-.053a.553.553,0,0,0,0,.336,5.425,5.425,0,0,0,.705,1.569,17.886,17.886,0,0,0,1.266,1.819,68.14,68.14,0,0,0,6.862,7.132l-2.03,3.012a40.56,40.56,0,0,1-9.037-6.242,20.43,20.43,0,0,1-2.037-2.195,12,12,0,0,1-1.773-2.992,6.987,6.987,0,0,1-.5-2.2,5.874,5.874,0,0,1,.066-1.318,5.633,5.633,0,0,1,.152-.705l.112-.369c.264-.9.547-1.793.85-2.637a100.627,100.627,0,0,1,4.205-9.887c1.569-3.19,3.2-6.275,5.016-9.36Z" transform="translate(-131.607 -128.59)" fill="#7f3e3b"/>
      <path id="Path_3482" data-name="Path 3482" d="M167.331,137.16c-.428,4.456.2,8.766-.791,12.635,0,0,1.107,3.592,7.685,3.592,7.25,0,3.3-3.592,3.3-3.592-3.988-.943-3.994-3.869-3.414-6.624Z" transform="translate(-142.255 -119.547)" fill="#7f3e3b"/>
      <path id="Path_3483" data-name="Path 3483" d="M164.821,156.452c-.56-1.134-1.186-2.439,0-2.847,1.318-.448,8.384-.9,10.869-.059a2.637,2.637,0,0,1,1.879,3.151Z" transform="translate(-141.439 -124.971)" fill="#263238"/>
      <path id="Path_3484" data-name="Path 3484" d="M143.044,403.465a6.011,6.011,0,0,1-1.318-.475.119.119,0,0,1-.066-.119.125.125,0,0,1,.079-.112c.218-.073,2.1-.745,2.637-.33a.4.4,0,0,1,.138.389.732.732,0,0,1-.389.593A1.569,1.569,0,0,1,143.044,403.465Zm-.923-.567a2.555,2.555,0,0,0,1.859.3.5.5,0,0,0,.257-.409c0-.1,0-.138-.046-.158C143.927,402.411,142.886,402.648,142.121,402.9Z" transform="translate(-133.774 -209.924)" fill="#b0bec5"/>
      <path id="Path_3485" data-name="Path 3485" d="M141.756,402.264l-.066-.033a.125.125,0,0,1-.033-.125c0-.066.461-1.529,1.167-1.892a.659.659,0,0,1,.56-.046h0a.4.4,0,0,1,.316.4c0,.6-1.285,1.516-1.885,1.687Zm1.49-1.878a.422.422,0,0,0-.3.053,2.979,2.979,0,0,0-.956,1.49c.613-.29,1.457-1.008,1.463-1.364,0-.033,0-.106-.152-.158h0Z" transform="translate(-133.771 -209.185)" fill="#b0bec5"/>
      <path id="Path_3486" data-name="Path 3486" d="M194.525,408.617a6.039,6.039,0,0,1-1.384-.191.125.125,0,0,1-.092-.1.119.119,0,0,1,.059-.125c.191-.125,1.9-1.173,2.485-.87a.4.4,0,0,1,.211.356.738.738,0,0,1-.257.659A1.588,1.588,0,0,1,194.525,408.617Zm-1.022-.369a2.523,2.523,0,0,0,1.879-.092.5.5,0,0,0,.171-.455c0-.1-.046-.132-.079-.145C195.171,407.4,194.2,407.852,193.5,408.248Z" transform="translate(-151.29 -211.622)" fill="#b0bec5"/>
      <path id="Path_3487" data-name="Path 3487" d="M193.175,407.771a.152.152,0,0,1-.073,0,.138.138,0,0,1-.053-.119c0-.066.132-1.589.745-2.089a.705.705,0,0,1,.534-.165h0a.409.409,0,0,1,.4.33c.112.593-.943,1.747-1.49,2.043Zm1.068-2.149a.461.461,0,0,0-.29.112,3.044,3.044,0,0,0-.626,1.661c.547-.415,1.219-1.318,1.153-1.641,0-.033,0-.105-.185-.125h-.053Z" transform="translate(-151.291 -210.98)" fill="#b0bec5"/>
      <path id="Path_3488" data-name="Path 3488" d="M184.6,402.942h4.838l.053-11.212h-4.845Z" transform="translate(-148.411 -206.322)" fill="#7f3e3b"/>
      <path id="Path_3489" data-name="Path 3489" d="M133.13,396.294l4.627.9,3.849-10.994-4.627-.9Z" transform="translate(-130.866 -204.131)" fill="#7f3e3b"/>
      <path id="Path_3490" data-name="Path 3490" d="M137.213,401.769l-5.339-1.134a.4.4,0,0,0-.455.237l-1.674,4.047a.745.745,0,0,0,.547,1c1.865.363,2.788.448,5.128.949,1.437.3,4.377,1.088,6.367,1.509s2.59-1.5,1.806-1.859c-3.513-1.582-4.693-2.979-5.675-4.291a1.206,1.206,0,0,0-.705-.455Z" transform="translate(-129.696 -209.355)" fill="#263238"/>
      <path id="Path_3491" data-name="Path 3491" d="M188.51,407.89h-5.273a.409.409,0,0,0-.4.33l-.791,4.3a.732.732,0,0,0,.732.857c1.9,0,4.66-.138,7.059-.138,2.8,0,2.94.152,6.229.152,1.977,0,2.459-2.01,1.621-2.195-3.823-.824-4.614-.916-7.982-2.933A2.315,2.315,0,0,0,188.51,407.89Z" transform="translate(-147.536 -211.831)" fill="#263238"/>
      <path id="Path_3492" data-name="Path 3492" d="M149.412,157.59c-4.456,1.219-9.722,13.538-9.722,13.538l10.23,5.781s2.393-4.363,4.752-9.768C157.144,161.479,156.847,155.567,149.412,157.59Z" transform="translate(-133.103 -126.372)" fill="#263238"/>
      <path id="Path_3493" data-name="Path 3493" d="M183.048,178.975c0,5.4-.362,12.128-1.167,20.473h-25.9c-.316-3.757,1.233-21.323-2.452-39.067A2.979,2.979,0,0,1,156,156.808c1.569-.231,3.533-.468,5.464-.56a95.744,95.744,0,0,1,11.007,0,43.746,43.746,0,0,1,4.522.659,5.675,5.675,0,0,1,4.39,4.027,49.988,49.988,0,0,1,1.476,10.3C183,173.465,183.068,176.022,183.048,178.975Z" transform="translate(-137.796 -125.999)" fill="#263238"/>
      <path id="Path_3494" data-name="Path 3494" d="M179.28,165.343c4.034,2.234,13.308-.316,13.308-.316l-.481-12.556a36.667,36.667,0,0,0-9.768,2.636C176.024,157.664,174.732,162.825,179.28,165.343Z" transform="translate(-145.675 -124.766)" fill="#263238"/>
      <path id="Path_3495" data-name="Path 3495" d="M185.308,154.78s-1.872.659-2.564.863c-2.485,2.729-4.034,8.654-4.034,8.654l3.164,4.179C180.674,162.287,185.308,154.78,185.308,154.78Z" transform="translate(-146.403 -125.553)" fill="#b0bec5"/>
      <path id="Path_3496" data-name="Path 3496" d="M185.308,154.78s-1.872.659-2.564.863c-2.485,2.729-4.034,8.654-4.034,8.654l3.164,4.179C180.674,162.287,185.308,154.78,185.308,154.78Z" transform="translate(-146.403 -125.553)" opacity="0.2"/>
      <path id="Path_3497" data-name="Path 3497" d="M194.542,200.635c-2.472,1.9-7.382-2.524-7.382-2.524l.145,2.248c4.5,3.764,7.165,1.9,7.165,1.9a5.741,5.741,0,0,0,.073-1.621Z" transform="translate(-149.284 -140.323)" fill="#b0bec5"/>
      <path id="Path_3498" data-name="Path 3498" d="M194.542,200.635c-2.472,1.9-7.382-2.524-7.382-2.524l.145,2.248c4.5,3.764,7.165,1.9,7.165,1.9a5.741,5.741,0,0,0,.073-1.621Z" transform="translate(-149.284 -140.323)" opacity="0.2"/>
      <path id="Path_3499" data-name="Path 3499" d="M161.733,156.09a12.805,12.805,0,0,0-2.195.356,15.47,15.47,0,0,0-.718,8.911l2.847-1.279A19.769,19.769,0,0,1,161.733,156.09Z" transform="translate(-139.504 -125.999)" fill="#b0bec5"/>
      <path id="Path_3500" data-name="Path 3500" d="M161.733,156.09a12.805,12.805,0,0,0-2.195.356,15.47,15.47,0,0,0-.718,8.911l2.847-1.279A19.769,19.769,0,0,1,161.733,156.09Z" transform="translate(-139.504 -125.999)" opacity="0.2"/>
      <path id="Path_3501" data-name="Path 3501" d="M156.491,168.353c1.549-2.419,13.44-2.149,16.01-.165s5.675,23.617,1.872,26.036-21.349,3.572-21.474-1.318,3.869-13.393,3.395-16.2S154.388,171.649,156.491,168.353Z" transform="translate(-137.604 -129.589)" fill="#b0bec5"/>
      <path id="Path_3502" data-name="Path 3502" d="M158.6,180.523s4.337,1.687,13.512-.363C170.326,181.1,160.9,183.225,158.6,180.523Z" transform="translate(-139.548 -134.204)" fill="#263238" opacity="0.4"/>
      <path id="Path_3503" data-name="Path 3503" d="M165.919,179.372c.053.4-.171.732-.508.732a.811.811,0,0,1-.705-.732c-.053-.4.171-.732.5-.732A.811.811,0,0,1,165.919,179.372Z" transform="translate(-141.627 -133.686)" fill="#263238" opacity="0.4"/>
      <path id="Path_3504" data-name="Path 3504" d="M181.384,195.48h-.046a.158.158,0,0,1-.112-.2c1.4-4.614,1.226-10.9-.514-18.779a11.812,11.812,0,0,1,.534-7.086.166.166,0,1,1,.277.185,11.709,11.709,0,0,0-.494,6.829c1.76,7.91,1.931,14.31.514,18.943A.171.171,0,0,1,181.384,195.48Z" transform="translate(-146.988 -130.515)" fill="#263238" opacity="0.4"/>
      <g id="Group_3177" data-name="Group 3177" transform="translate(4.122 181.169)" opacity="0.2">
        <path id="Path_3505" data-name="Path 3505" d="M189.5,391.73l-.026,5.781H184.63l.026-5.781Z" transform="translate(-152.544 -387.492)"/>
        <path id="Path_3506" data-name="Path 3506" d="M137.941,385.3l4.627.9-1.991,5.668-4.627-.9Z" transform="translate(-135.95 -385.3)"/>
      </g>
      <path id="Path_3507" data-name="Path 3507" d="M166.084,221.856s-4.067,37-6.552,50.839c-2.716,15.16-16.788,62.835-16.788,62.835l-8.674-1.846s9.689-44.577,10.994-59.612c1.411-16.313,4.3-52.242,4.3-52.242Z" transform="translate(-131.187 -148.408)" fill="#b0bec5"/>
      <path id="Path_3508" data-name="Path 3508" d="M144.368,388.965l-1.476,3.17-9.762-2.076.7-2.959Z" transform="translate(-130.866 -204.744)" fill="#263238"/>
      <path id="Path_3509" data-name="Path 3509" d="M175.753,241.843c-6.3,1.246-4.719,24.941-3.48,37.129,1.5-8.615,3.539-25.192,4.917-36.957a2.2,2.2,0,0,0-1.437-.171Z" transform="translate(-143.822 -155.213)" opacity="0.2"/>
      <path id="Path_3510" data-name="Path 3510" d="M187.775,221.87s2.063,36.206,2.109,50.97c.04,15.358-3.381,65.649-3.381,65.649h-8.2s-2.208-49.4-3.157-64.476c-1.035-16.478-4.4-52.144-4.4-52.144Z" transform="translate(-143.69 -148.422)" fill="#b0bec5"/>
      <path id="Path_3511" data-name="Path 3511" d="M191.321,393.84c.04,0-.33,3.408-.33,3.408h-9.979l-.382-3.039Z" transform="translate(-147.058 -207.042)" fill="#263238"/>
      <path id="Path_3512" data-name="Path 3512" d="M184.415,129.775c.053.389.3.659.56.659s.415-.356.363-.745-.31-.659-.56-.659S184.362,129.386,184.415,129.775Z" transform="translate(-148.345 -116.775)" fill="#263238"/>
      <path id="Path_3513" data-name="Path 3513" d="M184.83,131.2a14.6,14.6,0,0,0,2.327,3.118,2.228,2.228,0,0,1-1.813.54Z" transform="translate(-148.489 -117.515)" fill="#630f0f"/>
      <path id="Path_3514" data-name="Path 3514" d="M183.576,126.08a.251.251,0,0,0,.145-.158.231.231,0,0,0-.165-.283,2.267,2.267,0,0,0-1.977.567.231.231,0,1,0,.31.336,1.78,1.78,0,0,1,1.575-.455.25.25,0,0,0,.112-.007Z" transform="translate(-147.348 -115.605)" fill="#263238"/>
      <path id="Path_3515" data-name="Path 3515" d="M164.5,126.95c.969,4.726,1.318,7.527,4.047,9.722a6.255,6.255,0,0,0,10.2-4.344c.422-4.377-1.233-11.363-6.169-12.781a6.321,6.321,0,0,0-8.074,7.4Z" transform="translate(-141.508 -113.443)" fill="#7f3e3b"/>
      <path id="Path_3516" data-name="Path 3516" d="M172.1,124.65c-.8,2.491-5.273,7.25-6.862,7.62s-5.932-3.388-6.321-5.352c-1.582-.178-3.3-3.335-.9-4.574-1.78-.9-1.318-5.616,2.3-5.273-2.2-2.122.442-5.715,3.447-4.759.718-1.832,4.779-3.006,7.119-.185,1.826-1.028,5.023,1.041,4.785,4.139a5.016,5.016,0,0,1-3.52,4.159C172.941,121.354,172.1,124.65,172.1,124.65Z" transform="translate(-138.947 -110.438)" fill="#263238"/>
      <path id="Path_3517" data-name="Path 3517" d="M176.339,129.872a5.708,5.708,0,0,0,1.826,3.045c1.219,1.041,2.195.191,2.169-1.239,0-1.318-.692-3.375-2.063-3.869S176.035,128.455,176.339,129.872Z" transform="translate(-145.574 -116.319)" fill="#7f3e3b"/>
    </g>
  </g>
</svg>
