<svg xmlns="http://www.w3.org/2000/svg" width="1348.35" height="736.335" viewBox="0 0 1348.35 736.335">
  <g id="plan-header-1366" transform="translate(-2.214 -171.858)">
    <path id="Path_3518" data-name="Path 3518" d="M-170.441,121.984S-74.257,148.5,2.447,158.88s76.547,78.955,162.993,87.927c34.319,3.562,121.668-22.06,159.019-30.641,56.405-12.959,123.4-147.492,175.33-166.11,86.119-30.876,167.163,17.482,229.443-6.739" transform="matrix(0.906, 0.423, -0.423, 0.906, 473.578, 374.964)" fill="none" stroke="#db0101" stroke-width="2" stroke-dasharray="11"/>
    <g id="red-mountain" transform="translate(-16.266 138.178)">
      <g id="freepik--background-complete--inject-4" transform="translate(18.48 45.023)">
        <path id="Path_3260" data-name="Path 3260" d="M235.428,155.548,198.61,124.069l.383-.441L235.339,154.7l44.034-56.318L296.7,110.926,332.083,64.29l.471.353L296.82,111.738,279.485,99.195Z" transform="translate(-92.583 -57.615)" fill="#ebebeb"/>
        <path id="Path_3261" data-name="Path 3261" d="M41.381,303.855a2,2,0,1,1-2-2,2,2,0,0,1,2,2Z" transform="translate(-26.259 -155.349)" fill="#ebebeb"/>
        <circle id="Ellipse_30" data-name="Ellipse 30" cx="3.938" cy="3.938" r="3.938" transform="translate(102.277 62.299)" fill="#ebebeb"/>
        <path id="Path_3262" data-name="Path 3262" d="M40.846,248.973l-.436-.394L83.337,201.16l9.7,8.435,38.684-41.615.43.4L93.079,210.413l-9.694-8.429Z" transform="translate(-27.502 -100.272)" fill="#ebebeb"/>
        <circle id="Ellipse_31" data-name="Ellipse 31" cx="5.133" cy="5.133" r="5.133" transform="translate(234.785)" fill="#4caf50"/>
        <path id="Path_3263" data-name="Path 3263" d="M426.835,58.69a19.511,19.511,0,0,1-2.243,2.69l-.848.918-.088.094-.1-.077a10.519,10.519,0,0,1-1.736-1.448,11.064,11.064,0,0,1,1.9,1.218h-.188l.83-.93A20.463,20.463,0,0,1,426.835,58.69Z" transform="translate(-184.41 -55.311)" fill="#fff"/>
        <path id="Path_3264" data-name="Path 3264" d="M97.91,139.185c.5-3.673-4.674-6.687-8.564-7-1.854-.147-3.779.135-5.539-.477-3.808-1.324-5.3-6.245-9.041-7.811-2.778-1.177-5.98-.13-8.67,1.224s-5.356,3.061-8.364,3.255c-2.613.165-5.456-.806-7.746.477-1.707.948-2.6,2.943-4.173,4.073a10.055,10.055,0,0,1-5.451,1.483,15.435,15.435,0,0,0-5.627.918c-1.742.795-3.173,2.631-2.814,4.509Z" transform="translate(-23.987 -81.925)" fill="#ebebeb"/>
        <path id="Path_3266" data-name="Path 3266" d="M437.828,130.059c.171-1.23-1.566-2.237-2.872-2.354a7.5,7.5,0,0,1-1.86-.165c-1.277-.441-1.766-2.1-3.031-2.619a3.565,3.565,0,0,0-2.908.412,7.583,7.583,0,0,1-2.808,1.089c-.877.059-1.831-.265-2.6.165-.589.318-.871.977-1.4,1.366a3.314,3.314,0,0,1-1.831.494,5.085,5.085,0,0,0-1.884.312,1.483,1.483,0,0,0-.942,1.513Z" transform="translate(-181.888 -82.488)" fill="#f5f5f5"/>
        <path id="Path_3267" data-name="Path 3267" d="M105.434,76.209c.165-1.23-1.572-2.243-2.872-2.354a7.5,7.5,0,0,1-1.86-.165c-1.277-.441-1.766-2.1-3.031-2.619a3.563,3.563,0,0,0-2.908.412,7.392,7.392,0,0,1-2.808,1.089c-.877.059-1.831-.265-2.6.159-.589.324-.871.983-1.4,1.371a3.331,3.331,0,0,1-1.831.494,5.068,5.068,0,0,0-1.884.312,1.5,1.5,0,0,0-.948,1.525Z" transform="translate(-45.142 -60.334)" fill="#fafafa"/>
        <path id="Path_3268" data-name="Path 3268" d="M140.75,258.567l11.678-25.946,12-7.2,7.452-16.216,21.4,5.009,15.963,48.967-24.71,12.143-20.107,12.261Z" transform="translate(-68.781 -117.23)" fill="#f5f5f5"/>
        <path id="Path_3269" data-name="Path 3269" d="M413.022,335.8,391.9,293.634,382.12,279,370.6,225.7,356.716,214.16l-13.944,19.424-19.047,4.744-17.564,16.8,35.352,37.512,20.837,21.973,16.275,30.4,31.238,29.531C409.544,374.25,413.022,335.8,413.022,335.8Z" transform="translate(-136.828 -119.27)" fill="#ebebeb"/>
        <path id="Path_3270" data-name="Path 3270" d="M18.48,403.438l2.154-28.618,11.507-17.888,7.534-34.045,13.7-8.04L70.3,286.387,86.412,275.48l33.439,33.068,22.073-23.774,17.017,5.668-7.01,8.717-17.7,3.426-34.863,30.4L72.255,347.932l-7.228,13.055-15.686,2.3Z" transform="translate(-18.48 -144.496)" fill="#ebebeb"/>
      </g>
      <g id="freepik--Plants--inject-4" transform="translate(87.448 199.285)">
        <path id="Path_3271" data-name="Path 3271" d="M151.058,329.062c-.948,1.348-2.79.9-3.644.076a6.871,6.871,0,0,1-1.542-3.161c-.748-2.608-1.507-5.339-.948-7.993a4.427,4.427,0,0,1,1.024-2.178,2.313,2.313,0,0,1,2.2-.73,3.467,3.467,0,0,1,1.925,2.019,19.1,19.1,0,0,1,1.884,8.176,6.675,6.675,0,0,1-.895,3.791" transform="translate(-139.387 -315.029)" fill="#db0101"/>
        <g id="Group_3162" data-name="Group 3162" transform="translate(5.345)" opacity="0.2">
          <path id="Path_3272" data-name="Path 3272" d="M151.058,329.062c-.948,1.348-2.79.9-3.644.076a6.871,6.871,0,0,1-1.542-3.161c-.748-2.608-1.507-5.339-.948-7.993a4.427,4.427,0,0,1,1.024-2.178,2.313,2.313,0,0,1,2.2-.73,3.467,3.467,0,0,1,1.925,2.019,19.1,19.1,0,0,1,1.884,8.176,6.675,6.675,0,0,1-.895,3.791" transform="translate(-144.732 -315.029)"/>
        </g>
        <path id="Path_3273" data-name="Path 3273" d="M143.773,349.957a8.2,8.2,0,0,0-5.091-.618,4.226,4.226,0,0,0-2.513,1.124,1.779,1.779,0,0,0,0,2.508,2.414,2.414,0,0,0,1.583.406c1.348,0,2.837-.253,3.914.553.589.465,1.018,1.23,1.766,1.46a1.766,1.766,0,0,0,1.907-.854,2.943,2.943,0,0,0,.218-2.184,3.344,3.344,0,0,0-1.784-2.4Z" transform="translate(-135.651 -329.079)" fill="#db0101"/>
        <path id="Path_3274" data-name="Path 3274" d="M159.184,334.039a4.938,4.938,0,0,1-.765-4.526,8.77,8.77,0,0,1,2.684-3.891,14.412,14.412,0,0,1,4.8-2.831,5.057,5.057,0,0,1,2.16-.365,2.261,2.261,0,0,1,1.813,1.095c.5.965,0,2.131-.506,3.084a36.114,36.114,0,0,1-3.155,4.8,8.481,8.481,0,0,1-3.467,2.972c-1.442.547-2.943.489-3.7-.512" transform="translate(-144.917 -318.069)" fill="#db0101"/>
        <path id="Path_3275" data-name="Path 3275" d="M150.666,364.845a3,3,0,0,1-.088-.589c-.041-.447-.1-1.012-.165-1.678a24.137,24.137,0,0,0-.377-2.46,18.612,18.612,0,0,0-.895-2.9,10.494,10.494,0,0,0-1.483-2.625,5.42,5.42,0,0,0-1.872-1.56,5.254,5.254,0,0,0-1.577-.494,3,3,0,0,1-.589-.088,2.99,2.99,0,0,1,.624,0,4.671,4.671,0,0,1,1.642.424,5.5,5.5,0,0,1,1.978,1.572,10.293,10.293,0,0,1,1.536,2.684,17.833,17.833,0,0,1,.889,2.943,20.985,20.985,0,0,1,.33,2.49c.053.712.071,1.289.082,1.689a3.909,3.909,0,0,1-.035.594Z" transform="translate(-138.929 -330.417)" fill="#263238"/>
        <path id="Path_3276" data-name="Path 3276" d="M153.21,351.958a.919.919,0,0,1,0-.288v-.812c0-.706,0-1.73-.035-3-.059-2.531-.277-6.022-.7-9.859s-.983-7.287-1.5-9.765c-.124-.589-.241-1.177-.359-1.666s-.2-.918-.294-1.26-.135-.589-.188-.789a.937.937,0,0,1-.047-.283,1.367,1.367,0,0,1,.094.265c.065.206.141.465.241.783s.212.759.336,1.248.259,1.042.394,1.666a91.892,91.892,0,0,1,1.572,9.777c.424,3.844.589,7.346.63,9.877,0,1.271,0,2.3-.047,3,0,.335-.035.589-.047.818A1.9,1.9,0,0,1,153.21,351.958Z" transform="translate(-141.591 -318.819)" fill="#263238"/>
        <path id="Path_3277" data-name="Path 3277" d="M155.349,346.65a5.937,5.937,0,0,1,0-.854,16.821,16.821,0,0,1,.259-2.307,30.835,30.835,0,0,1,.753-3.361,29.243,29.243,0,0,1,1.407-3.979,21.19,21.19,0,0,1,4.12-6.428,10.063,10.063,0,0,1,.971-.9c.147-.129.283-.253.418-.353l.377-.259a5.252,5.252,0,0,1,.712-.459,25.52,25.52,0,0,0-2.354,2.1,22.369,22.369,0,0,0-4.026,6.4,32.5,32.5,0,0,0-1.413,3.944c-.371,1.236-.589,2.354-.8,3.326a20.3,20.3,0,0,0-.336,2.284,5.7,5.7,0,0,1-.088.848Z" transform="translate(-143.748 -320.263)" fill="#263238"/>
        <path id="Path_3278" data-name="Path 3278" d="M440.426,402.68a4.044,4.044,0,0,0-2.9,1.289,7.159,7.159,0,0,0-1.6,2.814,12.9,12.9,0,0,0,0,6.475c2.243-.665,3.726-2.943,4.409-4.12,1.071-1.9,1.866-5.974.071-6.439" transform="translate(-259.011 -351.088)" fill="#db0101"/>
        <path id="Path_3279" data-name="Path 3279" d="M427.3,420.408a3.467,3.467,0,0,0,.589-3.42,4.6,4.6,0,0,0-2.466-2.555,1.913,1.913,0,0,0-1.625-.129,1.483,1.483,0,0,0-.742,1.3,3.02,3.02,0,0,0,.453,1.495c.877,1.572,2.013,2.943,3.779,3.308" transform="translate(-253.888 -355.819)" fill="#db0101"/>
        <path id="Path_3280" data-name="Path 3280" d="M428.332,428.617a1.437,1.437,0,0,0,.135-.418c.071-.277.165-.677.271-1.177a14.99,14.99,0,0,0,.353-3.961,7.465,7.465,0,0,0-1.254-3.761,5,5,0,0,0-.812-.9,1.178,1.178,0,0,0-.365-.259,10.15,10.15,0,0,1,1.036,1.254,7.781,7.781,0,0,1,1.177,3.685,17.206,17.206,0,0,1-.283,3.914A13.5,13.5,0,0,0,428.332,428.617Z" transform="translate(-255.369 -357.448)" fill="#263238"/>
        <path id="Path_3281" data-name="Path 3281" d="M436.9,407.84a3.768,3.768,0,0,0-.365.63c-.224.418-.536,1.018-.912,1.766-.753,1.495-1.766,3.585-2.814,5.915s-1.954,4.468-2.578,6.027c-.318.777-.589,1.407-.724,1.848a4.266,4.266,0,0,0-.236.689,3.661,3.661,0,0,0,.318-.653l.795-1.819c.665-1.542,1.589-3.661,2.643-5.992s2.037-4.426,2.749-5.945l.842-1.8A4.931,4.931,0,0,0,436.9,407.84Z" transform="translate(-256.443 -353.211)" fill="#263238"/>
        <path id="Path_3282" data-name="Path 3282" d="M434.488,426.211a8.088,8.088,0,0,1,6.41-3.691c.647,0,1.43.112,1.7.7s-.141,1.277-.589,1.766a6.922,6.922,0,0,1-7.54,1.424" transform="translate(-258.582 -359.25)" fill="#db0101"/>
        <path id="Path_3283" data-name="Path 3283" d="M437.985,425.429a1.463,1.463,0,0,0-.424,0,3.242,3.242,0,0,0-.5.035,6.5,6.5,0,0,0-.653.088,8.243,8.243,0,0,0-1.642.488,9.609,9.609,0,0,0-1.848,1.012,9.913,9.913,0,0,0-1.56,1.413,8.453,8.453,0,0,0-.995,1.4,5.1,5.1,0,0,0-.3.589,2.943,2.943,0,0,0-.188.459,1.679,1.679,0,0,0-.124.406c.047,0,.247-.553.753-1.366a8.976,8.976,0,0,1,1.018-1.342,9.606,9.606,0,0,1,3.326-2.354,9.088,9.088,0,0,1,1.6-.524C437.378,425.482,437.985,425.476,437.985,425.429Z" transform="translate(-256.64 -360.44)" fill="#263238"/>
      </g>
      <g id="freepik--Mountain--inject-4" transform="translate(18.48 177.737)">
        <path id="Path_3284" data-name="Path 3284" d="M334.7,447.1a1.932,1.932,0,0,1-.341,0l-.983.029-3.655.047-12.361.047.118-.053-2.166,2.637-9.359,11.325-2.866,3.408-.789.918a1.951,1.951,0,0,1-.294.306,2.619,2.619,0,0,1,.247-.347l.748-.954,2.784-3.467,9.294-11.384c.742-.9,1.471-1.766,2.166-2.637l.047-.053h.071l12.361.053,3.655.047h.983a1.557,1.557,0,0,1,.341.077Z" transform="translate(-135.117 -347.739)" fill="#263238"/>
        <path id="Path_3285" data-name="Path 3285" d="M201.563,402.161l-36.582-1.2-10.136,13.126-16.057,7.146-8.717,18.5,10.148-11.778,19.53-3.273,13.909-14.5Z" transform="translate(-64.387 -328.832)" fill="#f5f5f5"/>
        <path id="Path_3286" data-name="Path 3286" d="M18.48,404.648s.171-.241.524-.706l1.566-2.06,6.069-7.946c5.3-6.916,13-16.964,22.62-29.5V364.4H49.3l15.686-2.307-.082.053c2.266-4.12,4.709-8.494,7.216-13.061h.035l27.076-14.957h0l34.922-30.443h.071l17.694-3.426-.088.053,9.018-11.225,8.535-10.6.059-.071h.094l19.265,4.285h.047l.029.035,55.218,58.272h0c6.122,11.466,11.566,21.649,16.246,30.408h0L283.3,393.2l6.1,5.8,1.566,1.5c.353.336.524.512.524.512l-.542-.494-1.583-1.477-6.133-5.768-23.05-21.72h0l-16.293-30.39h0L188.63,282.946l.077.047-19.236-4.309.153-.053-8.535,10.6-9.041,11.237-.035.047h-.053l-17.7,3.42.071-.035-34.875,30.4h0L72.338,349.218l.053-.047-7.24,13.055v.047h-.059L49.4,364.563l.065-.041c-9.641,12.52-17.37,22.544-22.691,29.431l-6.157,7.964-1.589,2.042C18.668,404.418,18.48,404.648,18.48,404.648Z" transform="translate(-18.48 -278.42)" fill="#263238"/>
        <path id="Path_3287" data-name="Path 3287" d="M203.782,402.23l-.147.053-.447.135-1.725.494-6.475,1.807-22.367,6.127.071-.035c-2.755,2.866-5.733,5.974-8.829,9.188l-5.091,5.3-.035.035h-.047l-19.512,3.249.071-.041-8.558,9.847-2.354,2.7-.63.7c-.141.153-.224.23-.224.23s.065-.088.2-.253.341-.418.589-.724c.542-.647,1.324-1.566,2.319-2.743l8.482-9.918.029-.035h.041l19.518-3.3-.082.041c1.654-1.725,3.355-3.5,5.086-5.3l8.829-9.182h.065l22.367-6.027,6.475-1.719,1.766-.447.447-.112Z" transform="translate(-63.321 -329.354)" fill="#263238"/>
        <path id="Path_3288" data-name="Path 3288" d="M307.328,380.893c0,.082-7.958.153-17.776.153s-17.782-.071-17.782-.153,7.958-.153,17.782-.153S307.328,380.828,307.328,380.893Z" transform="translate(-122.681 -320.513)" fill="#263238"/>
      </g>
      <g id="freepik--Character--inject-4" transform="translate(71.761 33.68)">
        <path id="Path_3289" data-name="Path 3289" d="M331.72,217.643a27.23,27.23,0,0,0-.182-3.373l-6.881,1.53a61.784,61.784,0,0,0-.789,6.475l7.723,2.137S331.72,217.837,331.72,217.643Z" transform="translate(-197.387 -107.973)" fill="#ffbe9d"/>
        <path id="Path_3290" data-name="Path 3290" d="M335.837,227.592a.439.439,0,0,1,.035-.147c.082-.753,0-4.026-.365-4.161s-1.566.094-1.648.53.188,4.12.188,4.12.077.589,1.054.718C335.7,228.733,335.837,227.592,335.837,227.592Z" transform="translate(-201.498 -111.665)" fill="#ffbe9d"/>
        <path id="Path_3291" data-name="Path 3291" d="M332.508,229.592a.439.439,0,0,1,.035-.147c.077-.753.029-4.026-.371-4.161s-1.566.094-1.642.53.182,4.12.182,4.12.082.589,1.06.718C332.372,230.733,332.508,229.592,332.508,229.592Z" transform="translate(-200.129 -112.487)" fill="#ffbe9d"/>
        <path id="Path_3292" data-name="Path 3292" d="M329.248,230.586a.57.57,0,0,1,.029-.153c.082-.748.035-4.02-.365-4.161s-1.566.1-1.642.53.182,4.12.182,4.12.082.589,1.054.724C329.112,231.728,329.248,230.586,329.248,230.586Z" transform="translate(-198.788 -112.893)" fill="#ffbe9d"/>
        <path id="Path_3293" data-name="Path 3293" d="M326,231.526a.485.485,0,0,1,.035-.153c.077-.748.029-4.02-.371-4.161s-1.566.1-1.642.53.188,4.12.188,4.12.077.589,1.054.724C325.863,232.662,326,231.526,326,231.526Z" transform="translate(-197.451 -113.28)" fill="#ffbe9d"/>
        <path id="Path_3294" data-name="Path 3294" d="M333.792,225.83a6.74,6.74,0,0,1,.153,1.6,5.885,5.885,0,0,1-.053,1.577,6.742,6.742,0,0,1-.153-1.6A5.843,5.843,0,0,1,333.792,225.83Z" transform="translate(-201.443 -112.728)" fill="#eb996e"/>
        <path id="Path_3295" data-name="Path 3295" d="M330.526,225.81a25.062,25.062,0,0,1,.159,4.538,13.461,13.461,0,0,1-.182-2.266,12.714,12.714,0,0,1,.024-2.272Z" transform="translate(-200.107 -112.72)" fill="#eb996e"/>
        <g id="Group_3163" data-name="Group 3163" transform="translate(128.395 113.255)" opacity="0.78">
          <path id="Path_3296" data-name="Path 3296" d="M327.2,226.09a25.068,25.068,0,0,1,.159,4.538,13.462,13.462,0,0,1-.183-2.266A12.652,12.652,0,0,1,327.2,226.09Z" transform="translate(-327.132 -226.09)" fill="#eb996e"/>
        </g>
        <path id="Path_3297" data-name="Path 3297" d="M323.5,217.18s-2.725,6.186-2.325,6.569a9.141,9.141,0,0,0,1.648.977Z" transform="translate(-196.269 -109.17)" fill="#ffbe9d"/>
        <path id="Path_3298" data-name="Path 3298" d="M286.653,69.406l-2,23.138-11.59-.924c-.071-1.354,0-6.587,0-6.587s-4.821-.753-4.88-5.574c-.029-2.354.306-7.181.659-11.543a8.917,8.917,0,0,1,9.418-8.188h0a8.917,8.917,0,0,1,8.388,9.677Z" transform="translate(-174.488 -44.39)" fill="#ffbe9d"/>
        <path id="Path_3299" data-name="Path 3299" d="M276.5,101.376a11.184,11.184,0,0,0,6.286-1.766s-1.483,3.473-6.3,3.037Z" transform="translate(-177.904 -60.803)" fill="#eb996e"/>
        <path id="Path_3300" data-name="Path 3300" d="M272.52,78.956a.7.7,0,0,0,.665.7.671.671,0,0,0,.712-.624.689.689,0,0,0-.665-.695.659.659,0,0,0-.712.618Z" transform="translate(-176.27 -52.051)" fill="#263238"/>
        <path id="Path_3301" data-name="Path 3301" d="M271.088,77.272c.082.094.589-.294,1.348-.294s1.283.377,1.366.283-.047-.2-.288-.371a1.866,1.866,0,0,0-2.16,0C271.123,77.072,271.029,77.231,271.088,77.272Z" transform="translate(-175.674 -51.314)" fill="#263238"/>
        <path id="Path_3302" data-name="Path 3302" d="M284.61,78.962a.7.7,0,0,0,.665.695.659.659,0,0,0,.706-.624.683.683,0,0,0-.659-.695.659.659,0,0,0-.712.624Z" transform="translate(-181.244 -52.051)" fill="#263238"/>
        <path id="Path_3303" data-name="Path 3303" d="M283.463,77.494c.088.088.589-.3,1.348-.294s1.283.371,1.366.283-.047-.206-.283-.377a1.919,1.919,0,0,0-1.095-.336,1.766,1.766,0,0,0-1.071.347C283.5,77.3,283.421,77.494,283.463,77.494Z" transform="translate(-180.768 -51.407)" fill="#263238"/>
        <path id="Path_3304" data-name="Path 3304" d="M277.622,83.018a5.121,5.121,0,0,0-1.177-.218c-.188,0-.371-.053-.4-.182a.959.959,0,0,1,.124-.589c.182-.459.365-.942.589-1.442a24.777,24.777,0,0,0,1.254-3.767,24.433,24.433,0,0,0-1.56,3.655c-.182.506-.365.989-.536,1.448a1.083,1.083,0,0,0-.094.742.453.453,0,0,0,.312.277,1.1,1.1,0,0,0,.318.047A4.708,4.708,0,0,0,277.622,83.018Z" transform="translate(-177.617 -51.427)" fill="#263238"/>
        <path id="Path_3305" data-name="Path 3305" d="M280.96,88.22c-.124,0-.124.8-.812,1.371s-1.542.483-1.548.589.188.153.553.165a2,2,0,0,0,1.295-.453,1.713,1.713,0,0,0,.624-1.142C281.1,88.414,281.013,88.22,280.96,88.22Z" transform="translate(-178.772 -56.117)" fill="#263238"/>
        <path id="Path_3306" data-name="Path 3306" d="M283.147,72.693c.071.206.812.106,1.683.212s1.572.341,1.683.165-.071-.277-.353-.471a2.843,2.843,0,0,0-1.248-.441,2.943,2.943,0,0,0-1.318.153C283.276,72.44,283.111,72.6,283.147,72.693Z" transform="translate(-180.64 -49.501)" fill="#263238"/>
        <path id="Path_3307" data-name="Path 3307" d="M271.547,73.613c.129.171.642,0,1.254,0s1.136.112,1.254-.065-.029-.253-.253-.412a1.831,1.831,0,0,0-2.025.059C271.564,73.36,271.488,73.531,271.547,73.613Z" transform="translate(-175.862 -49.798)" fill="#263238"/>
        <path id="Path_3308" data-name="Path 3308" d="M287.938,60.879a1.825,1.825,0,0,0-1.513-1.919,2.225,2.225,0,0,0-3.184-2.8,2.89,2.89,0,0,0-5.091-1.03,3.061,3.061,0,0,0-5.174.818,3.361,3.361,0,0,0-4.968.706,4.521,4.521,0,0,0-1.648-.265,2,2,0,0,0-1.736,1.1,1.313,1.313,0,0,0,.494,1.554,1.6,1.6,0,1,0-.724,3.108.918.918,0,0,0-.5.842,1.719,1.719,0,0,0,1.13,1.248,6.192,6.192,0,0,0,4.4-.071c1.424-.477,2.743-1.224,4.156-1.766s3.773-1.442,5.192-.942a2.6,2.6,0,0,1,.589.3,3.82,3.82,0,0,1,1.4,2.449.522.522,0,0,1,0,.094c.188,1.377.159,2.772.359,4.12a6.239,6.239,0,0,0,1.689,3.714c.418.388,1.177.659,1.5.2a1.1,1.1,0,0,0,.171-.63c.188-2.4.706-4.6.983-6.94a6.938,6.938,0,0,1,1.307-1.589A3.737,3.737,0,0,0,287.938,60.879Z" transform="translate(-172.365 -42.038)" fill="#263238"/>
        <path id="Path_3309" data-name="Path 3309" d="M280.871,59.562a1.124,1.124,0,0,1-.065-.642,2.449,2.449,0,0,1,.771-1.583,2.513,2.513,0,0,1,2.531-.5,1.954,1.954,0,0,1,1.177,1.065,1.354,1.354,0,0,1,.035.889,1.048,1.048,0,0,1-.624.695,1,1,0,0,1-.936-.106.93.93,0,0,1-.341-.853,1.177,1.177,0,0,1,.389-.765,1.824,1.824,0,0,1,.706-.388,2.943,2.943,0,0,1,2.566.418,1.766,1.766,0,0,1,.624.824,1.43,1.43,0,0,1,.041.777c-.112.424-.353.553-.353.542a1.625,1.625,0,0,0,.235-.589,1.354,1.354,0,0,0-.082-.695,1.66,1.66,0,0,0-.589-.706,2.778,2.778,0,0,0-2.354-.33,1.177,1.177,0,0,0-.883.918.63.63,0,0,0,.23.589.683.683,0,0,0,.642.065.906.906,0,0,0,.424-1.177,1.708,1.708,0,0,0-1.007-.912,2.354,2.354,0,0,0-2.3.394,2.489,2.489,0,0,0-.8,1.442C280.859,59.333,280.912,59.562,280.871,59.562Z" transform="translate(-179.671 -43.146)" fill="#455a64"/>
        <path id="Path_3310" data-name="Path 3310" d="M290.88,56.267a1.254,1.254,0,0,1,.436-.082,4.862,4.862,0,0,1,1.212.035,2.814,2.814,0,0,1,1.625.824,1.807,1.807,0,0,1,.253,2.184,1.417,1.417,0,0,1-.259.3l-.159-.259a1.266,1.266,0,0,1,1.148.153,1.413,1.413,0,0,1,.618.865,2.084,2.084,0,0,1-.377,1.672,3.166,3.166,0,0,1-.824.771c-.224.147-.353.206-.365.188s.1-.106.294-.277a3.878,3.878,0,0,0,.724-.8,1.919,1.919,0,0,0,.277-1.483,1.136,1.136,0,0,0-.506-.689.989.989,0,0,0-.877-.118l-.789.318.636-.589a1.177,1.177,0,0,0,.206-.235,1.442,1.442,0,0,0,.194-.971,1.607,1.607,0,0,0-.406-.853,2.713,2.713,0,0,0-1.454-.8C291.539,56.243,290.88,56.332,290.88,56.267Z" transform="translate(-183.823 -42.929)" fill="#455a64"/>
        <path id="Path_3311" data-name="Path 3311" d="M301.493,65c.035,0,.124.165.124.459a1.642,1.642,0,0,1-1.442,1.607c-.294,0-.471-.035-.465-.077a2.942,2.942,0,0,0,1.26-.659,2.9,2.9,0,0,0,.524-1.33Z" transform="translate(-187.456 -46.565)" fill="#455a64"/>
        <path id="Path_3312" data-name="Path 3312" d="M267.75,60.2a1.33,1.33,0,0,1,.453-.371,3.149,3.149,0,0,1,3.72.494,1.837,1.837,0,0,1,.589,1.33,1.118,1.118,0,0,1-1.154,1.054.847.847,0,0,1-.689-.524,1.177,1.177,0,0,1-.053-.806,1.542,1.542,0,0,1,1.042-1.024,1.966,1.966,0,0,1,1.3,0,2.807,2.807,0,0,1,.954.589,4.762,4.762,0,0,1,.954,1.271,1.867,1.867,0,0,1,.23.53,3.143,3.143,0,0,1-.336-.471,5.209,5.209,0,0,0-.989-1.177,2.119,2.119,0,0,0-2.019-.5,1.289,1.289,0,0,0-.848.824c-.112.388.071.918.483.948a.824.824,0,0,0,.806-.765,1.566,1.566,0,0,0-.477-1.112,2.943,2.943,0,0,0-1.984-.865,3.22,3.22,0,0,0-1.477.283,4.952,4.952,0,0,1-.506.294Z" transform="translate(-174.308 -44.277)" fill="#455a64"/>
        <path id="Path_3313" data-name="Path 3313" d="M296.668,79.775c.082-.035,3.314-.977,3.208,2.319s-3.39,2.507-3.4,2.413S296.668,79.775,296.668,79.775Z" transform="translate(-186.127 -52.581)" fill="#ffbe9d"/>
        <path id="Path_3314" data-name="Path 3314" d="M298.258,84.034a1.328,1.328,0,0,0,.153.088.589.589,0,0,0,.43,0,1.425,1.425,0,0,0,.695-1.254,1.99,1.99,0,0,0-.13-.83.677.677,0,0,0-.418-.453.288.288,0,0,0-.347.147c-.047.088-.029.153-.047.159s-.065-.053-.035-.188a.382.382,0,0,1,.135-.206.441.441,0,0,1,.318-.071.812.812,0,0,1,.589.53,1.966,1.966,0,0,1,.165.924,1.483,1.483,0,0,1-.883,1.4.624.624,0,0,1-.518-.1C298.264,84.116,298.246,84.04,298.258,84.034Z" transform="translate(-186.857 -53.32)" fill="#eb996e"/>
        <path id="Path_3315" data-name="Path 3315" d="M257.213,350.854l2.143,9.865s-9.306,5.486-9.088,7.346l19.265-3.461-2.708-15.5Z" transform="translate(-167.114 -163.44)" fill="#263238"/>
        <path id="Path_3316" data-name="Path 3316" d="M269.5,374.354l-.335-1.554-18.353,3.9s-.789.53-.589,1.112Z" transform="translate(-167.086 -173.19)" fill="#455a64"/>
        <path id="Path_3317" data-name="Path 3317" d="M292.353,353.92l.318,10.089s-10.148,3.714-10.271,5.58l19.583.088.147-15.739Z" transform="translate(-180.335 -165.423)" fill="#263238"/>
        <g id="Group_3164" data-name="Group 3164" transform="translate(102.058 202.665)" opacity="0.6">
          <path id="Path_3318" data-name="Path 3318" d="M301.978,379.579l-.047-1.589-18.759.512s-.871.377-.777.989Z" transform="translate(-282.388 -377.99)" fill="#455a64"/>
        </g>
        <path id="Path_3319" data-name="Path 3319" d="M253.252,324.715s-10.006-49.237-10.042-50.226L261.139,265l6.946,57.784Z" transform="translate(-164.213 -128.842)" fill="#263238"/>
        <path id="Path_3320" data-name="Path 3320" d="M288.948,296.749,275.08,211.4V193l18.941,1.766c.241.718,6.439,102.106,6.439,102.106l-1.954-.112h-9.559" transform="translate(-177.323 -99.222)" fill="#263238"/>
        <path id="Path_3321" data-name="Path 3321" d="M251.068,190.78l-7.858,53.175,17.57-4.262,7.163-47.183Z" transform="translate(-164.213 -98.309)" fill="#263238"/>
        <path id="Path_3322" data-name="Path 3322" d="M284.18,198.44v.259l.082.765c.077.677.188,1.666.336,2.943.3,2.543.753,6.222,1.342,10.766,1.177,9.082,2.943,21.608,4.862,35.452.953,6.928,1.831,13.538,2.578,19.536.194,1.5.347,2.973.589,4.391s.43,2.8.63,4.12c.406,2.66.783,5.144,1.124,7.4.683,4.532,1.218,8.2,1.572,10.736.177,1.266.306,2.249.383,2.943.041.335.065.589.077.765a1.054,1.054,0,0,1,0,.194c0,.053-.029,0-.029,0h.035a.927.927,0,0,0,0-.2,4.6,4.6,0,0,0-.053-.765c-.059-.671-.177-1.66-.336-2.943-.324-2.537-.836-6.21-1.5-10.742-.336-2.266-.7-4.75-1.095-7.411q-.3-2-.624-4.12c-.206-1.419-.353-2.89-.547-4.391-.73-6.01-1.6-12.614-2.555-19.536-1.913-13.844-3.72-26.37-4.933-35.446-.589-4.532-1.083-8.205-1.419-10.754l-.383-2.943c-.041-.33-.076-.589-.1-.759S284.18,198.44,284.18,198.44Z" transform="translate(-181.067 -101.46)" fill="#455a64"/>
        <path id="Path_3323" data-name="Path 3323" d="M259.949,297.854a1.615,1.615,0,0,0-.029-.253l-.1-.736c-.112-.653-.271-1.607-.483-2.831-.43-2.466-1.054-6.022-1.825-10.407L251.4,249.3a7.9,7.9,0,0,1-.147-2.49c.106-.824.241-1.654.365-2.472q.383-2.455.747-4.838c.5-3.173.989-6.228,1.477-9.135.965-5.821,1.9-11.048,2.737-15.433s1.566-7.917,2.125-10.348c.265-1.218.506-2.16.653-2.8.071-.312.124-.589.165-.73a1.619,1.619,0,0,0,.053-.247s-.029.077-.077.241-.106.412-.188.724c-.165.636-.418,1.572-.695,2.784-.589,2.431-1.348,5.963-2.207,10.342s-1.807,9.606-2.784,15.422c-.494,2.914-.989,5.969-1.5,9.141-.247,1.583-.494,3.2-.753,4.838-.118.824-.253,1.636-.365,2.484a8.336,8.336,0,0,0,.153,2.561c2.413,13.391,4.6,25.522,6.18,34.31.8,4.379,1.448,7.929,1.9,10.395l.53,2.825c.065.312.112.559.147.73A1.015,1.015,0,0,1,259.949,297.854Z" transform="translate(-167.408 -102.435)" fill="#455a64"/>
        <path id="Path_3324" data-name="Path 3324" d="M275.077,223.24c-.065,0,.753,5.527,1.831,12.314s2,12.267,2.066,12.267-.753-5.527-1.831-12.314S275.142,223.228,275.077,223.24Z" transform="translate(-177.321 -111.663)" fill="#455a64"/>
        <path id="Path_3325" data-name="Path 3325" d="M298.35,368.991a2.214,2.214,0,0,0,.453.077c.294.035.724.077,1.248.118,1.054.082,2.513.159,4.12.188s3.073,0,4.12-.053a11.791,11.791,0,0,0,1.254-.077,1.511,1.511,0,0,0,.453-.065,12.88,12.88,0,0,0-1.707-.029h-4.12c-1.607,0-3.067-.082-4.12-.118A12.458,12.458,0,0,0,298.35,368.991Z" transform="translate(-186.896 -171.618)" fill="#455a64"/>
        <path id="Path_3326" data-name="Path 3326" d="M260.27,365.1a2.621,2.621,0,0,0,.589-.029l1.6-.165c1.348-.159,3.2-.383,5.25-.653s3.9-.518,5.233-.712l1.589-.241a2.664,2.664,0,0,0,.589-.118,2.79,2.79,0,0,0-.589,0l-1.6.165c-1.348.153-3.2.383-5.25.647s-3.9.518-5.239.718l-1.583.241A2.852,2.852,0,0,0,260.27,365.1Z" transform="translate(-171.231 -169.226)" fill="#455a64"/>
        <path id="Path_3327" data-name="Path 3327" d="M109,44.033s7.781-3.037,13.1-1.519,6.916,4.8,10.9,4.538c3.167-.224,5.409-1.6,6.551-4.962s1.142-7.57,11.955-7.169c8.276.306,9.112,1.519,9.112,1.519l.889,22.02a48.41,48.41,0,0,0-14.615-.553,6.169,6.169,0,0,0-4.821,5.3c-.589,4.709-5.433,6.534-8.329,6.534-4.12,0-6.239-2.8-9.753-3.614C118.471,64.846,109,68.708,109,68.708Z" transform="translate(-109 -34.18)" fill="#db0101"/>
        <path id="Path_3328" data-name="Path 3328" d="M200.6,128.4l-4.756-.336.124,7.464,5.1,3.726.518-.188.294-8.488Z" transform="translate(-144.725 -72.507)" fill="#eb996e"/>
        <path id="Path_3329" data-name="Path 3329" d="M159.246,67.85c-.082,0-.224-3.649-.312-8.152s-.088-8.158,0-8.158.224,3.644.312,8.152S159.328,67.845,159.246,67.85Z" transform="translate(-129.515 -41.027)" fill="#263238"/>
        <path id="Path_3330" data-name="Path 3330" d="M144.6,63c.088,0,.153,3.773.153,8.417s-.065,8.423-.153,8.423-.153-3.773-.153-8.423S144.521,63,144.6,63Z" transform="translate(-123.584 -45.742)" fill="#263238"/>
        <g id="Group_3165" data-name="Group 3165" transform="translate(20.807 10.931)" opacity="0.2">
          <path id="Path_3331" data-name="Path 3331" d="M144.562,71.7c-.059,1.689,0,3.932,0,3.932a7.5,7.5,0,0,0,5.2.883h.041a5.733,5.733,0,0,0,3.826-4.12,6.476,6.476,0,0,0,.224-1.96,170.835,170.835,0,0,1-.9-18.188A9.359,9.359,0,0,1,144.35,54.1Z" transform="translate(-144.35 -52.25)"/>
        </g>
        <g id="Group_3166" data-name="Group 3166" transform="translate(0.624 8.567)" opacity="0.6">
          <path id="Path_3332" data-name="Path 3332" d="M129.678,53.229a4.2,4.2,0,0,1-.724-.412L127.03,51.64a20.855,20.855,0,0,0-6.8-2.872,15.339,15.339,0,0,0-7.316.436,30.355,30.355,0,0,0-2.855,1.177,4.709,4.709,0,0,1,.706-.447,13.669,13.669,0,0,1,2.084-.918,14.751,14.751,0,0,1,7.44-.53,19.707,19.707,0,0,1,6.857,2.984c.806.518,1.436.965,1.872,1.277A4.273,4.273,0,0,1,129.678,53.229Z" transform="translate(-110.06 -48.235)" fill="#fff"/>
        </g>
        <g id="Group_3167" data-name="Group 3167" transform="translate(31.603 2.168)" opacity="0.6">
          <path id="Path_3333" data-name="Path 3333" d="M170.454,37.514c0,.053-.589,0-1.507.094a7.322,7.322,0,0,0-5.668,3.944c-.424.824-.553,1.4-.589,1.377a3.7,3.7,0,0,1,.412-1.472,6.922,6.922,0,0,1,5.845-4.067A3.738,3.738,0,0,1,170.454,37.514Z" transform="translate(-162.69 -37.363)" fill="#fff"/>
        </g>
        <path id="Path_3334" data-name="Path 3334" d="M196.524,33.68l6.28,174.488-1.083.259L195.27,33.762Z" transform="translate(-144.491 -33.68)" fill="#263238"/>
        <path id="Path_3335" data-name="Path 3335" d="M209.415,135.376l-2.354-8.47-8.37-5.886s-.977.589.518,2.8l1.878,2.59s-.059,3.373,1.548,5.35l-.518,4.568Z" transform="translate(-145.769 -69.611)" fill="#ffbe9d"/>
        <path id="Path_3336" data-name="Path 3336" d="M195.148,130.642a9.106,9.106,0,0,1,2.354,2.213,1.648,1.648,0,0,1,.177.8.63.63,0,0,1-.33.589.589.589,0,0,1-.542-.053,1.841,1.841,0,0,1-.436-.365l-1.613-1.666a1.86,1.86,0,0,1-.559-.918.642.642,0,0,1,.924-.589" transform="translate(-144.05 -73.547)" fill="#ffbe9d"/>
        <path id="Path_3337" data-name="Path 3337" d="M195.144,134.344a9.307,9.307,0,0,1,2.354,2.213,1.678,1.678,0,0,1,.177.8.63.63,0,0,1-.33.589.647.647,0,0,1-.547-.053,1.813,1.813,0,0,1-.43-.365l-1.6-1.625a1.89,1.89,0,0,1-.553-.918.647.647,0,0,1,.924-.589" transform="translate(-144.059 -75.088)" fill="#ffbe9d"/>
        <path id="Path_3338" data-name="Path 3338" d="M195.718,138.312a9.106,9.106,0,0,1,2.354,2.213,1.583,1.583,0,0,1,.177.8.636.636,0,0,1-.324.589.624.624,0,0,1-.547-.053,1.965,1.965,0,0,1-.436-.365l-1.613-1.666a1.948,1.948,0,0,1-.559-.918.642.642,0,0,1,.924-.589" transform="translate(-144.285 -76.702)" fill="#ffbe9d"/>
        <path id="Path_3339" data-name="Path 3339" d="M195.807,128.118a3.067,3.067,0,0,1,.977.7,1.118,1.118,0,0,1,.2,1.177.5.5,0,0,1-.377.288.589.589,0,0,1-.33-.082,3.129,3.129,0,0,1-.642-.394,4.807,4.807,0,0,1-.536-.589.589.589,0,0,1-.153-.753c.124-.283.247-.447.859-.377" transform="translate(-144.327 -72.512)" fill="#ffbe9d"/>
        <path id="Path_3340" data-name="Path 3340" d="M212.1,138.22l12.708,11.413-4.132,9.112L206.1,143.188Z" transform="translate(-148.946 -76.687)" fill="#ffbe9d"/>
        <path id="Path_3341" data-name="Path 3341" d="M211.9,128.465l11.307,8.605s10.519-17.941,11.448-19.053a13.39,13.39,0,0,1,3.29-2.307l-1.307,23s-5.686,14.521-13.5,13.732c-5.98-.589-16.31-16.375-16.31-16.375Z" transform="translate(-149.246 -67.426)" fill="#db0101"/>
        <g id="Group_3168" data-name="Group 3168" transform="translate(72.178 69.362)" opacity="0.2">
          <path id="Path_3342" data-name="Path 3342" d="M233.193,151.52a9.93,9.93,0,0,0-1.142,8.241,1.213,1.213,0,0,0,.459.73.889.889,0,0,0,1.13-.377,2.66,2.66,0,0,0,.294-1.271,2.943,2.943,0,0,0,.83,1.095,1.018,1.018,0,0,0,1.277-.047c.377-.412.165-1.065-.059-1.577q-1.448-3.273-2.89-6.545" transform="translate(-231.623 -151.52)"/>
        </g>
        <path id="Path_3343" data-name="Path 3343" d="M216.473,141.75a41.662,41.662,0,0,1-2.59,4.338,42.311,42.311,0,0,1-2.843,4.173,40.415,40.415,0,0,1,2.59-4.338,41.968,41.968,0,0,1,2.843-4.173Z" transform="translate(-150.978 -78.139)" fill="#263238"/>
        <path id="Path_3344" data-name="Path 3344" d="M215.161,141.141c0-.029.118-.177.377-.082a.489.489,0,0,1,.3.353.518.518,0,0,1-.859.453.489.489,0,0,1-.118-.447c.065-.271.271-.306.277-.265a.867.867,0,0,0-.059.288c.012.165.141.33.341.224a.23.23,0,0,0,0-.412C215.308,141.152,215.184,141.176,215.161,141.141Z" transform="translate(-152.544 -77.841)" fill="#263238"/>
        <path id="Path_3345" data-name="Path 3345" d="M234.311,157.439a8.088,8.088,0,0,1-.082-5.439c.088,0-.153,1.224-.124,2.725S234.4,157.415,234.311,157.439Z" transform="translate(-160.341 -82.356)" fill="#263238"/>
        <path id="Path_3346" data-name="Path 3346" d="M236.781,157.379a13.238,13.238,0,0,1-2.3-5.339,28.54,28.54,0,0,1,1.136,2.678A27.724,27.724,0,0,1,236.781,157.379Z" transform="translate(-160.621 -82.372)" fill="#263238"/>
        <path id="Path_3347" data-name="Path 3347" d="M281.05,109.626l-1.7-3.4H266.994l-1.942,3.838L257.4,111.8l-3.29,49.255a3.426,3.426,0,0,0,.436,1.766h0L284.564,164l1.218.5c1.077-.665.406-3.408.418-4.709l.388-24.392,5.939-19.495Z" transform="translate(-168.696 -63.526)" fill="#db0101"/>
        <g id="Group_3169" data-name="Group 3169" transform="translate(99.54 42.974)" opacity="0.2">
          <path id="Path_3348" data-name="Path 3348" d="M278.11,111.5l2.184-2.184,2.46,5.921a61.914,61.914,0,0,0,8.04-5.627l-8.317,2.666q-1.059-2.79-2.107-5.592a21.541,21.541,0,0,1-2.1,4.844" transform="translate(-278.11 -106.69)"/>
        </g>
        <path id="Path_3349" data-name="Path 3349" d="M325.8,178.135l-8.093.418V155.326l-8.37-13.161,5.939-19.495c1.224.483,10.448,23.639,12.8,29.931a6.963,6.963,0,0,1,.436,2.837Z" transform="translate(-191.418 -70.289)" fill="#db0101"/>
        <path id="Path_3350" data-name="Path 3350" d="M258.238,133c.088,0-.318,4.774-.895,10.636s-1.118,10.6-1.177,10.6.318-4.774.895-10.642S258.155,132.965,258.238,133Z" transform="translate(-169.54 -74.539)" fill="#263238"/>
        <path id="Path_3351" data-name="Path 3351" d="M278.52,106.71a29.625,29.625,0,0,1-1.472,3.961l-.165.4a1.007,1.007,0,0,1-.271.406.477.477,0,0,1-.536.035c-.141-.071-.241-.147-.347-.212l-1.112-.753a4.986,4.986,0,0,1-.977-.759,5.3,5.3,0,0,1,1.095.589l1.148.695c.218.141.441.3.542.182a2.356,2.356,0,0,0,.341-.689,28.6,28.6,0,0,1,1.754-3.855Z" transform="translate(-176.731 -63.724)" fill="#263238"/>
        <path id="Path_3352" data-name="Path 3352" d="M291.764,109.845a12.806,12.806,0,0,1-1.889.759c-1.177.436-2.814,1.012-4.626,1.63l-.989.336-.135.047-.053-.13c-.636-1.542-1.177-2.908-1.572-3.9a9.889,9.889,0,0,1-.559-1.6,11.092,11.092,0,0,1,.748,1.524c.43.965,1.012,2.319,1.666,3.855l-.194-.082.989-.341c1.813-.589,3.461-1.177,4.656-1.548A13.738,13.738,0,0,1,291.764,109.845Z" transform="translate(-180.146 -63.839)" fill="#263238"/>
        <path id="Path_3353" data-name="Path 3353" d="M312.122,123.86c0,.088-1.713.589-3.732,1.46s-3.532,1.872-3.591,1.766a3.9,3.9,0,0,1,.942-.718,19.422,19.422,0,0,1,5.215-2.319,3.826,3.826,0,0,1,1.165-.188Z" transform="translate(-189.55 -70.779)" fill="#263238"/>
        <path id="Path_3354" data-name="Path 3354" d="M279.078,106.71a.51.51,0,0,1,0,.147v.436c0,.383.035.942.041,1.666,0,1.442,0,3.532-.094,6.116-.182,5.168-.83,12.29-1.86,20.1-.5,3.914-1.054,7.652-1.424,11.019a71.869,71.869,0,0,0-.494,9.041,45.516,45.516,0,0,0,.483,6.08c.088.718.2,1.265.259,1.642a2.471,2.471,0,0,0,.065.43.548.548,0,0,1,0,.147.591.591,0,0,1-.041-.141c-.029-.118-.059-.253-.1-.424-.071-.371-.206-.918-.312-1.636a41.3,41.3,0,0,1-.589-6.1,67.988,67.988,0,0,1,.424-9.071c.359-3.4.9-7.116,1.4-11.025,1.03-7.811,1.707-14.915,1.948-20.072.129-2.578.171-4.668.194-6.11v-2.1A.528.528,0,0,1,279.078,106.71Z" transform="translate(-177.289 -63.724)" fill="#263238"/>
        <path id="Path_3355" data-name="Path 3355" d="M332.074,210.531a30.4,30.4,0,0,1-4.291-.059,30.06,30.06,0,0,1-4.273-.359,29.73,29.73,0,0,1,4.285.053,30.807,30.807,0,0,1,4.279.365Z" transform="translate(-197.247 -106.241)" fill="#263238"/>
        <path id="Path_3356" data-name="Path 3356" d="M325.708,212.289v.218a.136.136,0,0,0,.236.082c.106-.088.071-.177-.029-.247s-.182-.041-.212-.071.053-.171.277-.135a.382.382,0,0,1,.294.23.424.424,0,0,1-.618.5.412.412,0,0,1-.165-.341C325.531,212.3,325.69,212.248,325.708,212.289Z" transform="translate(-198.062 -107.093)" fill="#263238"/>
        <g id="Group_3170" data-name="Group 3170" transform="translate(114.889 67.043)" opacity="0.2">
          <path id="Path_3357" data-name="Path 3357" d="M307.32,152.348q-1.324-2.384-2.637-4.768a65.543,65.543,0,0,0,1.766,25.128q.412-10.13.818-20.254" transform="translate(-304.186 -147.58)"/>
        </g>
        <g id="Group_3171" data-name="Group 3171" transform="translate(81.181 48.855)" opacity="0.2">
          <path id="Path_3358" data-name="Path 3358" d="M246.92,125.25a6.3,6.3,0,0,0,7.3,2.307,2.154,2.154,0,0,0,1.766.977,5.057,5.057,0,0,0,2.031-.394,15.84,15.84,0,0,0,9.847-11.46c-3.808,1.336-6.375,5.027-10.112,6.557a9.535,9.535,0,0,1-9.07-.936Z" transform="translate(-246.92 -116.68)"/>
        </g>
        <path id="Path_3359" data-name="Path 3359" d="M286.384,140.715a2.308,2.308,0,0,1,.477-.035l1.407-.035c1.224,0,2.984-.053,5.109-.065h.141v.141c-.141,1.86-.294,4.014-.465,6.31v.082l-.077.041-.312.165-3.42,1.8-.088.041-.077-.059-3.173-2.6-.047-.041V146.4c.153-1.707.277-3.126.365-4.179.047-.453.082-.83.118-1.13a1.713,1.713,0,0,1,.053-.377,2.744,2.744,0,0,1,0,.43c0,.306-.035.695-.053,1.177-.059,1.036-.135,2.437-.23,4.12l-.047-.106,3.2,2.56h-.159l3.408-1.807.318-.165-.082.124.5-6.3.135.141c-2.066,0-3.8-.041-5.027-.065l-1.436-.035A4.114,4.114,0,0,1,286.384,140.715Z" transform="translate(-181.758 -77.657)" fill="#263238"/>
        <path id="Path_3360" data-name="Path 3360" d="M293.419,145.43a40.088,40.088,0,0,1-7-.129,19.76,19.76,0,0,1,3.5-.088,20.24,20.24,0,0,1,3.5.218Z" transform="translate(-181.989 -79.547)" fill="#fafafa"/>
        <path id="Path_3361" data-name="Path 3361" d="M293.3,147.491a40.439,40.439,0,0,1-7.034-.129,40.439,40.439,0,0,1,7.034.129Z" transform="translate(-181.927 -80.395)" fill="#fafafa"/>
        <path id="Path_3362" data-name="Path 3362" d="M260.6,201.547c0,.082-.63,0-1.036-.642s-.283-1.23-.2-1.177a5.99,5.99,0,0,0,.453,1.03C260.162,201.258,260.627,201.464,260.6,201.547Z" transform="translate(-170.822 -101.989)" fill="#263238"/>
        <path id="Path_3363" data-name="Path 3363" d="M262.171,200.15a2.131,2.131,0,0,1-.848-1.389,2.107,2.107,0,0,1,.088-1.63c.088,0,0,.724.212,1.554S262.26,200.1,262.171,200.15Z" transform="translate(-171.614 -100.922)" fill="#263238"/>
        <path id="Path_3364" data-name="Path 3364" d="M299.908,196.51a5.027,5.027,0,0,1-2.078,4.42,9.261,9.261,0,0,0,2.078-4.42Z" transform="translate(-186.683 -100.666)" fill="#263238"/>
        <path id="Path_3365" data-name="Path 3365" d="M279.958,110.98h1.625l.695,1.207-.683,1.884-1.619-.182-.636-1.36Z" transform="translate(-179.076 -65.48)" fill="#455a64"/>
        <path id="Path_3366" data-name="Path 3366" d="M250.644,115.09s-9.771,6.292-14.762,3.779-11.184-5.592-16.758-4.856a26.629,26.629,0,0,0-9.318,2.943L208.04,121.2l4.515,1.625s6.581-3.178,11.366-2.325c3.343.589,9.765,4,14.091,3.679s10.3-3.4,14.233-8.929Z" transform="translate(-149.744 -66.682)" fill="#455a64"/>
        <path id="Path_3367" data-name="Path 3367" d="M281.574,116.629a2.037,2.037,0,0,1-.636-.288,2.147,2.147,0,0,1-.589-.4,1.977,1.977,0,0,1,.642.294A2.007,2.007,0,0,1,281.574,116.629Z" transform="translate(-179.492 -67.521)" fill="#263238"/>
        <path id="Path_3368" data-name="Path 3368" d="M282.49,112.67a8.54,8.54,0,0,1-1.083.983,8.693,8.693,0,0,1-1.177.889,8.545,8.545,0,0,1,1.083-.983,8.691,8.691,0,0,1,1.177-.889Z" transform="translate(-179.442 -66.176)" fill="#263238"/>
        <path id="Path_3369" data-name="Path 3369" d="M281.818,112.58a4.662,4.662,0,0,1-1.548-1.63c.029,0,.336.377.759.824S281.836,112.551,281.818,112.58Z" transform="translate(-179.459 -65.468)" fill="#263238"/>
        <path id="Path_3370" data-name="Path 3370" d="M268.343,125.7a2.228,2.228,0,0,1-.218-.506c-.124-.318-.283-.759-.447-1.248s-.312-.936-.412-1.26a3.265,3.265,0,0,1-.135-.536,2.4,2.4,0,0,1,.218.506c.124.318.283.759.447,1.248s.312.936.406,1.26A3.007,3.007,0,0,1,268.343,125.7Z" transform="translate(-174.053 -70.076)" fill="#fafafa"/>
        <path id="Path_3371" data-name="Path 3371" d="M272.163,123.761a10.334,10.334,0,0,1-.895-1.348A11.177,11.177,0,0,1,270.48,121,21.077,21.077,0,0,1,272.163,123.761Z" transform="translate(-175.431 -69.602)" fill="#fafafa"/>
        <path id="Path_3372" data-name="Path 3372" d="M275.767,121.445a6.9,6.9,0,0,1-1-.9,6.968,6.968,0,0,1-.906-.995,15.534,15.534,0,0,1,1.907,1.9Z" transform="translate(-176.822 -69.006)" fill="#fafafa"/>
        <path id="Path_3373" data-name="Path 3373" d="M279.21,118.871a3.939,3.939,0,0,1-.753-.553,3.839,3.839,0,0,1-.677-.647,3.254,3.254,0,0,1,.753.553A3.219,3.219,0,0,1,279.21,118.871Z" transform="translate(-178.434 -68.233)" fill="#fafafa"/>
        <path id="Path_3374" data-name="Path 3374" d="M263.116,127.767a19.373,19.373,0,0,1-.171-2.131,17.83,17.83,0,0,1-.053-2.137,35.262,35.262,0,0,1,.224,4.267Z" transform="translate(-172.305 -70.631)" fill="#fafafa"/>
        <path id="Path_3375" data-name="Path 3375" d="M257.59,128.242s.088-1.095.271-2.437.359-2.431.388-2.425a46.353,46.353,0,0,1-.659,4.862Z" transform="translate(-170.128 -70.582)" fill="#fafafa"/>
        <path id="Path_3376" data-name="Path 3376" d="M253.163,121.69c.029,0-.283,1.177-.706,2.625s-.783,2.6-.818,2.59.283-1.177.7-2.625A26.755,26.755,0,0,1,253.163,121.69Z" transform="translate(-167.679 -69.886)" fill="#fafafa"/>
        <path id="Path_3377" data-name="Path 3377" d="M249.112,119.87c.035,0-.341,1.218-.83,2.69s-.918,2.666-.954,2.655.341-1.213.836-2.69S249.082,119.858,249.112,119.87Z" transform="translate(-165.906 -69.138)" fill="#fafafa"/>
        <path id="Path_3378" data-name="Path 3378" d="M243.662,117.25s-.3,1.318-.736,2.943-.818,2.9-.848,2.89.294-1.318.73-2.943S243.627,117.244,243.662,117.25Z" transform="translate(-163.746 -68.06)" fill="#fafafa"/>
        <path id="Path_3379" data-name="Path 3379" d="M237.881,115.62c.035,0-.224,1.3-.589,2.89s-.659,2.872-.695,2.861.224-1.3.589-2.884S237.852,115.614,237.881,115.62Z" transform="translate(-161.491 -67.389)" fill="#fafafa"/>
        <path id="Path_3380" data-name="Path 3380" d="M232.716,114.58c.035,0,.077,1.371.088,3.067s0,3.078-.035,3.078-.071-1.377-.082-3.073S232.687,114.58,232.716,114.58Z" transform="translate(-159.882 -66.961)" fill="#fafafa"/>
        <path id="Path_3381" data-name="Path 3381" d="M227.22,120.67a1.764,1.764,0,0,1-.071-.247c-.047-.23-.094-.459-.147-.695-.118-.589-.259-1.4-.388-2.3s-.23-1.719-.283-2.313c0-.235-.041-.465-.059-.7a.741.741,0,0,1,0-.259,1.331,1.331,0,0,1,.047.253,5.866,5.866,0,0,0,.094.7c.106.736.206,1.483.318,2.3s.241,1.566.359,2.3l.106.695a.86.86,0,0,1,.024.259Z" transform="translate(-157.24 -66.789)" fill="#fafafa"/>
        <path id="Path_3382" data-name="Path 3382" d="M221.1,122.039c-.029,0-.512-1.36-1.077-3.049s-.989-3.078-.959-3.09.518,1.354,1.077,3.049S221.131,122.027,221.1,122.039Z" transform="translate(-154.276 -67.504)" fill="#fafafa"/>
        <path id="Path_3383" data-name="Path 3383" d="M215.757,124.064c-.029,0-.659-1.248-1.407-2.825s-1.33-2.861-1.3-2.878.665,1.254,1.413,2.825S215.786,124.034,215.757,124.064Z" transform="translate(-151.804 -68.516)" fill="#fafafa"/>
        <path id="Path_3384" data-name="Path 3384" d="M210.552,125.869a4.027,4.027,0,0,1-.695-1.095,3.661,3.661,0,0,1-.418-1.224c.035,0,.218.536.524,1.177S210.582,125.846,210.552,125.869Z" transform="translate(-150.32 -70.652)" fill="#fafafa"/>
      </g>
    </g>
    <g id="Goal-rafiki_1_" data-name="Goal-rafiki (1)" transform="translate(1095.385 513.819)">
      <g id="freepik--background-complete--inject-133" transform="translate(0 55)">
        <rect id="Rectangle_2764" data-name="Rectangle 2764" width="255.179" height="0.128" transform="translate(0 167.091)" fill="#ebebeb"/>
        <rect id="Rectangle_2765" data-name="Rectangle 2765" width="27.085" height="0.128" transform="translate(202.525 175.303)" fill="#ebebeb"/>
        <rect id="Rectangle_2766" data-name="Rectangle 2766" width="29.938" height="0.128" transform="translate(139.103 173.706)" fill="#ebebeb"/>
        <rect id="Rectangle_2767" data-name="Rectangle 2767" width="9.794" height="0.128" transform="translate(194.038 172.971)" fill="#ebebeb"/>
        <rect id="Rectangle_2768" data-name="Rectangle 2768" width="22.042" height="0.128" transform="translate(51.276 171.424)" fill="#ebebeb"/>
        <rect id="Rectangle_2769" data-name="Rectangle 2769" width="7.88" height="0.128" transform="translate(40.553 171.424)" fill="#ebebeb"/>
        <rect id="Rectangle_2770" data-name="Rectangle 2770" width="27.661" height="0.128" transform="translate(67.097 173.578)" fill="#ebebeb"/>
        <path id="Path_3452" data-name="Path 3452" d="M139.664,199.329H41.124a2.914,2.914,0,0,1-2.914-2.914V57.889A2.914,2.914,0,0,1,41.124,55h98.54a2.914,2.914,0,0,1,2.914,2.914v138.5A2.914,2.914,0,0,1,139.664,199.329ZM41.124,55.1a2.792,2.792,0,0,0-2.787,2.787V196.415a2.792,2.792,0,0,0,2.787,2.787h98.54a2.792,2.792,0,0,0,2.787-2.787V57.889a2.792,2.792,0,0,0-2.787-2.787Z" transform="translate(-18.709 -55)" fill="#ebebeb"/>
        <path id="Path_3453" data-name="Path 3453" d="M355.964,199.329h-98.55a2.919,2.919,0,0,1-2.914-2.914V57.889A2.919,2.919,0,0,1,257.414,55h98.55a2.914,2.914,0,0,1,2.9,2.889V196.415A2.914,2.914,0,0,1,355.964,199.329ZM257.414,55.1a2.792,2.792,0,0,0-2.787,2.787V196.415a2.792,2.792,0,0,0,2.787,2.787h98.55a2.792,2.792,0,0,0,2.787-2.787V57.889a2.792,2.792,0,0,0-2.787-2.787Z" transform="translate(-124.614 -55)" fill="#ebebeb"/>
        <path id="Path_3454" data-name="Path 3454" d="M213.265,228.326c-13.055-16.923-19.1-33.515-34.97-9.1A157.441,157.441,0,0,1,160.3,197.01c-24.727-38.517-49.586-14.8-69.776,11.361S47,281.715,47,281.715H257.15S226.4,245.352,213.265,228.326Z" transform="translate(-23.013 -114.628)" fill="#f5f5f5"/>
        <path id="Path_3455" data-name="Path 3455" d="M240.648,289.089c-6.762-12.693-9.87-25.145-18.159-6.466-7.88,17.766-28.07,46.259-28.07,46.259h68.817S247.4,301.777,240.648,289.089Z" transform="translate(-95.196 -161.795)" fill="#f0f0f0"/>
        <path id="Path_3456" data-name="Path 3456" d="M61.014,83.672a2.261,2.261,0,0,1,1.419.439A21.65,21.65,0,0,1,72.2,81.769a7.42,7.42,0,0,1,3.573.873c3.322-2.292,7.6-3.914,10.758-3.914,1.791,0,2.929.51,3.358,1.4a25.776,25.776,0,0,1,9.9-2.48c4.624,0,6.216,2.4,4.461,5.767,2.179.056,4.017,1.388,2.45,2.582H55.64c.061-.077.122-.148.194-.225a7.655,7.655,0,0,1,5.18-2.1Z" transform="translate(-27.244 -66.09)" fill="#fafafa"/>
        <path id="Path_3457" data-name="Path 3457" d="M166.641,114.364a1.087,1.087,0,0,1,.811.316,11.3,11.3,0,0,1,5.8-1.7,3.506,3.506,0,0,1,2.041.638h0c2.041-1.664,4.593-2.848,6.461-2.848,1.021,0,1.689.383,1.9,1.021a13.334,13.334,0,0,1,5.9-1.807c2.1,0,3.062,1.056,2.843,2.679a6.92,6.92,0,0,1,2.792-.75c1.123,0,1.669.51,1.613,1.373a2.872,2.872,0,0,1,.3,0c1.715.138,2.419,1.22,1.638,2.455h-35.1a4.343,4.343,0,0,1,3-1.373Z" transform="translate(-80.125 -81.921)" fill="#fafafa"/>
        <path id="Path_3458" data-name="Path 3458" d="M76.137,146.642a.735.735,0,0,1,.556.219,7.839,7.839,0,0,1,4.017-1.179,2.444,2.444,0,0,1,1.424.439h0a8.079,8.079,0,0,1,4.466-1.965c.73,0,1.169.26,1.317.7A9.186,9.186,0,0,1,92,143.61c1.455,0,2.123.73,1.97,1.853a4.721,4.721,0,0,1,1.929-.51c.776,0,1.153.373,1.113.949h.2c1.189.1,1.669.842,1.133,1.694H74.06A3.016,3.016,0,0,1,76.137,146.642Z" transform="translate(-36.263 -98.387)" fill="#fafafa"/>
        <circle id="Ellipse_39" data-name="Ellipse 39" cx="17.806" cy="17.806" r="17.806" transform="translate(185.73 7.798)" fill="#f0f0f0"/>
        <path id="Path_3459" data-name="Path 3459" d="M308.494,98.367a2.291,2.291,0,0,1,1.419.434,21.711,21.711,0,0,1,9.758-2.343,7.487,7.487,0,0,1,3.573.873c3.317-2.286,7.6-3.909,10.758-3.909,1.791,0,2.929.51,3.358,1.4a25.776,25.776,0,0,1,9.9-2.48c4.624,0,6.216,2.4,4.461,5.767,2.179.061,4.017,1.388,2.45,2.582H303.12c.061-.071.122-.148.194-.225A7.625,7.625,0,0,1,308.494,98.367Z" transform="translate(-148.42 -73.283)" fill="#fafafa"/>
        <path id="Path_3460" data-name="Path 3460" d="M377.456,155.919a1.057,1.057,0,0,1,.811.322,11.3,11.3,0,0,1,5.808-1.71,3.481,3.481,0,0,1,2.041.638h0c2.041-1.664,4.593-2.843,6.456-2.843,1.051,0,1.694.378,1.9,1.021a13.335,13.335,0,0,1,5.895-1.807c2.1,0,3.062,1.056,2.848,2.679a6.9,6.9,0,0,1,2.792-.75c1.123,0,1.669.536,1.613,1.373h.291c1.72.143,2.419,1.22,1.643,2.455h-35.1a4.338,4.338,0,0,1,3-1.378Z" transform="translate(-183.351 -102.27)" fill="#fafafa"/>
      </g>
      <g id="freepik--Shadow--inject-133" transform="translate(28.636 233.585)">
        <ellipse id="freepik--path--inject-133" cx="98.953" cy="5.777" rx="98.953" ry="5.777" fill="#f5f5f5"/>
      </g>
      <g id="freepik--Goal--inject-133" transform="translate(121.837 80.094)">
        <rect id="Rectangle_2771" data-name="Rectangle 2771" width="0.51" height="4.144" transform="translate(77.487 92.269) rotate(-17.05)" fill="#b0bec5"/>
        <rect id="Rectangle_2772" data-name="Rectangle 2772" width="0.51" height="12.33" transform="translate(72.796 76.967) rotate(-17.05)" fill="#b0bec5"/>
        <path id="Path_3461" data-name="Path 3461" d="M295.009,158H276.855L239.012,281.369a6.431,6.431,0,0,0,6.15,8.3h81.545a6.43,6.43,0,0,0,6.15-8.314Z" transform="translate(-238.73 -130.527)" fill="#b0bec5"/>
        <path id="Path_3462" data-name="Path 3462" d="M329.253,158h-9.074L308.67,289.672h52.281a6.431,6.431,0,0,0,6.15-8.314Z" transform="translate(-272.974 -130.527)" fill="#263238" opacity="0.2"/>
        <path id="Path_3463" data-name="Path 3463" d="M344.911,158H340.65l12.989,131.672H376.6a6.431,6.431,0,0,0,6.15-8.314Z" transform="translate(-288.633 -130.527)" fill="#263238" opacity="0.2"/>
        <path id="Path_3464" data-name="Path 3464" d="M276.852,158h4.374l-31.3,131.672h-4.767a6.43,6.43,0,0,1-6.15-8.314Z" transform="translate(-238.727 -130.527)" fill="#fff" opacity="0.2"/>
        <path id="Path_3465" data-name="Path 3465" d="M314.468,148.39h0a12.044,12.044,0,0,1,11.636,8.916l5.859,21.792-1.557,6.89-5.961-5.645-5.65,12.973-5.144-9.018-6.39,9.018-2.776-13.524-5.808,7.7-1.378-8.9,5.512-21.211A12.044,12.044,0,0,1,314.468,148.39Z" transform="translate(-267.407 -125.822)" fill="#b0bec5"/>
        <path id="Path_3466" data-name="Path 3466" d="M314.468,148.39h0a12.044,12.044,0,0,1,11.636,8.916l5.859,21.792-1.557,6.89-5.961-5.645-5.65,12.973-5.144-9.018-6.39,9.018-2.776-13.524-5.808,7.7-1.378-8.9,5.512-21.211A12.044,12.044,0,0,1,314.468,148.39Z" transform="translate(-267.407 -125.822)" fill="#fff" opacity="0.7"/>
        <path id="Path_3467" data-name="Path 3467" d="M299.881,286.286a.51.51,0,0,1-.464-.3l-8.651-18.74a.51.51,0,0,1,.117-.587l33.684-31.55-20.925-40.767a.541.541,0,0,1-.051-.322l7.319-43.549a.517.517,0,1,1,1.021.168l-7.293,43.38,21.017,40.961a.51.51,0,0,1-.1.6l-33.684,31.561,8.492,18.419a.51.51,0,0,1-.245.679A.541.541,0,0,1,299.881,286.286Z" transform="translate(-264.185 -126.631)" fill="#fff"/>
        <circle id="Ellipse_40" data-name="Ellipse 40" cx="5.19" cy="5.19" r="5.19" transform="translate(54.743 112.44) rotate(-76.72)" fill="#b0bec5"/>
        <path id="Path_3468" data-name="Path 3468" d="M352.771,317.171a5.7,5.7,0,1,1,5.7-5.7A5.7,5.7,0,0,1,352.771,317.171Zm0-10.376a4.68,4.68,0,1,0,4.68,4.675A4.68,4.68,0,0,0,352.771,306.8Z" transform="translate(-291.776 -202.882)" fill="#fff"/>
        <circle id="Ellipse_41" data-name="Ellipse 41" cx="5.205" cy="5.205" r="5.205" transform="matrix(0.16, -0.987, 0.987, 0.16, 21.613, 144.244)" fill="#b0bec5"/>
        <path id="Path_3469" data-name="Path 3469" d="M286.251,379.5a5.7,5.7,0,1,1,5.7-5.7A5.7,5.7,0,0,1,286.251,379.5Zm0-10.376a4.68,4.68,0,1,0,4.68,4.68A4.68,4.68,0,0,0,286.251,369.126Z" transform="translate(-259.206 -233.401)" fill="#fff"/>
        <circle id="Ellipse_42" data-name="Ellipse 42" cx="5.19" cy="5.19" r="5.19" transform="translate(34.711 62.289)" fill="#b0bec5"/>
        <path id="Path_3470" data-name="Path 3470" d="M311.441,236.621a5.7,5.7,0,1,1,5.7-5.7A5.7,5.7,0,0,1,311.441,236.621Zm0-10.381a4.68,4.68,0,1,0,4.68,4.68A4.68,4.68,0,0,0,311.441,226.241Z" transform="translate(-271.54 -163.441)" fill="#fff"/>
        <circle id="Ellipse_43" data-name="Ellipse 43" cx="5.205" cy="5.205" r="5.205" transform="matrix(0.16, -0.987, 0.987, 0.16, 41.444, 27.729)" fill="#b0bec5"/>
        <path id="Path_3471" data-name="Path 3471" d="M325.781,151.281a5.7,5.7,0,1,1,5.7-5.7,5.7,5.7,0,0,1-5.7,5.7Zm0-10.376a4.68,4.68,0,1,0,4.68,4.68,4.68,4.68,0,0,0-4.68-4.68Z" transform="translate(-278.561 -121.655)" fill="#fff"/>
        <path id="Path_3472" data-name="Path 3472" d="M330.73,128.126a.51.51,0,0,1-.51-.51V104.68a.51.51,0,1,1,1.021,0v22.936A.51.51,0,0,1,330.73,128.126Z" transform="translate(-283.526 -104.17)" fill="#b0bec5"/>
        <path id="Path_3473" data-name="Path 3473" d="M290.89,115.957c4.593,1.562,9.146-1.531,13.724,0v-7.8c-4.593-1.531-9.151,1.562-13.724,0Z" transform="translate(-264.268 -105.908)" fill="#b0bec5"/>
        <path id="Path_3474" data-name="Path 3474" d="M300.71,108.438v7.793c2.9-.383,5.808-1.276,8.712-.286v-7.8C306.518,107.157,303.614,108.051,300.71,108.438Z" transform="translate(-269.077 -105.897)" opacity="0.2"/>
        <path id="Path_3475" data-name="Path 3475" d="M304.33,112.528c4.593,1.562,9.151-1.531,13.724,0v-7.793c-4.593-1.562-9.146,1.531-13.724,0Z" transform="translate(-270.849 -104.224)" fill="#b0bec5"/>
      </g>
      <g id="freepik--Character--inject-133" transform="translate(66.191 83.293)">
        <path id="Path_3476" data-name="Path 3476" d="M155.87,215.361l1.587,2.552-4.557.582a21.209,21.209,0,0,1,.434-2.5,1.174,1.174,0,0,1,1.383-.888Z" transform="translate(-141.058 -161.676)" fill="#7f3e3b"/>
        <path id="Path_3477" data-name="Path 3477" d="M157.08,224.728l-3.547-1.087-.633-2.419,4.557-.582Z" transform="translate(-141.058 -164.398)" fill="#7f3e3b"/>
        <path id="Path_3478" data-name="Path 3478" d="M184.77,143.952c.541-.168,1.194-.393,1.8-.6s1.225-.439,1.832-.674c1.21-.48,2.409-.975,3.572-1.531a23.476,23.476,0,0,0,6.124-3.9,8.47,8.47,0,0,0,1.021-1.164l.1-.148c.026,0,.133-.26-.077.214a1.919,1.919,0,0,0-.1.852v.153l.026.107a.738.738,0,0,0,.036.1v.061c.066.148.087.138.077.112a2.119,2.119,0,0,0-.122-.189,8.908,8.908,0,0,0-1.143-1.174c-.464-.408-.954-.827-1.465-1.235-2.041-1.633-4.292-3.236-6.471-4.843L191.3,127.6a53.277,53.277,0,0,1,7.655,3.649c.623.367,1.25.745,1.873,1.184a13.718,13.718,0,0,1,1.919,1.577,4.869,4.869,0,0,1,1.1,1.623l.066.179.066.225a1.071,1.071,0,0,0,.056.23,2.486,2.486,0,0,1,.036.281,3.139,3.139,0,0,1-.163,1.358,3.221,3.221,0,0,1-.327.669l-.168.286a13.073,13.073,0,0,1-1.531,2.041,26.371,26.371,0,0,1-7.441,5.323A43.254,43.254,0,0,1,190.455,148q-1.021.4-2.041.75c-.694.245-1.347.444-2.123.663Z" transform="translate(-156.662 -118.841)" fill="#7f3e3b"/>
        <path id="Path_3479" data-name="Path 3479" d="M186.225,125.667l-2.715,1.776,3.889.893,1-2.746Z" transform="translate(-156.045 -117.857)" fill="#7f3e3b"/>
        <path id="Path_3480" data-name="Path 3480" d="M195.433,127.034,192.1,125.59l-1.021,2.741s2.649,2.776,4.328.924Z" transform="translate(-159.752 -117.857)" fill="#7f3e3b"/>
        <path id="Path_3481" data-name="Path 3481" d="M148.28,166.5c-1.255,2.276-2.526,4.629-3.736,6.951s-2.4,4.68-3.389,7.017c-.255.587-.51,1.164-.7,1.74l-.077.194a.2.2,0,0,0,0-.056V182.3a.428.428,0,0,0,0,.26,4.2,4.2,0,0,0,.546,1.215,13.846,13.846,0,0,0,.98,1.409,52.758,52.758,0,0,0,5.313,5.522l-1.572,2.332a31.406,31.406,0,0,1-7-4.833,15.818,15.818,0,0,1-1.577-1.7,9.294,9.294,0,0,1-1.373-2.317,5.41,5.41,0,0,1-.388-1.7,4.548,4.548,0,0,1,.051-1.021,4.359,4.359,0,0,1,.117-.546l.087-.286c.2-.7.424-1.388.658-2.041a77.912,77.912,0,0,1,3.256-7.655c1.215-2.47,2.475-4.859,3.884-7.247Z" transform="translate(-132.441 -136.512)" fill="#7f3e3b"/>
        <path id="Path_3482" data-name="Path 3482" d="M167.152,137.16c-.332,3.45.158,6.788-.612,9.784,0,0,.857,2.781,5.951,2.781,5.614,0,2.552-2.781,2.552-2.781-3.088-.73-3.093-3-2.644-5.129Z" transform="translate(-147.736 -123.522)" fill="#7f3e3b"/>
        <path id="Path_3483" data-name="Path 3483" d="M164.669,155.689c-.434-.878-.919-1.888,0-2.2,1.021-.347,6.492-.7,8.416-.046a2.041,2.041,0,0,1,1.455,2.44Z" transform="translate(-146.564 -131.314)" fill="#263238"/>
        <path id="Path_3484" data-name="Path 3484" d="M142.731,403.2a4.654,4.654,0,0,1-1.021-.367.092.092,0,0,1-.051-.092.1.1,0,0,1,.061-.087c.168-.056,1.628-.577,2.041-.255a.306.306,0,0,1,.107.3.566.566,0,0,1-.3.459A1.215,1.215,0,0,1,142.731,403.2Zm-.714-.439a1.978,1.978,0,0,0,1.439.23.388.388,0,0,0,.2-.316c0-.077,0-.107-.036-.122C143.415,402.385,142.609,402.569,142.017,402.763Z" transform="translate(-135.553 -253.344)" fill="#b0bec5"/>
        <path id="Path_3485" data-name="Path 3485" d="M141.733,401.782l-.051-.025a.1.1,0,0,1-.026-.1c0-.051.357-1.184.9-1.465a.51.51,0,0,1,.434-.036h0a.311.311,0,0,1,.245.311c0,.464-1,1.174-1.46,1.306Zm1.153-1.454a.327.327,0,0,0-.235.041,2.307,2.307,0,0,0-.74,1.153c.475-.225,1.128-.781,1.133-1.056,0-.026,0-.082-.117-.122h0Z" transform="translate(-135.55 -252.282)" fill="#b0bec5"/>
        <path id="Path_3486" data-name="Path 3486" d="M194.192,408.314a4.675,4.675,0,0,1-1.072-.148.1.1,0,0,1-.071-.076.092.092,0,0,1,.046-.1c.148-.1,1.47-.908,1.924-.674a.311.311,0,0,1,.163.276.572.572,0,0,1-.2.51A1.23,1.23,0,0,1,194.192,408.314Zm-.791-.286a1.953,1.953,0,0,0,1.455-.071.388.388,0,0,0,.133-.352c0-.077-.036-.1-.061-.112C194.692,407.37,193.942,407.722,193.4,408.029Z" transform="translate(-160.715 -255.783)" fill="#b0bec5"/>
        <path id="Path_3487" data-name="Path 3487" d="M193.147,407.234a.117.117,0,0,1-.056,0,.107.107,0,0,1-.041-.092c0-.051.1-1.23.577-1.618a.546.546,0,0,1,.413-.128h0a.316.316,0,0,1,.306.255c.087.459-.73,1.352-1.153,1.582Zm.827-1.664a.357.357,0,0,0-.225.087,2.357,2.357,0,0,0-.485,1.286c.424-.322.944-1.021.893-1.271,0-.026,0-.082-.143-.1h-.041Z" transform="translate(-160.716 -254.861)" fill="#b0bec5"/>
        <path id="Path_3488" data-name="Path 3488" d="M184.6,400.411h3.746l.041-8.681h-3.751Z" transform="translate(-156.579 -248.17)" fill="#7f3e3b"/>
        <path id="Path_3489" data-name="Path 3489" d="M133.13,393.813l3.583.694,2.981-8.513-3.583-.694Z" transform="translate(-131.377 -245.022)" fill="#7f3e3b"/>
        <path id="Path_3490" data-name="Path 3490" d="M135.516,401.511l-4.134-.878a.311.311,0,0,0-.352.184l-1.3,3.134a.577.577,0,0,0,.424.771c1.444.281,2.159.347,3.971.735,1.113.235,3.389.842,4.93,1.169s2.006-1.164,1.4-1.439a9.649,9.649,0,0,1-4.394-3.322.934.934,0,0,0-.546-.352Z" transform="translate(-129.696 -252.526)" fill="#263238"/>
        <path id="Path_3491" data-name="Path 3491" d="M187.049,407.89h-4.083a.317.317,0,0,0-.311.255l-.612,3.333a.566.566,0,0,0,.567.663c1.475,0,3.608-.107,5.466-.107,2.169,0,2.276.117,4.823.117,1.531,0,1.9-1.557,1.255-1.7-2.96-.638-3.573-.71-6.18-2.271A1.792,1.792,0,0,0,187.049,407.89Z" transform="translate(-155.323 -256.083)" fill="#263238"/>
        <path id="Path_3492" data-name="Path 3492" d="M147.218,157.5c-3.45.944-7.528,10.483-7.528,10.483l7.921,4.476s1.853-3.379,3.68-7.563C153.2,160.51,152.975,155.932,147.218,157.5Z" transform="translate(-134.589 -133.327)" fill="#263238"/>
        <path id="Path_3493" data-name="Path 3493" d="M176.37,173.81c0,4.185-.281,9.391-.9,15.852H155.409c-.245-2.909.954-16.51-1.9-30.249a2.307,2.307,0,0,1,1.919-2.766c1.215-.179,2.736-.362,4.231-.434a74.131,74.131,0,0,1,8.523,0,33.876,33.876,0,0,1,3.5.51,4.394,4.394,0,0,1,3.4,3.118,38.706,38.706,0,0,1,1.143,7.977C176.329,169.543,176.385,171.523,176.37,173.81Z" transform="translate(-141.331 -132.791)" fill="#263238"/>
        <path id="Path_3494" data-name="Path 3494" d="M178.669,162.437c3.123,1.73,10.3-.245,10.3-.245l-.373-9.722a28.391,28.391,0,0,0-7.564,2.041C176.148,156.492,175.148,160.488,178.669,162.437Z" transform="translate(-152.649 -131.019)" fill="#263238"/>
        <path id="Path_3495" data-name="Path 3495" d="M183.819,154.78s-1.449.51-1.985.669c-1.924,2.113-3.123,6.7-3.123,6.7l2.45,3.236C180.231,160.593,183.819,154.78,183.819,154.78Z" transform="translate(-153.695 -132.15)" fill="#b0bec5"/>
        <path id="Path_3496" data-name="Path 3496" d="M183.819,154.78s-1.449.51-1.985.669c-1.924,2.113-3.123,6.7-3.123,6.7l2.45,3.236C180.231,160.593,183.819,154.78,183.819,154.78Z" transform="translate(-153.695 -132.15)" opacity="0.2"/>
        <path id="Path_3497" data-name="Path 3497" d="M192.876,200.065c-1.914,1.475-5.716-1.955-5.716-1.955l.112,1.74c3.486,2.914,5.548,1.47,5.548,1.47a4.445,4.445,0,0,0,.056-1.255Z" transform="translate(-157.833 -153.366)" fill="#b0bec5"/>
        <path id="Path_3498" data-name="Path 3498" d="M192.876,200.065c-1.914,1.475-5.716-1.955-5.716-1.955l.112,1.74c3.486,2.914,5.548,1.47,5.548,1.47a4.445,4.445,0,0,0,.056-1.255Z" transform="translate(-157.833 -153.366)" opacity="0.2"/>
        <path id="Path_3499" data-name="Path 3499" d="M161,156.09a9.915,9.915,0,0,0-1.7.276,11.978,11.978,0,0,0-.556,6.9l2.2-.99A15.307,15.307,0,0,1,161,156.09Z" transform="translate(-143.785 -132.791)" fill="#b0bec5"/>
        <path id="Path_3500" data-name="Path 3500" d="M161,156.09a9.915,9.915,0,0,0-1.7.276,11.978,11.978,0,0,0-.556,6.9l2.2-.99A15.307,15.307,0,0,1,161,156.09Z" transform="translate(-143.785 -132.791)" opacity="0.2"/>
        <path id="Path_3501" data-name="Path 3501" d="M155.679,167.962c1.2-1.873,10.406-1.664,12.4-.128s4.394,18.286,1.449,20.159-16.531,2.766-16.627-1.021,3-10.37,2.628-12.545S154.051,170.514,155.679,167.962Z" transform="translate(-141.055 -137.947)" fill="#b0bec5"/>
        <path id="Path_3502" data-name="Path 3502" d="M158.6,180.441s3.358,1.307,10.462-.281C167.679,180.885,160.381,182.533,158.6,180.441Z" transform="translate(-143.848 -144.577)" fill="#263238" opacity="0.4"/>
        <path id="Path_3503" data-name="Path 3503" d="M165.643,179.206c.041.311-.133.566-.393.566a.628.628,0,0,1-.546-.566c-.041-.311.133-.567.388-.567A.628.628,0,0,1,165.643,179.206Z" transform="translate(-146.835 -143.833)" fill="#263238" opacity="0.4"/>
        <path id="Path_3504" data-name="Path 3504" d="M181.167,189.58h-.036a.123.123,0,0,1-.087-.158c1.082-3.573.949-8.441-.4-14.54a9.146,9.146,0,0,1,.413-5.486.129.129,0,1,1,.214.143,9.066,9.066,0,0,0-.383,5.287c1.363,6.124,1.5,11.08.4,14.668A.133.133,0,0,1,181.167,189.58Z" transform="translate(-154.534 -139.278)" fill="#263238" opacity="0.4"/>
        <g id="Group_3177" data-name="Group 3177" transform="translate(3.192 140.278)" opacity="0.2">
          <path id="Path_3505" data-name="Path 3505" d="M188.4,391.73l-.02,4.476H184.63l.02-4.476Z" transform="translate(-159.786 -388.448)"/>
          <path id="Path_3506" data-name="Path 3506" d="M137.491,385.3l3.583.694-1.541,4.389-3.583-.694Z" transform="translate(-135.95 -385.3)"/>
        </g>
        <path id="Path_3507" data-name="Path 3507" d="M158.858,221.85s-3.149,28.646-5.073,39.364c-2.1,11.738-13,48.652-13,48.652l-6.716-1.429s7.5-34.516,8.513-46.157c1.092-12.631,3.333-40.451,3.333-40.451Z" transform="translate(-131.838 -164.98)" fill="#b0bec5"/>
        <path id="Path_3508" data-name="Path 3508" d="M141.832,388.544,140.688,391l-7.558-1.608.541-2.292Z" transform="translate(-131.377 -245.903)" fill="#263238"/>
        <path id="Path_3509" data-name="Path 3509" d="M174.712,241.832c-4.879.965-3.654,19.312-2.695,28.748,1.159-6.67,2.741-19.506,3.807-28.616a1.7,1.7,0,0,0-1.113-.133Z" transform="translate(-149.988 -174.754)" opacity="0.2"/>
        <path id="Path_3510" data-name="Path 3510" d="M183.933,221.87s1.6,28.034,1.633,39.466c.031,11.891-2.618,50.832-2.618,50.832H176.6s-1.71-38.246-2.445-49.923c-.8-12.759-3.4-40.374-3.4-40.374Z" transform="translate(-149.798 -165)" fill="#b0bec5"/>
        <path id="Path_3511" data-name="Path 3511" d="M188.908,393.84c.031,0-.255,2.639-.255,2.639h-7.727l-.3-2.353Z" transform="translate(-154.635 -249.203)" fill="#263238"/>
        <path id="Path_3512" data-name="Path 3512" d="M184.413,129.607c.041.3.235.51.434.51s.322-.276.281-.577-.24-.51-.434-.51S184.372,129.306,184.413,129.607Z" transform="translate(-156.484 -119.541)" fill="#263238"/>
        <path id="Path_3513" data-name="Path 3513" d="M184.83,131.2a11.306,11.306,0,0,0,1.8,2.414,1.725,1.725,0,0,1-1.4.419Z" transform="translate(-156.692 -120.604)" fill="#630f0f"/>
        <path id="Path_3514" data-name="Path 3514" d="M183.1,125.971a.194.194,0,0,0,.112-.122.179.179,0,0,0-.128-.219,1.756,1.756,0,0,0-1.531.439.179.179,0,1,0,.24.26,1.378,1.378,0,0,1,1.22-.352.194.194,0,0,0,.087-.005Z" transform="translate(-155.052 -117.86)" fill="#263238"/>
        <path id="Path_3515" data-name="Path 3515" d="M164.467,125.213c.75,3.659,1.021,5.828,3.134,7.528a4.843,4.843,0,0,0,7.9-3.363c.327-3.389-.954-8.8-4.777-9.9a4.894,4.894,0,0,0-6.252,5.731Z" transform="translate(-146.664 -114.755)" fill="#7f3e3b"/>
        <path id="Path_3516" data-name="Path 3516" d="M168.657,121.442c-.623,1.929-4.083,5.614-5.313,5.9s-4.593-2.623-4.894-4.144c-1.225-.138-2.552-2.582-.694-3.542-1.378-.7-1.021-4.348,1.781-4.083-1.7-1.643.342-4.425,2.669-3.685.556-1.419,3.7-2.327,5.512-.143,1.414-.8,3.889.806,3.705,3.205a3.884,3.884,0,0,1-2.725,3.22C169.305,118.891,168.657,121.442,168.657,121.442Z" transform="translate(-142.984 -110.438)" fill="#263238"/>
        <path id="Path_3517" data-name="Path 3517" d="M176.325,129.38a4.42,4.42,0,0,0,1.414,2.358c.944.806,1.7.148,1.679-.959,0-1.021-.536-2.613-1.6-3S176.09,128.283,176.325,129.38Z" transform="translate(-152.504 -118.886)" fill="#7f3e3b"/>
      </g>
    </g>
  </g>
</svg>
