<svg xmlns="http://www.w3.org/2000/svg" width="773.147" height="1422.541" viewBox="0 0 773.147 1422.541">
  <g id="plan-header-mobile" transform="translate(213.021 -122.686)">
    <path id="Path_3518" data-name="Path 3518" d="M9.52,524.42s58.017-234.883,170.549-196.9,103.094,161.49,229.395,200.394S510.336,325.962,628.514,307.785c44.081-6.78-3.291-171.259,28.6-217.821C695.225,48.2,760.76,75.714,806.622,75.714S850.239,29.4,919.8,19.576c97.607-5.91,150.638,9.771,150.638,9.771" transform="matrix(0.259, -0.966, 0.966, 0.259, -231.866, 1389.963)" fill="none" stroke="#db0101" stroke-width="2" stroke-dasharray="11"/>
    <g id="Goal-rafiki_1_" data-name="Goal-rafiki (1)" transform="translate(240.357 1361.108)">
      <g id="freepik--background-complete--inject-133" transform="translate(0 55)">
        <rect id="Rectangle_2764" data-name="Rectangle 2764" width="173.286" height="0.087" transform="translate(0 113.468)" fill="#ebebeb"/>
        <rect id="Rectangle_2765" data-name="Rectangle 2765" width="18.393" height="0.087" transform="translate(137.53 119.044)" fill="#ebebeb"/>
        <rect id="Rectangle_2766" data-name="Rectangle 2766" width="20.33" height="0.087" transform="translate(94.462 117.959)" fill="#ebebeb"/>
        <rect id="Rectangle_2767" data-name="Rectangle 2767" width="6.651" height="0.087" transform="translate(131.767 117.46)" fill="#ebebeb"/>
        <rect id="Rectangle_2768" data-name="Rectangle 2768" width="14.968" height="0.087" transform="translate(34.82 116.41)" fill="#ebebeb"/>
        <rect id="Rectangle_2769" data-name="Rectangle 2769" width="5.351" height="0.087" transform="translate(27.539 116.41)" fill="#ebebeb"/>
        <rect id="Rectangle_2770" data-name="Rectangle 2770" width="18.784" height="0.087" transform="translate(45.564 117.872)" fill="#ebebeb"/>
        <path id="Path_3452" data-name="Path 3452" d="M107.1,153.01H40.189a1.979,1.979,0,0,1-1.979-1.979V56.962A1.979,1.979,0,0,1,40.189,55H107.1a1.979,1.979,0,0,1,1.979,1.979v94.053A1.979,1.979,0,0,1,107.1,153.01ZM40.189,55.069A1.9,1.9,0,0,0,38.3,56.962v94.07a1.9,1.9,0,0,0,1.892,1.892H107.1A1.9,1.9,0,0,0,109,151.032V56.962a1.9,1.9,0,0,0-1.892-1.892Z" transform="translate(-24.968 -55)" fill="#ebebeb"/>
        <path id="Path_3453" data-name="Path 3453" d="M323.4,153.01H256.479a1.982,1.982,0,0,1-1.979-1.979V56.962A1.982,1.982,0,0,1,256.479,55H323.4a1.979,1.979,0,0,1,1.972,1.962v94.07A1.979,1.979,0,0,1,323.4,153.01ZM256.479,55.069a1.9,1.9,0,0,0-1.892,1.892v94.07a1.9,1.9,0,0,0,1.892,1.892H323.4a1.9,1.9,0,0,0,1.892-1.892V56.962a1.9,1.9,0,0,0-1.892-1.892Z" transform="translate(-166.298 -55)" fill="#ebebeb"/>
        <path id="Path_3454" data-name="Path 3454" d="M159.906,211.783c-8.865-11.492-12.969-22.759-23.747-6.179a106.916,106.916,0,0,1-12.217-15.086c-16.791-26.156-33.673-10.051-47.383,7.715S47,248.038,47,248.038H189.708S168.823,223.345,159.906,211.783Z" transform="translate(-30.711 -134.574)" fill="#f5f5f5"/>
        <path id="Path_3455" data-name="Path 3455" d="M225.812,283.961c-4.592-8.619-6.7-17.076-12.331-4.391-5.351,12.064-19.061,31.413-19.061,31.413h46.732S230.4,292.577,225.812,283.961Z" transform="translate(-127.04 -197.519)" fill="#f0f0f0"/>
        <path id="Path_3456" data-name="Path 3456" d="M59.289,81.74a1.535,1.535,0,0,1,.963.3,14.7,14.7,0,0,1,6.63-1.591,5.039,5.039,0,0,1,2.426.593,14.371,14.371,0,0,1,7.306-2.658c1.216,0,1.989.347,2.28.953a17.5,17.5,0,0,1,6.723-1.684c3.14,0,4.221,1.629,3.029,3.916,1.48.038,2.728.943,1.664,1.754H55.64c.042-.052.083-.1.132-.152a5.2,5.2,0,0,1,3.518-1.428Z" transform="translate(-36.357 -69.8)" fill="#fafafa"/>
        <path id="Path_3457" data-name="Path 3457" d="M165.678,112.957a.738.738,0,0,1,.551.215,7.676,7.676,0,0,1,3.941-1.158,2.381,2.381,0,0,1,1.386.433h0a7.9,7.9,0,0,1,4.388-1.934c.693,0,1.147.26,1.289.693a9.055,9.055,0,0,1,4.006-1.227c1.428,0,2.079.717,1.93,1.819a4.7,4.7,0,0,1,1.9-.509c.762,0,1.133.347,1.1.932a1.946,1.946,0,0,1,.2,0c1.164.094,1.643.828,1.113,1.667H163.64a2.949,2.949,0,0,1,2.038-.932Z" transform="translate(-106.927 -90.926)" fill="#fafafa"/>
        <path id="Path_3458" data-name="Path 3458" d="M75.471,145.669a.5.5,0,0,1,.378.149,5.323,5.323,0,0,1,2.728-.8,1.66,1.66,0,0,1,.967.3h0a5.486,5.486,0,0,1,3.033-1.334c.5,0,.794.177.894.478a6.238,6.238,0,0,1,2.773-.849c.988,0,1.442.5,1.338,1.258a3.206,3.206,0,0,1,1.31-.347c.527,0,.783.253.756.645h.139c.808.066,1.133.572.769,1.151H74.06A2.048,2.048,0,0,1,75.471,145.669Z" transform="translate(-48.393 -112.9)" fill="#fafafa"/>
        <circle id="Ellipse_39" data-name="Ellipse 39" cx="12.092" cy="12.092" r="12.092" transform="translate(126.124 5.296)" fill="#f0f0f0"/>
        <path id="Path_3459" data-name="Path 3459" d="M306.769,96.433a1.556,1.556,0,0,1,.963.295,14.744,14.744,0,0,1,6.626-1.591,5.084,5.084,0,0,1,2.426.593,14.385,14.385,0,0,1,7.306-2.655c1.216,0,1.989.347,2.28.95A17.5,17.5,0,0,1,333.1,92.34c3.14,0,4.221,1.629,3.029,3.916,1.48.042,2.728.943,1.664,1.754H303.12c.042-.049.083-.1.132-.152A5.178,5.178,0,0,1,306.769,96.433Z" transform="translate(-198.067 -79.399)" fill="#fafafa"/>
        <path id="Path_3460" data-name="Path 3460" d="M376.494,154.514a.717.717,0,0,1,.551.218,7.67,7.67,0,0,1,3.944-1.161,2.364,2.364,0,0,1,1.386.433h0a7.891,7.891,0,0,1,4.384-1.93c.714,0,1.151.256,1.293.693a9.056,9.056,0,0,1,4-1.227c1.428,0,2.079.717,1.934,1.82a4.685,4.685,0,0,1,1.9-.509c.762,0,1.133.364,1.1.932h.2c1.168.1,1.643.828,1.116,1.667H374.46a2.946,2.946,0,0,1,2.034-.936Z" transform="translate(-244.683 -118.082)" fill="#fafafa"/>
      </g>
      <g id="freepik--Shadow--inject-133" transform="translate(19.446 176.272)">
        <ellipse id="freepik--path--inject-133" cx="67.197" cy="3.923" rx="67.197" ry="3.923" fill="#f5f5f5"/>
      </g>
      <g id="freepik--Goal--inject-133" transform="translate(82.736 72.041)">
        <rect id="Rectangle_2771" data-name="Rectangle 2771" width="0.347" height="2.814" transform="translate(52.62 62.657) rotate(-17.05)" fill="#b0bec5"/>
        <rect id="Rectangle_2772" data-name="Rectangle 2772" width="0.347" height="8.373" transform="translate(49.434 52.267) rotate(-17.05)" fill="#b0bec5"/>
        <path id="Path_3461" data-name="Path 3461" d="M276.949,158H264.621l-25.7,83.777a4.367,4.367,0,0,0,4.176,5.639h55.375a4.367,4.367,0,0,0,4.176-5.646Z" transform="translate(-238.731 -139.344)" fill="#b0bec5"/>
        <path id="Path_3462" data-name="Path 3462" d="M322.647,158h-6.162l-7.815,89.415h35.5a4.367,4.367,0,0,0,4.176-5.646Z" transform="translate(-284.43 -139.344)" fill="#263238" opacity="0.2"/>
        <path id="Path_3463" data-name="Path 3463" d="M343.544,158H340.65l8.82,89.415h15.6a4.367,4.367,0,0,0,4.176-5.646Z" transform="translate(-305.327 -139.344)" fill="#263238" opacity="0.2"/>
        <path id="Path_3464" data-name="Path 3464" d="M264.617,158h2.97l-21.255,89.415H243.1a4.367,4.367,0,0,1-4.176-5.646Z" transform="translate(-238.727 -139.344)" fill="#fff" opacity="0.2"/>
        <path id="Path_3465" data-name="Path 3465" d="M308.959,148.39h0a8.179,8.179,0,0,1,7.9,6.055l3.979,14.8-1.057,4.679-4.048-3.833L311.9,178.9l-3.493-6.124-4.339,6.124-1.885-9.184-3.944,5.226L297.3,168.9l3.743-14.4A8.179,8.179,0,0,1,308.959,148.39Z" transform="translate(-277 -133.065)" fill="#b0bec5"/>
        <path id="Path_3466" data-name="Path 3466" d="M308.959,148.39h0a8.179,8.179,0,0,1,7.9,6.055l3.979,14.8-1.057,4.679-4.048-3.833L311.9,178.9l-3.493-6.124-4.339,6.124-1.885-9.184-3.944,5.226L297.3,168.9l3.743-14.4A8.179,8.179,0,0,1,308.959,148.39Z" transform="translate(-277 -133.065)" fill="#fff" opacity="0.7"/>
        <path id="Path_3467" data-name="Path 3467" d="M296.94,242.562a.346.346,0,0,1-.315-.2l-5.874-12.726a.347.347,0,0,1,.08-.4L313.7,207.811l-14.209-27.684a.367.367,0,0,1-.035-.218l4.97-29.573a.351.351,0,1,1,.693.114l-4.952,29.459,14.272,27.816a.347.347,0,0,1-.069.409L291.5,229.565l5.767,12.508a.347.347,0,0,1-.166.461A.367.367,0,0,1,296.94,242.562Z" transform="translate(-272.7 -134.144)" fill="#fff"/>
        <circle id="Ellipse_40" data-name="Ellipse 40" cx="3.525" cy="3.525" r="3.525" transform="translate(37.175 76.355) rotate(-76.72)" fill="#b0bec5"/>
        <path id="Path_3468" data-name="Path 3468" d="M350.941,313.512a3.871,3.871,0,1,1,3.871-3.871A3.871,3.871,0,0,1,350.941,313.512Zm0-7.046a3.178,3.178,0,1,0,3.178,3.175A3.178,3.178,0,0,0,350.941,306.467Z" transform="translate(-309.522 -235.901)" fill="#fff"/>
        <circle id="Ellipse_41" data-name="Ellipse 41" cx="3.535" cy="3.535" r="3.535" transform="matrix(0.16, -0.987, 0.987, 0.16, 14.677, 97.953)" fill="#b0bec5"/>
        <path id="Path_3469" data-name="Path 3469" d="M284.421,375.842a3.871,3.871,0,1,1,3.871-3.868A3.871,3.871,0,0,1,284.421,375.842Zm0-7.046a3.178,3.178,0,1,0,3.178,3.178A3.178,3.178,0,0,0,284.421,368.8Z" transform="translate(-266.056 -276.629)" fill="#fff"/>
        <circle id="Ellipse_42" data-name="Ellipse 42" cx="3.525" cy="3.525" r="3.525" transform="translate(23.571 42.299)" fill="#b0bec5"/>
        <path id="Path_3470" data-name="Path 3470" d="M309.611,232.962a3.871,3.871,0,1,1,3.871-3.871A3.871,3.871,0,0,1,309.611,232.962Zm0-7.049a3.178,3.178,0,1,0,3.178,3.178A3.178,3.178,0,0,0,309.611,225.913Z" transform="translate(-282.515 -183.268)" fill="#fff"/>
        <circle id="Ellipse_43" data-name="Ellipse 43" cx="3.535" cy="3.535" r="3.535" transform="matrix(0.16, -0.987, 0.987, 0.16, 28.144, 18.83)" fill="#b0bec5"/>
        <path id="Path_3471" data-name="Path 3471" d="M323.951,147.622a3.871,3.871,0,1,1,3.871-3.868,3.871,3.871,0,0,1-3.871,3.868Zm0-7.046a3.178,3.178,0,1,0,3.178,3.178A3.178,3.178,0,0,0,323.951,140.577Z" transform="translate(-291.886 -127.504)" fill="#fff"/>
        <path id="Path_3472" data-name="Path 3472" d="M330.567,120.438a.347.347,0,0,1-.347-.347V104.517a.347.347,0,0,1,.693,0v15.575A.347.347,0,0,1,330.567,120.438Z" transform="translate(-298.511 -104.17)" fill="#b0bec5"/>
        <path id="Path_3473" data-name="Path 3473" d="M290.89,113.314c3.119,1.06,6.211-1.04,9.319,0v-5.3c-3.119-1.04-6.214,1.061-9.319,0Z" transform="translate(-272.812 -106.49)" fill="#b0bec5"/>
        <path id="Path_3474" data-name="Path 3474" d="M300.71,108.2v5.292c1.972-.26,3.944-.866,5.916-.194V108C304.654,107.33,302.682,107.937,300.71,108.2Z" transform="translate(-279.229 -106.474)" opacity="0.2"/>
        <path id="Path_3475" data-name="Path 3475" d="M304.33,109.881c3.119,1.061,6.214-1.04,9.319,0v-5.292c-3.119-1.061-6.211,1.04-9.319,0Z" transform="translate(-281.594 -104.242)" fill="#b0bec5"/>
      </g>
      <g id="freepik--Character--inject-133" transform="translate(44.949 74.213)">
        <path id="Path_3476" data-name="Path 3476" d="M154.917,215.272,155.995,217l-3.095.4a14.4,14.4,0,0,1,.295-1.7.8.8,0,0,1,.939-.6Z" transform="translate(-144.858 -178.815)" fill="#7f3e3b"/>
        <path id="Path_3477" data-name="Path 3477" d="M155.738,223.416l-2.409-.738-.43-1.643,3.095-.4Z" transform="translate(-144.858 -182.447)" fill="#7f3e3b"/>
        <path id="Path_3478" data-name="Path 3478" d="M184.77,138.7c.367-.114.811-.267,1.22-.409s.832-.3,1.244-.457c.821-.326,1.636-.662,2.426-1.04a15.942,15.942,0,0,0,4.159-2.651,5.752,5.752,0,0,0,.693-.79l.069-.1c.017,0,.09-.177-.052.146a1.3,1.3,0,0,0-.069.579v.1l.017.073a.5.5,0,0,0,.024.066v.042c.045.1.059.094.052.076a1.431,1.431,0,0,0-.083-.128,6.048,6.048,0,0,0-.776-.8c-.315-.277-.648-.561-.995-.839-1.386-1.109-2.915-2.2-4.395-3.289l.9-1.688a36.178,36.178,0,0,1,5.2,2.478c.423.25.849.506,1.272.8a9.315,9.315,0,0,1,1.3,1.071,3.306,3.306,0,0,1,.749,1.1l.045.121.045.153a.727.727,0,0,0,.038.156,1.688,1.688,0,0,1,.024.191,2.131,2.131,0,0,1-.111.922,2.188,2.188,0,0,1-.222.454l-.114.194a8.879,8.879,0,0,1-1.04,1.386,17.908,17.908,0,0,1-5.053,3.615,29.378,29.378,0,0,1-2.71,1.206q-.693.27-1.386.509c-.471.166-.915.3-1.442.451Z" transform="translate(-165.683 -121.652)" fill="#7f3e3b"/>
        <path id="Path_3479" data-name="Path 3479" d="M185.354,125.642l-1.844,1.206,2.641.606.676-1.865Z" transform="translate(-164.86 -120.339)" fill="#7f3e3b"/>
        <path id="Path_3480" data-name="Path 3480" d="M194.036,126.571l-2.263-.981-.693,1.861s1.8,1.885,2.939.627Z" transform="translate(-169.806 -120.339)" fill="#7f3e3b"/>
        <path id="Path_3481" data-name="Path 3481" d="M144.115,165.6c-.853,1.546-1.716,3.143-2.537,4.72s-1.629,3.178-2.3,4.765c-.173.4-.347.79-.475,1.182l-.052.132a.139.139,0,0,0,0-.038v-.028a.291.291,0,0,0,0,.177,2.852,2.852,0,0,0,.371.825,9.4,9.4,0,0,0,.665.957,35.826,35.826,0,0,0,3.608,3.75l-1.067,1.584a21.328,21.328,0,0,1-4.751-3.282,10.744,10.744,0,0,1-1.071-1.154,6.311,6.311,0,0,1-.932-1.573,3.674,3.674,0,0,1-.263-1.158,3.087,3.087,0,0,1,.035-.693,2.965,2.965,0,0,1,.08-.371l.059-.194c.139-.475.288-.943.447-1.386a52.909,52.909,0,0,1,2.211-5.2c.825-1.677,1.681-3.3,2.637-4.921Z" transform="translate(-133.359 -145.234)" fill="#7f3e3b"/>
        <path id="Path_3482" data-name="Path 3482" d="M166.956,137.16c-.225,2.343.107,4.609-.416,6.644,0,0,.582,1.889,4.041,1.889,3.812,0,1.733-1.889,1.733-1.889-2.1-.5-2.1-2.034-1.8-3.483Z" transform="translate(-153.771 -127.899)" fill="#7f3e3b"/>
        <path id="Path_3483" data-name="Path 3483" d="M164.5,154.85c-.295-.6-.624-1.282,0-1.5a15.978,15.978,0,0,1,5.715-.031,1.386,1.386,0,0,1,.988,1.657Z" transform="translate(-152.207 -138.297)" fill="#263238"/>
        <path id="Path_3484" data-name="Path 3484" d="M142.387,402.911a3.165,3.165,0,0,1-.693-.249.062.062,0,0,1-.035-.062.066.066,0,0,1,.042-.059c.114-.038,1.106-.392,1.386-.173a.208.208,0,0,1,.073.2.385.385,0,0,1-.2.312A.825.825,0,0,1,142.387,402.911Zm-.485-.3a1.343,1.343,0,0,0,.977.156.263.263,0,0,0,.135-.215c0-.052,0-.073-.024-.083C142.852,402.356,142.3,402.481,141.9,402.613Z" transform="translate(-137.513 -301.146)" fill="#b0bec5"/>
        <path id="Path_3485" data-name="Path 3485" d="M141.707,401.251l-.035-.017a.066.066,0,0,1-.017-.066c0-.035.243-.8.613-.995a.346.346,0,0,1,.295-.024h0a.211.211,0,0,1,.166.211c0,.315-.676.8-.991.887Zm.783-.988a.222.222,0,0,0-.159.028,1.567,1.567,0,0,0-.5.783c.322-.153.766-.53.769-.717,0-.017,0-.055-.08-.083h0Z" transform="translate(-137.508 -299.729)" fill="#b0bec5"/>
        <path id="Path_3486" data-name="Path 3486" d="M193.824,407.981a3.175,3.175,0,0,1-.728-.1.066.066,0,0,1-.049-.052.062.062,0,0,1,.031-.066c.1-.066,1-.617,1.307-.457a.211.211,0,0,1,.111.187.388.388,0,0,1-.135.347A.835.835,0,0,1,193.824,407.981Zm-.537-.194a1.326,1.326,0,0,0,.988-.049.263.263,0,0,0,.09-.239c0-.052-.024-.069-.042-.076C194.164,407.34,193.655,407.579,193.287,407.787Z" transform="translate(-171.091 -304.401)" fill="#b0bec5"/>
        <path id="Path_3487" data-name="Path 3487" d="M193.116,406.644a.079.079,0,0,1-.038,0,.073.073,0,0,1-.028-.062c0-.035.069-.835.392-1.1a.371.371,0,0,1,.281-.087h0a.215.215,0,0,1,.208.173c.059.312-.5.918-.783,1.074Zm.561-1.13a.242.242,0,0,0-.152.059,1.6,1.6,0,0,0-.329.873c.288-.218.641-.693.607-.863,0-.017,0-.055-.1-.066h-.028Z" transform="translate(-171.093 -303.17)" fill="#b0bec5"/>
        <path id="Path_3488" data-name="Path 3488" d="M184.6,397.625h2.544l.028-5.9h-2.547Z" transform="translate(-165.572 -294.242)" fill="#7f3e3b"/>
        <path id="Path_3489" data-name="Path 3489" d="M133.13,391.081l2.433.471,2.024-5.781-2.433-.471Z" transform="translate(-131.94 -290.041)" fill="#7f3e3b"/>
        <path id="Path_3490" data-name="Path 3490" d="M133.648,401.227l-2.807-.6a.211.211,0,0,0-.239.125l-.88,2.128a.392.392,0,0,0,.288.523c.981.191,1.466.236,2.7.5.756.159,2.3.572,3.348.794s1.362-.79.95-.977a6.553,6.553,0,0,1-2.984-2.256.634.634,0,0,0-.371-.239Z" transform="translate(-129.696 -300.055)" fill="#263238"/>
        <path id="Path_3491" data-name="Path 3491" d="M185.439,407.89h-2.773a.215.215,0,0,0-.211.173l-.416,2.263a.385.385,0,0,0,.385.451c1,0,2.45-.073,3.712-.073,1.473,0,1.546.08,3.275.08,1.04,0,1.293-1.057.853-1.154a10.055,10.055,0,0,1-4.2-1.542A1.217,1.217,0,0,0,185.439,407.89Z" transform="translate(-163.895 -304.802)" fill="#263238"/>
        <path id="Path_3492" data-name="Path 3492" d="M144.8,157.4c-2.343.641-5.112,7.119-5.112,7.119l5.379,3.039s1.258-2.294,2.5-5.136C148.867,159.442,148.711,156.334,144.8,157.4Z" transform="translate(-136.226 -140.983)" fill="#263238"/>
        <path id="Path_3493" data-name="Path 3493" d="M169.017,168.123c0,2.842-.191,6.377-.613,10.765h-13.62c-.166-1.975.648-11.212-1.289-20.541a1.566,1.566,0,0,1,1.3-1.878c.825-.121,1.858-.246,2.873-.295a50.342,50.342,0,0,1,5.788,0,23,23,0,0,1,2.377.347,2.984,2.984,0,0,1,2.308,2.118,26.284,26.284,0,0,1,.776,5.417C168.99,165.226,169.028,166.57,169.017,168.123Z" transform="translate(-145.224 -140.268)" fill="#263238"/>
        <path id="Path_3494" data-name="Path 3494" d="M178,159.239c2.121,1.175,7-.166,7-.166l-.253-6.6a19.279,19.279,0,0,0-5.136,1.386C176.285,155.2,175.605,157.915,178,159.239Z" transform="translate(-160.327 -137.903)" fill="#263238"/>
        <path id="Path_3495" data-name="Path 3495" d="M182.179,154.78s-.984.347-1.348.454a13.547,13.547,0,0,0-2.121,4.55l1.664,2.2C179.743,158.727,182.179,154.78,182.179,154.78Z" transform="translate(-161.723 -139.412)" fill="#b0bec5"/>
        <path id="Path_3496" data-name="Path 3496" d="M182.179,154.78s-.984.347-1.348.454a13.547,13.547,0,0,0-2.121,4.55l1.664,2.2C179.743,158.727,182.179,154.78,182.179,154.78Z" transform="translate(-161.723 -139.412)" opacity="0.2"/>
        <path id="Path_3497" data-name="Path 3497" d="M191.042,199.437c-1.3,1-3.882-1.327-3.882-1.327l.076,1.182c2.367,1.979,3.767,1,3.767,1a3.018,3.018,0,0,0,.038-.853Z" transform="translate(-167.245 -167.725)" fill="#b0bec5"/>
        <path id="Path_3498" data-name="Path 3498" d="M191.042,199.437c-1.3,1-3.882-1.327-3.882-1.327l.076,1.182c2.367,1.979,3.767,1,3.767,1a3.018,3.018,0,0,0,.038-.853Z" transform="translate(-167.245 -167.725)" opacity="0.2"/>
        <path id="Path_3499" data-name="Path 3499" d="M160.186,156.09a6.735,6.735,0,0,0-1.154.187,8.134,8.134,0,0,0-.378,4.686l1.5-.672A10.394,10.394,0,0,1,160.186,156.09Z" transform="translate(-148.498 -140.268)" fill="#b0bec5"/>
        <path id="Path_3500" data-name="Path 3500" d="M160.186,156.09a6.735,6.735,0,0,0-1.154.187,8.134,8.134,0,0,0-.378,4.686l1.5-.672A10.394,10.394,0,0,1,160.186,156.09Z" transform="translate(-148.498 -140.268)" opacity="0.2"/>
        <path id="Path_3501" data-name="Path 3501" d="M154.786,167.531c.814-1.272,7.067-1.13,8.418-.087s2.984,12.418.984,13.69-11.225,1.878-11.291-.693,2.034-7.042,1.785-8.519S153.68,169.264,154.786,167.531Z" transform="translate(-144.855 -147.149)" fill="#b0bec5"/>
        <path id="Path_3502" data-name="Path 3502" d="M158.6,180.351s2.28.887,7.1-.191C164.766,180.652,159.81,181.772,158.6,180.351Z" transform="translate(-148.583 -155.996)" fill="#263238" opacity="0.4"/>
        <path id="Path_3503" data-name="Path 3503" d="M165.34,179.025c.028.211-.09.385-.267.385a.426.426,0,0,1-.371-.385c-.028-.211.09-.385.263-.385A.426.426,0,0,1,165.34,179.025Z" transform="translate(-152.567 -155.003)" fill="#263238" opacity="0.4"/>
        <path id="Path_3504" data-name="Path 3504" d="M180.929,183.083H180.9a.083.083,0,0,1-.059-.107c.735-2.426.645-5.732-.27-9.874a6.211,6.211,0,0,1,.281-3.726.087.087,0,1,1,.146.1,6.156,6.156,0,0,0-.26,3.59c.925,4.159,1.015,7.524.27,9.96A.09.09,0,0,1,180.929,183.083Z" transform="translate(-162.843 -148.925)" fill="#263238" opacity="0.4"/>
        <g id="Group_3177" data-name="Group 3177" transform="translate(2.168 95.259)" opacity="0.2">
          <path id="Path_3505" data-name="Path 3505" d="M187.191,391.73l-.014,3.039H184.63l.014-3.039Z" transform="translate(-167.759 -389.502)"/>
          <path id="Path_3506" data-name="Path 3506" d="M137,385.3l2.433.471-1.047,2.981-2.433-.471Z" transform="translate(-135.95 -385.3)"/>
        </g>
        <path id="Path_3507" data-name="Path 3507" d="M150.9,221.844s-2.138,19.453-3.445,26.731c-1.428,7.971-8.827,33.039-8.827,33.039l-4.561-.97s5.095-23.439,5.781-31.344c.742-8.578,2.263-27.469,2.263-27.469Z" transform="translate(-132.554 -183.225)" fill="#b0bec5"/>
        <path id="Path_3508" data-name="Path 3508" d="M139.039,388.081l-.776,1.667-5.133-1.092.367-1.556Z" transform="translate(-131.94 -291.217)" fill="#263238"/>
        <path id="Path_3509" data-name="Path 3509" d="M173.565,241.819c-3.313.655-2.481,13.114-1.83,19.522.787-4.53,1.861-13.246,2.585-19.432a1.154,1.154,0,0,0-.756-.09Z" transform="translate(-156.776 -196.268)" opacity="0.2"/>
        <path id="Path_3510" data-name="Path 3510" d="M179.7,221.87s1.085,19.037,1.109,26.8c.021,8.075-1.778,34.519-1.778,34.519h-4.311s-1.161-25.972-1.66-33.9c-.544-8.664-2.312-27.417-2.312-27.417Z" transform="translate(-156.522 -183.251)" fill="#b0bec5"/>
        <path id="Path_3511" data-name="Path 3511" d="M186.251,393.84c.021,0-.173,1.792-.173,1.792h-5.247l-.2-1.6Z" transform="translate(-162.978 -295.621)" fill="#263238"/>
        <path id="Path_3512" data-name="Path 3512" d="M184.41,129.422c.028.2.159.347.295.347s.218-.187.191-.392-.163-.347-.295-.347S184.383,129.217,184.41,129.422Z" transform="translate(-165.444 -122.587)" fill="#263238"/>
        <path id="Path_3513" data-name="Path 3513" d="M184.83,131.2a7.676,7.676,0,0,0,1.223,1.639,1.171,1.171,0,0,1-.953.284Z" transform="translate(-165.722 -124.004)" fill="#630f0f"/>
        <path id="Path_3514" data-name="Path 3514" d="M182.582,125.851a.132.132,0,0,0,.076-.083.121.121,0,0,0-.087-.149,1.192,1.192,0,0,0-1.04.3.121.121,0,1,0,.163.177.936.936,0,0,1,.828-.239.132.132,0,0,0,.059,0Z" transform="translate(-163.533 -120.343)" fill="#263238"/>
        <path id="Path_3515" data-name="Path 3515" d="M164.43,123.3c.509,2.485.693,3.958,2.128,5.112a3.289,3.289,0,0,0,5.361-2.284c.222-2.3-.648-5.975-3.244-6.72a3.324,3.324,0,0,0-4.245,3.892Z" transform="translate(-152.34 -116.199)" fill="#7f3e3b"/>
        <path id="Path_3516" data-name="Path 3516" d="M164.863,117.911c-.423,1.31-2.773,3.812-3.608,4.006s-3.119-1.781-3.324-2.814c-.832-.094-1.733-1.754-.471-2.405a1.6,1.6,0,0,1,1.21-2.773c-1.158-1.116.232-3,1.813-2.5.378-.963,2.513-1.58,3.743-.1.96-.541,2.641.548,2.516,2.176a2.637,2.637,0,0,1-1.851,2.187C165.3,116.178,164.863,117.911,164.863,117.911Z" transform="translate(-147.429 -110.438)" fill="#263238"/>
        <path id="Path_3517" data-name="Path 3517" d="M176.31,128.838a3,3,0,0,0,.96,1.6c.641.548,1.154.1,1.14-.652a2.267,2.267,0,0,0-1.085-2.034C176.6,127.494,176.151,128.093,176.31,128.838Z" transform="translate(-160.134 -121.712)" fill="#7f3e3b"/>
      </g>
    </g>
    <g id="Goal-pana" transform="translate(41.77 89.006)">
      <g id="freepik--background-complete--inject-4" transform="translate(18.48 44.953)">
        <path id="Path_3260" data-name="Path 3260" d="M235.2,154.989,198.61,123.7l.38-.439,36.124,30.882,43.764-55.973L296.1,110.64l35.164-46.35.468.351-35.515,46.806L278.989,98.981Z" transform="translate(-93.234 -57.656)" fill="#ebebeb"/>
        <path id="Path_3261" data-name="Path 3261" d="M41.356,303.843a1.983,1.983,0,1,1-1.983-1.983,1.983,1.983,0,0,1,1.983,1.983Z" transform="translate(-26.328 -156.247)" fill="#ebebeb"/>
        <circle id="Ellipse_30" data-name="Ellipse 30" cx="3.914" cy="3.914" r="3.914" transform="translate(101.65 61.917)" fill="#ebebeb"/>
        <path id="Path_3262" data-name="Path 3262" d="M40.843,248.476l-.433-.392,42.664-47.128,9.641,8.383,38.446-41.36.427.4L92.756,210.153l-9.635-8.377Z" transform="translate(-27.581 -100.687)" fill="#ebebeb"/>
        <circle id="Ellipse_31" data-name="Ellipse 31" cx="5.101" cy="5.101" r="5.101" transform="translate(233.346)" fill="#4caf50"/>
        <path id="Path_3263" data-name="Path 3263" d="M426.8,58.69a19.388,19.388,0,0,1-2.229,2.673l-.842.913-.088.094-.1-.076a10.456,10.456,0,0,1-1.726-1.439,10.992,10.992,0,0,1,1.89,1.211h-.187l.825-.924A20.333,20.333,0,0,1,426.8,58.69Z" transform="translate(-185.865 -55.332)" fill="#fff"/>
        <path id="Path_3264" data-name="Path 3264" d="M97.505,139.088c.5-3.65-4.645-6.646-8.512-6.962-1.843-.146-3.756.135-5.5-.474-3.785-1.316-5.265-6.207-8.986-7.763-2.761-1.17-5.944-.129-8.617,1.217s-5.324,3.042-8.313,3.235c-2.6.164-5.423-.8-7.7.474-1.7.942-2.586,2.925-4.148,4.048a9.994,9.994,0,0,1-5.417,1.474,15.34,15.34,0,0,0-5.593.913c-1.732.79-3.153,2.615-2.8,4.481Z" transform="translate(-24.035 -82.179)" fill="#ebebeb"/>
        <path id="Path_3266" data-name="Path 3266" d="M437.692,130.027c.17-1.223-1.556-2.223-2.855-2.34a7.452,7.452,0,0,1-1.849-.164c-1.27-.439-1.755-2.083-3.013-2.6a3.543,3.543,0,0,0-2.89.41,7.536,7.536,0,0,1-2.79,1.082c-.872.059-1.819-.263-2.58.164-.585.316-.866.971-1.392,1.357a3.294,3.294,0,0,1-1.819.491,5.054,5.054,0,0,0-1.872.31,1.474,1.474,0,0,0-.936,1.5Z" transform="translate(-183.321 -82.747)" fill="#f5f5f5"/>
        <path id="Path_3267" data-name="Path 3267" d="M105.3,76.177c.164-1.223-1.562-2.229-2.855-2.34a7.453,7.453,0,0,1-1.849-.164c-1.269-.439-1.755-2.083-3.013-2.6a3.541,3.541,0,0,0-2.89.41,7.347,7.347,0,0,1-2.79,1.082c-.872.058-1.819-.263-2.58.158-.585.322-.866.977-1.392,1.363a3.311,3.311,0,0,1-1.819.491,5.036,5.036,0,0,0-1.872.31A1.486,1.486,0,0,0,83.3,76.4Z" transform="translate(-45.376 -60.399)" fill="#fafafa"/>
        <path id="Path_3268" data-name="Path 3268" d="M140.75,258.264l11.606-25.787,11.922-7.16,7.406-16.117,21.271,4.978,15.865,48.666-24.558,12.069L164.279,287.1Z" transform="translate(-69.222 -117.793)" fill="#f5f5f5"/>
        <path id="Path_3269" data-name="Path 3269" d="M412.367,335.056l-21-41.91L381.655,278.6,370.2,225.632,356.406,214.16l-13.859,19.305-18.931,4.715-17.456,16.7L341.3,292.158,362,314l16.175,30.209,31.046,29.35C408.91,373.269,412.367,335.056,412.367,335.056Z" transform="translate(-137.867 -119.852)" fill="#ebebeb"/>
        <path id="Path_3270" data-name="Path 3270" d="M18.48,402.654l2.141-28.443,11.437-17.778L39.546,322.6,53.159,314.6,69.978,286.32,86,275.48l33.234,32.865,21.938-23.628,16.912,5.634-6.967,8.664-17.591,3.4-34.65,30.215L71.926,347.488l-7.184,12.975-15.59,2.281Z" transform="translate(-18.48 -145.3)" fill="#ebebeb"/>
      </g>
      <g id="freepik--Plants--inject-4" transform="translate(87.025 198.27)">
        <path id="Path_3271" data-name="Path 3271" d="M151.02,328.976c-.942,1.34-2.773.895-3.621.076a6.828,6.828,0,0,1-1.533-3.141c-.743-2.592-1.5-5.306-.942-7.944a4.4,4.4,0,0,1,1.018-2.165,2.3,2.3,0,0,1,2.182-.725,3.445,3.445,0,0,1,1.913,2.007,18.984,18.984,0,0,1,1.872,8.126,6.634,6.634,0,0,1-.889,3.767" transform="translate(-139.419 -315.029)" fill="#db0101"/>
        <g id="Group_3162" data-name="Group 3162" transform="translate(5.312)" opacity="0.2">
          <path id="Path_3272" data-name="Path 3272" d="M151.02,328.976c-.942,1.34-2.773.895-3.621.076a6.828,6.828,0,0,1-1.533-3.141c-.743-2.592-1.5-5.306-.942-7.944a4.4,4.4,0,0,1,1.018-2.165,2.3,2.3,0,0,1,2.182-.725,3.445,3.445,0,0,1,1.913,2.007,18.984,18.984,0,0,1,1.872,8.126,6.634,6.634,0,0,1-.889,3.767" transform="translate(-144.732 -315.029)"/>
        </g>
        <path id="Path_3273" data-name="Path 3273" d="M143.723,349.952a8.156,8.156,0,0,0-5.06-.614,4.2,4.2,0,0,0-2.5,1.117,1.768,1.768,0,0,0,0,2.492,2.4,2.4,0,0,0,1.574.4c1.34,0,2.82-.252,3.89.55.585.462,1.012,1.223,1.755,1.451a1.755,1.755,0,0,0,1.9-.848,2.925,2.925,0,0,0,.216-2.17,3.323,3.323,0,0,0-1.773-2.381Z" transform="translate(-135.651 -329.202)" fill="#db0101"/>
        <path id="Path_3274" data-name="Path 3274" d="M159.178,333.967a4.908,4.908,0,0,1-.761-4.5,8.717,8.717,0,0,1,2.668-3.867,14.326,14.326,0,0,1,4.774-2.814,5.025,5.025,0,0,1,2.147-.363,2.246,2.246,0,0,1,1.8,1.088c.5.959,0,2.118-.5,3.065a35.9,35.9,0,0,1-3.136,4.774,8.428,8.428,0,0,1-3.446,2.954c-1.433.544-2.925.486-3.68-.509" transform="translate(-144.998 -318.096)" fill="#db0101"/>
        <path id="Path_3275" data-name="Path 3275" d="M150.622,364.769a2.978,2.978,0,0,1-.088-.585c-.041-.445-.1-1.006-.164-1.667a23.984,23.984,0,0,0-.374-2.445,18.5,18.5,0,0,0-.889-2.884,10.433,10.433,0,0,0-1.474-2.609,5.388,5.388,0,0,0-1.86-1.55,5.223,5.223,0,0,0-1.568-.491,2.976,2.976,0,0,1-.585-.088,2.97,2.97,0,0,1,.62,0,4.641,4.641,0,0,1,1.632.421,5.465,5.465,0,0,1,1.966,1.562,10.232,10.232,0,0,1,1.527,2.668,17.721,17.721,0,0,1,.883,2.925,20.867,20.867,0,0,1,.328,2.474c.053.708.07,1.281.082,1.679a3.89,3.89,0,0,1-.035.591Z" transform="translate(-138.958 -330.551)" fill="#263238"/>
        <path id="Path_3276" data-name="Path 3276" d="M153.191,351.788a.911.911,0,0,1,0-.287v-.807c0-.7,0-1.72-.035-2.978-.059-2.516-.275-5.985-.7-9.8s-.977-7.242-1.486-9.705c-.123-.585-.24-1.17-.357-1.656s-.2-.913-.292-1.252-.135-.585-.187-.784a.931.931,0,0,1-.047-.281,1.358,1.358,0,0,1,.094.263c.064.2.14.462.24.778s.211.755.333,1.24.257,1.035.392,1.656a91.321,91.321,0,0,1,1.562,9.717c.421,3.82.585,7.3.626,9.816,0,1.264,0,2.281-.047,2.983,0,.333-.035.585-.047.813A1.9,1.9,0,0,1,153.191,351.788Z" transform="translate(-141.643 -318.852)" fill="#263238"/>
        <path id="Path_3277" data-name="Path 3277" d="M155.349,346.534a5.89,5.89,0,0,1,0-.848,16.717,16.717,0,0,1,.257-2.293,30.638,30.638,0,0,1,.749-3.34,29.069,29.069,0,0,1,1.4-3.955,21.06,21.06,0,0,1,4.095-6.388,10,10,0,0,1,.965-.9c.146-.129.281-.252.415-.351l.374-.257a5.213,5.213,0,0,1,.708-.456,25.361,25.361,0,0,0-2.34,2.083,22.229,22.229,0,0,0-4,6.365,32.3,32.3,0,0,0-1.4,3.919c-.369,1.229-.585,2.34-.8,3.305a20.173,20.173,0,0,0-.333,2.27A5.666,5.666,0,0,1,155.349,346.534Z" transform="translate(-143.819 -320.308)" fill="#263238"/>
        <path id="Path_3278" data-name="Path 3278" d="M440.4,402.68a4.019,4.019,0,0,0-2.884,1.281,7.115,7.115,0,0,0-1.585,2.8,12.824,12.824,0,0,0,0,6.435c2.229-.661,3.7-2.925,4.382-4.1,1.065-1.884,1.854-5.938.07-6.4" transform="translate(-260.093 -351.404)" fill="#db0101"/>
        <path id="Path_3279" data-name="Path 3279" d="M427.278,420.37a3.446,3.446,0,0,0,.585-3.4,4.575,4.575,0,0,0-2.451-2.539,1.9,1.9,0,0,0-1.615-.129,1.474,1.474,0,0,0-.737,1.293,3,3,0,0,0,.45,1.486c.872,1.562,2,2.925,3.756,3.288" transform="translate(-254.925 -356.177)" fill="#db0101"/>
        <path id="Path_3280" data-name="Path 3280" d="M428.321,428.553a1.431,1.431,0,0,0,.135-.415c.07-.275.164-.673.269-1.17a14.894,14.894,0,0,0,.351-3.937,7.418,7.418,0,0,0-1.246-3.738,4.971,4.971,0,0,0-.807-.9,1.17,1.17,0,0,0-.363-.257,10.085,10.085,0,0,1,1.03,1.246,7.735,7.735,0,0,1,1.17,3.662,17.1,17.1,0,0,1-.281,3.89A13.431,13.431,0,0,0,428.321,428.553Z" transform="translate(-256.419 -357.82)" fill="#263238"/>
        <path id="Path_3281" data-name="Path 3281" d="M436.852,407.84a3.74,3.74,0,0,0-.363.626c-.222.415-.532,1.012-.907,1.755-.749,1.486-1.755,3.563-2.8,5.879s-1.942,4.44-2.562,5.99c-.316.772-.585,1.4-.72,1.837a4.244,4.244,0,0,0-.234.684,3.634,3.634,0,0,0,.316-.649l.79-1.808c.661-1.533,1.579-3.639,2.627-5.955s2.024-4.4,2.732-5.909l.837-1.79a4.922,4.922,0,0,0,.281-.661Z" transform="translate(-257.502 -353.546)" fill="#263238"/>
        <path id="Path_3282" data-name="Path 3282" d="M434.488,426.188a8.038,8.038,0,0,1,6.371-3.668c.644,0,1.422.111,1.691.7s-.14,1.269-.585,1.755a6.879,6.879,0,0,1-7.494,1.416" transform="translate(-259.66 -359.638)" fill="#db0101"/>
        <path id="Path_3283" data-name="Path 3283" d="M437.934,425.429a1.456,1.456,0,0,0-.421,0,3.23,3.23,0,0,0-.5.035,6.5,6.5,0,0,0-.649.088,8.193,8.193,0,0,0-1.632.486,9.55,9.55,0,0,0-1.837,1.006,9.851,9.851,0,0,0-1.55,1.4,8.4,8.4,0,0,0-.989,1.392,5.076,5.076,0,0,0-.3.585,2.933,2.933,0,0,0-.187.456,1.672,1.672,0,0,0-.123.4c.047,0,.246-.55.749-1.357a8.921,8.921,0,0,1,1.012-1.334,9.548,9.548,0,0,1,3.305-2.34,9.046,9.046,0,0,1,1.585-.521C437.332,425.482,437.934,425.476,437.934,425.429Z" transform="translate(-257.701 -360.839)" fill="#263238"/>
      </g>
      <g id="freepik--Mountain--inject-4" transform="translate(18.48 176.853)">
        <path id="Path_3284" data-name="Path 3284" d="M334.5,447.1a1.932,1.932,0,0,1-.339,0l-.977.029-3.633.047-12.285.047.117-.053-2.153,2.621-9.3,11.255-2.849,3.387-.784.913a1.94,1.94,0,0,1-.293.3,2.619,2.619,0,0,1,.246-.345l.743-.948,2.767-3.446,9.237-11.314c.737-.895,1.462-1.755,2.153-2.621l.047-.053h.07l12.285.053,3.633.047h.977a1.55,1.55,0,0,1,.339.076Z" transform="translate(-136.14 -348.347)" fill="#263238"/>
        <path id="Path_3285" data-name="Path 3285" d="M201.124,402.153l-36.358-1.193-10.074,13.046-15.959,7.1-8.664,18.387,10.085-11.706,19.41-3.253,13.824-14.409Z" transform="translate(-64.79 -329.274)" fill="#f5f5f5"/>
        <path id="Path_3286" data-name="Path 3286" d="M18.48,403.874s.17-.24.521-.7l1.556-2.047,6.031-7.9c5.265-6.874,12.923-16.86,22.482-29.32v-.035h.041l15.59-2.293-.082.053c2.252-4.1,4.68-8.442,7.172-12.981h.035l26.91-14.865h0l34.708-30.256h.07l17.585-3.4-.088.053,8.962-11.156,8.483-10.53.059-.07h.094l19.147,4.259h.047l.029.035,54.879,57.915h0c6.084,11.4,11.5,21.516,16.146,30.221h0L281.672,392.5l6.061,5.762,1.556,1.492c.351.333.521.509.521.509l-.538-.491L287.7,398.3l-6.1-5.733-22.909-21.587h0l-16.193-30.2h0l-54.914-57.857.076.047-19.118-4.282.152-.053-8.483,10.53-8.986,11.168-.035.047h-.053l-17.591,3.4.07-.035-34.661,30.21h0L72.008,348.784l.053-.047-7.2,12.975v.047h-.058l-15.6,2.276.064-.041c-9.582,12.443-17.263,22.406-22.552,29.25L20.6,401.159l-1.58,2.03C18.667,403.646,18.48,403.874,18.48,403.874Z" transform="translate(-18.48 -278.42)" fill="#263238"/>
        <path id="Path_3287" data-name="Path 3287" d="M203.314,402.23l-.146.053-.445.135-1.714.491-6.435,1.8-22.23,6.09.07-.035c-2.738,2.849-5.7,5.938-8.775,9.132l-5.06,5.265-.035.035H158.5L139.1,428.421l.07-.041-8.506,9.787-2.34,2.685-.626.7c-.14.152-.222.228-.222.228s.064-.088.2-.251.339-.415.585-.72c.538-.644,1.316-1.556,2.3-2.726l8.43-9.857.029-.035h.041l19.4-3.276-.082.041c1.644-1.714,3.335-3.475,5.054-5.265l8.775-9.126h.064l22.23-5.99,6.435-1.708,1.755-.445.445-.111Z" transform="translate(-63.715 -329.801)" fill="#263238"/>
        <path id="Path_3288" data-name="Path 3288" d="M307.11,380.892c0,.082-7.909.152-17.667.152s-17.673-.07-17.673-.152,7.909-.152,17.673-.152S307.11,380.828,307.11,380.892Z" transform="translate(-123.595 -320.883)" fill="#263238"/>
      </g>
      <g id="freepik--Character--inject-4" transform="translate(71.434 33.68)">
        <path id="Path_3289" data-name="Path 3289" d="M331.672,217.622a27.072,27.072,0,0,0-.181-3.352l-6.839,1.521a61.413,61.413,0,0,0-.784,6.435l7.675,2.124S331.672,217.815,331.672,217.622Z" transform="translate(-198.163 -108.625)" fill="#ffbe9d"/>
        <path id="Path_3290" data-name="Path 3290" d="M335.825,227.565a.437.437,0,0,1,.035-.146c.082-.749,0-4-.363-4.136s-1.556.094-1.638.526.187,4.1.187,4.1.076.585,1.047.714C335.69,228.7,335.825,227.565,335.825,227.565Z" transform="translate(-202.31 -112.349)" fill="#ffbe9d"/>
        <path id="Path_3291" data-name="Path 3291" d="M332.5,229.565a.436.436,0,0,1,.035-.146c.076-.749.029-4-.369-4.136s-1.556.094-1.632.526.181,4.1.181,4.1.082.585,1.053.714C332.361,230.7,332.5,229.565,332.5,229.565Z" transform="translate(-200.929 -113.179)" fill="#ffbe9d"/>
        <path id="Path_3292" data-name="Path 3292" d="M329.236,230.56a.566.566,0,0,1,.029-.152c.082-.743.035-4-.363-4.136s-1.556.1-1.632.526.181,4.1.181,4.1.082.585,1.047.72C329.1,231.694,329.236,230.56,329.236,230.56Z" transform="translate(-199.576 -113.588)" fill="#ffbe9d"/>
        <path id="Path_3293" data-name="Path 3293" d="M325.986,231.5a.482.482,0,0,1,.035-.152c.076-.743.029-4-.369-4.136s-1.556.1-1.632.526.187,4.1.187,4.1.076.585,1.047.72C325.851,232.629,325.986,231.5,325.986,231.5Z" transform="translate(-198.227 -113.979)" fill="#ffbe9d"/>
        <path id="Path_3294" data-name="Path 3294" d="M333.791,225.83a6.7,6.7,0,0,1,.152,1.585,5.851,5.851,0,0,1-.053,1.568,6.7,6.7,0,0,1-.152-1.585A5.807,5.807,0,0,1,333.791,225.83Z" transform="translate(-202.254 -113.422)" fill="#eb996e"/>
        <path id="Path_3295" data-name="Path 3295" d="M330.525,225.81a24.9,24.9,0,0,1,.158,4.51,13.377,13.377,0,0,1-.181-2.252A12.65,12.65,0,0,1,330.525,225.81Z" transform="translate(-200.906 -113.414)" fill="#eb996e"/>
        <g id="Group_3163" data-name="Group 3163" transform="translate(127.608 112.56)" opacity="0.78">
          <path id="Path_3296" data-name="Path 3296" d="M327.2,226.09a24.907,24.907,0,0,1,.158,4.51,13.374,13.374,0,0,1-.181-2.252A12.567,12.567,0,0,1,327.2,226.09Z" transform="translate(-327.132 -226.09)" fill="#eb996e"/>
        </g>
        <path id="Path_3297" data-name="Path 3297" d="M323.482,217.18s-2.709,6.148-2.311,6.529a9.084,9.084,0,0,0,1.638.971Z" transform="translate(-197.034 -109.832)" fill="#ffbe9d"/>
        <path id="Path_3298" data-name="Path 3298" d="M286.54,69.346l-1.983,23-11.519-.918c-.07-1.345,0-6.546,0-6.546s-4.791-.749-4.85-5.54c-.029-2.34.3-7.137.655-11.472a8.863,8.863,0,0,1,9.36-8.137h0a8.863,8.863,0,0,1,8.336,9.617Z" transform="translate(-175.062 -44.484)" fill="#ffbe9d"/>
        <path id="Path_3299" data-name="Path 3299" d="M276.5,101.365a11.115,11.115,0,0,0,6.248-1.755s-1.474,3.452-6.26,3.019Z" transform="translate(-178.508 -61.041)" fill="#eb996e"/>
        <path id="Path_3300" data-name="Path 3300" d="M272.52,78.953a.7.7,0,0,0,.661.7.667.667,0,0,0,.708-.62.684.684,0,0,0-.661-.69.655.655,0,0,0-.708.614Z" transform="translate(-176.86 -52.212)" fill="#263238"/>
        <path id="Path_3301" data-name="Path 3301" d="M271.088,77.267c.082.094.585-.293,1.34-.293s1.275.374,1.357.281-.047-.2-.287-.369a1.854,1.854,0,0,0-2.147,0C271.123,77.069,271.029,77.226,271.088,77.267Z" transform="translate(-176.259 -51.469)" fill="#263238"/>
        <path id="Path_3302" data-name="Path 3302" d="M284.61,78.959a.69.69,0,0,0,.661.69.655.655,0,0,0,.7-.62.679.679,0,0,0-.655-.69.655.655,0,0,0-.708.62Z" transform="translate(-181.878 -52.212)" fill="#263238"/>
        <path id="Path_3303" data-name="Path 3303" d="M283.463,77.489c.088.088.585-.3,1.34-.293s1.275.369,1.357.281-.047-.2-.281-.374a1.907,1.907,0,0,0-1.088-.333,1.755,1.755,0,0,0-1.065.345C283.5,77.3,283.422,77.489,283.463,77.489Z" transform="translate(-181.397 -51.562)" fill="#263238"/>
        <path id="Path_3304" data-name="Path 3304" d="M277.611,82.98a5.088,5.088,0,0,0-1.17-.216c-.187,0-.369-.053-.4-.181a.954.954,0,0,1,.123-.585c.181-.456.363-.936.585-1.433A24.62,24.62,0,0,0,278,76.82a24.28,24.28,0,0,0-1.55,3.633c-.181.5-.363.983-.532,1.439a1.077,1.077,0,0,0-.094.737.45.45,0,0,0,.31.275,1.089,1.089,0,0,0,.316.047A4.681,4.681,0,0,0,277.611,82.98Z" transform="translate(-178.219 -51.583)" fill="#263238"/>
        <path id="Path_3305" data-name="Path 3305" d="M280.946,88.22c-.123,0-.123.8-.807,1.363s-1.533.48-1.539.585.187.152.55.164a1.983,1.983,0,0,0,1.287-.45,1.7,1.7,0,0,0,.62-1.135C281.086,88.413,281,88.22,280.946,88.22Z" transform="translate(-179.384 -56.314)" fill="#263238"/>
        <path id="Path_3306" data-name="Path 3306" d="M283.147,72.689c.07.2.807.105,1.673.211s1.562.339,1.673.164-.07-.275-.351-.468a2.825,2.825,0,0,0-1.24-.439,2.925,2.925,0,0,0-1.31.152C283.275,72.438,283.112,72.6,283.147,72.689Z" transform="translate(-181.269 -49.64)" fill="#263238"/>
        <path id="Path_3307" data-name="Path 3307" d="M271.546,73.609c.129.17.638,0,1.246,0s1.129.111,1.246-.064-.029-.252-.252-.41a1.819,1.819,0,0,0-2.012.059C271.564,73.357,271.488,73.527,271.546,73.609Z" transform="translate(-176.449 -49.939)" fill="#263238"/>
        <path id="Path_3308" data-name="Path 3308" d="M287.786,60.837a1.813,1.813,0,0,0-1.5-1.907,2.211,2.211,0,0,0-3.165-2.785,2.872,2.872,0,0,0-5.06-1.024,3.042,3.042,0,0,0-5.142.813,3.34,3.34,0,0,0-4.937.7,4.493,4.493,0,0,0-1.638-.263,1.989,1.989,0,0,0-1.726,1.094,1.3,1.3,0,0,0,.491,1.544,1.591,1.591,0,1,0-.72,3.089.913.913,0,0,0-.5.837,1.708,1.708,0,0,0,1.123,1.24,6.154,6.154,0,0,0,4.37-.07c1.416-.474,2.726-1.217,4.13-1.755s3.75-1.433,5.16-.936a2.584,2.584,0,0,1,.585.3,3.8,3.8,0,0,1,1.392,2.434.516.516,0,0,1,0,.094c.187,1.369.158,2.755.357,4.1a6.2,6.2,0,0,0,1.679,3.691c.415.386,1.17.655,1.492.2a1.094,1.094,0,0,0,.17-.626c.187-2.381.7-4.569.977-6.9a6.9,6.9,0,0,1,1.3-1.58A3.714,3.714,0,0,0,287.786,60.837Z" transform="translate(-172.92 -42.111)" fill="#263238"/>
        <path id="Path_3309" data-name="Path 3309" d="M280.87,59.545a1.117,1.117,0,0,1-.064-.638,2.434,2.434,0,0,1,.766-1.574,2.5,2.5,0,0,1,2.516-.5,1.943,1.943,0,0,1,1.17,1.059,1.346,1.346,0,0,1,.035.883,1.041,1.041,0,0,1-.62.69,1,1,0,0,1-.93-.105.924.924,0,0,1-.339-.848,1.17,1.17,0,0,1,.386-.761,1.813,1.813,0,0,1,.7-.386,2.925,2.925,0,0,1,2.551.415,1.755,1.755,0,0,1,.62.819,1.422,1.422,0,0,1,.041.772c-.111.421-.351.55-.351.538a1.614,1.614,0,0,0,.234-.585,1.346,1.346,0,0,0-.082-.69,1.65,1.65,0,0,0-.585-.7,2.761,2.761,0,0,0-2.34-.328,1.17,1.17,0,0,0-.877.913.626.626,0,0,0,.228.585.679.679,0,0,0,.638.064.9.9,0,0,0,.421-1.17,1.7,1.7,0,0,0-1-.907,2.34,2.34,0,0,0-2.282.392,2.474,2.474,0,0,0-.8,1.433C280.858,59.317,280.911,59.545,280.87,59.545Z" transform="translate(-180.291 -43.229)" fill="#455a64"/>
        <path id="Path_3310" data-name="Path 3310" d="M290.88,56.266a1.247,1.247,0,0,1,.433-.082,4.832,4.832,0,0,1,1.205.035,2.8,2.8,0,0,1,1.615.819,1.8,1.8,0,0,1,.252,2.17,1.408,1.408,0,0,1-.257.3l-.158-.257a1.258,1.258,0,0,1,1.141.152,1.4,1.4,0,0,1,.614.86,2.071,2.071,0,0,1-.374,1.661,3.147,3.147,0,0,1-.819.766c-.222.146-.351.2-.363.187s.1-.105.293-.275a3.859,3.859,0,0,0,.72-.8,1.907,1.907,0,0,0,.275-1.474,1.128,1.128,0,0,0-.5-.684.983.983,0,0,0-.872-.117l-.784.316.632-.585a1.168,1.168,0,0,0,.2-.234,1.433,1.433,0,0,0,.193-.965,1.6,1.6,0,0,0-.4-.848,2.7,2.7,0,0,0-1.445-.8C291.535,56.243,290.88,56.33,290.88,56.266Z" transform="translate(-184.48 -43.01)" fill="#455a64"/>
        <path id="Path_3311" data-name="Path 3311" d="M301.482,65c.035,0,.123.164.123.456a1.632,1.632,0,0,1-1.433,1.6c-.292,0-.468-.035-.462-.076a2.924,2.924,0,0,0,1.252-.655A2.879,2.879,0,0,0,301.482,65Z" transform="translate(-188.144 -46.678)" fill="#455a64"/>
        <path id="Path_3312" data-name="Path 3312" d="M267.75,60.2a1.323,1.323,0,0,1,.45-.369,3.13,3.13,0,0,1,3.7.491,1.825,1.825,0,0,1,.585,1.322,1.111,1.111,0,0,1-1.147,1.047.843.843,0,0,1-.685-.521,1.169,1.169,0,0,1-.053-.8,1.532,1.532,0,0,1,1.035-1.018,1.954,1.954,0,0,1,1.293,0,2.79,2.79,0,0,1,.948.585,4.732,4.732,0,0,1,.948,1.264,1.856,1.856,0,0,1,.228.526,3.115,3.115,0,0,1-.333-.468,5.177,5.177,0,0,0-.983-1.17,2.106,2.106,0,0,0-2.007-.5,1.281,1.281,0,0,0-.842.819c-.111.386.07.913.48.942a.819.819,0,0,0,.8-.761,1.556,1.556,0,0,0-.474-1.106,2.925,2.925,0,0,0-1.971-.86,3.2,3.2,0,0,0-1.468.281,4.928,4.928,0,0,1-.5.292Z" transform="translate(-174.881 -44.37)" fill="#455a64"/>
        <path id="Path_3313" data-name="Path 3313" d="M296.667,79.774c.082-.035,3.294-.971,3.188,2.3s-3.37,2.492-3.375,2.4S296.667,79.774,296.667,79.774Z" transform="translate(-186.804 -52.747)" fill="#ffbe9d"/>
        <path id="Path_3314" data-name="Path 3314" d="M298.258,84.018a1.318,1.318,0,0,0,.152.088.585.585,0,0,0,.427,0,1.416,1.416,0,0,0,.69-1.246,1.978,1.978,0,0,0-.129-.825.673.673,0,0,0-.415-.45.286.286,0,0,0-.345.146c-.047.088-.029.152-.047.158s-.064-.053-.035-.187a.38.38,0,0,1,.135-.2.439.439,0,0,1,.316-.07.807.807,0,0,1,.585.527,1.954,1.954,0,0,1,.164.918,1.474,1.474,0,0,1-.878,1.386.62.62,0,0,1-.515-.1C298.264,84.1,298.246,84.023,298.258,84.018Z" transform="translate(-187.54 -53.492)" fill="#eb996e"/>
        <path id="Path_3315" data-name="Path 3315" d="M257.17,350.843l2.129,9.8s-9.249,5.452-9.032,7.3l19.147-3.44L266.723,349.1Z" transform="translate(-167.624 -164.579)" fill="#263238"/>
        <path id="Path_3316" data-name="Path 3316" d="M269.386,374.344l-.333-1.544-18.24,3.879s-.784.527-.585,1.106Z" transform="translate(-167.596 -174.414)" fill="#455a64"/>
        <path id="Path_3317" data-name="Path 3317" d="M292.292,353.92l.316,10.027s-10.086,3.691-10.208,5.546l19.463.088.146-15.643Z" transform="translate(-180.961 -166.579)" fill="#263238"/>
        <g id="Group_3164" data-name="Group 3164" transform="translate(101.432 201.422)" opacity="0.6">
          <path id="Path_3318" data-name="Path 3318" d="M301.858,379.57l-.047-1.579-18.644.509s-.866.374-.772.983Z" transform="translate(-282.388 -377.99)" fill="#455a64"/>
        </g>
        <path id="Path_3319" data-name="Path 3319" d="M253.19,324.348s-9.945-48.935-9.98-49.918L261.029,265l6.9,57.43Z" transform="translate(-164.697 -129.677)" fill="#263238"/>
        <path id="Path_3320" data-name="Path 3320" d="M288.863,296.112,275.08,211.287V193l18.825,1.755c.24.714,6.4,101.48,6.4,101.48l-1.942-.111h-9.5" transform="translate(-177.923 -99.797)" fill="#263238"/>
        <path id="Path_3321" data-name="Path 3321" d="M251.02,190.78l-7.81,52.849,17.462-4.235,7.12-46.894Z" transform="translate(-164.697 -98.876)" fill="#263238"/>
        <path id="Path_3322" data-name="Path 3322" d="M284.18,198.44v.257l.082.76c.076.673.187,1.656.333,2.925.3,2.527.749,6.183,1.334,10.7,1.17,9.027,2.925,21.475,4.832,35.235.948,6.886,1.819,13.455,2.562,19.416.193,1.492.345,2.954.585,4.364s.427,2.779.626,4.095c.4,2.644.778,5.113,1.117,7.359.679,4.5,1.211,8.149,1.562,10.67.175,1.258.3,2.235.38,2.925.041.333.064.585.076.76a1.047,1.047,0,0,1,0,.193c0,.053-.029,0-.029,0h.035a.919.919,0,0,0,0-.2,4.576,4.576,0,0,0-.053-.76c-.059-.667-.176-1.65-.334-2.925-.322-2.521-.831-6.172-1.486-10.676-.333-2.252-.7-4.721-1.088-7.365q-.3-1.983-.62-4.1c-.2-1.41-.351-2.872-.544-4.364-.725-5.973-1.591-12.537-2.539-19.416-1.9-13.759-3.7-26.208-4.9-35.229-.585-4.5-1.076-8.155-1.41-10.688l-.38-2.925c-.041-.328-.076-.585-.1-.755S284.18,198.44,284.18,198.44Z" transform="translate(-181.699 -102.055)" fill="#455a64"/>
        <path id="Path_3323" data-name="Path 3323" d="M259.894,297.259a1.6,1.6,0,0,0-.029-.251l-.1-.731c-.111-.649-.269-1.6-.48-2.814-.427-2.451-1.047-5.985-1.814-10.343L251.4,249a7.85,7.85,0,0,1-.146-2.475c.105-.819.24-1.644.363-2.457q.38-2.44.743-4.809c.5-3.153.983-6.189,1.468-9.079.959-5.786,1.89-10.98,2.72-15.339s1.556-7.868,2.112-10.284c.263-1.211.5-2.147.649-2.779.07-.31.123-.585.164-.725a1.615,1.615,0,0,0,.053-.246s-.029.076-.076.24-.105.41-.187.72c-.164.632-.415,1.562-.69,2.767-.585,2.416-1.34,5.926-2.194,10.278s-1.8,9.547-2.767,15.327c-.491,2.9-.983,5.932-1.486,9.085-.246,1.574-.491,3.182-.749,4.809-.117.819-.252,1.626-.363,2.469a8.284,8.284,0,0,0,.152,2.545c2.4,13.309,4.569,25.366,6.142,34.1.8,4.352,1.439,7.88,1.884,10.331l.526,2.808c.064.31.111.556.146.725A1.01,1.01,0,0,1,259.894,297.259Z" transform="translate(-167.92 -103.039)" fill="#455a64"/>
        <path id="Path_3324" data-name="Path 3324" d="M275.078,223.24c-.064,0,.749,5.493,1.819,12.238s1.989,12.191,2.053,12.191-.749-5.493-1.819-12.238S275.142,223.228,275.078,223.24Z" transform="translate(-177.92 -112.347)" fill="#455a64"/>
        <path id="Path_3325" data-name="Path 3325" d="M298.35,368.991a2.2,2.2,0,0,0,.45.076c.293.035.72.076,1.24.117,1.047.082,2.5.158,4.095.187s3.054,0,4.095-.053a11.728,11.728,0,0,0,1.246-.076,1.5,1.5,0,0,0,.45-.064,12.8,12.8,0,0,0-1.7-.029h-4.095c-1.6,0-3.048-.082-4.095-.117A12.4,12.4,0,0,0,298.35,368.991Z" transform="translate(-187.58 -172.829)" fill="#455a64"/>
        <path id="Path_3326" data-name="Path 3326" d="M260.27,365.086a2.6,2.6,0,0,0,.585-.029l1.585-.164c1.34-.158,3.182-.38,5.218-.649s3.873-.515,5.2-.708l1.579-.24a2.648,2.648,0,0,0,.585-.117,2.779,2.779,0,0,0-.585,0l-1.585.164c-1.34.152-3.182.38-5.218.643s-3.873.515-5.207.714l-1.574.24A2.84,2.84,0,0,0,260.27,365.086Z" transform="translate(-171.777 -170.415)" fill="#455a64"/>
        <path id="Path_3327" data-name="Path 3327" d="M109,43.977s7.734-3.019,13.016-1.509,6.874,4.774,10.834,4.51a6.693,6.693,0,0,0,6.511-4.932c1.135-3.346,1.135-7.523,11.881-7.125,8.225.3,9.056,1.509,9.056,1.509l.883,21.885a48.114,48.114,0,0,0-14.526-.55,6.131,6.131,0,0,0-4.791,5.265c-.585,4.68-5.4,6.494-8.278,6.494-4.1,0-6.2-2.785-9.694-3.592C118.413,64.663,109,68.5,109,68.5Z" transform="translate(-109 -34.184)" fill="#db0101"/>
        <path id="Path_3328" data-name="Path 3328" d="M200.567,128.393l-4.727-.333.123,7.418,5.072,3.7.515-.187.292-8.436Z" transform="translate(-145.038 -72.848)" fill="#eb996e"/>
        <path id="Path_3329" data-name="Path 3329" d="M159.243,67.75c-.082,0-.222-3.627-.31-8.1s-.088-8.108,0-8.108.222,3.621.31,8.1S159.325,67.745,159.243,67.75Z" transform="translate(-129.695 -41.092)" fill="#263238"/>
        <path id="Path_3330" data-name="Path 3330" d="M144.6,63c.088,0,.152,3.75.152,8.366s-.064,8.371-.152,8.371-.152-3.75-.152-8.371S144.52,63,144.6,63Z" transform="translate(-123.712 -45.848)" fill="#263238"/>
        <g id="Group_3165" data-name="Group 3165" transform="translate(20.68 10.863)" opacity="0.2">
          <path id="Path_3331" data-name="Path 3331" d="M144.561,71.584c-.058,1.679,0,3.908,0,3.908a7.457,7.457,0,0,0,5.171.878h.041a5.7,5.7,0,0,0,3.8-4.1,6.436,6.436,0,0,0,.222-1.948,169.767,169.767,0,0,1-.9-18.077,9.3,9.3,0,0,1-8.553,1.843Z" transform="translate(-144.35 -52.25)"/>
        </g>
        <g id="Group_3166" data-name="Group 3166" transform="translate(0.62 8.514)" opacity="0.6">
          <path id="Path_3332" data-name="Path 3332" d="M129.558,53.2a4.177,4.177,0,0,1-.72-.409l-1.913-1.17a20.726,20.726,0,0,0-6.757-2.855,15.245,15.245,0,0,0-7.272.433,30.173,30.173,0,0,0-2.837,1.17,4.68,4.68,0,0,1,.7-.445,13.587,13.587,0,0,1,2.071-.913,14.66,14.66,0,0,1,7.394-.527,19.586,19.586,0,0,1,6.815,2.966c.8.515,1.427.959,1.86,1.269A4.251,4.251,0,0,1,129.558,53.2Z" transform="translate(-110.06 -48.235)" fill="#fff"/>
        </g>
        <g id="Group_3167" data-name="Group 3167" transform="translate(31.409 2.155)" opacity="0.6">
          <path id="Path_3333" data-name="Path 3333" d="M170.406,37.513c0,.053-.585,0-1.5.094a7.278,7.278,0,0,0-5.634,3.92c-.421.819-.55,1.386-.585,1.369a3.68,3.68,0,0,1,.409-1.463,6.88,6.88,0,0,1,5.809-4.042A3.715,3.715,0,0,1,170.406,37.513Z" transform="translate(-162.69 -37.363)" fill="#fff"/>
        </g>
        <path id="Path_3334" data-name="Path 3334" d="M196.516,33.68,202.758,207.1l-1.076.257L195.27,33.762Z" transform="translate(-144.802 -33.68)" fill="#263238"/>
        <path id="Path_3335" data-name="Path 3335" d="M209.348,135.288l-2.34-8.418-8.319-5.85s-.971.585.515,2.779l1.866,2.574s-.059,3.352,1.539,5.318l-.515,4.54Z" transform="translate(-146.091 -69.926)" fill="#ffbe9d"/>
        <path id="Path_3336" data-name="Path 3336" d="M195.142,130.642a9.05,9.05,0,0,1,2.34,2.2,1.638,1.638,0,0,1,.176.8.626.626,0,0,1-.328.585.585.585,0,0,1-.538-.053,1.831,1.831,0,0,1-.433-.363l-1.6-1.656a1.849,1.849,0,0,1-.556-.913.638.638,0,0,1,.918-.585" transform="translate(-144.358 -73.897)" fill="#ffbe9d"/>
        <path id="Path_3337" data-name="Path 3337" d="M195.139,134.344a9.251,9.251,0,0,1,2.34,2.2,1.668,1.668,0,0,1,.175.8.626.626,0,0,1-.328.585.643.643,0,0,1-.544-.053,1.8,1.8,0,0,1-.427-.363l-1.585-1.615a1.878,1.878,0,0,1-.55-.913.644.644,0,0,1,.919-.585" transform="translate(-144.366 -75.451)" fill="#ffbe9d"/>
        <path id="Path_3338" data-name="Path 3338" d="M195.712,138.312a9.05,9.05,0,0,1,2.34,2.2,1.574,1.574,0,0,1,.175.8.632.632,0,0,1-.322.585.62.62,0,0,1-.544-.053,1.954,1.954,0,0,1-.433-.363l-1.6-1.656a1.936,1.936,0,0,1-.556-.913.638.638,0,0,1,.918-.585" transform="translate(-144.594 -77.08)" fill="#ffbe9d"/>
        <path id="Path_3339" data-name="Path 3339" d="M195.8,128.118a3.05,3.05,0,0,1,.971.7,1.112,1.112,0,0,1,.2,1.17.491.491,0,0,1-.374.287.585.585,0,0,1-.328-.082,3.111,3.111,0,0,1-.638-.392,4.774,4.774,0,0,1-.532-.585.585.585,0,0,1-.152-.749c.123-.281.246-.445.854-.374" transform="translate(-144.637 -72.853)" fill="#ffbe9d"/>
        <path id="Path_3340" data-name="Path 3340" d="M212.067,138.22l12.63,11.343-4.107,9.056L206.1,143.157Z" transform="translate(-149.296 -77.064)" fill="#ffbe9d"/>
        <path id="Path_3341" data-name="Path 3341" d="M211.867,128.387,223.1,136.94S233.559,119.109,234.483,118a13.309,13.309,0,0,1,3.27-2.293l-1.3,22.856S230.8,153,223.04,152.214c-5.944-.585-16.21-16.275-16.21-16.275Z" transform="translate(-149.599 -67.722)" fill="#db0101"/>
        <g id="Group_3168" data-name="Group 3168" transform="translate(71.735 68.937)" opacity="0.2">
          <path id="Path_3342" data-name="Path 3342" d="M233.183,151.52a9.869,9.869,0,0,0-1.135,8.19,1.205,1.205,0,0,0,.456.725.883.883,0,0,0,1.123-.374,2.643,2.643,0,0,0,.293-1.264,2.925,2.925,0,0,0,.825,1.088,1.012,1.012,0,0,0,1.269-.047c.374-.409.164-1.059-.059-1.568q-1.439-3.253-2.872-6.505" transform="translate(-231.623 -151.52)"/>
        </g>
        <path id="Path_3343" data-name="Path 3343" d="M216.44,141.75a41.4,41.4,0,0,1-2.574,4.311,42.05,42.05,0,0,1-2.826,4.148,40.177,40.177,0,0,1,2.574-4.311,41.712,41.712,0,0,1,2.826-4.148Z" transform="translate(-151.346 -78.529)" fill="#263238"/>
        <path id="Path_3344" data-name="Path 3344" d="M215.159,141.14c0-.029.117-.175.374-.082a.485.485,0,0,1,.3.351.515.515,0,0,1-.854.45.486.486,0,0,1-.117-.445c.064-.269.269-.3.275-.263a.862.862,0,0,0-.059.287c.012.164.14.328.339.222a.228.228,0,0,0,0-.409C215.305,141.152,215.182,141.175,215.159,141.14Z" transform="translate(-152.926 -78.229)" fill="#263238"/>
        <path id="Path_3345" data-name="Path 3345" d="M234.308,157.405a8.038,8.038,0,0,1-.082-5.405c.088,0-.152,1.217-.123,2.709S234.4,157.382,234.308,157.405Z" transform="translate(-160.791 -82.783)" fill="#263238"/>
        <path id="Path_3346" data-name="Path 3346" d="M236.767,157.346a13.158,13.158,0,0,1-2.287-5.306,28.362,28.362,0,0,1,1.129,2.662A27.537,27.537,0,0,1,236.767,157.346Z" transform="translate(-161.074 -82.799)" fill="#263238"/>
        <path id="Path_3347" data-name="Path 3347" d="M280.885,109.605,279.2,106.23H266.915l-1.93,3.814-7.605,1.72-3.27,48.953a3.4,3.4,0,0,0,.433,1.755h0l29.835,1.17,1.211.5c1.07-.661.4-3.387.415-4.68l.386-24.243,5.9-19.375Z" transform="translate(-169.219 -63.788)" fill="#db0101"/>
        <g id="Group_3169" data-name="Group 3169" transform="translate(98.93 42.711)" opacity="0.2">
          <path id="Path_3348" data-name="Path 3348" d="M278.11,111.475l2.17-2.17,2.445,5.885a61.53,61.53,0,0,0,7.991-5.593l-8.266,2.65q-1.053-2.773-2.094-5.557a21.4,21.4,0,0,1-2.083,4.815" transform="translate(-278.11 -106.69)"/>
        </g>
        <path id="Path_3349" data-name="Path 3349" d="M325.7,177.795l-8.044.415V155.126l-8.319-13.081,5.9-19.375c1.217.48,10.384,23.494,12.718,29.747a6.923,6.923,0,0,1,.433,2.82Z" transform="translate(-192.141 -70.611)" fill="#db0101"/>
        <path id="Path_3350" data-name="Path 3350" d="M258.225,133c.088,0-.316,4.744-.889,10.571s-1.111,10.53-1.17,10.53.316-4.744.889-10.577S258.143,132.965,258.225,133Z" transform="translate(-170.071 -74.897)" fill="#263238"/>
        <path id="Path_3351" data-name="Path 3351" d="M278.49,106.71a29.44,29.44,0,0,1-1.462,3.937l-.164.4a1,1,0,0,1-.269.4.474.474,0,0,1-.532.035c-.14-.07-.24-.146-.345-.211l-1.106-.749a4.958,4.958,0,0,1-.971-.755,5.264,5.264,0,0,1,1.088.585l1.141.69c.216.14.439.3.538.181a2.342,2.342,0,0,0,.339-.684,28.435,28.435,0,0,1,1.743-3.832Z" transform="translate(-177.325 -63.987)" fill="#263238"/>
        <path id="Path_3352" data-name="Path 3352" d="M291.7,109.827a12.728,12.728,0,0,1-1.878.755c-1.17.433-2.8,1.006-4.6,1.62l-.983.333-.135.047-.053-.129c-.632-1.533-1.17-2.89-1.562-3.873a9.825,9.825,0,0,1-.556-1.591,11.015,11.015,0,0,1,.743,1.515c.427.959,1.006,2.3,1.656,3.832l-.193-.082.983-.339c1.8-.585,3.44-1.17,4.627-1.539A13.648,13.648,0,0,1,291.7,109.827Z" transform="translate(-180.77 -64.103)" fill="#263238"/>
        <path id="Path_3353" data-name="Path 3353" d="M312.077,123.86c0,.088-1.7.585-3.709,1.451s-3.51,1.86-3.569,1.755a3.874,3.874,0,0,1,.936-.714,19.3,19.3,0,0,1,5.183-2.3,3.8,3.8,0,0,1,1.158-.187Z" transform="translate(-190.257 -71.104)" fill="#263238"/>
        <path id="Path_3354" data-name="Path 3354" d="M279.053,106.71a.506.506,0,0,1,0,.146v.433c0,.38.035.936.041,1.656,0,1.433,0,3.51-.094,6.078-.181,5.136-.825,12.215-1.849,19.978-.5,3.89-1.047,7.605-1.416,10.951a71.432,71.432,0,0,0-.491,8.986,45.233,45.233,0,0,0,.48,6.043c.088.714.2,1.258.257,1.632a2.461,2.461,0,0,0,.064.427.542.542,0,0,1,0,.146.591.591,0,0,1-.041-.14c-.029-.117-.058-.252-.1-.421-.07-.369-.2-.913-.31-1.626a41.057,41.057,0,0,1-.585-6.061,67.6,67.6,0,0,1,.421-9.015c.357-3.381.9-7.073,1.392-10.957,1.024-7.763,1.7-14.824,1.936-19.949.129-2.562.17-4.639.193-6.072v-2.083A.525.525,0,0,1,279.053,106.71Z" transform="translate(-177.888 -63.987)" fill="#263238"/>
        <path id="Path_3355" data-name="Path 3355" d="M332.022,210.528a30.22,30.22,0,0,1-4.265-.058,29.871,29.871,0,0,1-4.247-.357,29.545,29.545,0,0,1,4.259.053,30.616,30.616,0,0,1,4.253.363Z" transform="translate(-198.021 -106.877)" fill="#263238"/>
        <path id="Path_3356" data-name="Path 3356" d="M325.706,212.288v.216a.135.135,0,0,0,.234.082c.105-.088.07-.176-.029-.246s-.181-.041-.211-.07.053-.17.275-.135a.38.38,0,0,1,.293.228.421.421,0,0,1-.614.5.409.409,0,0,1-.164-.339C325.531,212.3,325.689,212.247,325.706,212.288Z" transform="translate(-198.843 -107.737)" fill="#263238"/>
        <g id="Group_3170" data-name="Group 3170" transform="translate(114.184 66.632)" opacity="0.2">
          <path id="Path_3357" data-name="Path 3357" d="M307.3,152.318q-1.316-2.369-2.621-4.739a65.139,65.139,0,0,0,1.755,24.974q.409-10.068.813-20.13" transform="translate(-304.186 -147.58)"/>
        </g>
        <g id="Group_3171" data-name="Group 3171" transform="translate(80.683 48.555)" opacity="0.2">
          <path id="Path_3358" data-name="Path 3358" d="M246.92,125.2a6.265,6.265,0,0,0,7.26,2.293,2.141,2.141,0,0,0,1.755.971,5.026,5.026,0,0,0,2.018-.392,15.743,15.743,0,0,0,9.787-11.39c-3.785,1.328-6.336,5-10.05,6.517a9.477,9.477,0,0,1-9.015-.93Z" transform="translate(-246.92 -116.68)"/>
        </g>
        <path id="Path_3359" data-name="Path 3359" d="M286.381,140.715a2.293,2.293,0,0,1,.474-.035l1.4-.035c1.217,0,2.966-.053,5.078-.064h.14v.14c-.14,1.849-.293,3.99-.462,6.271v.082l-.076.041-.31.164-3.4,1.79-.088.041-.076-.058-3.153-2.58-.047-.041v-.064c.152-1.7.275-3.106.363-4.154.047-.45.082-.825.117-1.123a1.7,1.7,0,0,1,.053-.374,2.718,2.718,0,0,1,0,.427c0,.3-.035.69-.053,1.17-.059,1.03-.135,2.422-.228,4.1l-.047-.105,3.182,2.545h-.158l3.387-1.8.316-.164-.082.123.5-6.265.135.14c-2.053,0-3.773-.041-5-.064l-1.427-.035A4.1,4.1,0,0,1,286.381,140.715Z" transform="translate(-182.397 -78.043)" fill="#263238"/>
        <path id="Path_3360" data-name="Path 3360" d="M293.376,145.428a39.838,39.838,0,0,1-6.956-.129,19.647,19.647,0,0,1,3.481-.088,20.118,20.118,0,0,1,3.475.216Z" transform="translate(-182.629 -79.949)" fill="#fafafa"/>
        <path id="Path_3361" data-name="Path 3361" d="M293.261,147.489a40.189,40.189,0,0,1-6.991-.129,40.2,40.2,0,0,1,6.991.129Z" transform="translate(-182.567 -80.805)" fill="#fafafa"/>
        <path id="Path_3362" data-name="Path 3362" d="M260.589,201.535c0,.082-.626,0-1.03-.638s-.281-1.223-.2-1.17a5.966,5.966,0,0,0,.45,1.024C260.156,201.249,260.618,201.453,260.589,201.535Z" transform="translate(-171.365 -102.588)" fill="#263238"/>
        <path id="Path_3363" data-name="Path 3363" d="M262.165,200.131a2.118,2.118,0,0,1-.842-1.381,2.1,2.1,0,0,1,.088-1.62c.088,0,0,.72.211,1.544S262.253,200.078,262.165,200.131Z" transform="translate(-172.163 -101.511)" fill="#263238"/>
        <path id="Path_3364" data-name="Path 3364" d="M299.9,196.51a5,5,0,0,1-2.065,4.393,9.2,9.2,0,0,0,2.065-4.393Z" transform="translate(-187.364 -101.254)" fill="#263238"/>
        <path id="Path_3365" data-name="Path 3365" d="M279.954,110.98h1.615l.69,1.2-.679,1.872-1.609-.181-.632-1.351Z" transform="translate(-179.691 -65.759)" fill="#455a64"/>
        <path id="Path_3366" data-name="Path 3366" d="M250.382,115.082s-9.711,6.254-14.672,3.756-11.115-5.558-16.655-4.826a26.466,26.466,0,0,0-9.261,2.925l-1.755,4.218,4.487,1.615s6.54-3.159,11.3-2.311c3.323.585,9.705,3.978,14,3.656s10.237-3.381,14.145-8.874Z" transform="translate(-150.101 -66.972)" fill="#455a64"/>
        <path id="Path_3367" data-name="Path 3367" d="M281.567,116.624a2.026,2.026,0,0,1-.632-.287,2.136,2.136,0,0,1-.585-.4,1.964,1.964,0,0,1,.638.293A2,2,0,0,1,281.567,116.624Z" transform="translate(-180.11 -67.818)" fill="#263238"/>
        <path id="Path_3368" data-name="Path 3368" d="M282.476,112.67a8.5,8.5,0,0,1-1.076.977,8.637,8.637,0,0,1-1.17.883,8.5,8.5,0,0,1,1.076-.977,8.642,8.642,0,0,1,1.17-.883Z" transform="translate(-180.06 -66.461)" fill="#263238"/>
        <path id="Path_3369" data-name="Path 3369" d="M281.808,112.57a4.634,4.634,0,0,1-1.539-1.62c.029,0,.333.374.755.819S281.826,112.541,281.808,112.57Z" transform="translate(-180.077 -65.747)" fill="#263238"/>
        <path id="Path_3370" data-name="Path 3370" d="M268.335,125.678a2.216,2.216,0,0,1-.217-.5c-.123-.316-.281-.755-.445-1.24s-.31-.93-.41-1.252a3.238,3.238,0,0,1-.135-.532,2.388,2.388,0,0,1,.216.5c.123.316.281.755.445,1.24s.31.93.4,1.252A3,3,0,0,1,268.335,125.678Z" transform="translate(-174.624 -70.395)" fill="#fafafa"/>
        <path id="Path_3371" data-name="Path 3371" d="M272.153,123.744a10.283,10.283,0,0,1-.889-1.34,11.121,11.121,0,0,1-.784-1.4A20.936,20.936,0,0,1,272.153,123.744Z" transform="translate(-176.014 -69.918)" fill="#fafafa"/>
        <path id="Path_3372" data-name="Path 3372" d="M275.755,121.434a13.517,13.517,0,0,1-1.9-1.884A15.446,15.446,0,0,1,275.755,121.434Z" transform="translate(-177.417 -69.316)" fill="#fafafa"/>
        <path id="Path_3373" data-name="Path 3373" d="M279.2,118.863a3.917,3.917,0,0,1-.749-.55,3.817,3.817,0,0,1-.673-.644,3.233,3.233,0,0,1,.749.55A3.2,3.2,0,0,1,279.2,118.863Z" transform="translate(-179.043 -68.536)" fill="#fafafa"/>
        <path id="Path_3374" data-name="Path 3374" d="M263.115,127.741a19.277,19.277,0,0,1-.17-2.118,17.733,17.733,0,0,1-.053-2.124,35.029,35.029,0,0,1,.222,4.241Z" transform="translate(-172.86 -70.955)" fill="#fafafa"/>
        <path id="Path_3375" data-name="Path 3375" d="M257.59,128.212s.088-1.088.269-2.422.357-2.416.386-2.41a46.1,46.1,0,0,1-.655,4.832Z" transform="translate(-170.665 -70.905)" fill="#fafafa"/>
        <path id="Path_3376" data-name="Path 3376" d="M253.153,121.69c.029,0-.281,1.17-.7,2.609s-.778,2.58-.813,2.574.281-1.17.7-2.609A26.592,26.592,0,0,1,253.153,121.69Z" transform="translate(-168.193 -70.204)" fill="#fafafa"/>
        <path id="Path_3377" data-name="Path 3377" d="M249.1,119.87c.035,0-.339,1.211-.825,2.673s-.913,2.65-.948,2.638.339-1.205.831-2.673S249.072,119.858,249.1,119.87Z" transform="translate(-166.405 -69.449)" fill="#fafafa"/>
        <path id="Path_3378" data-name="Path 3378" d="M243.652,117.25s-.3,1.31-.731,2.925-.813,2.878-.842,2.872.292-1.31.725-2.925S243.617,117.244,243.652,117.25Z" transform="translate(-164.227 -68.361)" fill="#fafafa"/>
        <path id="Path_3379" data-name="Path 3379" d="M237.873,115.62c.035,0-.222,1.293-.585,2.872s-.655,2.855-.69,2.843.222-1.293.585-2.867S237.844,115.614,237.873,115.62Z" transform="translate(-161.951 -67.685)" fill="#fafafa"/>
        <path id="Path_3380" data-name="Path 3380" d="M232.716,114.58c.035,0,.076,1.363.088,3.048s0,3.06-.035,3.06-.07-1.369-.082-3.054S232.687,114.58,232.716,114.58Z" transform="translate(-160.328 -67.253)" fill="#fafafa"/>
        <path id="Path_3381" data-name="Path 3381" d="M227.214,120.63a1.753,1.753,0,0,1-.07-.246c-.047-.228-.094-.456-.146-.69-.117-.585-.257-1.386-.386-2.282s-.228-1.708-.281-2.3c0-.234-.041-.462-.058-.7a.735.735,0,0,1,0-.257,1.324,1.324,0,0,1,.047.252,5.831,5.831,0,0,0,.094.7c.105.731.2,1.474.316,2.287s.24,1.556.357,2.287l.105.69A.855.855,0,0,1,227.214,120.63Z" transform="translate(-157.663 -67.079)" fill="#fafafa"/>
        <path id="Path_3382" data-name="Path 3382" d="M221.083,122c-.029,0-.509-1.351-1.071-3.03s-.983-3.06-.954-3.071.515,1.346,1.071,3.03S221.118,121.99,221.083,122Z" transform="translate(-154.674 -67.801)" fill="#fafafa"/>
        <path id="Path_3383" data-name="Path 3383" d="M215.74,124.029c-.029,0-.655-1.24-1.4-2.808s-1.322-2.843-1.293-2.861.661,1.246,1.4,2.808S215.769,124,215.74,124.029Z" transform="translate(-152.18 -68.822)" fill="#fafafa"/>
        <path id="Path_3384" data-name="Path 3384" d="M210.546,125.855a4,4,0,0,1-.69-1.088,3.639,3.639,0,0,1-.415-1.217c.035,0,.216.532.521,1.17S210.575,125.832,210.546,125.855Z" transform="translate(-150.682 -70.976)" fill="#fafafa"/>
      </g>
    </g>
  </g>
</svg>
