<svg xmlns="http://www.w3.org/2000/svg" width="392.489" height="384.091" viewBox="0 0 392.489 384.091">
  <g id="red-mountain" transform="translate(-18.48 -33.68)">
    <g id="freepik--background-complete--inject-4" transform="translate(18.48 49.798)">
      <path id="Path_3260" data-name="Path 3260" d="M250.93,193.974,198.61,149.24l.544-.627L250.8,192.769l62.575-80.032,24.625,17.825L388.284,64.29l.669.5-50.781,66.925-24.634-17.825Z" transform="translate(-47.94 -54.805)" fill="#ebebeb"/>
      <path id="Path_3261" data-name="Path 3261" d="M43.061,304.7a2.836,2.836,0,1,1-2.836-2.836,2.836,2.836,0,0,1,2.836,2.836Z" transform="translate(-21.573 -93.658)" fill="#ebebeb"/>
      <circle id="Ellipse_30" data-name="Ellipse 30" cx="5.596" cy="5.596" r="5.596" transform="translate(145.342 88.53)" fill="#ebebeb"/>
      <path id="Path_3262" data-name="Path 3262" d="M41.029,283.076l-.619-.56,61-67.385L115.2,227.117l54.972-59.137.611.569L115.256,228.28,101.479,216.3Z" transform="translate(-22.067 -71.763)" fill="#ebebeb"/>
      <circle id="Ellipse_31" data-name="Ellipse 31" cx="7.294" cy="7.294" r="7.294" transform="translate(333.645)" fill="#4caf50"/>
      <path id="Path_3263" data-name="Path 3263" d="M428.947,58.69a27.723,27.723,0,0,1-3.187,3.823l-1.2,1.3-.125.134-.142-.109a14.948,14.948,0,0,1-2.467-2.058,15.723,15.723,0,0,1,2.7,1.731h-.268l1.179-1.322A29.083,29.083,0,0,1,428.947,58.69Z" transform="translate(-84.445 -53.889)" fill="#fff"/>
      <path id="Path_3264" data-name="Path 3264" d="M125.719,145.839c.711-5.219-6.641-9.5-12.17-9.954-2.635-.209-5.37.192-7.871-.678-5.412-1.882-7.528-8.875-12.848-11.1-3.948-1.673-8.5-.184-12.321,1.74s-7.612,4.35-11.886,4.626c-3.714.234-7.754-1.146-11.008.678-2.426,1.347-3.7,4.182-5.93,5.788s-5.019,1.957-7.746,2.108-5.521.176-8,1.3-4.508,3.739-4,6.407Z" transform="translate(-20.669 -64.469)" fill="#ebebeb"/>
      <path id="Path_3266" data-name="Path 3266" d="M447.149,132.295c.243-1.748-2.225-3.179-4.082-3.346a10.658,10.658,0,0,1-2.643-.234c-1.815-.627-2.509-2.978-4.308-3.722a5.067,5.067,0,0,0-4.132.586,10.776,10.776,0,0,1-3.99,1.547c-1.246.084-2.6-.376-3.689.234-.836.452-1.238,1.388-1.991,1.941a4.71,4.71,0,0,1-2.6.7,7.226,7.226,0,0,0-2.677.443,2.108,2.108,0,0,0-1.338,2.15Z" transform="translate(-83.442 -64.693)" fill="#f5f5f5"/>
      <path id="Path_3267" data-name="Path 3267" d="M114.757,78.445c.234-1.748-2.233-3.187-4.082-3.346a10.656,10.656,0,0,1-2.643-.234c-1.815-.627-2.509-2.978-4.308-3.722a5.063,5.063,0,0,0-4.132.586,10.5,10.5,0,0,1-3.99,1.547c-1.246.084-2.6-.376-3.689.226-.836.46-1.238,1.4-1.991,1.949a4.734,4.734,0,0,1-2.6.7,7.2,7.2,0,0,0-2.677.443A2.125,2.125,0,0,0,83.3,78.763Z" transform="translate(-29.079 -55.886)" fill="#fafafa"/>
      <path id="Path_3268" data-name="Path 3268" d="M140.75,279.353l16.6-36.871,17.047-10.238,10.59-23.044,30.413,7.118L238.08,285.9l-35.114,17.256-28.573,17.423Z" transform="translate(-38.477 -78.504)" fill="#f5f5f5"/>
      <path id="Path_3269" data-name="Path 3269" d="M458.018,387.022,428,327.1,414.1,306.3l-16.378-75.741L378,214.16l-19.816,27.6L331.12,248.5l-24.96,23.872L356.4,325.684l29.61,31.225L409.136,400.1l44.391,41.965C453.075,441.659,458.018,387.022,458.018,387.022Z" transform="translate(-65.529 -79.315)" fill="#ebebeb"/>
      <path id="Path_3270" data-name="Path 3270" d="M18.48,457.317l3.061-40.668,16.353-25.42L48.6,342.848l19.464-11.426L92.113,290.98l22.9-15.5,47.519,46.992L193.9,288.688l24.182,8.055-9.962,12.388L182.969,314l-49.543,43.2L94.9,378.439,84.627,396.992l-22.291,3.262Z" transform="translate(-18.48 -89.344)" fill="#ebebeb"/>
    </g>
    <g id="freepik--Plants--inject-4" transform="translate(116.488 269.016)">
      <path id="Path_3271" data-name="Path 3271" d="M153.722,334.971c-1.347,1.915-3.965,1.28-5.178.109a9.764,9.764,0,0,1-2.191-4.492c-1.062-3.706-2.141-7.587-1.347-11.359a6.291,6.291,0,0,1,1.455-3.095,3.287,3.287,0,0,1,3.12-1.037c1.322.351,2.141,1.673,2.735,2.869a27.144,27.144,0,0,1,2.677,11.618,9.486,9.486,0,0,1-1.271,5.387" transform="translate(-137.136 -315.029)" fill="#db0101"/>
      <g id="Group_3162" data-name="Group 3162" transform="translate(7.596)" opacity="0.2">
        <path id="Path_3272" data-name="Path 3272" d="M153.722,334.971c-1.347,1.915-3.965,1.28-5.178.109a9.764,9.764,0,0,1-2.191-4.492c-1.062-3.706-2.141-7.587-1.347-11.359a6.291,6.291,0,0,1,1.455-3.095,3.287,3.287,0,0,1,3.12-1.037c1.322.351,2.141,1.673,2.735,2.869a27.144,27.144,0,0,1,2.677,11.618,9.486,9.486,0,0,1-1.271,5.387" transform="translate(-144.732 -315.029)"/>
      </g>
      <path id="Path_3273" data-name="Path 3273" d="M147.193,350.284a11.66,11.66,0,0,0-7.235-.878,6.006,6.006,0,0,0-3.572,1.6,2.528,2.528,0,0,0,0,3.563,3.43,3.43,0,0,0,2.25.577c1.915,0,4.032-.36,5.562.786.836.661,1.447,1.748,2.509,2.074a2.509,2.509,0,0,0,2.71-1.213,4.182,4.182,0,0,0,.31-3.1,4.751,4.751,0,0,0-2.534-3.4Z" transform="translate(-135.651 -320.615)" fill="#db0101"/>
      <path id="Path_3274" data-name="Path 3274" d="M159.609,338.931a7.018,7.018,0,0,1-1.087-6.432,12.463,12.463,0,0,1,3.814-5.529,20.482,20.482,0,0,1,6.825-4.023,7.186,7.186,0,0,1,3.07-.519,3.212,3.212,0,0,1,2.576,1.556c.711,1.372,0,3.028-.719,4.383a51.323,51.323,0,0,1-4.483,6.826,12.051,12.051,0,0,1-4.927,4.224c-2.049.778-4.182.694-5.261-.728" transform="translate(-139.335 -316.238)" fill="#db0101"/>
      <path id="Path_3275" data-name="Path 3275" d="M153.632,370.071a4.258,4.258,0,0,1-.125-.836c-.059-.636-.142-1.439-.234-2.384a34.3,34.3,0,0,0-.535-3.5,26.451,26.451,0,0,0-1.271-4.124,14.913,14.913,0,0,0-2.108-3.731,7.7,7.7,0,0,0-2.66-2.217,7.466,7.466,0,0,0-2.242-.7,4.261,4.261,0,0,1-.836-.126,4.246,4.246,0,0,1,.887,0,6.636,6.636,0,0,1,2.334.6,7.812,7.812,0,0,1,2.811,2.233,14.627,14.627,0,0,1,2.183,3.814,25.342,25.342,0,0,1,1.263,4.182,29.822,29.822,0,0,1,.468,3.538c.075,1.012.1,1.832.117,2.4a5.561,5.561,0,0,1-.05.845Z" transform="translate(-136.954 -321.147)" fill="#263238"/>
      <path id="Path_3276" data-name="Path 3276" d="M154.523,363.629a1.3,1.3,0,0,1,0-.41v-1.154c0-1,0-2.459-.05-4.257-.084-3.6-.393-8.557-1-14.011s-1.4-10.355-2.125-13.877c-.176-.836-.343-1.673-.51-2.367s-.284-1.3-.418-1.79-.192-.836-.268-1.121a1.33,1.33,0,0,1-.067-.4,1.941,1.941,0,0,1,.134.376c.092.293.2.661.343,1.112s.3,1.079.477,1.773.368,1.48.56,2.367a130.583,130.583,0,0,1,2.233,13.893c.6,5.462.837,10.439.9,14.036,0,1.807,0,3.262-.067,4.266,0,.477-.05.836-.067,1.163A2.7,2.7,0,0,1,154.523,363.629Z" transform="translate(-138.012 -316.536)" fill="#263238"/>
      <path id="Path_3277" data-name="Path 3277" d="M155.356,354.609a8.432,8.432,0,0,1,0-1.213,23.906,23.906,0,0,1,.368-3.279,43.82,43.82,0,0,1,1.071-4.776,41.56,41.56,0,0,1,2-5.654,30.112,30.112,0,0,1,5.855-9.134,14.29,14.29,0,0,1,1.38-1.28c.209-.184.4-.36.594-.5l.535-.368a7.464,7.464,0,0,1,1.012-.652,36.259,36.259,0,0,0-3.346,2.978,31.786,31.786,0,0,0-5.721,9.1,46.188,46.188,0,0,0-2.008,5.6c-.527,1.757-.836,3.346-1.138,4.726a28.839,28.839,0,0,0-.477,3.245,8.1,8.1,0,0,1-.125,1.2Z" transform="translate(-138.87 -317.11)" fill="#263238"/>
      <path id="Path_3278" data-name="Path 3278" d="M442.495,402.68a5.746,5.746,0,0,0-4.124,1.832,10.172,10.172,0,0,0-2.267,4c-.929,2.844-.636,6.282,0,9.2,3.187-.945,5.295-4.182,6.265-5.855,1.522-2.693,2.652-8.49.1-9.151" transform="translate(-184.692 -329.364)" fill="#db0101"/>
      <path id="Path_3279" data-name="Path 3279" d="M429.091,423.03a4.927,4.927,0,0,0,.836-4.86,6.541,6.541,0,0,0-3.5-3.63,2.719,2.719,0,0,0-2.309-.184,2.108,2.108,0,0,0-1.054,1.849,4.292,4.292,0,0,0,.644,2.125c1.246,2.233,2.861,4.182,5.37,4.7" transform="translate(-182.656 -331.245)" fill="#db0101"/>
      <path id="Path_3280" data-name="Path 3280" d="M429.036,433.029a2.043,2.043,0,0,0,.192-.594c.1-.393.234-.962.385-1.673a21.3,21.3,0,0,0,.5-5.629,10.608,10.608,0,0,0-1.782-5.345,7.109,7.109,0,0,0-1.154-1.28,1.673,1.673,0,0,0-.519-.368,14.419,14.419,0,0,1,1.472,1.782,11.058,11.058,0,0,1,1.673,5.236,24.452,24.452,0,0,1-.4,5.562A19.2,19.2,0,0,0,429.036,433.029Z" transform="translate(-183.244 -331.893)" fill="#263238"/>
      <path id="Path_3281" data-name="Path 3281" d="M440.11,407.84a5.356,5.356,0,0,0-.519.895c-.318.594-.761,1.447-1.3,2.509-1.071,2.125-2.509,5.094-4,8.406s-2.777,6.349-3.664,8.565c-.452,1.1-.836,2-1.029,2.626a6.057,6.057,0,0,0-.335.979,5.2,5.2,0,0,0,.452-.928l1.129-2.585c.945-2.191,2.259-5.2,3.756-8.515s2.894-6.29,3.906-8.448l1.2-2.56a7,7,0,0,0,.4-.945Z" transform="translate(-183.671 -330.208)" fill="#263238"/>
      <path id="Path_3282" data-name="Path 3282" d="M434.5,427.765a11.493,11.493,0,0,1,9.109-5.245c.92,0,2.033.159,2.417,1s-.2,1.815-.836,2.509a9.837,9.837,0,0,1-10.715,2.024" transform="translate(-184.522 -332.609)" fill="#db0101"/>
      <path id="Path_3283" data-name="Path 3283" d="M441.452,425.436a2.079,2.079,0,0,0-.6,0,4.6,4.6,0,0,0-.711.05,9.252,9.252,0,0,0-.928.125,11.716,11.716,0,0,0-2.334.694,13.652,13.652,0,0,0-2.627,1.439,14.089,14.089,0,0,0-2.217,2.007,12.014,12.014,0,0,0-1.414,1.991,7.242,7.242,0,0,0-.427.836,4.185,4.185,0,0,0-.268.652,2.384,2.384,0,0,0-.176.577c.067,0,.351-.786,1.071-1.941a12.76,12.76,0,0,1,1.447-1.907,13.65,13.65,0,0,1,4.726-3.346,12.915,12.915,0,0,1,2.267-.744C440.59,425.511,441.452,425.5,441.452,425.436Z" transform="translate(-183.75 -333.082)" fill="#263238"/>
    </g>
    <g id="freepik--Mountain--inject-4" transform="translate(18.48 238.394)">
      <path id="Path_3284" data-name="Path 3284" d="M348.465,447.171a2.746,2.746,0,0,1-.485,0l-1.4.042-5.194.067-17.566.067.167-.075-3.078,3.747-13.3,16.093-4.073,4.843-1.121,1.3a2.774,2.774,0,0,1-.418.435,3.728,3.728,0,0,1,.351-.493l1.062-1.355,3.956-4.927,13.208-16.177c1.054-1.28,2.091-2.509,3.078-3.747l.067-.075h.1l17.566.075,5.194.067h1.4a2.213,2.213,0,0,1,.485.109Z" transform="translate(-64.849 -305.978)" fill="#263238"/>
      <path id="Path_3285" data-name="Path 3285" d="M231.666,402.666,179.68,400.96l-14.4,18.653-22.818,10.154-12.388,26.29,14.42-16.737,27.754-4.651,19.765-20.6Z" transform="translate(-36.73 -298.461)" fill="#f5f5f5"/>
      <path id="Path_3286" data-name="Path 3286" d="M18.48,457.8s.243-.343.744-1l2.225-2.928,8.624-11.292c7.528-9.828,18.477-24.107,32.145-41.923v-.05h.059l22.291-3.279-.117.075c3.22-5.855,6.692-12.07,10.255-18.561h.05l38.477-21.254h0l49.627-43.261h.1l25.144-4.868-.125.075,12.814-15.951,12.129-15.056.084-.1h.134l27.377,6.089h.067l.042.05,78.468,82.809h0c8.7,16.294,16.436,30.765,23.086,43.211h0L394.8,441.528l8.666,8.239,2.225,2.133c.5.477.744.728.744.728l-.77-.7-2.25-2.1-8.716-8.2-32.756-30.865h0l-23.153-43.186h0l-78.518-82.725.109.067L233.047,278.8l.217-.075-12.129,15.056-12.848,15.968-.05.067h-.075l-25.152,4.86.1-.05-49.56,43.194h0L95.016,379.029l.075-.067L84.8,397.514v.067h-.084l-22.3,3.254.092-.059c-13.7,17.791-24.684,32.036-32.245,41.823l-8.749,11.317-2.258,2.9C18.748,457.471,18.48,457.8,18.48,457.8Z" transform="translate(-18.48 -278.42)" fill="#263238"/>
      <path id="Path_3287" data-name="Path 3287" d="M235.91,402.23l-.209.075-.636.192-2.451.7-9.2,2.568-31.785,8.707.1-.05c-3.915,4.073-8.147,8.49-12.547,13.057l-7.235,7.528-.05.05h-.067L144.1,439.678l.1-.059-12.162,13.994-3.346,3.839-.9,1c-.2.217-.318.326-.318.326s.092-.125.284-.36.485-.594.836-1.029c.77-.92,1.882-2.225,3.3-3.9l12.053-14.094.042-.05h.059l27.737-4.684-.117.059c2.35-2.451,4.768-4.969,7.227-7.528l12.547-13.049h.092l31.785-8.565,9.2-2.443,2.509-.636.636-.159Z" transform="translate(-36.307 -298.669)" fill="#263238"/>
      <path id="Path_3288" data-name="Path 3288" d="M322.3,380.957c0,.117-11.309.218-25.261.218s-25.269-.1-25.269-.218,11.309-.217,25.269-.217S322.3,380.866,322.3,380.957Z" transform="translate(-59.905 -295.154)" fill="#263238"/>
    </g>
    <g id="freepik--Character--inject-4" transform="translate(94.196 33.68)">
      <path id="Path_3289" data-name="Path 3289" d="M335.034,219.063a38.7,38.7,0,0,0-.259-4.793L325,216.445c-.1.619-1.33,8.423-1.121,9.2l10.974,3.036S335.034,219.339,335.034,219.063Z" transform="translate(-144.138 -63.215)" fill="#ffbe9d"/>
      <path id="Path_3290" data-name="Path 3290" d="M336.676,229.422a.624.624,0,0,1,.05-.209c.117-1.071,0-5.721-.519-5.914s-2.225.134-2.342.753.268,5.855.268,5.855.109.836,1.5,1.02C336.484,231.045,336.676,229.422,336.676,229.422Z" transform="translate(-145.772 -64.683)" fill="#ffbe9d"/>
      <path id="Path_3291" data-name="Path 3291" d="M333.347,231.422a.624.624,0,0,1,.05-.209c.109-1.071.042-5.721-.527-5.914s-2.225.134-2.334.753.259,5.855.259,5.855.117.836,1.506,1.02C333.154,233.045,333.347,231.422,333.347,231.422Z" transform="translate(-145.228 -65.01)" fill="#ffbe9d"/>
      <path id="Path_3292" data-name="Path 3292" d="M330.087,232.42a.809.809,0,0,1,.042-.217c.117-1.062.05-5.713-.519-5.914s-2.225.142-2.334.753.259,5.855.259,5.855.117.836,1.5,1.029C329.894,234.043,330.087,232.42,330.087,232.42Z" transform="translate(-144.695 -65.171)" fill="#ffbe9d"/>
      <path id="Path_3293" data-name="Path 3293" d="M326.837,233.36a.688.688,0,0,1,.05-.217c.109-1.062.042-5.713-.527-5.914s-2.225.142-2.334.753.268,5.855.268,5.855.109.836,1.5,1.029C326.644,234.974,326.837,233.36,326.837,233.36Z" transform="translate(-144.163 -65.325)" fill="#ffbe9d"/>
      <path id="Path_3294" data-name="Path 3294" d="M333.827,225.83a9.576,9.576,0,0,1,.217,2.267,8.363,8.363,0,0,1-.075,2.242,9.581,9.581,0,0,1-.217-2.267A8.3,8.3,0,0,1,333.827,225.83Z" transform="translate(-145.75 -65.105)" fill="#eb996e"/>
      <path id="Path_3295" data-name="Path 3295" d="M330.552,225.81a35.613,35.613,0,0,1,.226,6.449,19.131,19.131,0,0,1-.259-3.22,18.071,18.071,0,0,1,.034-3.229Z" transform="translate(-145.219 -65.102)" fill="#eb996e"/>
      <g id="Group_3163" data-name="Group 3163" transform="translate(182.457 160.942)" opacity="0.78">
        <path id="Path_3296" data-name="Path 3296" d="M327.222,226.09a35.616,35.616,0,0,1,.226,6.449,19.132,19.132,0,0,1-.259-3.22A17.98,17.98,0,0,1,327.222,226.09Z" transform="translate(-327.132 -226.09)" fill="#eb996e"/>
      </g>
      <path id="Path_3297" data-name="Path 3297" d="M324.493,217.18s-3.873,8.791-3.3,9.335a12.99,12.99,0,0,0,2.342,1.389Z" transform="translate(-143.693 -63.691)" fill="#ffbe9d"/>
      <path id="Path_3298" data-name="Path 3298" d="M294.429,73.487l-2.836,32.881-16.47-1.313c-.1-1.924,0-9.36,0-9.36s-6.851-1.071-6.934-7.921c-.042-3.346.435-10.2.937-16.4A12.672,12.672,0,0,1,282.51,59.736h0a12.672,12.672,0,0,1,11.919,13.751Z" transform="translate(-135.034 -37.938)" fill="#ffbe9d"/>
      <path id="Path_3299" data-name="Path 3299" d="M276.507,102.119a15.893,15.893,0,0,0,8.933-2.509s-2.108,4.935-8.95,4.316Z" transform="translate(-136.392 -44.463)" fill="#eb996e"/>
      <path id="Path_3300" data-name="Path 3300" d="M272.52,79.218a1,1,0,0,0,.945,1,.954.954,0,0,0,1.012-.887.979.979,0,0,0-.945-.987.937.937,0,0,0-1.012.878Z" transform="translate(-135.743 -40.983)" fill="#263238"/>
      <path id="Path_3301" data-name="Path 3301" d="M271.1,77.578c.117.134.836-.418,1.916-.418s1.823.535,1.941.4-.067-.284-.41-.527a2.651,2.651,0,0,0-3.07,0C271.145,77.294,271.012,77.519,271.1,77.578Z" transform="translate(-135.506 -40.69)" fill="#263238"/>
      <path id="Path_3302" data-name="Path 3302" d="M284.61,79.226a.987.987,0,0,0,.945.987.937.937,0,0,0,1-.887.97.97,0,0,0-.937-.987.937.937,0,0,0-1.012.887Z" transform="translate(-137.72 -40.983)" fill="#263238"/>
      <path id="Path_3303" data-name="Path 3303" d="M283.467,77.8c.125.125.836-.427,1.915-.418s1.823.527,1.941.4-.067-.293-.4-.535a2.727,2.727,0,0,0-1.556-.477,2.51,2.51,0,0,0-1.522.493C283.517,77.523,283.409,77.8,283.467,77.8Z" transform="translate(-137.531 -40.727)" fill="#263238"/>
      <path id="Path_3304" data-name="Path 3304" d="M278.392,85.628a7.277,7.277,0,0,0-1.673-.31c-.268,0-.527-.075-.569-.259a1.362,1.362,0,0,1,.176-.836c.259-.652.519-1.338.836-2.049a35.212,35.212,0,0,0,1.782-5.353,34.724,34.724,0,0,0-2.217,5.194c-.259.719-.519,1.405-.761,2.058a1.539,1.539,0,0,0-.134,1.054.644.644,0,0,0,.443.393,1.557,1.557,0,0,0,.452.067A6.691,6.691,0,0,0,278.392,85.628Z" transform="translate(-136.278 -40.735)" fill="#263238"/>
      <path id="Path_3305" data-name="Path 3305" d="M281.954,88.22c-.176,0-.176,1.138-1.154,1.949s-2.191.686-2.2.836.268.217.786.234a2.835,2.835,0,0,0,1.84-.644,2.434,2.434,0,0,0,.887-1.623C282.155,88.5,282.029,88.22,281.954,88.22Z" transform="translate(-136.737 -42.6)" fill="#263238"/>
      <path id="Path_3306" data-name="Path 3306" d="M283.149,72.926c.1.293,1.154.151,2.392.3s2.233.485,2.392.234-.1-.393-.5-.669a4.04,4.04,0,0,0-1.773-.627,4.182,4.182,0,0,0-1.874.217C283.333,72.566,283.1,72.792,283.149,72.926Z" transform="translate(-137.48 -39.97)" fill="#263238"/>
      <path id="Path_3307" data-name="Path 3307" d="M271.555,73.931c.184.243.912,0,1.782,0s1.614.159,1.782-.092-.042-.36-.36-.586a2.6,2.6,0,0,0-2.877.084C271.58,73.571,271.471,73.813,271.555,73.931Z" transform="translate(-135.581 -40.088)" fill="#263238"/>
      <path id="Path_3308" data-name="Path 3308" d="M298.428,63.777a2.593,2.593,0,0,0-2.15-2.727,3.162,3.162,0,0,0-4.525-3.982,4.107,4.107,0,0,0-7.235-1.464,4.35,4.35,0,0,0-7.352,1.163,4.776,4.776,0,0,0-7.06,1,6.424,6.424,0,0,0-2.342-.376,2.844,2.844,0,0,0-2.468,1.564,1.865,1.865,0,0,0,.7,2.208,2.275,2.275,0,1,0-1.029,4.416,1.3,1.3,0,0,0-.711,1.2,2.442,2.442,0,0,0,1.606,1.773,8.8,8.8,0,0,0,6.248-.1c2.024-.678,3.9-1.74,5.905-2.509s5.362-2.049,7.378-1.338a3.7,3.7,0,0,1,.836.427,5.429,5.429,0,0,1,1.991,3.48.737.737,0,0,1,0,.134c.268,1.957.226,3.94.51,5.855a8.866,8.866,0,0,0,2.4,5.278c.594.552,1.673.937,2.133.284a1.564,1.564,0,0,0,.243-.9c.268-3.4,1-6.533,1.4-9.862a9.861,9.861,0,0,1,1.857-2.258A5.311,5.311,0,0,0,298.428,63.777Z" transform="translate(-134.19 -37.003)" fill="#263238"/>
      <path id="Path_3309" data-name="Path 3309" d="M280.906,60.772a1.6,1.6,0,0,1-.092-.912,3.48,3.48,0,0,1,1.1-2.25,3.572,3.572,0,0,1,3.6-.711,2.777,2.777,0,0,1,1.673,1.514,1.924,1.924,0,0,1,.05,1.263,1.489,1.489,0,0,1-.887.987,1.422,1.422,0,0,1-1.33-.151,1.322,1.322,0,0,1-.485-1.213,1.673,1.673,0,0,1,.552-1.087,2.592,2.592,0,0,1,1-.552,4.182,4.182,0,0,1,3.647.594,2.509,2.509,0,0,1,.887,1.171,2.032,2.032,0,0,1,.059,1.1c-.159.6-.5.786-.5.77a2.309,2.309,0,0,0,.335-.836,1.923,1.923,0,0,0-.117-.987,2.359,2.359,0,0,0-.836-1A3.948,3.948,0,0,0,286.209,58a1.673,1.673,0,0,0-1.255,1.3.9.9,0,0,0,.326.836.97.97,0,0,0,.912.092,1.288,1.288,0,0,0,.6-1.673,2.426,2.426,0,0,0-1.43-1.3,3.346,3.346,0,0,0-3.262.56,3.538,3.538,0,0,0-1.138,2.049C280.89,60.446,280.965,60.772,280.906,60.772Z" transform="translate(-137.095 -37.443)" fill="#455a64"/>
      <path id="Path_3310" data-name="Path 3310" d="M290.88,56.311a1.782,1.782,0,0,1,.619-.117,6.909,6.909,0,0,1,1.723.05,4,4,0,0,1,2.309,1.171,2.568,2.568,0,0,1,.36,3.1,2.014,2.014,0,0,1-.368.427l-.226-.368a1.8,1.8,0,0,1,1.631.217,2.008,2.008,0,0,1,.878,1.23,2.961,2.961,0,0,1-.535,2.376,4.5,4.5,0,0,1-1.171,1.1c-.318.209-.5.293-.519.268s.142-.151.418-.393a5.512,5.512,0,0,0,1.029-1.138,2.726,2.726,0,0,0,.393-2.108,1.614,1.614,0,0,0-.719-.979,1.405,1.405,0,0,0-1.246-.167l-1.121.452.9-.836a1.674,1.674,0,0,0,.293-.335,2.05,2.05,0,0,0,.276-1.38,2.283,2.283,0,0,0-.577-1.213,3.856,3.856,0,0,0-2.066-1.138C291.817,56.277,290.88,56.4,290.88,56.311Z" transform="translate(-138.746 -37.357)" fill="#455a64"/>
      <path id="Path_3311" data-name="Path 3311" d="M302.244,65c.05,0,.176.234.176.652a2.334,2.334,0,0,1-2.049,2.284c-.418,0-.669-.05-.661-.109a4.182,4.182,0,0,0,1.79-.937,4.116,4.116,0,0,0,.744-1.89Z" transform="translate(-140.19 -38.802)" fill="#455a64"/>
      <path id="Path_3312" data-name="Path 3312" d="M267.75,60.527a1.89,1.89,0,0,1,.644-.527,4.475,4.475,0,0,1,5.286.7,2.61,2.61,0,0,1,.836,1.89,1.589,1.589,0,0,1-1.639,1.5,1.2,1.2,0,0,1-.979-.744,1.673,1.673,0,0,1-.075-1.146,2.191,2.191,0,0,1,1.481-1.455,2.794,2.794,0,0,1,1.849,0,3.99,3.99,0,0,1,1.355.836,6.766,6.766,0,0,1,1.355,1.807,2.652,2.652,0,0,1,.326.753,4.467,4.467,0,0,1-.477-.669,7.4,7.4,0,0,0-1.405-1.673,3.011,3.011,0,0,0-2.869-.711,1.832,1.832,0,0,0-1.2,1.171c-.159.552.1,1.3.686,1.347a1.171,1.171,0,0,0,1.146-1.087,2.225,2.225,0,0,0-.678-1.581,4.182,4.182,0,0,0-2.819-1.23,4.576,4.576,0,0,0-2.1.4,7.039,7.039,0,0,1-.719.418Z" transform="translate(-134.963 -37.893)" fill="#455a64"/>
      <path id="Path_3313" data-name="Path 3313" d="M296.748,79.838c.117-.05,4.709-1.389,4.559,3.3s-4.818,3.563-4.826,3.429S296.748,79.838,296.748,79.838Z" transform="translate(-139.662 -41.194)" fill="#ffbe9d"/>
      <path id="Path_3314" data-name="Path 3314" d="M298.259,85.134a1.886,1.886,0,0,0,.218.125.836.836,0,0,0,.611,0,2.024,2.024,0,0,0,.987-1.782,2.829,2.829,0,0,0-.184-1.179.962.962,0,0,0-.594-.644.41.41,0,0,0-.493.209c-.067.125-.042.217-.067.226s-.092-.075-.05-.268a.544.544,0,0,1,.192-.293.627.627,0,0,1,.452-.1,1.154,1.154,0,0,1,.836.753,2.794,2.794,0,0,1,.234,1.313,2.108,2.108,0,0,1-1.255,1.982.887.887,0,0,1-.736-.142C298.267,85.251,298.242,85.142,298.259,85.134Z" transform="translate(-139.952 -41.488)" fill="#eb996e"/>
      <path id="Path_3315" data-name="Path 3315" d="M260.139,351.593l3.045,14.019s-13.224,7.8-12.915,10.439l27.377-4.918L273.8,349.1Z" transform="translate(-132.103 -85.266)" fill="#263238"/>
      <path id="Path_3316" data-name="Path 3316" d="M277.635,375.008l-.477-2.208-26.081,5.546s-1.121.753-.836,1.581Z" transform="translate(-132.092 -89.142)" fill="#455a64"/>
      <path id="Path_3317" data-name="Path 3317" d="M296.544,353.92,297,368.257s-14.421,5.278-14.6,7.93l27.829.125.209-22.367Z" transform="translate(-137.359 -86.054)" fill="#263238"/>
      <g id="Group_3164" data-name="Group 3164" transform="translate(145.031 287.999)" opacity="0.6">
        <path id="Path_3318" data-name="Path 3318" d="M310.227,380.248l-.067-2.258-26.658.728s-1.238.535-1.1,1.405Z" transform="translate(-282.388 -377.99)" fill="#455a64"/>
      </g>
      <path id="Path_3319" data-name="Path 3319" d="M257.48,349.858s-14.22-69.969-14.27-71.375L268.688,265l9.87,82.115Z" transform="translate(-130.95 -71.512)" fill="#263238"/>
      <path id="Path_3320" data-name="Path 3320" d="M294.787,340.433,275.08,219.148V193L302,195.509c.343,1.02,9.151,145.1,9.151,145.1l-2.777-.159H294.787" transform="translate(-136.162 -59.736)" fill="#263238"/>
      <path id="Path_3321" data-name="Path 3321" d="M254.377,190.78,243.21,266.345l24.968-6.056,10.18-67.05Z" transform="translate(-130.95 -59.373)" fill="#263238"/>
      <path id="Path_3322" data-name="Path 3322" d="M284.18,198.44v.368l.117,1.087c.109.962.268,2.367.477,4.182.427,3.613,1.071,8.841,1.907,15.3,1.673,12.906,4.182,30.706,6.909,50.38,1.355,9.845,2.6,19.238,3.664,27.762.276,2.133.494,4.224.836,6.24s.611,3.973.9,5.855c.577,3.781,1.112,7.311,1.6,10.523.97,6.441,1.731,11.652,2.233,15.257.251,1.8.435,3.2.544,4.182.059.477.092.837.109,1.087a1.5,1.5,0,0,1,0,.276c0,.075-.042,0-.042,0h.05a1.316,1.316,0,0,0,0-.285,6.541,6.541,0,0,0-.075-1.087c-.084-.954-.251-2.359-.477-4.182-.46-3.605-1.188-8.824-2.125-15.265-.477-3.22-1-6.75-1.556-10.531q-.427-2.835-.887-5.855c-.293-2.016-.5-4.107-.778-6.24-1.037-8.54-2.275-17.925-3.63-27.762-2.719-19.673-5.286-37.473-7.01-50.371-.836-6.441-1.539-11.66-2.016-15.282l-.544-4.182c-.059-.468-.109-.836-.142-1.079S284.18,198.44,284.18,198.44Z" transform="translate(-137.65 -60.626)" fill="#455a64"/>
      <path id="Path_3323" data-name="Path 3323" d="M263.727,338.716a2.293,2.293,0,0,0-.042-.36l-.142-1.046c-.159-.928-.385-2.284-.686-4.023-.611-3.5-1.5-8.557-2.593-14.788l-8.682-48.782a11.228,11.228,0,0,1-.209-3.538c.151-1.171.343-2.35.519-3.513q.544-3.488,1.062-6.876c.711-4.509,1.405-8.85,2.1-12.982,1.372-8.273,2.7-15.7,3.889-21.932s2.225-11.25,3.02-14.7c.376-1.731.719-3.07.928-3.973.1-.443.176-.836.234-1.037a2.3,2.3,0,0,0,.075-.351s-.042.109-.109.343-.151.585-.268,1.029c-.234.9-.594,2.233-.987,3.956-.836,3.455-1.916,8.473-3.137,14.7s-2.568,13.651-3.956,21.915c-.7,4.14-1.405,8.482-2.125,12.99-.351,2.25-.7,4.55-1.071,6.876-.167,1.171-.36,2.325-.519,3.53a11.845,11.845,0,0,0,.218,3.639c3.429,19.029,6.533,36.269,8.783,48.757,1.138,6.223,2.058,11.267,2.693,14.772l.753,4.015c.092.443.159.795.209,1.037A1.442,1.442,0,0,1,263.727,338.716Z" transform="translate(-132.22 -61.013)" fill="#455a64"/>
      <path id="Path_3324" data-name="Path 3324" d="M275.079,223.24c-.092,0,1.071,7.854,2.6,17.5s2.844,17.432,2.936,17.432-1.071-7.854-2.6-17.5S275.171,223.223,275.079,223.24Z" transform="translate(-136.161 -64.682)" fill="#455a64"/>
      <path id="Path_3325" data-name="Path 3325" d="M298.35,369a3.151,3.151,0,0,0,.644.109c.418.05,1.029.109,1.773.167,1.5.117,3.572.226,5.855.268s4.366,0,5.855-.075a16.764,16.764,0,0,0,1.782-.109,2.148,2.148,0,0,0,.644-.092,18.312,18.312,0,0,0-2.426-.042h-5.855c-2.284,0-4.358-.117-5.855-.167A17.7,17.7,0,0,0,298.35,369Z" transform="translate(-139.967 -88.517)" fill="#455a64"/>
      <path id="Path_3326" data-name="Path 3326" d="M260.27,365.913a3.722,3.722,0,0,0,.836-.042l2.267-.234c1.915-.226,4.55-.544,7.461-.928s5.537-.736,7.436-1.012l2.258-.343a3.789,3.789,0,0,0,.836-.167,3.961,3.961,0,0,0-.836,0l-2.267.234c-1.916.217-4.55.544-7.461.92s-5.537.736-7.444,1.021l-2.25.343A4.054,4.054,0,0,0,260.27,365.913Z" transform="translate(-133.74 -87.566)" fill="#455a64"/>
      <path id="Path_3327" data-name="Path 3327" d="M109,47.881s11.058-4.316,18.611-2.158,9.828,6.825,15.491,6.449c4.5-.318,7.687-2.267,9.31-7.051s1.623-10.757,16.988-10.188c11.761.435,12.948,2.158,12.948,2.158l1.263,31.292c-6.692-1.054-13.467-1.815-20.769-.786a8.766,8.766,0,0,0-6.851,7.528c-.836,6.692-7.72,9.285-11.836,9.285-5.855,0-8.866-3.982-13.86-5.136-7.838-1.815-21.3,3.672-21.3,3.672Z" transform="translate(-109 -33.879)" fill="#db0101"/>
      <path id="Path_3328" data-name="Path 3328" d="M202.6,128.537l-6.759-.477.176,10.606,7.252,5.295.736-.268.418-12.062Z" transform="translate(-123.202 -49.116)" fill="#eb996e"/>
      <path id="Path_3329" data-name="Path 3329" d="M159.4,74.718c-.117,0-.318-5.186-.443-11.585s-.125-11.593,0-11.593.318,5.178.443,11.585S159.522,74.71,159.4,74.718Z" transform="translate(-117.156 -36.601)" fill="#263238"/>
      <path id="Path_3330" data-name="Path 3330" d="M144.668,63c.125,0,.217,5.362.217,11.961s-.092,11.97-.217,11.97-.217-5.362-.217-11.97S144.55,63,144.668,63Z" transform="translate(-114.798 -38.475)" fill="#263238"/>
      <g id="Group_3165" data-name="Group 3165" transform="translate(29.569 15.533)" opacity="0.2">
        <path id="Path_3331" data-name="Path 3331" d="M144.651,79.895c-.084,2.4,0,5.588,0,5.588a10.663,10.663,0,0,0,7.394,1.255h.059a8.147,8.147,0,0,0,5.437-5.855,9.2,9.2,0,0,0,.318-2.785c-.669-7.955-1.531-17.867-1.28-25.846a13.3,13.3,0,0,1-12.229,2.635Z" transform="translate(-144.35 -52.25)"/>
      </g>
      <g id="Group_3166" data-name="Group 3166" transform="translate(0.887 12.174)" opacity="0.6">
        <path id="Path_3332" data-name="Path 3332" d="M137.939,55.332a5.973,5.973,0,0,1-1.029-.586l-2.735-1.673a29.636,29.636,0,0,0-9.661-4.082,21.8,21.8,0,0,0-10.4.619,43.14,43.14,0,0,0-4.057,1.673,6.692,6.692,0,0,1,1-.636,19.424,19.424,0,0,1,2.961-1.3A20.962,20.962,0,0,1,124.6,48.59a28,28,0,0,1,9.745,4.241c1.146.736,2.041,1.372,2.66,1.815A6.072,6.072,0,0,1,137.939,55.332Z" transform="translate(-110.06 -48.235)" fill="#fff"/>
      </g>
      <g id="Group_3167" data-name="Group 3167" transform="translate(44.909 3.081)" opacity="0.6">
        <path id="Path_3333" data-name="Path 3333" d="M173.723,37.578c0,.075-.836,0-2.141.134a10.406,10.406,0,0,0-8.055,5.6c-.6,1.171-.786,1.982-.836,1.957a5.261,5.261,0,0,1,.585-2.091,9.837,9.837,0,0,1,8.306-5.78A5.312,5.312,0,0,1,173.723,37.578Z" transform="translate(-162.69 -37.363)" fill="#fff"/>
      </g>
      <path id="Path_3334" data-name="Path 3334" d="M197.052,33.68l8.925,247.958-1.539.368L195.27,33.8Z" transform="translate(-123.109 -33.68)" fill="#263238"/>
      <path id="Path_3335" data-name="Path 3335" d="M214.063,141.421l-3.346-12.037-11.894-8.365s-1.389.836.736,3.973l2.668,3.68s-.084,4.793,2.2,7.6l-.736,6.491Z" transform="translate(-123.617 -47.964)" fill="#ffbe9d"/>
      <path id="Path_3336" data-name="Path 3336" d="M195.547,130.665a12.941,12.941,0,0,1,3.346,3.145,2.342,2.342,0,0,1,.251,1.138.9.9,0,0,1-.468.836.836.836,0,0,1-.77-.075,2.616,2.616,0,0,1-.619-.519l-2.292-2.367a2.643,2.643,0,0,1-.795-1.3.912.912,0,0,1,1.313-.836" transform="translate(-122.934 -49.529)" fill="#ffbe9d"/>
      <path id="Path_3337" data-name="Path 3337" d="M195.533,134.347a13.226,13.226,0,0,1,3.346,3.145,2.384,2.384,0,0,1,.251,1.138.9.9,0,0,1-.468.836.92.92,0,0,1-.778-.075,2.577,2.577,0,0,1-.611-.519l-2.267-2.309a2.685,2.685,0,0,1-.786-1.3.92.92,0,0,1,1.313-.836" transform="translate(-122.937 -50.142)" fill="#ffbe9d"/>
      <path id="Path_3338" data-name="Path 3338" d="M196.117,138.335a12.941,12.941,0,0,1,3.346,3.145,2.25,2.25,0,0,1,.251,1.138.9.9,0,0,1-.46.836.887.887,0,0,1-.778-.075,2.793,2.793,0,0,1-.619-.519l-2.292-2.367a2.768,2.768,0,0,1-.795-1.3.912.912,0,0,1,1.313-.836" transform="translate(-123.027 -50.783)" fill="#ffbe9d"/>
      <path id="Path_3339" data-name="Path 3339" d="M196.2,128.137a4.359,4.359,0,0,1,1.388,1,1.589,1.589,0,0,1,.284,1.673.7.7,0,0,1-.535.41.836.836,0,0,1-.468-.117,4.448,4.448,0,0,1-.912-.56,6.831,6.831,0,0,1-.761-.836.836.836,0,0,1-.217-1.071c.176-.4.351-.636,1.221-.535" transform="translate(-123.044 -49.118)" fill="#ffbe9d"/>
      <path id="Path_3340" data-name="Path 3340" d="M214.632,138.22l18.059,16.219-5.872,12.948L206.1,145.28Z" transform="translate(-124.88 -50.777)" fill="#ffbe9d"/>
      <path id="Path_3341" data-name="Path 3341" d="M214.032,133.836,230.1,146.065s14.947-25.5,16.269-27.076a19.028,19.028,0,0,1,4.676-3.279l-1.857,32.68s-8.08,20.635-19.18,19.514c-8.5-.836-23.178-23.27-23.178-23.27Z" transform="translate(-125 -47.096)" fill="#db0101"/>
      <g id="Group_3168" data-name="Group 3168" transform="translate(102.569 98.568)" opacity="0.2">
        <path id="Path_3342" data-name="Path 3342" d="M233.854,151.52a14.111,14.111,0,0,0-1.623,11.71,1.723,1.723,0,0,0,.652,1.037,1.263,1.263,0,0,0,1.606-.535,3.78,3.78,0,0,0,.418-1.807,4.182,4.182,0,0,0,1.179,1.556,1.447,1.447,0,0,0,1.815-.067c.535-.585.234-1.514-.084-2.242q-2.058-4.651-4.107-9.3" transform="translate(-231.623 -151.52)"/>
      </g>
      <path id="Path_3343" data-name="Path 3343" d="M218.76,141.75a59.2,59.2,0,0,1-3.68,6.165,60.125,60.125,0,0,1-4.04,5.93,57.435,57.435,0,0,1,3.68-6.165,59.643,59.643,0,0,1,4.04-5.93Z" transform="translate(-125.688 -51.354)" fill="#263238"/>
      <path id="Path_3344" data-name="Path 3344" d="M215.293,141.188c0-.042.167-.251.535-.117a.694.694,0,0,1,.427.5.736.736,0,0,1-1.221.644.694.694,0,0,1-.167-.636c.092-.385.385-.435.393-.376a1.231,1.231,0,0,0-.084.41c.017.234.2.468.485.318a.326.326,0,0,0,0-.585C215.5,141.205,215.326,141.239,215.293,141.188Z" transform="translate(-126.311 -51.236)" fill="#263238"/>
      <path id="Path_3345" data-name="Path 3345" d="M234.527,159.729A11.493,11.493,0,0,1,234.41,152c.125,0-.217,1.74-.176,3.873S234.653,159.7,234.527,159.729Z" transform="translate(-129.41 -53.031)" fill="#263238"/>
      <path id="Path_3346" data-name="Path 3346" d="M237.751,159.627a18.813,18.813,0,0,1-3.271-7.587,40.558,40.558,0,0,1,1.614,3.806A39.4,39.4,0,0,1,237.751,159.627Z" transform="translate(-129.522 -53.037)" fill="#263238"/>
      <path id="Path_3347" data-name="Path 3347" d="M292.394,111.056l-2.409-4.826H272.42l-2.76,5.454-10.874,2.459-4.676,69.994a4.868,4.868,0,0,0,.619,2.509h0l42.659,1.673,1.731.711c1.531-.945.577-4.843.594-6.692l.552-34.663,8.44-27.7Z" transform="translate(-132.732 -45.545)" fill="#db0101"/>
      <g id="Group_3169" data-name="Group 3169" transform="translate(141.453 61.069)" opacity="0.2">
        <path id="Path_3348" data-name="Path 3348" d="M278.11,113.532l3.1-3.1,3.5,8.415a87.985,87.985,0,0,0,11.426-8l-11.819,3.789q-1.506-3.965-2.995-7.946a30.609,30.609,0,0,1-2.978,6.884" transform="translate(-278.11 -106.69)"/>
      </g>
      <path id="Path_3349" data-name="Path 3349" d="M332.736,201.489l-11.5.594V169.076l-11.894-18.7,8.44-27.7c1.74.686,14.847,33.592,18.185,42.534a9.894,9.894,0,0,1,.619,4.032Z" transform="translate(-141.765 -48.234)" fill="#db0101"/>
      <path id="Path_3350" data-name="Path 3350" d="M259.113,133c.125,0-.452,6.784-1.271,15.115s-1.589,15.056-1.673,15.056.452-6.784,1.271-15.123S259,132.95,259.113,133Z" transform="translate(-133.067 -49.923)" fill="#263238"/>
      <path id="Path_3351" data-name="Path 3351" d="M280.574,106.71a42.1,42.1,0,0,1-2.091,5.629l-.234.569a1.431,1.431,0,0,1-.385.577.678.678,0,0,1-.761.05c-.2-.1-.343-.209-.494-.3l-1.581-1.071a7.085,7.085,0,0,1-1.389-1.079,7.526,7.526,0,0,1,1.556.836l1.631.987c.31.2.627.427.77.259a3.347,3.347,0,0,0,.485-.979,40.645,40.645,0,0,1,2.493-5.479Z" transform="translate(-135.926 -45.624)" fill="#263238"/>
      <path id="Path_3352" data-name="Path 3352" d="M295.9,111.047a18.2,18.2,0,0,1-2.685,1.079c-1.673.619-4,1.439-6.574,2.317l-1.405.477-.192.067-.075-.184c-.9-2.191-1.673-4.132-2.233-5.537a14.053,14.053,0,0,1-.795-2.275A15.762,15.762,0,0,1,283,109.156c.611,1.372,1.439,3.3,2.367,5.479l-.276-.117,1.405-.485c2.576-.836,4.918-1.673,6.616-2.2A19.52,19.52,0,0,1,295.9,111.047Z" transform="translate(-137.284 -45.67)" fill="#263238"/>
      <path id="Path_3353" data-name="Path 3353" d="M315.206,123.86c0,.125-2.434.836-5.3,2.074s-5.019,2.66-5.1,2.509a5.537,5.537,0,0,1,1.338-1.02,27.6,27.6,0,0,1,7.411-3.3,5.437,5.437,0,0,1,1.656-.268Z" transform="translate(-141.022 -48.429)" fill="#263238"/>
      <path id="Path_3354" data-name="Path 3354" d="M280.8,106.71a.723.723,0,0,1,0,.209v.619c0,.544.05,1.338.059,2.367,0,2.049,0,5.019-.134,8.691-.259,7.344-1.179,17.465-2.643,28.565-.711,5.562-1.5,10.874-2.024,15.658a102.129,102.129,0,0,0-.7,12.848,64.679,64.679,0,0,0,.686,8.641c.125,1.02.284,1.8.368,2.334a3.51,3.51,0,0,0,.092.611.779.779,0,0,1,0,.209.839.839,0,0,1-.059-.2c-.042-.167-.084-.36-.142-.6-.1-.527-.293-1.3-.443-2.325a58.694,58.694,0,0,1-.836-8.666,96.609,96.609,0,0,1,.6-12.89c.51-4.835,1.28-10.113,1.991-15.667,1.464-11.1,2.426-21.2,2.769-28.523.184-3.664.243-6.633.276-8.682v-2.978A.752.752,0,0,1,280.8,106.71Z" transform="translate(-136.148 -45.624)" fill="#263238"/>
      <path id="Path_3355" data-name="Path 3355" d="M335.68,210.729a43.2,43.2,0,0,1-6.1-.084,42.714,42.714,0,0,1-6.073-.51,42.25,42.25,0,0,1,6.089.075,43.779,43.779,0,0,1,6.081.519Z" transform="translate(-144.082 -62.526)" fill="#263238"/>
      <path id="Path_3356" data-name="Path 3356" d="M325.8,212.356v.309a.193.193,0,0,0,.335.117c.151-.126.1-.251-.042-.351s-.259-.059-.3-.1.075-.243.393-.192a.544.544,0,0,1,.418.326.6.6,0,0,1-.878.711.586.586,0,0,1-.234-.485C325.548,212.373,325.774,212.3,325.8,212.356Z" transform="translate(-144.406 -62.865)" fill="#263238"/>
      <g id="Group_3170" data-name="Group 3170" transform="translate(163.264 95.272)" opacity="0.2">
        <path id="Path_3357" data-name="Path 3357" d="M308.639,154.355q-1.882-3.388-3.747-6.775a93.139,93.139,0,0,0,2.509,35.708q.585-14.4,1.163-28.782" transform="translate(-304.186 -147.58)"/>
      </g>
      <g id="Group_3171" data-name="Group 3171" transform="translate(115.364 69.426)" opacity="0.2">
        <path id="Path_3358" data-name="Path 3358" d="M246.92,128.859a8.958,8.958,0,0,0,10.38,3.279,3.061,3.061,0,0,0,2.509,1.389,7.185,7.185,0,0,0,2.886-.56,22.509,22.509,0,0,0,13.994-16.286c-5.412,1.9-9.059,7.143-14.37,9.318a13.55,13.55,0,0,1-12.89-1.33Z" transform="translate(-246.92 -116.68)"/>
      </g>
      <path id="Path_3359" data-name="Path 3359" d="M286.6,140.772a3.279,3.279,0,0,1,.678-.05l2-.05c1.74,0,4.241-.075,7.26-.092h.2v.2c-.2,2.643-.418,5.7-.661,8.967v.117l-.109.059-.443.234-4.86,2.56-.125.059-.109-.084L285.927,149l-.067-.059v-.092c.218-2.426.393-4.442.519-5.939.067-.644.117-1.179.167-1.606a2.43,2.43,0,0,1,.075-.535,3.907,3.907,0,0,1,0,.611c0,.435-.05.987-.075,1.673-.084,1.472-.192,3.463-.326,5.855l-.067-.151,4.55,3.639h-.226l4.843-2.568.452-.234-.117.176.711-8.958.192.2c-2.936,0-5.4-.059-7.143-.092l-2.041-.05A5.848,5.848,0,0,1,286.6,140.772Z" transform="translate(-137.925 -51.163)" fill="#263238"/>
      <path id="Path_3360" data-name="Path 3360" d="M296.365,145.538a56.968,56.968,0,0,1-9.945-.184,28.081,28.081,0,0,1,4.977-.125,28.763,28.763,0,0,1,4.969.309Z" transform="translate(-138.016 -51.914)" fill="#fafafa"/>
      <path id="Path_3361" data-name="Path 3361" d="M296.266,147.6a57.462,57.462,0,0,1-10-.184,57.47,57.47,0,0,1,10,.184Z" transform="translate(-137.992 -52.251)" fill="#fafafa"/>
      <path id="Path_3362" data-name="Path 3362" d="M261.153,202.314c0,.117-.895,0-1.472-.912s-.4-1.748-.284-1.673a8.511,8.511,0,0,0,.644,1.464C260.534,201.9,261.195,202.2,261.153,202.314Z" transform="translate(-133.577 -60.836)" fill="#263238"/>
      <path id="Path_3363" data-name="Path 3363" d="M262.58,201.421a3.028,3.028,0,0,1-1.2-1.974,3,3,0,0,1,.125-2.317c.125,0,0,1.029.3,2.208S262.706,201.346,262.58,201.421Z" transform="translate(-133.892 -60.412)" fill="#263238"/>
      <path id="Path_3364" data-name="Path 3364" d="M300.783,196.51a7.143,7.143,0,0,1-2.953,6.282,23.971,23.971,0,0,0,1.9-2.944,23.867,23.867,0,0,0,1.054-3.337Z" transform="translate(-139.882 -60.31)" fill="#263238"/>
      <path id="Path_3365" data-name="Path 3365" d="M280.218,110.98h2.309l.987,1.715-.97,2.677-2.3-.259-.9-1.932Z" transform="translate(-136.859 -46.322)" fill="#455a64"/>
      <path id="Path_3366" data-name="Path 3366" d="M268.583,115.59s-13.885,8.942-20.978,5.37-15.893-7.946-23.814-6.9a37.842,37.842,0,0,0-13.241,4.182l-2.509,6.031,6.416,2.309s9.352-4.517,16.152-3.3c4.751.836,13.877,5.688,20.025,5.228s14.638-4.835,20.225-12.689Z" transform="translate(-125.198 -46.8)" fill="#455a64"/>
      <path id="Path_3367" data-name="Path 3367" d="M282.09,116.919a2.894,2.894,0,0,1-.9-.41,3.052,3.052,0,0,1-.836-.569,2.81,2.81,0,0,1,.912.418A2.852,2.852,0,0,1,282.09,116.919Z" transform="translate(-137.024 -47.133)" fill="#263238"/>
      <path id="Path_3368" data-name="Path 3368" d="M283.442,112.67a12.141,12.141,0,0,1-1.539,1.4,12.355,12.355,0,0,1-1.673,1.263,12.147,12.147,0,0,1,1.539-1.4,12.351,12.351,0,0,1,1.673-1.263Z" transform="translate(-137.004 -46.599)" fill="#263238"/>
      <path id="Path_3369" data-name="Path 3369" d="M282.47,113.267a6.625,6.625,0,0,1-2.2-2.317c.042,0,.477.535,1.079,1.171S282.495,113.225,282.47,113.267Z" transform="translate(-137.011 -46.317)" fill="#263238"/>
      <path id="Path_3370" data-name="Path 3370" d="M268.853,127.194a3.168,3.168,0,0,1-.31-.719c-.176-.452-.4-1.079-.636-1.773s-.443-1.33-.586-1.79a4.635,4.635,0,0,1-.192-.761,3.414,3.414,0,0,1,.309.719c.176.452.4,1.079.636,1.773s.443,1.33.577,1.79A4.27,4.27,0,0,1,268.853,127.194Z" transform="translate(-134.862 -48.149)" fill="#fafafa"/>
      <path id="Path_3371" data-name="Path 3371" d="M272.872,124.923a14.693,14.693,0,0,1-1.271-1.915A15.887,15.887,0,0,1,270.48,121,29.953,29.953,0,0,1,272.872,124.923Z" transform="translate(-135.41 -47.961)" fill="#fafafa"/>
      <path id="Path_3372" data-name="Path 3372" d="M276.57,122.243a9.8,9.8,0,0,1-1.422-1.28,9.9,9.9,0,0,1-1.288-1.414,22.078,22.078,0,0,1,2.71,2.693Z" transform="translate(-135.962 -47.724)" fill="#fafafa"/>
      <path id="Path_3373" data-name="Path 3373" d="M279.813,119.376a5.6,5.6,0,0,1-1.071-.786,5.454,5.454,0,0,1-.962-.92,4.625,4.625,0,0,1,1.071.786A4.577,4.577,0,0,1,279.813,119.376Z" transform="translate(-136.603 -47.416)" fill="#fafafa"/>
      <path id="Path_3374" data-name="Path 3374" d="M263.215,129.564a27.538,27.538,0,0,1-.243-3.028,25.344,25.344,0,0,1-.075-3.036,26.259,26.259,0,0,1,.251,3.028A26.307,26.307,0,0,1,263.215,129.564Z" transform="translate(-134.167 -48.37)" fill="#fafafa"/>
      <path id="Path_3375" data-name="Path 3375" d="M257.59,130.289s.125-1.556.385-3.463.51-3.455.552-3.446a32.717,32.717,0,0,1-.376,3.463A32.878,32.878,0,0,1,257.59,130.289Z" transform="translate(-133.301 -48.35)" fill="#fafafa"/>
      <path id="Path_3376" data-name="Path 3376" d="M253.806,121.69c.042,0-.4,1.673-1,3.731s-1.112,3.689-1.163,3.68.4-1.673,1-3.731A38.025,38.025,0,0,1,253.806,121.69Z" transform="translate(-132.328 -48.074)" fill="#fafafa"/>
      <path id="Path_3377" data-name="Path 3377" d="M249.864,119.87c.05,0-.485,1.731-1.179,3.823s-1.3,3.789-1.355,3.772.485-1.723,1.188-3.823S249.822,119.853,249.864,119.87Z" transform="translate(-131.623 -47.776)" fill="#fafafa"/>
      <path id="Path_3378" data-name="Path 3378" d="M244.33,117.25s-.427,1.874-1.046,4.182-1.163,4.115-1.2,4.107.418-1.874,1.037-4.182S244.279,117.242,244.33,117.25Z" transform="translate(-130.764 -47.348)" fill="#fafafa"/>
      <path id="Path_3379" data-name="Path 3379" d="M238.423,115.62c.05,0-.318,1.849-.837,4.107s-.937,4.082-.987,4.065.318-1.849.836-4.1S238.381,115.612,238.423,115.62Z" transform="translate(-129.868 -47.081)" fill="#fafafa"/>
      <path id="Path_3380" data-name="Path 3380" d="M232.731,114.58c.05,0,.109,1.949.125,4.358s0,4.375-.05,4.375-.1-1.957-.117-4.366S232.689,114.58,232.731,114.58Z" transform="translate(-129.228 -46.911)" fill="#fafafa"/>
      <path id="Path_3381" data-name="Path 3381" d="M227.624,123.411a2.506,2.506,0,0,1-.1-.351c-.067-.326-.134-.652-.209-.987-.167-.836-.368-1.982-.552-3.262s-.326-2.442-.4-3.287c0-.335-.059-.661-.084-1a1.054,1.054,0,0,1,0-.368,1.9,1.9,0,0,1,.067.36,8.338,8.338,0,0,0,.134,1c.151,1.046.293,2.108.452,3.271s.343,2.225.51,3.271l.151.987a1.221,1.221,0,0,1,.034.368Z" transform="translate(-128.178 -46.842)" fill="#fafafa"/>
      <path id="Path_3382" data-name="Path 3382" d="M221.954,124.624c-.042,0-.728-1.932-1.531-4.333s-1.405-4.375-1.363-4.391.736,1.924,1.531,4.333S222,124.607,221.954,124.624Z" transform="translate(-127 -47.127)" fill="#fafafa"/>
      <path id="Path_3383" data-name="Path 3383" d="M216.9,126.465c-.042,0-.937-1.773-2-4.015s-1.89-4.065-1.849-4.09.945,1.782,2.007,4.015S216.939,126.423,216.9,126.465Z" transform="translate(-126.017 -47.529)" fill="#fafafa"/>
      <path id="Path_3384" data-name="Path 3384" d="M211.021,126.846a5.722,5.722,0,0,1-.987-1.556,5.2,5.2,0,0,1-.594-1.74c.05,0,.309.761.744,1.673S211.063,126.812,211.021,126.846Z" transform="translate(-125.427 -48.378)" fill="#fafafa"/>
    </g>
  </g>
</svg>
