<svg id="Layer_1" data-name="Layer 1" xmlns="http://www.w3.org/2000/svg" viewBox="0 0 40 40"><defs><style>.cls-1{fill:#cb100a;}.cls-2{fill:#fff;}</style></defs><title>logo-small</title><path class="cls-1" d="M24.05,1.38A18.73,18.73,0,0,1,38.91,22.55l-2.1,2.29,1.11,1.59A18.83,18.83,0,0,1,21.85,38.52l-2-1.42-1.23,1.39A18.77,18.77,0,0,1,3.06,27.15l1.35-1.68L1.85,23.08A18.82,18.82,0,0,1,16.52,1.4a12.23,12.23,0,0,1,3.66.47A11.8,11.8,0,0,1,24.05,1.38Z"/><path class="cls-2" d="M36,26.88a17.21,17.21,0,0,1-13.58,10l-1.51-1a3.87,3.87,0,0,0,0-4.66,17,17,0,0,0-2-1.65c-.7-.64-1.19-1.59-1.92-2.29S15.4,26,14.7,25.31a11.15,11.15,0,0,0-1.86-1.9,6.31,6.31,0,0,0-7.37.82l-2.15-2a17,17,0,0,1-.18-2.46A17.2,17.2,0,0,1,16.59,3h.56c-6,3.24-5,6.93-3.74,8.48,1.48,1.93,4.5,2,6.8.47,1.54-1.06,4.94-.72,6,.82C29.72,17.88,32.61,22,36,26.88Z"/></svg>