<svg 
 xmlns="http://www.w3.org/2000/svg"
 xmlns:xlink="http://www.w3.org/1999/xlink"
 width="15px" height="25px">
<path fill-rule="evenodd"  fill="rgb(210, 223, 231)"
 d="M11.655,0.775 L3.132,0.775 C1.662,0.775 0.469,1.968 0.469,3.439 L0.469,21.560 C0.469,23.031 1.662,24.224 3.132,24.224 L11.655,24.224 C13.126,24.224 14.319,23.031 14.319,21.560 L14.319,3.439 C14.319,1.968 13.126,0.775 11.655,0.775 ZM7.394,23.159 C6.510,23.159 5.796,22.445 5.796,21.560 C5.796,20.675 6.510,19.961 7.394,19.961 C8.278,19.961 8.992,20.675 8.992,21.560 C8.992,22.445 8.278,23.159 7.394,23.159 ZM12.188,18.895 L2.600,18.895 L2.600,3.972 L12.188,3.972 L12.188,18.895 Z"/>
</svg>