<svg 
 xmlns="http://www.w3.org/2000/svg"
 xmlns:xlink="http://www.w3.org/1999/xlink"
 width="35px" height="35px">
<path fill-rule="evenodd"  fill="rgb(231, 192, 23)"
 d="M17.500,34.998 C7.835,34.998 -0.000,27.163 -0.000,17.499 C-0.000,7.833 7.835,-0.002 17.500,-0.002 C27.165,-0.002 35.000,7.833 35.000,17.499 C35.000,27.163 27.165,34.998 17.500,34.998 ZM20.178,8.973 C20.178,7.633 18.801,6.546 17.461,6.546 C16.121,6.546 14.782,7.633 14.782,8.973 L14.782,19.085 C14.782,20.425 15.869,21.512 17.209,21.512 C18.549,21.512 20.178,20.425 20.178,19.085 L20.178,8.973 ZM17.544,22.826 C16.029,22.826 14.801,24.053 14.801,25.568 C14.801,27.083 16.029,28.311 17.544,28.311 C19.059,28.311 20.286,27.083 20.286,25.568 C20.286,24.053 19.059,22.826 17.544,22.826 Z"/>
</svg>