<svg xmlns="http://www.w3.org/2000/svg" viewBox="0 0 73.7 73.7"><defs><style>.cls-1{fill:#cc1517;}</style></defs><title>R</title><g id="Tools"><path class="cls-1" d="M32.76,27.47l5.3-5.35a1,1,0,0,0,0-1.42,1,1,0,0,0-1.41,0l-5.3,5.36a1,1,0,0,0,0,1.41,1,1,0,0,0,1.41,0Z"/><path class="cls-1" d="M40.74,24a1,1,0,0,0-1.41,0L32,31.74a1,1,0,0,0,0,1.42,1,1,0,0,0,.69.27,1,1,0,0,0,.73-.31l7.35-7.71A1,1,0,0,0,40.74,24Z"/><path class="cls-1" d="M42.2,28.73a1,1,0,0,0-1.41,0l-3.87,4a1,1,0,0,0,0,1.41,1,1,0,0,0,.7.29,1,1,0,0,0,.72-.31l3.87-4A1,1,0,0,0,42.2,28.73Z"/><path class="cls-1" d="M45.88,14.12a1,1,0,0,0-1,1v7.6c-1.15-2.31-2.42-4.39-2.66-4.79a1,1,0,0,0-.86-.47h-9a1,1,0,0,0-.86.48c-.25.42-1.51,2.54-2.66,4.9V15.12a1,1,0,1,0-2,0V28.9h0c.15,6.94,5.13,10.52,10,10.52h.22c4.87-.1,9.7-3.73,9.79-10.46,0,0,0,0,0-.06V15.12A1,1,0,0,0,45.88,14.12ZM37,37.42h-.18c-3.82,0-7.91-2.66-8-8.56,0-1.76,2.37-6.5,4.08-9.41h7.9c1.35,2.24,4,7.11,4.08,9.06C45,34.52,40.91,37.34,37,37.42Z"/><path class="cls-1" d="M42,48.13h0l-.09-.07-.32-.25h0a1.41,1.41,0,0,0-.24-.13,5.44,5.44,0,0,1-1.93-4.18v-2a1,1,0,1,0-2,0v2a7.38,7.38,0,0,0,3.38,6.24l.76.61a4.08,4.08,0,0,1,1.24,2.93,4.42,4.42,0,0,1-4.14,4.29,5,5,0,0,1-3.32-.6,4.57,4.57,0,0,0,3-7.86c-.06-.06-.39-.32-.65-.53l0,0-.19-.16-.1-.07a.76.76,0,0,0-.19-.12,3.52,3.52,0,0,1-1.22-2.69v-4a1,1,0,0,0-2,0v4a5.48,5.48,0,0,0,2.51,4.64l.49.4a2.55,2.55,0,0,1,.79,1.85,2.57,2.57,0,0,1-4.91,1.08l0-.08-.22-1.18a1,1,0,0,0-2,.18A4.61,4.61,0,0,0,31,54.27c2,4.57,4.5,5.31,6.87,5.31q.47,0,.93,0a6.37,6.37,0,0,0,6-6.29A6.06,6.06,0,0,0,43,48.89C42.83,48.78,42.37,48.41,42,48.13Z"/></g></svg>