<svg xmlns="http://www.w3.org/2000/svg" viewBox="0 0 73.7 73.7"><defs><style>.cls-1{fill:#cc1517;}</style></defs><title>R</title><g id="Apparel-Textiles"><path class="cls-1" d="M59,26.75c-.2-.2-4.77-4.9-7.09-6.17l-.16-.12a6.53,6.53,0,0,0-5.49-1.22l-2-2.37h0a1,1,0,0,0-.33-.25h0A16.41,16.41,0,0,0,37.08,15a15.42,15.42,0,0,0-7.3,1.62l-.09.05h0s0,0-.05.05a.72.72,0,0,0-.22.17l-2,2.37a6.56,6.56,0,0,0-5.49,1.22l-.15.11c-2.33,1.28-6.9,6-7.1,6.18a1,1,0,0,0-.17,1.15l4,7.74a1,1,0,0,0,1.45.38l2.32-1.58V50.09a1,1,0,0,0,2,0V30.2a1,1,0,0,0-2,0V32l-2.5,1.7-3.11-6.1c1.54-1.55,4.6-4.47,6.12-5.3l.4-.27a4.66,4.66,0,0,1,4.08-.83l5.55,8.66a1,1,0,0,0,.76.46h.08a1,1,0,0,0,.75-.34l1.49-1.69V39.73a1,1,0,0,0,2,0V28.32L39.34,30a1,1,0,0,0,.75.34h.08a1,1,0,0,0,.77-.46l5.54-8.66a4.7,4.7,0,0,1,4.09.83l.39.27c1.52.83,4.58,3.75,6.12,5.3L54,33.73,51.47,32V30.2a1,1,0,0,0-2,0v2.36a1,1,0,0,0,.43.82L53.79,36a1,1,0,0,0,.56.17,1.07,1.07,0,0,0,.25,0,1,1,0,0,0,.64-.52l3.95-7.74A1,1,0,0,0,59,26.75Zm-17.1-8.84L36.85,24.1l-5.1-6.23a15.13,15.13,0,0,1,5.33-.9A13.93,13.93,0,0,1,41.92,17.91ZM33.73,27.7l-4.67-7.3,1.1-1.32,5.38,6.57Zm6.24,0-1.81-2.05,5.38-6.57,1.1,1.32Z"/><path class="cls-1" d="M50.44,35.61a1,1,0,0,0-1,1V54.09a2.65,2.65,0,0,1-2.65,2.64H26.91a2.64,2.64,0,0,1-2.59-2.12H47.18a1,1,0,0,0,0-2H23.23a1,1,0,0,0-1,1s0,.09,0,.14v.34a4.65,4.65,0,0,0,4.65,4.64H46.79a4.65,4.65,0,0,0,4.65-4.64V36.61A1,1,0,0,0,50.44,35.61Z"/><path class="cls-1" d="M48.59,37.47V34.71a2.37,2.37,0,0,0-2.37-2.36H41.9a2.37,2.37,0,0,0-2.37,2.36v2.93A4.45,4.45,0,0,0,44,42.09,4.63,4.63,0,0,0,48.59,37.47Zm-7.06.17V34.71a.36.36,0,0,1,.37-.36h4.32a.37.37,0,0,1,.37.36v2.76A2.63,2.63,0,0,1,44,40.09,2.45,2.45,0,0,1,41.53,37.64Z"/></g></svg>