<svg xmlns="http://www.w3.org/2000/svg" viewBox="0 0 73.7 73.7"><defs><style>.cls-1{fill:#cc1517;}</style></defs><title>R</title><g id="Industrial"><path class="cls-1" d="M22.37,34.15h4.76a1,1,0,1,0,0-2H22.37a1,1,0,1,0,0,2Z"/><path class="cls-1" d="M22.37,38.56h4.76a1,1,0,0,0,0-2H22.37a1,1,0,0,0,0,2Z"/><path class="cls-1" d="M22.37,43H32.78a1,1,0,0,0,0-2H22.37a1,1,0,1,0,0,2Z"/><path class="cls-1" d="M49.74,48h3.57a1,1,0,0,0,0-2H20.8V29.68h8v8.59a1,1,0,1,0,2,0V35.12h4.77v6.59a1,1,0,0,0,1,1h16a1.1,1.1,0,0,1,.92.32,2.14,2.14,0,0,1,.38,1.41,1,1,0,0,0,.9,1.09h.1a1,1,0,0,0,1-.9,4.08,4.08,0,0,0-.89-2.94,3,3,0,0,0-1.51-.88l-2.92-21h1a1,1,0,0,0,0-2H40.37a1,1,0,0,0,0,2h1.32L39.2,37.69a1,1,0,0,0,.24.79,1,1,0,0,0,.75.35h9.09a1,1,0,0,0,0-2H41.34L42,32l5.2,3.58a1,1,0,0,0,1.39-.25,1,1,0,0,0-.25-1.39l-5.26-3.63,6.33-3.83,2,14.25H37.55V35a1.92,1.92,0,0,0-1.91-1.92H30.78V29.68a2,2,0,0,0-2-2h-1V27a1,1,0,0,0-2,0v.72H23.37V25.45a1,1,0,0,0-2,0v2.23H20.8a2,2,0,0,0-2,2V46a2,2,0,0,0,2,2h4.28a1,1,0,0,0,.25.32l5,4.29v5.81a1,1,0,0,0,2,0V52.12a1,1,0,0,0-.35-.75L28,48h6.53l-2,1.71a1,1,0,0,0-.1,1.41,1,1,0,0,0,.76.34,1,1,0,0,0,.65-.24l3.35-2.9a1,1,0,0,0,.18-.24,1.43,1.43,0,0,0,.19.24l4.95,4.29v5.81a1,1,0,0,0,2,0V52.12a1,1,0,0,0-.35-.75L40.28,48h6.53l-2,1.71a1,1,0,0,0-.1,1.41,1,1,0,0,0,.76.34,1,1,0,0,0,.65-.24l3.35-2.9A1.08,1.08,0,0,0,49.74,48ZM45.22,23.08l3,1.75L42.52,28.3l1.19-8.53H48.5l.43,3.15-2.7-1.57a1,1,0,0,0-1,1.73Z"/><path class="cls-1" d="M25.69,56.17l-1.14.95-1.37-1-.07,0a.71.71,0,0,0-.18-.08l-.18,0h-.19a.62.62,0,0,0-.19,0,.85.85,0,0,0-.17.06l-.18.1-.07,0-1.14.95-1.37-1a1,1,0,0,0-1.17,1.62l2,1.46a1.06,1.06,0,0,0,.59.19,1,1,0,0,0,.64-.24l1.14-.95,1.37,1a1,1,0,0,0,.59.19,1,1,0,0,0,.64-.24L27,57.7a1,1,0,1,0-1.28-1.53Z"/><path class="cls-1" d="M38.5,56.17l-1.13.95-1.37-1a1,1,0,0,0-1.4.22,1,1,0,0,0,.22,1.4l2,1.46a1.09,1.09,0,0,0,.59.19,1,1,0,0,0,.64-.24l1.74-1.45a1,1,0,0,0-1.29-1.53Z"/><path class="cls-1" d="M54.2,56.17l-1.13.95-1.38-1-.07,0a.75.75,0,0,0-.18-.08.61.61,0,0,0-.18,0h-.18a.68.68,0,0,0-.2,0,.76.76,0,0,0-.16.06l-.19.1-.07,0-1.13.95-1.37-1a1,1,0,1,0-1.18,1.62l2,1.46a1.06,1.06,0,0,0,.59.19,1,1,0,0,0,.64-.24l1.14-.95,1.37,1a1.06,1.06,0,0,0,.59.19,1,1,0,0,0,.64-.24l1.74-1.45a1,1,0,0,0-1.29-1.53Z"/><path class="cls-1" d="M46.7,16.86a1.18,1.18,0,0,0,1.06-1.27,1.08,1.08,0,1,0-2.13,0A1.18,1.18,0,0,0,46.7,16.86Z"/></g></svg>