<svg xmlns="http://www.w3.org/2000/svg" viewBox="0 0 73.7 73.7"><defs><style>.cls-1{fill:#cc1517;}</style></defs><title>R</title><g id="Pack-Print"><path class="cls-1" d="M54.05,17.23H19.65a5.4,5.4,0,0,0-5.39,5.39V51.08a5.4,5.4,0,0,0,5.39,5.39h34.4a5.4,5.4,0,0,0,5.39-5.39V22.62A5.4,5.4,0,0,0,54.05,17.23Zm-24.85,2H44.5v5.88l-3-2.16a1,1,0,0,0-1.21,0l-3.43,2.78L33.42,23a1,1,0,0,0-1.21,0l-3,2.16ZM57.44,51.08a3.39,3.39,0,0,1-3.39,3.39H19.65a3.39,3.39,0,0,1-3.39-3.39V22.62a3.39,3.39,0,0,1,3.39-3.39H27.2v7.83a1,1,0,0,0,1.59.81l4-2.85,3.47,2.81a.5.5,0,0,0,.14.08.6.6,0,0,0,.11.06,1,1,0,0,0,.38.09h0a1,1,0,0,0,.38-.09.6.6,0,0,0,.11-.06.39.39,0,0,0,.14-.08L41,25l4,2.85a1,1,0,0,0,1.59-.81V19.23h7.55a3.39,3.39,0,0,1,3.39,3.39Z"/><path class="cls-1" d="M31.62,45.94H19.38a1,1,0,1,0,0,2H31.62a1,1,0,0,0,0-2Z"/><path class="cls-1" d="M28.2,50.29H19.38a1,1,0,0,0,0,2H28.2a1,1,0,0,0,0-2Z"/><path class="cls-1" d="M44.56,39.65H29.14a1,1,0,1,0,0,2H44.56a1,1,0,0,0,0-2Z"/><path class="cls-1" d="M29.85,34.4h2v3a1,1,0,0,0,2,0v-3h2a.44.44,0,0,0,.31-.75l-3-3a.45.45,0,0,0-.63,0l-3,3A.44.44,0,0,0,29.85,34.4Z"/><path class="cls-1" d="M38.34,34.4h2v3a1,1,0,0,0,2,0v-3h2a.44.44,0,0,0,.31-.75l-3-3a.44.44,0,0,0-.62,0l-3,3A.44.44,0,0,0,38.34,34.4Z"/></g></svg>