<svg xmlns="http://www.w3.org/2000/svg" viewBox="0 0 73.7 73.7"><defs><style>.cls-1{fill:#cc1517;}</style></defs><title>R</title><g id="Services"><path class="cls-1" d="M57.41,34.62a1,1,0,0,0,1-1V17.15a3,3,0,0,0-3.06-3h-37a3,3,0,0,0-3.06,3V58.57a1,1,0,0,0,1,1h8.22a1,1,0,0,0,1-1V43.75l.68.92a1,1,0,0,0,.76.41H27a1,1,0,0,0,.74-.33l1.84-2.06,2.14,1.74h0V58.57a1,1,0,0,0,1,1H49.19a1,1,0,0,0,1-1V42.17l.85.89a1,1,0,0,0,.72.32,1,1,0,0,0,.73-.32l1.71-1.82,2.71,1.58a1,1,0,0,0,1,0,1,1,0,0,0,.5-.87V37.57a1,1,0,0,0-1-1H56a1,1,0,0,0,0,2h.4v1.64l-1.89-1.1a1,1,0,0,0-1.23.18l-1.53,1.63-1.57-1.66v-.69h.4a1,1,0,0,0,0-2H47.78a1,1,0,0,0,0,2h.41v19H42v-19h.41a1,1,0,0,0,0-2H39.56a1,1,0,0,0,0,2H40v19H33.74v-19h.4a1,1,0,0,0,0-2h-2.8a1,1,0,1,0,0,2h.4v3.3L30.1,40.53a1,1,0,0,0-1.38.11l-1.64,1.85-1.57-2.14V38.57h.33a1,1,0,0,0,0-2H23a1,1,0,0,0,0,2h.48v19H17.29v-19h.33a1,1,0,0,0,0-2h-.33V17.15a1,1,0,0,1,1.06-1h37a1,1,0,0,1,1.06,1V33.62A1,1,0,0,0,57.41,34.62Z"/><path class="cls-1" d="M21.4,42a1,1,0,0,0-2,0v8.71a1,1,0,0,0,2,0Z"/><path class="cls-1" d="M20.4,53a1,1,0,0,0,0,1.94,1,1,0,1,0,0-1.94Z"/><path class="cls-1" d="M37.73,42a1,1,0,0,0-2,0v8.71a1,1,0,0,0,2,0Z"/><path class="cls-1" d="M36.73,53a1,1,0,1,0,1,1A1,1,0,0,0,36.73,53Z"/><circle class="cls-1" cx="32.74" cy="30.69" r="0.97"/><circle class="cls-1" cx="36.57" cy="30.69" r="0.97"/><circle class="cls-1" cx="40.41" cy="30.69" r="0.97"/><path class="cls-1" d="M46.07,42a1,1,0,0,0-2,0v8.71a1,1,0,0,0,2,0Z"/><path class="cls-1" d="M45.07,53a1,1,0,0,0,0,1.94,1,1,0,0,0,0-1.94Z"/><path class="cls-1" d="M22.41,23.13h7a1,1,0,0,0,0-2h-7a1,1,0,0,0,0,2Z"/><path class="cls-1" d="M44.53,22.13a1,1,0,0,0-1-1H32.74a1,1,0,0,0,0,2H43.53A1,1,0,0,0,44.53,22.13Z"/><path class="cls-1" d="M51.94,22.13a1,1,0,0,0-1-1H46.29a1,1,0,0,0,0,2h4.65A1,1,0,0,0,51.94,22.13Z"/><path class="cls-1" d="M36.85,25.45H22.41a1,1,0,0,0,0,2H36.85a1,1,0,0,0,0-2Z"/><path class="cls-1" d="M50.19,26.45a1,1,0,0,0-1-1H40.41a1,1,0,0,0,0,2h8.78A1,1,0,0,0,50.19,26.45Z"/></g></svg>