<svg xmlns="http://www.w3.org/2000/svg" viewBox="0 0 73.7 73.7"><defs><style>.cls-1{fill:#cc1517;}</style></defs><title>R</title><g id="Construction"><path class="cls-1" d="M55,19H48.91a3.7,3.7,0,0,0-2.72-1.63,3.62,3.62,0,0,0-3.58-3.23H31.09a3.62,3.62,0,0,0-3.58,3.23A3.7,3.7,0,0,0,24.79,19H18.71a2.54,2.54,0,0,0-2.54,2.54v1.24a2.54,2.54,0,0,0,2.54,2.54h6.08a3.65,3.65,0,0,0,2.68,1.63v3.93a3.63,3.63,0,0,0,3.62,3.63H35.7a1,1,0,0,0,0-2H31.09a1.63,1.63,0,0,1-1.62-1.63V17.73a1.63,1.63,0,0,1,1.62-1.63H42.61a1.63,1.63,0,0,1,1.62,1.63V30.84a1.63,1.63,0,0,1-1.62,1.63H40.47a1,1,0,0,0-1,1,0,0,0,0,0,0,0,.08.08,0,0,0,0,0V46.16a2.62,2.62,0,0,1-5.24,0V37.69a1,1,0,0,0-2,0v8.47a4.62,4.62,0,0,0,3.62,4.5V58.6a1,1,0,0,0,2,0V50.66a4.62,4.62,0,0,0,3.62-4.5V34.47h1.14a3.63,3.63,0,0,0,3.62-3.63V26.91a3.65,3.65,0,0,0,2.68-1.63H55a2.54,2.54,0,0,0,2.54-2.54V21.5A2.54,2.54,0,0,0,55,19ZM27.46,22.85a.62.62,0,0,0,0,.19v1.84a1.68,1.68,0,0,1-1.13-1,1,1,0,0,0-.93-.62H18.71a.54.54,0,0,1-.54-.54V21.5a.54.54,0,0,1,.54-.54h6.67a1,1,0,0,0,.93-.61,1.67,1.67,0,0,1,1.13-1V21.2a.68.68,0,0,0,0,.2s0,.06,0,.1v1.24S27.46,22.82,27.46,22.85Zm28.07-.11a.54.54,0,0,1-.54.54H48.32a1,1,0,0,0-.93.62,1.68,1.68,0,0,1-1.13,1V23a.62.62,0,0,0,0-.19s0-.07,0-.11V21.5s0-.07,0-.1a.68.68,0,0,0,0-.2V19.36a1.67,1.67,0,0,1,1.13,1,1,1,0,0,0,.93.61H55a.54.54,0,0,1,.54.54Z"/><path class="cls-1" d="M32.47,18.31v4.88a1,1,0,0,0,2,0V18.31a1,1,0,0,0-2,0Z"/><path class="cls-1" d="M37.85,23.19V18.31a1,1,0,1,0-2,0v4.88a1,1,0,1,0,2,0Z"/><path class="cls-1" d="M40.23,24.19a1,1,0,0,0,1-1V18.31a1,1,0,1,0-2,0v4.88A1,1,0,0,0,40.23,24.19Z"/></g></svg>