<svg xmlns="http://www.w3.org/2000/svg" viewBox="0 0 73.7 73.7"><defs><style>.cls-1{fill:#cc1517;}</style></defs><title>R</title><g id="Timepieces-Jewels-Eyewears"><path class="cls-1" d="M43.5,26.39a1,1,0,0,0-.76,1.85,15.43,15.43,0,1,1-5.89-1.17.94.94,0,0,0,.37-.07.57.57,0,0,0,.13-.08,1.29,1.29,0,0,0,.16-.09l7.23-6.33A1,1,0,0,0,45,19.43l-1.47-4.38s0,0,0,0a.47.47,0,0,0,0-.1,1.37,1.37,0,0,0-.13-.2l-.09-.09a1.37,1.37,0,0,0-.2-.13l-.1-.05a1,1,0,0,0-.35-.07H31.09a1,1,0,0,0-.36.07l-.1.05a1.37,1.37,0,0,0-.2.13l-.09.09a1.37,1.37,0,0,0-.13.2.31.31,0,0,0-.05.1s0,0,0,0l-1.42,4.23a.5.5,0,0,0,0,.13v0a.89.89,0,0,0,0,.14c0,.05,0,.09,0,.14h0a1,1,0,0,0,.34.78l3.78,3.31a1,1,0,0,0,1.42-.09,1,1,0,0,0-.1-1.41l-1.83-1.6h3.62v4.41a17.38,17.38,0,1,0,7.65,1.27ZM31,18.71l.78-2.34h4.05v2.34Zm8.24,0H37.85V16.37h4l1,3.07-5.08,4.43V20.71h1.41a1,1,0,0,0,0-2Z"/><path class="cls-1" d="M24,42.5A12.85,12.85,0,1,0,36.85,29.66,12.87,12.87,0,0,0,24,42.5Zm23.7,0A10.85,10.85,0,1,1,36.85,31.66,10.86,10.86,0,0,1,47.7,42.5Z"/><path class="cls-1" d="M25,20.71a1,1,0,0,0,0-2H19.94a1,1,0,0,0,0,2Z"/><path class="cls-1" d="M26.38,18.78a1,1,0,0,0,.71.29,1,1,0,0,0,.71-1.7l-3.31-3.31a1,1,0,0,0-1.42,0,1,1,0,0,0,0,1.41Z"/><path class="cls-1" d="M26,21.24l-3,3.05a1,1,0,0,0,0,1.41,1,1,0,0,0,1.41,0l3-3A1,1,0,1,0,26,21.24Z"/><path class="cls-1" d="M53.76,18.71H48.7a1,1,0,0,0,0,2h5.06a1,1,0,0,0,0-2Z"/><path class="cls-1" d="M46.61,19.07a1,1,0,0,0,.71-.29l3.31-3.31a1,1,0,0,0,0-1.41,1,1,0,0,0-1.42,0l-3.3,3.31a1,1,0,0,0,0,1.41A1,1,0,0,0,46.61,19.07Z"/><path class="cls-1" d="M46.27,21.24a1,1,0,0,0,0,1.42l3,3A1,1,0,0,0,50,26a1,1,0,0,0,.7-.29,1,1,0,0,0,0-1.41l-3-3.05A1,1,0,0,0,46.27,21.24Z"/></g></svg>