<svg xmlns="http://www.w3.org/2000/svg" viewBox="0 0 73.7 73.7"><defs><style>.cls-1{fill:#cc1517;}</style></defs><title>R</title><g id="Amusement"><path class="cls-1" d="M42.88,35.06A12.12,12.12,0,1,0,55,47.18,12.14,12.14,0,0,0,42.88,35.06Zm0,22.24A10.12,10.12,0,1,1,53,47.18,10.13,10.13,0,0,1,42.88,57.3Z"/><path class="cls-1" d="M31.09,56.14a1,1,0,0,0-1.23.7c-.05.17-.09.33-.13.46h-5.8c-.88-1.71-3.55-7.44-3.2-12.55.16-2.39,1.57-7.25,2.84-11.24h6.88c.67,1.87,1.28,3.6,1.5,4.34a1,1,0,1,0,1.91-.58c-.52-1.73-3-8.45-3.67-10.35a9.8,9.8,0,0,0,1.37-5.19c0-4.11-2.09-7.33-4.75-7.33s-4.74,3.22-4.74,7.33a9.71,9.71,0,0,0,1.51,5.41C22.7,29.66,19,40.39,18.73,44.61c-.45,6.66,3.55,13.88,3.72,14.18a1,1,0,0,0,.87.51h7.17a1,1,0,0,0,1-.71s.14-.46.35-1.22A1,1,0,0,0,31.09,56.14ZM24.22,31.51c.51-1.55.94-2.82,1.2-3.55h3c.3.81.78,2.13,1.29,3.55ZM26.81,16.4c1.3,0,2.75,2.18,2.75,5.33A7.62,7.62,0,0,1,28.41,26H25.2a7.65,7.65,0,0,1-1.13-4.23C24.07,18.58,25.52,16.4,26.81,16.4Z"/><path class="cls-1" d="M33.38,34.75a1,1,0,0,0,.52.15,1,1,0,0,0,.85-.48,7.55,7.55,0,0,0,.38-.91h6.54a8.83,8.83,0,0,0,.34.87,1,1,0,0,0,1.33.37,1,1,0,0,0,.42-1.34c-.2-.41-1.15-3.52-2-6.46a9.77,9.77,0,0,0,1.39-5.22c0-4.11-2.09-7.33-4.75-7.33s-4.74,3.22-4.74,7.33a9.55,9.55,0,0,0,1.53,5.42C34.25,30,33.24,33,33.05,33.37A1,1,0,0,0,33.38,34.75Zm2.46-3.24c.4-1.15.83-2.45,1.19-3.55H40c.33,1.12.72,2.41,1.07,3.55ZM38.4,16.4c1.3,0,2.75,2.18,2.75,5.33A7.7,7.7,0,0,1,40,26H36.79a7.65,7.65,0,0,1-1.13-4.23C35.66,18.58,37.11,16.4,38.4,16.4Z"/><path class="cls-1" d="M41.46,42.14a1.17,1.17,0,1,0,1.16,1.16A1.17,1.17,0,0,0,41.46,42.14Z"/><path class="cls-1" d="M45.81,42.14A1.17,1.17,0,1,0,47,43.3,1.16,1.16,0,0,0,45.81,42.14Z"/><path class="cls-1" d="M43.64,38.9a1.17,1.17,0,1,0,1.16,1.17A1.17,1.17,0,0,0,43.64,38.9Z"/></g></svg>