<svg xmlns="http://www.w3.org/2000/svg" viewBox="0 0 73.7 73.7"><defs><style>.cls-1{fill:#cc1517;}</style></defs><title>R</title><g id="Food"><path class="cls-1" d="M20.47,26.59a1,1,0,0,0,1-1V15.24a1,1,0,0,0-2,0V25.59A1,1,0,0,0,20.47,26.59Z"/><path class="cls-1" d="M38.16,14.66c-4.26,0-7.57,5.68-7.57,10.56,0,4.15,2.39,6.86,6.32,7.33V40a.29.29,0,0,0,0,.09.44.44,0,0,0,0,.1,1,1,0,0,0,1,1,1.3,1.3,0,0,1,1.29,1.3V56.38a1.3,1.3,0,0,1-2.59,0V42.44a1,1,0,0,0-2,0V56.38a3.3,3.3,0,0,0,6.59,0V42.44a3.28,3.28,0,0,0-2.29-3.12V32.6c4.23-.29,6.83-3.05,6.83-7.38C45.74,20.34,42.43,14.66,38.16,14.66Zm0,16c-1.67,0-5.57-.53-5.57-5.41,0-3.85,2.57-8.56,5.57-8.56s5.58,4.71,5.58,8.56C43.74,30.1,39.84,30.63,38.16,30.63Z"/><path class="cls-1" d="M25.46,15.11a1,1,0,1,0-2,.3c.12.77.25,1.56.39,2.34.66,3.86,1.36,7.86-.15,9.64a4,4,0,0,1-3.26,1.14,4,4,0,0,1-3.24-1.12c-1.5-1.79-.81-5.86-.14-9.81.13-.73.25-1.47.37-2.2a1,1,0,0,0-2-.31c-.11.72-.24,1.45-.36,2.18-.78,4.59-1.52,8.93.59,11.43a5.44,5.44,0,0,0,3.77,1.77s0,0,0,.06v9.61a1,1,0,0,0,1,1,1.3,1.3,0,0,1,1.3,1.3V56.38a1.3,1.3,0,0,1-2.59,0V42.44a1,1,0,0,0-2,0V56.38a3.3,3.3,0,0,0,6.59,0V42.44a3.27,3.27,0,0,0-2.3-3.12V30.53s0,0,0-.06a5.41,5.41,0,0,0,3.8-1.79c2.1-2.5,1.33-7,.59-11.27C25.71,16.64,25.58,15.87,25.46,15.11Z"/><path class="cls-1" d="M59.23,29.81c-.85-9.09-8.78-15.31-9.12-15.57a1,1,0,0,0-1-.11,1,1,0,0,0-.56.9V56.38a3.3,3.3,0,0,0,6.59,0V46a3.3,3.3,0,0,0-2.2-3.11,1,1,0,0,0-.66,1.89A1.3,1.3,0,0,1,53.09,46V56.38a1.3,1.3,0,0,1-2.59,0V17.28c2.27,2.24,6.19,6.9,6.74,12.72.2,2.13.12,7.88.08,10.25L54.16,40a1,1,0,0,0-1.07.93A1,1,0,0,0,54,42l4.21.3a1.07,1.07,0,0,0,.74-.26,1,1,0,0,0,.32-.72C59.3,41,59.49,32.62,59.23,29.81Z"/></g></svg>