<svg xmlns="http://www.w3.org/2000/svg" viewBox="0 0 73.7 73.7"><defs><style>.cls-1{fill:#cc1517;}</style></defs><title>R</title><g id="Computer"><path class="cls-1" d="M55.26,17.26H18.44a3.88,3.88,0,0,0-3.88,3.88V35.32a1,1,0,0,0,2,0V21.14a1.88,1.88,0,0,1,1.88-1.88H55.26a1.88,1.88,0,0,1,1.88,1.88v8a1,1,0,0,0,2,0v-8A3.88,3.88,0,0,0,55.26,17.26Z"/><path class="cls-1" d="M56,31.38H44a3.06,3.06,0,0,0-3.06,3.06V53.38A3.06,3.06,0,0,0,44,56.44H56A3.06,3.06,0,0,0,59,53.38V34.44A3.06,3.06,0,0,0,56,31.38Zm1.06,22A1.07,1.07,0,0,1,56,54.44H44a1.06,1.06,0,0,1-1.06-1.06V34.44A1.05,1.05,0,0,1,44,33.38H56A1.06,1.06,0,0,1,57,34.44Z"/><path class="cls-1" d="M24.75,37.73h-8a2.16,2.16,0,0,0-2.16,2.16V54.28a2.16,2.16,0,0,0,2.16,2.16h8a2.16,2.16,0,0,0,2.16-2.16V39.89A2.16,2.16,0,0,0,24.75,37.73Zm.16,16.55a.16.16,0,0,1-.16.16h-8a.16.16,0,0,1-.16-.16V39.89a.16.16,0,0,1,.16-.16h8a.16.16,0,0,1,.16.16Z"/><path class="cls-1" d="M38.32,40.14H29.41a1,1,0,1,0,0,2h8.91a1,1,0,1,0,0-2Z"/><path class="cls-1" d="M33.23,50.09h5.09a1,1,0,0,0,0-2H29.41a1,1,0,1,0,0,2h1.82V54.2a.93.93,0,0,0,.05.24H29.41a1,1,0,1,0,0,2h8.91a1,1,0,0,0,0-2H33.18a.93.93,0,0,0,0-.24Z"/><circle class="cls-1" cx="20.73" cy="52.06" r="1.13"/><circle class="cls-1" cx="36.74" cy="45.11" r="1.13"/><circle class="cls-1" cx="49.97" cy="52.06" r="1.13"/></g></svg>