<svg xmlns="http://www.w3.org/2000/svg" viewBox="0 0 73.7 73.7"><defs><style>.cls-1{fill:#cc1517;}</style></defs><title>R</title><g id="Software"><path class="cls-1" d="M36.85,14.45a22.4,22.4,0,1,0,22.4,22.4A22.43,22.43,0,0,0,36.85,14.45Zm0,42.8a20.4,20.4,0,1,1,20.4-20.4A20.42,20.42,0,0,1,36.85,57.25Z"/><path class="cls-1" d="M38.14,53.49c-.43,0-.86,0-1.29,0a1,1,0,0,0,0,2c.48,0,1,0,1.44,0a1,1,0,0,0,.92-1.07A1,1,0,0,0,38.14,53.49Z"/><path class="cls-1" d="M33.31,53.17a16.85,16.85,0,0,1-9-5.3,1,1,0,1,0-1.5,1.32,18.77,18.77,0,0,0,10.08,5.93.75.75,0,0,0,.21,0,1,1,0,0,0,.21-2Z"/><path class="cls-1" d="M36.15,20.17h0c.4,0,.81,0,1.22,0a1,1,0,0,0,1-1,1,1,0,0,0-1-1c-.45,0-.91,0-1.36,0a1,1,0,0,0,0,2Z"/><path class="cls-1" d="M40.85,18.59a1,1,0,0,0-1.19.76,1,1,0,0,0,.77,1.19,16.75,16.75,0,0,1,9,5.4,1,1,0,0,0,.76.35A1,1,0,0,0,50.9,26a1,1,0,0,0,.1-1.41A18.81,18.81,0,0,0,40.85,18.59Z"/><path class="cls-1" d="M36.05,24.09h.06q.68,0,1.35,0a1,1,0,0,0,.09-2,13.34,13.34,0,0,0-1.55,0,1,1,0,0,0,0,2Z"/><path class="cls-1" d="M41.66,22.87A1,1,0,1,0,41,24.76a13,13,0,0,1,5.37,3.57,1,1,0,0,0,.74.34A1,1,0,0,0,47.87,27,14.9,14.9,0,0,0,41.66,22.87Z"/><path class="cls-1" d="M36.85,51.63a1,1,0,0,0,0-2h-.59a1,1,0,0,0-1,1,1,1,0,0,0,1,1C36.4,51.63,36.62,51.63,36.85,51.63Z"/><path class="cls-1" d="M33.37,49.15a12.74,12.74,0,0,1-5.83-3.55,1,1,0,0,0-1.42,0,1,1,0,0,0,0,1.41,14.77,14.77,0,0,0,6.75,4.11,1.24,1.24,0,0,0,.27,0,1,1,0,0,0,1-.72A1,1,0,0,0,33.37,49.15Z"/><path class="cls-1" d="M36.85,28.75a8.1,8.1,0,1,0,8.1,8.1A8.11,8.11,0,0,0,36.85,28.75Zm0,14.2a6.1,6.1,0,1,1,6.1-6.1A6.11,6.11,0,0,1,36.85,43Z"/><path class="cls-1" d="M36.85,32.54a4.31,4.31,0,1,0,4.31,4.31A4.31,4.31,0,0,0,36.85,32.54Zm0,6.62a2.31,2.31,0,1,1,2.31-2.31A2.32,2.32,0,0,1,36.85,39.16Z"/></g></svg>