<svg xmlns="http://www.w3.org/2000/svg" viewBox="0 0 73.7 73.7"><defs><style>.cls-1{fill:#cc1517;}</style></defs><title>R</title><g id="Agriculture"><path class="cls-1" d="M23.76,38.12A9.19,9.19,0,1,0,33,47.31,9.21,9.21,0,0,0,23.76,38.12Zm0,16.38A7.19,7.19,0,1,1,31,47.31,7.2,7.2,0,0,1,23.76,54.5Z"/><path class="cls-1" d="M23.76,43.07A4.24,4.24,0,1,0,28,47.31,4.24,4.24,0,0,0,23.76,43.07Zm0,6.48A2.24,2.24,0,1,1,26,47.31,2.24,2.24,0,0,1,23.76,49.55Z"/><path class="cls-1" d="M53.52,43.07a6.43,6.43,0,0,0-2.15.37A13.42,13.42,0,0,0,37.75,38a1,1,0,0,0,.4,2,11.19,11.19,0,0,1,4.68,0,11.41,11.41,0,0,1,6.76,4.4,6.55,6.55,0,0,0-2.4,3.75h-10q0-.42,0-.84A13.44,13.44,0,0,0,14,38.11a1,1,0,0,0,0,1.41,1,1,0,0,0,1.42,0,11.3,11.3,0,0,1,8.34-3.61A11.45,11.45,0,0,1,35.2,47.31a10.72,10.72,0,0,1-.13,1.7s0,0,0,.07,0,.05,0,.07a.61.61,0,0,0,0,.13,1.29,1.29,0,0,0,0,.19.89.89,0,0,0,.08.17.86.86,0,0,0,.1.16l.14.13.16.1.19.07s.07,0,.12,0H47.06a6.49,6.49,0,1,0,6.46-7.08Zm0,11A4.49,4.49,0,1,1,58,49.56,4.5,4.5,0,0,1,53.52,54.05Z"/><path class="cls-1" d="M53.52,48.14a1.42,1.42,0,1,0,1.42,1.42A1.42,1.42,0,0,0,53.52,48.14Z"/><path class="cls-1" d="M17.33,33.49a1,1,0,0,0,1-1V22.91a2,2,0,0,1,2-2H24.8v9.7a1,1,0,0,0,2,0v-9.7h4.64c2.36,0,4.22,5.13,4.93,8.69l-3.5,3.78a1,1,0,0,0,.05,1.41,1,1,0,0,0,1.42,0l3.84-4.16a1,1,0,0,0,.23-.44H54.76a2,2,0,0,1,2,2v.47H51.62a1,1,0,1,0,0,2h5.14V36H51.62a1,1,0,0,0,0,2h5.14v1.4H51.62a1,1,0,1,0,0,2h5.14v.31a1,1,0,0,0,2,0V32.14a4,4,0,0,0-4-4H52.62V21.2a4,4,0,0,0-4-4,1,1,0,0,0,0,2,2,2,0,0,1,2,2v6.94H38.09c-.74-3.06-2.71-9.23-6.65-9.23H20.33a4,4,0,0,0-4,4v9.58A1,1,0,0,0,17.33,33.49Z"/></g></svg>