<svg xmlns="http://www.w3.org/2000/svg" viewBox="0 0 73.7 73.7"><defs><style>.cls-1{fill:#cc1517;}</style></defs><title>R</title><g id="Luggage-Bags-Cases"><path class="cls-1" d="M35.13,26.76h-10V17.7h6.29v5.92a1,1,0,1,0,2,0V15.06a1,1,0,0,0-1-1H24.1a1,1,0,0,0-1,1v11.7H21.54a4.63,4.63,0,0,0-4.62,4.62v2.5a1,1,0,0,0,2,0v-2.5a2.63,2.63,0,0,1,2.62-2.62H35.13a2.63,2.63,0,0,1,2.62,2.62V53.62a2.62,2.62,0,0,1-2.62,2.61H21.54a2.62,2.62,0,0,1-2.62-2.61V39.35h2v1.47a1,1,0,0,0,2,0V39.35H34a1,1,0,0,0,0-2h-16a1,1,0,0,0-1,1V53.62a4.62,4.62,0,0,0,4,4.55v.47a1,1,0,0,0,2,0v-.41H33.34v.41a1,1,0,0,0,2,0v-.43a4.62,4.62,0,0,0,4.41-4.59V31.38A4.62,4.62,0,0,0,35.13,26.76Z"/><path class="cls-1" d="M52.16,34.62H49.1v-2.8a1,1,0,0,0-1-1H42.54a1,1,0,0,0,0,2H47.1v1.8H42.37a1,1,0,0,0,0,2h9.79a2.62,2.62,0,0,1,2.62,2.61V53.62a2.62,2.62,0,0,1-2.62,2.61H42.37a1,1,0,0,0,0,2h8v.41a1,1,0,0,0,2,0v-.43a4.62,4.62,0,0,0,4.41-4.59V39.23A4.62,4.62,0,0,0,52.16,34.62Z"/><path class="cls-1" d="M49.89,53V39.14a1,1,0,0,0-2,0V53a1,1,0,0,0,2,0Z"/></g></svg>