<svg xmlns="http://www.w3.org/2000/svg" viewBox="0 0 73.7 73.7"><defs><style>.cls-1{fill:#cc1517;}</style></defs><title>R</title><g id="Stationery-Educationals-Publications"><path class="cls-1" d="M52.29,28.47H50.71V24.29a1,1,0,0,0-1-1H41V19.76a1,1,0,1,0-2,0v4.53a1,1,0,0,0,1,1h8.73v3.18H21.41a5.35,5.35,0,0,0-5.32,5.39V46a5.37,5.37,0,0,0,3.71,5.14,1,1,0,0,0,.61-1.91A3.35,3.35,0,0,1,18.09,46V33.86a3.36,3.36,0,0,1,3.32-3.39H52.29a3.37,3.37,0,0,1,3.33,3.39V46a3.41,3.41,0,0,1-2.37,3.25,1,1,0,0,0,.29,1.95,1,1,0,0,0,.3,0A5.35,5.35,0,0,0,57.62,46V33.86A5.36,5.36,0,0,0,52.29,28.47Z"/><path class="cls-1" d="M50.5,47.06a1,1,0,0,0-1,1v7.79a1.73,1.73,0,0,1-1.73,1.74H25.93a1.73,1.73,0,0,1-1.73-1.74V45.06H53.26a1,1,0,0,0,0-2H20.44a1,1,0,1,0,0,2H22.2V55.85a3.74,3.74,0,0,0,3.73,3.74H47.77a3.74,3.74,0,0,0,3.73-3.74V48.06A1,1,0,0,0,50.5,47.06Z"/><path class="cls-1" d="M24,26.23a1,1,0,0,0,1-1V17.89a1.78,1.78,0,0,1,1.78-1.77H41.07l6.59,5.82a1,1,0,0,0,1.41-.09A1,1,0,0,0,49,20.44l-6.87-6.07a1,1,0,0,0-.66-.25H26.81A3.77,3.77,0,0,0,23,17.89v7.34A1,1,0,0,0,24,26.23Z"/><path class="cls-1" d="M29.39,49.06H30.8a1,1,0,0,0,0-2H29.39a1,1,0,0,0,0,2Z"/><path class="cls-1" d="M43.15,48.06a1,1,0,0,0-1-1H35.39a1,1,0,0,0,0,2h6.76A1,1,0,0,0,43.15,48.06Z"/><path class="cls-1" d="M29.39,53.35h7.23a1,1,0,0,0,0-2H29.39a1,1,0,0,0,0,2Z"/><path class="cls-1" d="M40.33,53.35h4.51a1,1,0,0,0,0-2H40.33a1,1,0,0,0,0,2Z"/><path class="cls-1" d="M23.67,35.78a1.11,1.11,0,1,0-1.11,1.11A1.11,1.11,0,0,0,23.67,35.78Z"/><path class="cls-1" d="M27.79,35.78a1.12,1.12,0,1,0-1.11,1.11A1.12,1.12,0,0,0,27.79,35.78Z"/></g></svg>