<svg xmlns="http://www.w3.org/2000/svg" viewBox="0 0 73.7 73.7"><defs><style>.cls-1{fill:#cc1517;}</style></defs><title>R</title><g id="Home-Appliances"><path class="cls-1" d="M36.69,30.94a10.37,10.37,0,0,1,9.55,6.33,1,1,0,1,0,1.84-.78,12.37,12.37,0,1,0,1,4.81s0,0,0-.06a1.29,1.29,0,0,0,0-.19,1.59,1.59,0,0,0-.07-.2s0,0,0-.05l-.07-.09a1.14,1.14,0,0,0-.15-.16.56.56,0,0,0-.15-.1l-.17-.08a.73.73,0,0,0-.2,0l-.12,0H48l-.2,0a1,1,0,0,0-.18.07h-.06s-3.31,1.9-5.95,1.94c-1.68,0-2.8-.86-4-1.79a14,14,0,0,0-1.76-1.25c-2.09-1.18-6.07-.87-6.52-.83a1,1,0,1,0,.17,2c1.05-.09,4.05-.16,5.37.59a10.4,10.4,0,0,1,1.49,1.07,7.87,7.87,0,0,0,5.15,2.22h.1A14.54,14.54,0,0,0,46.9,43a10.35,10.35,0,1,1-10.21-12Z"/><path class="cls-1" d="M54.26,23.44V19.2a4.89,4.89,0,0,0-4.88-4.88H24.32a4.89,4.89,0,0,0-4.88,4.88,1,1,0,0,0,2,0,2.88,2.88,0,0,1,2.88-2.88h7.06v6.12H20.44a1,1,0,0,0-1,1V56.23a3.15,3.15,0,0,0,3.15,3.15H51.11a3.15,3.15,0,0,0,3.15-3.15V28.44a1,1,0,0,0-2,0V56.23a1.14,1.14,0,0,1-1.15,1.15H22.59a1.14,1.14,0,0,1-1.15-1.15V24.44H53.26A1,1,0,0,0,54.26,23.44ZM33.38,16.32h16a2.88,2.88,0,0,1,2.88,2.88v3.24H33.38Z"/><path class="cls-1" d="M29.67,44.34a4.39,4.39,0,0,1,4.47,2.07,1,1,0,0,0,.83.44,1,1,0,0,0,.56-.17,1,1,0,0,0,.27-1.39,6.34,6.34,0,0,0-6.6-2.89,1,1,0,0,0-.73,1.2A1,1,0,0,0,29.67,44.34Z"/><circle class="cls-1" cx="41.17" cy="19.41" r="1.03"/><circle class="cls-1" cx="45.13" cy="19.41" r="1.03"/><circle class="cls-1" cx="49.08" cy="19.41" r="1.03"/></g></svg>