<svg xmlns="http://www.w3.org/2000/svg" viewBox="0 0 73.7 73.7"><defs><style>.cls-1{fill:#cc1517;}</style></defs><title>R</title><g id="Machinery"><path class="cls-1" d="M18.86,46.15a1.4,1.4,0,1,0,1.4-1.4A1.4,1.4,0,0,0,18.86,46.15Z"/><path class="cls-1" d="M22.94,46.15a1.4,1.4,0,1,0,1.4-1.4A1.41,1.41,0,0,0,22.94,46.15Z"/><path class="cls-1" d="M27,46.15a1.4,1.4,0,1,0,1.4-1.4A1.4,1.4,0,0,0,27,46.15Z"/><path class="cls-1" d="M31.11,46.15a1.4,1.4,0,1,0,1.4-1.4A1.41,1.41,0,0,0,31.11,46.15Z"/><path class="cls-1" d="M35.2,46.15a1.4,1.4,0,1,0,1.4-1.4A1.4,1.4,0,0,0,35.2,46.15Z"/><path class="cls-1" d="M39.28,46.15a1.4,1.4,0,1,0,1.4-1.4A1.41,1.41,0,0,0,39.28,46.15Z"/><path class="cls-1" d="M16.15,38.79a1.26,1.26,0,0,0,.27,0,1,1,0,0,0,1-.73l1.81-6.45a.46.46,0,0,1,.42-.3h3.08a.49.49,0,0,1,.36.18l.07.09,2.4,2.63a3.57,3.57,0,0,0,2.65,1.17h1.57a2.74,2.74,0,0,0,2.74-2.73V24a2.74,2.74,0,0,0-2.74-2.73H23A2.74,2.74,0,0,0,20.24,24v2.68a1,1,0,0,0,2,0V24A.74.74,0,0,1,23,23.3h6.76a.74.74,0,0,1,.74.73v8.65a.74.74,0,0,1-.74.73H28.17A1.57,1.57,0,0,1,27,32.9l-2.37-2.6a2.42,2.42,0,0,0-1.94-1H19.61A2.46,2.46,0,0,0,17.29,31l-1.83,6.51A1,1,0,0,0,16.15,38.79Z"/><path class="cls-1" d="M40.28,32.53H35.2a1,1,0,0,0,0,2h5.08a1,1,0,0,0,0-2Z"/><path class="cls-1" d="M59.6,50.62c-.05-.09-4.44-8.4-4.65-13.91-.08-2.05-3.45-3.42-4.48-3.79a1,1,0,0,0-1.34.94v1.73H45.19V30.06a1,1,0,0,0-1-1h-9a1,1,0,0,0,0,2h8V42.27l0,.13a1.83,1.83,0,0,0,.06.25l0,.06a1.22,1.22,0,0,0,.2.25h0A4.3,4.3,0,0,1,45,46.15a4.25,4.25,0,0,1-4.25,4.25H20.24a4.25,4.25,0,1,1,0-8.5H38.42a1,1,0,0,0,0-2H20.24a6.25,6.25,0,1,0,0,12.5H40.71a6.24,6.24,0,0,0,4.57-10.5h4.85a1,1,0,0,0,1-1V35.38c1,.51,1.78,1.09,1.82,1.4.18,4.72,3,11,4.28,13.58a5.34,5.34,0,0,1-3.55-.73c-1.47-1-2.33-2.89-2.56-5.67A1,1,0,0,0,50.05,43a1,1,0,0,0-.92,1.08c.28,3.44,1.44,5.86,3.46,7.19a7,7,0,0,0,3.9,1.09A9.2,9.2,0,0,0,59,52a1,1,0,0,0,.61-.58A1,1,0,0,0,59.6,50.62Zm-10.47-13V39.9H45.19V37.59Z"/></g></svg>