<svg xmlns="http://www.w3.org/2000/svg" viewBox="0 0 73.7 73.7"><defs><style>.cls-1{fill:#cc1517;}</style></defs><title>R</title><g id="Automobiles-Transportation"><path class="cls-1" d="M36.85,15.13A21.72,21.72,0,0,0,23.42,53.92a1,1,0,0,0,.62.22,1,1,0,0,0,.62-1.79,19.72,19.72,0,1,1,24.38,0,1,1,0,1,0,1.24,1.57A21.72,21.72,0,0,0,36.85,15.13Z"/><path class="cls-1" d="M29.82,22.61H28.54A4.41,4.41,0,0,0,24.13,27V42.4a4.42,4.42,0,0,0,4.41,4.41H45.16a4.42,4.42,0,0,0,4.41-4.41V27a4.41,4.41,0,0,0-4.41-4.41H42.55a1.77,1.77,0,0,0-1.77-1.77H32.92a1.77,1.77,0,0,0-1.77,1.77v2.31a1.77,1.77,0,0,0,1.77,1.77h6.19a1,1,0,0,0,0-2h-6V22.84h7.4v.77a1,1,0,0,0,1,1h3.61A2.41,2.41,0,0,1,47.57,27V42.4a2.41,2.41,0,0,1-2.41,2.41H28.54a2.41,2.41,0,0,1-2.41-2.41V27a2.41,2.41,0,0,1,2.41-2.41h1.28a1,1,0,0,0,0-2Z"/><path class="cls-1" d="M45.53,29.84a1,1,0,0,0,0-2H28.17a1,1,0,0,0,0,2h7.68V37H28.17a1,1,0,1,0,0,2H45.53a1,1,0,0,0,0-2H37.85V29.84Z"/><path class="cls-1" d="M41.29,47.72H32.41a1,1,0,1,0,0,2h8.88a1,1,0,0,0,0-2Z"/><path class="cls-1" d="M29.2,53.14a1,1,0,0,0,1,1H43.5a1,1,0,0,0,0-2H30.2A1,1,0,0,0,29.2,53.14Z"/><path class="cls-1" d="M45.53,55.94H28.17a1,1,0,0,0,0,2H45.53a1,1,0,0,0,0-2Z"/><path class="cls-1" d="M30.35,47.88a1,1,0,0,0-1.38.31L23.38,57a1,1,0,0,0,.31,1.38,1,1,0,0,0,.54.16,1,1,0,0,0,.84-.47l5.59-8.84A1,1,0,0,0,30.35,47.88Z"/><path class="cls-1" d="M44.65,48.19a1,1,0,0,0-1.38-.31A1,1,0,0,0,43,49.26l5.59,8.84a1,1,0,0,0,.85.47,1,1,0,0,0,.53-.16A1,1,0,0,0,50.24,57Z"/><path class="cls-1" d="M33.73,40.49a1,1,0,0,0,0,2H40a1,1,0,0,0,0-2Z"/><path class="cls-1" d="M27.92,41.78a1.25,1.25,0,1,0,1.25-1.25A1.25,1.25,0,0,0,27.92,41.78Z"/><path class="cls-1" d="M44.53,40.53a1.25,1.25,0,1,0,1.25,1.25A1.25,1.25,0,0,0,44.53,40.53Z"/></g></svg>