<svg xmlns="http://www.w3.org/2000/svg" viewBox="0 0 73.7 73.7"><defs><style>.cls-1{fill:#cc1517;}</style></defs><title>R</title><g id="Furniture"><path class="cls-1" d="M51.5,44.43H32.44a2.72,2.72,0,0,0-2.71,2.71v5.13a1,1,0,0,0,1,1H53.2a1,1,0,0,0,1-1V47.14A2.71,2.71,0,0,0,51.5,44.43Zm.7,6.84H31.73V47.14a.71.71,0,0,1,.71-.71H51.5a.7.7,0,0,1,.7.71Z"/><path class="cls-1" d="M55.79,35.08H54v-9a1,1,0,0,0-1-1H30.91a1,1,0,0,0-1,1v9H28.15a4.06,4.06,0,0,0-4.06,4.06V55.32a3.76,3.76,0,0,0,3.76,3.77h.77a1,1,0,0,0,0,.17,1,1,0,0,0,1,1H35.7a1,1,0,0,0,1-1,1,1,0,0,0,0-.17h10.6a1,1,0,0,0,0,.17,1,1,0,0,0,1,1h6.12a.93.93,0,0,0,1-1.17h.77a3.77,3.77,0,0,0,3.76-3.77V39.14A4.06,4.06,0,0,0,55.79,35.08Zm2.06,20.24a1.77,1.77,0,0,1-1.76,1.77H27.85a1.77,1.77,0,0,1-1.76-1.77V39.14a2.06,2.06,0,0,1,2.06-2.06h2.22a2.07,2.07,0,0,1,2.07,2.06V41.5a1,1,0,0,0,2,0V39.14a4.07,4.07,0,0,0-2.53-3.76V27.09H52v8.29a4.07,4.07,0,0,0-2.53,3.76V41.5a1,1,0,0,0,2,0V39.14a2.06,2.06,0,0,1,2.06-2.06h2.23a2.06,2.06,0,0,1,2.06,2.06V55.32Z"/><path class="cls-1" d="M39.88,33.53a1.23,1.23,0,1,0-1.23-1.22A1.23,1.23,0,0,0,39.88,33.53Z"/><path class="cls-1" d="M44.06,33.53a1.23,1.23,0,1,0-1.23-1.22A1.22,1.22,0,0,0,44.06,33.53Z"/><path class="cls-1" d="M39.88,37.3a1.23,1.23,0,1,0-1.23-1.23A1.23,1.23,0,0,0,39.88,37.3Z"/><path class="cls-1" d="M44.06,37.3a1.23,1.23,0,1,0-1.23-1.23A1.23,1.23,0,0,0,44.06,37.3Z"/><path class="cls-1" d="M24.48,58.37l-3.81-1.95V31.26H24.5a1,1,0,0,0,.75-.34,1,1,0,0,0,.24-.79L23.66,16.6a1,1,0,0,0-1-.87h-2V14.44a1,1,0,1,0-2,0v1.29h-2a1,1,0,0,0-1,.87L13.86,30.13a1,1,0,0,0,.24.79,1,1,0,0,0,.75.34h3.82V56.42l-3.81,1.95a1,1,0,0,0,.46,1.89,1,1,0,0,0,.46-.11l3.89-2,3.9,2a1,1,0,0,0,.46.11,1,1,0,0,0,.45-1.89ZM16,29.26l1.56-11.53H21.8l1.55,11.53Z"/></g></svg>