<svg xmlns="http://www.w3.org/2000/svg" viewBox="0 0 73.7 73.7"><defs><style>.cls-1{fill:#cc1517;}</style></defs><title>R</title><g id="Environment-Energy"><path class="cls-1" d="M35,29.72h.09A1,1,0,0,0,36,28.63c-.46-5.29-.24-10.47.46-11.61.71,1.14,1,6.33.61,11.63a1,1,0,1,0,2,.14c.19-2.59.66-11.21-1.26-13.28a1.78,1.78,0,0,0-2.69,0c-1.92,2.09-1.33,10.7-1.1,13.29A1,1,0,0,0,35,29.72Z"/><path class="cls-1" d="M41.16,32.86a1,1,0,1,0-.87,1.8C45.07,37,49.42,39.82,50.05,41h0c-1.38,0-5.94-2.39-10.25-5.42l-.17-.07a1,1,0,0,0-.71-.3h0a1,1,0,0,0-1,1l.29,20.58H34.74L35,36.23a1,1,0,0,0-1-1h0a1,1,0,0,0-.73.32l-.12.05C28.83,38.62,24.27,41,22.9,41h0c.63-1.18,5-4,9.76-6.34a1,1,0,0,0-.87-1.8c-2.34,1.13-10,5-10.87,7.74a1.78,1.78,0,0,0,1.35,2.33,3.1,3.1,0,0,0,.54,0c2.55,0,7.47-3,10.19-4.85l-.25,19.66a1,1,0,0,0,1,1h5.47a1,1,0,0,0,.72-.3,1,1,0,0,0,.28-.72l-.27-19.67C42.63,39.93,47.57,43,50.14,43a2.89,2.89,0,0,0,.53,0,1.79,1.79,0,0,0,1.22-.86A1.84,1.84,0,0,0,52,40.6C51.2,37.9,43.5,34,41.16,32.86Z"/><path class="cls-1" d="M36.46,30.47A2.49,2.49,0,1,0,38.94,33,2.49,2.49,0,0,0,36.46,30.47Zm0,3.47a1,1,0,1,1,0-2,1,1,0,0,1,0,2Z"/><path class="cls-1" d="M48.51,33c0,.34,0,.68,0,1A1,1,0,0,0,49.38,35h.09a1,1,0,0,0,1-.91,11.52,11.52,0,0,0,0-1.18,13.85,13.85,0,0,0-1.4-6.11,1,1,0,0,0-1.33-.47,1,1,0,0,0-.47,1.34A11.84,11.84,0,0,1,48.51,33Z"/><path class="cls-1" d="M30,20.46a14.2,14.2,0,0,0-6.21,6.38,1,1,0,0,0,.47,1.33.94.94,0,0,0,.43.1,1,1,0,0,0,.9-.56,12.16,12.16,0,0,1,5.33-5.47A1,1,0,1,0,30,20.46Z"/><path class="cls-1" d="M30.91,17.44a1,1,0,1,0-.67-1.88,18.55,18.55,0,0,0-11.42,11.9,1,1,0,0,0,.66,1.25,1,1,0,0,0,.3.05,1,1,0,0,0,.95-.71A16.58,16.58,0,0,1,30.91,17.44Z"/><path class="cls-1" d="M50.26,20.68A1,1,0,0,0,48.76,22,16.41,16.41,0,0,1,52.92,33a16.92,16.92,0,0,1-.36,3.48,1,1,0,0,0,.76,1.19l.21,0a1,1,0,0,0,1-.79,18.78,18.78,0,0,0,.41-3.9A18.43,18.43,0,0,0,50.26,20.68Z"/><path class="cls-1" d="M29.63,56.81h-4a1,1,0,1,0,0,2h4a1,1,0,0,0,0-2Z"/><path class="cls-1" d="M47.28,56.81h-4a1,1,0,0,0,0,2h4a1,1,0,0,0,0-2Z"/></g></svg>