<svg xmlns="http://www.w3.org/2000/svg" viewBox="0 0 73.7 73.7"><defs><style>.cls-1{fill:#cc1517;}</style></defs><title>R</title><g id="Telecommunication"><path class="cls-1" d="M42.25,32.37a1,1,0,0,0,.74.32,1,1,0,0,0,.68-.27,10,10,0,0,0,0-14.65,1,1,0,0,0-1.41.05,1,1,0,0,0,.05,1.41,8.05,8.05,0,0,1,2.55,5.87A8,8,0,0,1,42.31,31,1,1,0,0,0,42.25,32.37Z"/><path class="cls-1" d="M29.77,32.17a1,1,0,1,0,1.42-1.41A8,8,0,0,1,31.67,19a1,1,0,1,0-1.29-1.53,10,10,0,0,0-.61,14.71Z"/><path class="cls-1" d="M50.27,25.1a13.43,13.43,0,0,1-4.44,10,1,1,0,0,0-.07,1.42,1,1,0,0,0,.74.33,1,1,0,0,0,.67-.26,15.41,15.41,0,0,0,0-22.91,1,1,0,0,0-1.34,1.49A13.43,13.43,0,0,1,50.27,25.1Z"/><path class="cls-1" d="M26.55,36.57a1,1,0,0,0,.67.25,1,1,0,0,0,.74-.33,1,1,0,0,0-.07-1.41,13.44,13.44,0,0,1-4.46-10,13.3,13.3,0,0,1,4.17-9.73,1,1,0,1,0-1.37-1.44,15.26,15.26,0,0,0-4.8,11.17A15.48,15.48,0,0,0,26.55,36.57Z"/><path class="cls-1" d="M47.46,55.9l-9.29-27a4,4,0,1,0-2.64,0L26.25,55.9c-2.14.27-3.72,1.67-3.72,3.42a1,1,0,0,0,2,0c0-.7,1-1.47,2.46-1.47H46.71c1.45,0,2.46.77,2.46,1.47a1,1,0,1,0,2,0C51.17,57.57,49.59,56.17,47.46,55.9ZM34.73,49.6a1,1,0,0,0-1.42,0l-4.17,4,3.22-9.38L43.85,55.85H29.72l5-4.84A1,1,0,0,0,34.73,49.6Zm9.87,4.16-6.23-6.3,3.05-3ZM35.36,42.49h5.26L37,46l-3.87-3.91,3.76-11,3.2,9.32H35.36a1,1,0,0,0,0,2ZM34.85,25.1a2,2,0,1,1,2,2A2,2,0,0,1,34.85,25.1Z"/></g></svg>