<svg xmlns="http://www.w3.org/2000/svg" viewBox="0 0 73.7 73.7"><defs><style>.cls-1{fill:#cc1517;}</style></defs><title>R</title><g id="Chemistry"><path class="cls-1" d="M55.15,52.46c-1.49-4.65-10.22-14.89-11.84-16.78V20.54a3.37,3.37,0,0,0-1.56-6.37H32a3.39,3.39,0,0,0,0,6.77h6a1,1,0,0,0,0-2H32a1.39,1.39,0,0,1,0-2.77h9.8a1.39,1.39,0,0,1,0,2.77,1,1,0,0,0-.44,1.89V36.06a1,1,0,0,0,.24.66s1.29,1.47,3,3.52a28.18,28.18,0,0,0-4.41-.07,11,11,0,0,0-2.5.37,10.83,10.83,0,0,0-1.53.62,7.52,7.52,0,0,1-1.47.56,7.6,7.6,0,0,1-1.77.16,18.67,18.67,0,0,1-4.53-.55c2.1-2.61,3.81-4.57,3.85-4.61a1,1,0,0,0,.24-.66V24a1,1,0,0,0-2,0V35.68C28.77,37.57,20,47.81,18.55,52.46a11.75,11.75,0,0,0,0,3.39,3.68,3.68,0,0,0,3.67,3.68H51.52A3.66,3.66,0,0,0,55.19,56,12.44,12.44,0,0,0,55.15,52.46Zm-2,3.39a1.68,1.68,0,0,1-1.67,1.68H22.18a1.72,1.72,0,0,1-1.68-1.78,12.1,12.1,0,0,1,0-2.68c.75-2.35,3.72-6.5,6.48-10a20.7,20.7,0,0,0,5.89.84,8.62,8.62,0,0,0,2.23-.21,9.51,9.51,0,0,0,1.85-.7,8.32,8.32,0,0,1,1.26-.51,9.67,9.67,0,0,1,2-.3,27.47,27.47,0,0,1,5.6.24,1.11,1.11,0,0,0,.41,0c2.9,3.66,6.21,8.19,7,10.69A12.52,12.52,0,0,1,53.19,55.85Z"/><circle class="cls-1" cx="27.36" cy="50.32" r="1.2"/><circle class="cls-1" cx="33.84" cy="54.6" r="1.2"/><circle class="cls-1" cx="39.97" cy="51.03" r="1.2"/><path class="cls-1" d="M47.39,51a1.21,1.21,0,1,0,1.2,1.2A1.21,1.21,0,0,0,47.39,51Z"/><circle class="cls-1" cx="35.71" cy="47.29" r="1.2"/></g></svg>