<svg xmlns="http://www.w3.org/2000/svg" viewBox="0 0 73.7 73.7"><defs><style>.cls-1{fill:#cc1517;}</style></defs><title>R</title><g id="Gifts-Crafts"><path class="cls-1" d="M34.62,49.57a1,1,0,0,0,0,2h4.47a1,1,0,0,0,0-2Z"/><path class="cls-1" d="M46,53.43H33.53a1,1,0,0,0,0,2H46a.44.44,0,0,1,.44.44v2H27.29v-2a.44.44,0,0,1,.44-.44h.79a1,1,0,0,0,.89.55,1,1,0,0,0,1-1V48.59a.87.87,0,0,1,.87-.87H42.42a.87.87,0,0,1,.87.87V51a1,1,0,0,0,2,0V48.59a2.88,2.88,0,0,0-2.87-2.87H40.09V39.24a1,1,0,0,0-2,0v6.48H35.62V35.51l.87-.46a.77.77,0,0,1,.72,0l4.29,2.26a2.77,2.77,0,0,0,4-2.92l-.82-4.78a.77.77,0,0,1,.22-.68l3.47-3.39a2.76,2.76,0,0,0-1.53-4.72l-4.8-.7a.79.79,0,0,1-.58-.42l-2.15-4.35a2.76,2.76,0,0,0-2.48-1.55h0a2.76,2.76,0,0,0-2.48,1.55L32.22,19.7a.79.79,0,0,1-.58.42l-4.8.7a2.77,2.77,0,0,0-1.53,4.72l3.47,3.39a.77.77,0,0,1,.22.68l-.82,4.78a2.76,2.76,0,0,0,1.1,2.71,2.77,2.77,0,0,0,2.92.21l1.42-.75v9.16H31.28a2.88,2.88,0,0,0-2.87,2.87v4.84h-.68a2.44,2.44,0,0,0-2.44,2.44v3a1,1,0,0,0,1,1H47.41a1,1,0,0,0,1-1v-3A2.44,2.44,0,0,0,46,53.43ZM31.27,35.54a.78.78,0,0,1-.81-.06.76.76,0,0,1-.31-.76L31,29.94a2.76,2.76,0,0,0-.79-2.45L26.7,24.11a.73.73,0,0,1-.19-.79.75.75,0,0,1,.62-.53l4.8-.69A2.76,2.76,0,0,0,34,20.58l2.15-4.35a.77.77,0,0,1,1.38,0h0l2.15,4.35a2.76,2.76,0,0,0,2.08,1.52l4.8.69a.75.75,0,0,1,.62.53.73.73,0,0,1-.19.79l-3.47,3.38a2.74,2.74,0,0,0-.8,2.45l.82,4.78a.76.76,0,0,1-.31.76.75.75,0,0,1-.81.06l-4.29-2.26a2.76,2.76,0,0,0-2.58,0Z"/><path class="cls-1" d="M39.79,24.12a1,1,0,0,0-1.42,0L33,29.61a1,1,0,0,0,.71,1.7,1,1,0,0,0,.71-.3l5.38-5.47A1,1,0,0,0,39.79,24.12Z"/><path class="cls-1" d="M35.92,24a1,1,0,0,0,0-1.42,1,1,0,0,0-1.41,0l-2.86,2.91a1,1,0,0,0,.71,1.71,1,1,0,0,0,.71-.3Z"/></g></svg>