<svg xmlns="http://www.w3.org/2000/svg" viewBox="0 0 73.7 73.7"><defs><style>.cls-1{fill:#cc1517;}</style></defs><title>R</title><g id="Oil-Gas-Petrochemical"><path class="cls-1" d="M55.14,30.37a3.08,3.08,0,0,0-2.08-2.91V22.67a1,1,0,0,0-2,0v4.61H42.79a1,1,0,1,0,0,2h9.27a1.09,1.09,0,0,1,0,2.18H47.73a1,1,0,0,0,0,2h3.33v6.78H47.73a1,1,0,0,0,0,2h4.33a1.09,1.09,0,0,1,0,2.18H42.79a1,1,0,0,0,0,2h8.27V54.2a1,1,0,0,0,1,1,1.09,1.09,0,0,1,0,2.18H21.64a1.09,1.09,0,0,1,0-2.18H48.11a1,1,0,0,0,0-2H21.64a3.09,3.09,0,0,0,0,6.18H52.06a3.09,3.09,0,0,0,1-6V46.24a3.08,3.08,0,0,0,0-5.82V33.28A3.08,3.08,0,0,0,55.14,30.37Z"/><path class="cls-1" d="M18.56,43.33a3.08,3.08,0,0,0,2.08,2.91v4.43a1,1,0,0,0,2,0V46.42h9a1,1,0,0,0,0-2h-10a1.09,1.09,0,0,1,0-2.18h5.5a1,1,0,0,0,0-2h-4.5V33.46h4.5a1,1,0,0,0,0-2h-5.5a1.09,1.09,0,0,1,0-2.18h10a1,1,0,0,0,0-2h-9V19.5a1,1,0,0,0-1-1,1.09,1.09,0,0,1,0-2.18H52.06a1.09,1.09,0,0,1,0,2.18H25.59a1,1,0,0,0,0,2H52.06a3.09,3.09,0,0,0,0-6.18H21.64a3.09,3.09,0,0,0-1,6v7.13a3.08,3.08,0,0,0,0,5.82v7.14A3.08,3.08,0,0,0,18.56,43.33Z"/><path class="cls-1" d="M36.52,30a1,1,0,0,0-.83.5c-.61,1.07-3.63,6.48-3.63,8.73a4.79,4.79,0,0,0,9.58,0c0-2.28-3.54-7.72-4.25-8.79A.94.94,0,0,0,36.52,30Zm3.12,9.23a2.79,2.79,0,0,1-5.58,0c0-1.08,1.36-4,2.57-6.27C38.08,35.28,39.64,38.18,39.64,39.2Z"/></g></svg>