<svg width="74" height="74" viewBox="0 0 74 74" fill="none" xmlns="http://www.w3.org/2000/svg">
<path d="M50.4852 44.5245C49.1066 44.5173 47.729 44.5174 46.3508 44.5176C45.3927 44.5177 44.4344 44.5178 43.4753 44.5154C43.3593 44.6896 43.2435 44.8645 43.1275 45.0397C42.5014 45.9853 41.87 46.9392 41.16 47.8338C42.1523 47.8518 43.1446 47.8489 44.1385 47.8447C44.203 47.8444 44.2675 47.8441 44.332 47.8438C45.3624 47.8394 46.3947 47.8349 47.4278 47.8524C48.9283 47.8468 50.3129 49.178 50.3134 50.6957C50.4405 52.3148 49.0094 53.8381 47.3713 53.7745C40.4973 53.7831 33.6232 53.7812 26.7493 53.7792C23.8041 53.7784 20.8591 53.7776 17.914 53.7776C16.3754 53.8635 14.9556 52.5681 14.8622 51.0397C14.7002 49.3751 16.1757 47.7762 17.86 47.8462C20.4133 47.8402 22.9675 47.8343 25.5219 47.8532C24.1523 46.0275 22.8074 44.1369 21.8455 42.0455C20.7381 39.653 20.8972 36.8106 22.0984 34.4937C22.4628 33.691 22.9682 32.9457 23.4646 32.2136C23.6327 31.9657 23.7998 31.7194 23.96 31.4728C24.599 30.4895 25.1391 29.4906 25.2739 28.3244C25.3516 27.0829 25.0174 25.9246 24.5125 24.8057C24.1558 24.0153 23.719 23.2544 23.2852 22.4987C23.1031 22.1815 22.9216 21.8653 22.7467 21.5481C22.1979 20.7959 22.864 19.751 23.7558 19.8634C25.1599 19.8621 26.5643 19.8597 27.9688 19.8573C32.9962 19.8487 38.0255 19.8402 43.0527 19.8789C43.4657 19.8553 43.8013 20.0987 43.9749 20.4168C44.1479 20.7337 44.1728 21.1473 43.9424 21.4837C43.766 21.8071 43.5831 22.1298 43.3997 22.4533C42.9356 23.2721 42.4681 24.0967 42.0946 24.9531C41.5922 26.1047 41.2689 27.2955 41.3647 28.5673C42.5917 28.5726 43.8214 28.5722 45.0511 28.5718C46.3459 28.5714 47.6407 28.571 48.9325 28.5772C48.7854 28.4344 48.6342 28.291 48.4817 28.1463C48.0794 27.7648 47.6681 27.3747 47.2995 26.9655C46.7008 26.3007 46.1875 25.5587 45.9441 24.6491C45.5265 23.3094 46.1611 21.7991 47.3513 21.1046L47.3512 21.1043L47.3596 21.1001C48.1085 20.7239 48.9746 21.023 49.5054 21.5661C51.8598 23.8708 54.1955 26.2003 56.5276 28.5292C56.7699 28.7661 57.0167 28.9849 57.2967 29.1498C57.3774 29.0589 57.4555 28.9569 57.5366 28.8483C57.5502 28.8301 57.5639 28.8117 57.5776 28.7932C57.6701 28.6689 57.7675 28.538 57.8725 28.4183C58.1148 28.1418 58.4192 27.8991 58.8642 27.8867C59.8062 27.8024 60.7612 27.7994 61.7045 27.8903L61.7045 27.8901L61.7117 27.8911C62.6594 28.029 63.2499 29.0186 63.1446 29.9063C63.1387 31.825 63.1399 33.7461 63.141 35.6675C63.1422 37.7823 63.1434 39.8974 63.1353 42.0102C63.2151 42.8758 62.5629 43.813 61.6375 43.8719L61.6366 43.872C60.669 43.928 59.6836 43.9597 58.7079 43.8559L58.7079 43.8561L50.4864 44.3745M50.4852 44.5245C50.4854 44.5245 50.4855 44.5245 50.4856 44.5245L50.4864 44.3745M50.4852 44.5245C50.485 44.5245 50.4848 44.5245 50.4846 44.5245L50.4864 44.3745M50.4852 44.5245C51.2609 44.5338 52.0983 44.4826 52.8237 44.0787M50.4864 44.3745C51.2598 44.3838 52.0643 44.331 52.7539 43.9459M52.8237 44.0787C52.8226 44.0792 52.8214 44.0798 52.8203 44.0803L52.7539 43.9459M52.8237 44.0787C52.8248 44.0781 52.8259 44.0774 52.827 44.0768L52.7539 43.9459M52.8237 44.0787L52.7539 43.9459M54.7737 42.3779C54.7654 42.3806 54.7571 42.3833 54.7488 42.386L54.7014 42.2437L54.7943 42.3615C54.7874 42.3669 54.7805 42.3724 54.7737 42.3779ZM57.3004 42.241C57.2892 42.2029 57.2785 42.1652 57.2683 42.1281L57.413 42.0884L57.4177 42.2384C57.3786 42.2396 57.3395 42.2404 57.3004 42.241ZM40.8513 47.9776C40.8915 47.9286 40.9313 47.8795 40.971 47.8301L41.0415 47.9816C40.9781 47.9804 40.9147 47.979 40.8513 47.9776ZM34.7039 24.5849L34.7043 24.5848C35.6682 24.5443 36.6328 24.5474 37.5941 24.5544C37.6884 24.5551 37.7826 24.5558 37.8769 24.5566C38.7121 24.563 39.5444 24.5693 40.3755 24.5498C40.8184 23.5208 41.3461 22.5335 41.9091 21.5705C40.3119 21.5705 38.715 21.57 37.1182 21.5695C32.9961 21.5682 28.8749 21.567 24.7521 21.5732C25.3199 22.5337 25.8474 23.5207 26.2876 24.5495C27.0519 24.5643 27.8173 24.559 28.5851 24.5536C28.7153 24.5527 28.8455 24.5517 28.9758 24.5509C29.9062 24.5451 30.8398 24.5443 31.7725 24.5848L31.7799 24.5852L31.7871 24.5862C32.229 24.649 32.4485 25.0314 32.4603 25.3898C32.472 25.7489 32.2776 26.1449 31.8377 26.2388L31.8257 26.2413L31.8135 26.2419C30.7629 26.2916 29.7035 26.2814 28.649 26.2713C28.0487 26.2655 27.45 26.2597 26.8554 26.265C27.0016 27.2509 27.1096 28.2878 26.8644 29.2957C26.5044 30.7773 25.6622 32.0647 24.8224 33.2829C26.0662 33.2753 27.3068 33.2774 28.5465 33.2795C30.1394 33.2822 31.7307 33.2849 33.3255 33.267C34.1018 32.4126 35.2152 32.1694 36.2974 32.2253C36.1411 31.3537 36.0994 30.3342 36.774 29.5824C37.4508 28.64 38.647 28.519 39.6523 28.5564C39.6306 27.7925 39.6691 27.0235 39.8166 26.2675C39.1735 26.26 38.525 26.2657 37.8747 26.2714C36.812 26.2808 35.7445 26.2903 34.6882 26.2419L34.6882 26.2419L34.685 26.2417C34.4435 26.2256 34.2582 26.114 34.1372 25.9525C34.0186 25.7943 33.9664 25.5952 33.9705 25.4032C33.9785 25.0255 34.2163 24.6067 34.7039 24.5849ZM54.388 28.8234L54.388 28.8234L54.386 28.8215C53.5853 28.0484 52.8025 27.2615 52.021 26.4758C50.7194 25.1674 49.4212 23.8624 48.0492 22.63C47.6535 23.1881 47.401 23.8298 47.6899 24.4407L47.6899 24.4407L47.6917 24.4448C48.0552 25.2769 48.6537 25.9356 49.3173 26.5695C49.4891 26.7336 49.666 26.8966 49.8441 27.0607C50.3458 27.5231 50.8569 27.994 51.2886 28.5212C51.5936 28.8449 51.5968 29.291 51.4338 29.6402C51.2709 29.9891 50.9261 30.2768 50.4929 30.2707C48.5958 30.3065 46.6967 30.2986 44.7996 30.2907C44.7216 30.2903 44.6436 30.29 44.5656 30.2897C42.5934 30.2815 40.6234 30.2754 38.656 30.32C38.2337 30.4055 37.9781 30.7686 37.9356 31.1738C37.8931 31.5775 38.0664 31.9814 38.4611 32.1499C39.3423 32.298 40.2376 32.2916 41.1473 32.2711C41.2319 32.2692 41.3166 32.2672 41.4015 32.2652C42.2307 32.2454 43.0716 32.2253 43.9054 32.3167L43.9533 32.3219L43.9892 32.354C44.0638 32.4209 44.1756 32.5218 44.2871 32.6224L44.2878 32.6231C44.3997 32.7241 44.5113 32.8248 44.5855 32.8914L44.7022 32.9959L44.5928 33.1079C44.5409 33.161 44.4923 33.2328 44.4381 33.3209C44.4254 33.3415 44.4124 33.3632 44.3988 33.3856C44.3576 33.4539 44.3126 33.5285 44.2648 33.5962C44.1365 33.7783 43.952 33.9646 43.6492 33.9546C42.3488 33.9906 41.0473 33.9817 39.749 33.9728C39.6519 33.9721 39.5547 33.9714 39.4576 33.9708C38.0625 33.9615 36.6711 33.9561 35.2826 34.01C34.8049 34.0761 34.556 34.4943 34.5616 34.9476C34.5672 35.4017 34.8272 35.8158 35.3026 35.8725C36.7462 35.9203 38.1912 35.9149 39.639 35.9056C39.7524 35.9049 39.8658 35.9041 39.9792 35.9034C41.3114 35.8946 42.6461 35.8857 43.9803 35.9155C44.2657 35.881 44.5433 36.0661 44.7043 36.2836C44.8629 36.4981 44.9566 36.814 44.7795 37.0768C44.7361 37.2403 44.6519 37.3625 44.5368 37.4485C44.4184 37.5371 44.2778 37.5795 44.1417 37.6011C44.0056 37.6227 43.8622 37.6252 43.7327 37.6256C43.7128 37.6257 43.6932 37.6257 43.674 37.6258C43.5642 37.6259 43.4675 37.626 43.3821 37.6345L43.3821 37.635L43.3689 37.6352C42.5081 37.6447 41.6509 37.6374 40.7955 37.6302C39.4151 37.6184 38.0393 37.6067 36.6603 37.6659C36.1762 37.7211 35.9163 38.1271 35.9073 38.5773C35.8983 39.027 36.1415 39.455 36.6072 39.5504C38.0247 39.6022 39.4458 39.5911 40.8711 39.5799L40.8956 39.5797C42.3312 39.5685 43.7712 39.5576 45.2094 39.612C45.451 39.6137 45.64 39.7204 45.7661 39.8798C45.8897 40.0361 45.9494 40.2377 45.9528 40.4334C45.9562 40.6291 45.9034 40.8326 45.7849 40.9929C45.6642 41.156 45.4792 41.2683 45.2381 41.2784C44.5963 41.3419 43.9527 41.3285 43.3194 41.3153L43.2523 41.3139C42.5971 41.3004 41.9528 41.29 41.3132 41.3631C41.0946 41.4305 40.9337 41.6126 40.8645 41.8352C40.794 42.0618 40.8242 42.3126 40.9697 42.4995L40.9697 42.4994L40.9718 42.5022C41.0885 42.6595 41.2537 42.7345 41.4569 42.7718C41.6062 42.7991 41.7587 42.8041 41.9181 42.8093C41.9841 42.8114 42.0513 42.8136 42.1199 42.8175C43.221 42.82 44.3236 42.8189 45.4267 42.8178C47.0047 42.8161 48.5838 42.8145 50.1618 42.8237C50.2558 42.8212 50.3494 42.8199 50.4425 42.8186C50.7061 42.8149 50.9662 42.8113 51.2229 42.7812C51.5664 42.7409 51.8851 42.6543 52.1618 42.4654C52.4389 42.2686 52.6734 42.019 52.9196 41.757C53.0123 41.6584 53.1066 41.558 53.2055 41.458C53.5585 41.1011 53.9583 40.7644 54.5053 40.6348L54.5067 40.6345C55.2729 40.4607 56.0652 40.4899 56.8305 40.518C57.0076 40.5246 57.1832 40.531 57.3567 40.5349C57.3686 37.3297 57.3743 34.1221 57.354 30.9146C56.7069 30.8447 56.1881 30.5312 55.7329 30.1445C55.4895 29.9377 55.2616 29.7076 55.0415 29.4805C55.0065 29.4445 54.9718 29.4085 54.9373 29.3728C54.7526 29.1816 54.5727 28.9952 54.388 28.8234ZM47.3891 52.0425V52.0423L47.3971 52.0427C48.0211 52.0737 48.4432 51.6126 48.5565 51.0546C48.6699 50.4965 48.4615 49.9036 47.8777 49.6836C47.6634 49.6048 47.4349 49.5778 47.1925 49.5691C47.0767 49.5649 46.9601 49.565 46.8408 49.5651L46.8233 49.5651C46.7001 49.5651 46.5739 49.5649 46.4485 49.5595C42.0496 49.5724 37.6525 49.5694 33.2558 49.5664C28.1256 49.563 22.9957 49.5595 17.8638 49.5812V49.5819L17.8501 49.5807C17.3426 49.5363 16.9108 49.8672 16.705 50.322C16.4994 50.776 16.5383 51.3097 16.9229 51.6555L16.9316 51.6633L16.939 51.6723C17.1114 51.8842 17.3428 51.9812 17.6127 52.0251C17.8233 52.0593 18.0422 52.0596 18.2662 52.0598C18.3368 52.0599 18.4078 52.06 18.4792 52.0612C22.8389 52.0513 27.1981 52.0536 31.5573 52.0558C36.834 52.0585 42.1109 52.0613 47.3891 52.0425ZM59.0932 36.1873C59.091 38.1825 59.0888 40.177 59.0997 42.1656C59.866 42.2137 60.6376 42.2065 61.4058 42.1591C61.3985 40.5632 61.4032 38.9689 61.4079 37.3754C61.4155 34.7689 61.4232 32.1646 61.3781 29.5593C61.0895 29.5647 60.802 29.5681 60.5151 29.5715C60.0371 29.5771 59.5605 29.5827 59.0829 29.5978C59.098 31.7902 59.0956 33.9891 59.0932 36.1873ZM34.2359 39.3532C34.1853 38.7155 34.2098 38.0673 34.3909 37.4397C33.4571 36.9313 32.9066 36.0058 32.7449 34.9847C31.3437 35.006 29.9428 35.0009 28.5435 34.9958L28.3317 34.995C26.8413 34.9897 25.3528 34.9858 23.8646 35.0153C22.9732 36.1957 22.7646 37.8514 22.8551 39.3588C26.6492 39.3179 30.4431 39.3323 34.2359 39.3532ZM41.3585 44.6155C41.3688 44.6008 41.379 44.5862 41.3892 44.5716C39.863 44.3702 38.7526 42.8276 39.1775 41.3117C37.8735 41.3724 36.5735 41.289 35.2854 41.0829C35.0953 41.0822 34.9052 41.0815 34.7151 41.0807C30.9088 41.0661 27.1037 41.0515 23.2988 41.0898C24.4725 43.5362 26.0032 45.8273 27.8103 47.852C30.1502 47.8387 32.4893 47.8398 34.8283 47.841C36.1835 47.8416 37.5385 47.8423 38.8936 47.8401C39.8049 46.8419 40.5798 45.7314 41.3585 44.6155Z" fill="#CC1517" stroke="#CC1517" stroke-width="0.3"/>
</svg>
