<svg xmlns="http://www.w3.org/2000/svg" viewBox="0 0 73.7 73.7"><defs><style>.cls-1{fill:#cc1517;}</style></defs><title>R</title><g id="Electronics"><path class="cls-1" d="M36.86,37.93A11.08,11.08,0,0,0,25.78,48.42a1,1,0,0,0,.27.74,1,1,0,0,0,.73.31h9.91a1,1,0,0,0,.91-.57l2.7-5.77a1,1,0,1,0-1.81-.85l-2.43,5.19H27.89a9.1,9.1,0,0,1,17.93,0H40.4a1,1,0,0,0,0,2h6.54a1,1,0,0,0,.72-.31,1,1,0,0,0,.27-.74A11.08,11.08,0,0,0,36.86,37.93Z"/><path class="cls-1" d="M56.5,47.47H52.62a15.79,15.79,0,0,0-4.22-9.32,7.13,7.13,0,0,0,6.25-7.06,7.22,7.22,0,0,0-.59-2.84,4.38,4.38,0,0,0,2.35-6.94,4.37,4.37,0,0,0-7.8,3,1,1,0,0,0,2-.14,2.33,2.33,0,0,1,.9-2,2.37,2.37,0,1,1,1.18,4.22,1,1,0,0,0-1.06.65l-.06.17a1,1,0,0,0,.12.92,5,5,0,0,1,1,3,5.13,5.13,0,0,1-5.13,5.12A4.94,4.94,0,0,1,46.14,36a1,1,0,0,0-.25,0,15.88,15.88,0,0,0-18.07,0,1,1,0,0,0-.25,0,4.94,4.94,0,0,1-1.38.19,5.13,5.13,0,0,1-5.13-5.12,5,5,0,0,1,1-3,1,1,0,0,0,.12-.92L22.08,27A1,1,0,0,0,21,26.37a2.37,2.37,0,1,1,1.18-4.22,2.36,2.36,0,0,1,.9,2,1,1,0,0,0,2,.14,4.37,4.37,0,0,0-7.8-3,4.38,4.38,0,0,0,2.35,6.94,7,7,0,0,0-.59,2.84,7.13,7.13,0,0,0,6.25,7.06,15.79,15.79,0,0,0-4.22,9.32H17.22a3.69,3.69,0,0,0-3.69,3.68v3.1a3.69,3.69,0,0,0,3.69,3.69H56.5a3.69,3.69,0,0,0,3.68-3.69v-3.1A3.7,3.7,0,0,0,56.5,47.47Zm1.68,6.78a1.69,1.69,0,0,1-1.68,1.69H17.22a1.68,1.68,0,0,1-1.69-1.69v-3.1a1.69,1.69,0,0,1,1.69-1.68H22a1,1,0,0,0,1-1,13.84,13.84,0,0,1,27.67,0,1,1,0,0,0,1,1H56.5a1.69,1.69,0,0,1,1.68,1.68Z"/><path class="cls-1" d="M27.84,25.51a10.54,10.54,0,0,0,8-3.51v7.06h0v.61a1,1,0,0,0,1,1h0a1,1,0,0,0,1-1v0c0-3,3.62-5.45,8-5.45a1,1,0,0,0,0-2,11.41,11.41,0,0,0-8,3V16.76a1,1,0,1,0-2,0c0,3.72-3.6,6.75-8,6.75a1,1,0,0,0,0,2Z"/><path class="cls-1" d="M32.9,51.73A1.11,1.11,0,1,0,34,52.84,1.11,1.11,0,0,0,32.9,51.73Z"/><path class="cls-1" d="M36.86,51.73A1.11,1.11,0,1,0,38,52.84,1.11,1.11,0,0,0,36.86,51.73Z"/><path class="cls-1" d="M40.81,51.73a1.11,1.11,0,1,0,1.1,1.11A1.11,1.11,0,0,0,40.81,51.73Z"/></g></svg>