<svg xmlns="http://www.w3.org/2000/svg" viewBox="0 0 73.7 73.7"><defs><style>.cls-1{fill:#cc1517;}</style></defs><title>R</title><g id="Measurement-Analysis"><path class="cls-1" d="M50,30.61l1.65-.53.54-2.48-1.89-1.71-2.42.77-.35,1.61a17.22,17.22,0,0,0-5.89-3,1,1,0,0,0-1.23.69,1,1,0,0,0,.69,1.23,15.42,15.42,0,1,1-5.5-.53h1.2a.29.29,0,0,0,.1,0,1,1,0,0,0,1-1v-1a5.21,5.21,0,1,0-4.42-1.19,1,1,0,1,0,1.31-1.5,3.22,3.22,0,1,1,3.11.61V20.79l.73-1.26L37.71,18H36l-.87,1.5.73,1.26v3.85h-.42a17.25,17.25,0,0,0-9.24,3.64l-.35-1.63-2.42-.77L21.53,27.6l.54,2.48,1.68.54a17.37,17.37,0,1,0,26.23,0Z"/><path class="cls-1" d="M27.45,42a1,1,0,0,0-1-1H23.21a1,1,0,0,0,0,2h3.24A1,1,0,0,0,27.45,42Z"/><path class="cls-1" d="M51.43,42a1,1,0,0,0-1-1H47.19a1,1,0,0,0,0,2h3.24A1,1,0,0,0,51.43,42Z"/><path class="cls-1" d="M27.19,52.61a1,1,0,0,0,.71-.29l1.15-1.15a1,1,0,0,0,0-1.41,1,1,0,0,0-1.42,0l-1.14,1.15a1,1,0,0,0,0,1.41A1,1,0,0,0,27.19,52.61Z"/><path class="cls-1" d="M46,34.22l1.15-1.15a1,1,0,0,0,0-1.42,1,1,0,0,0-1.41,0L44.59,32.8a1,1,0,0,0,0,1.42,1,1,0,0,0,.71.29A1,1,0,0,0,46,34.22Z"/><path class="cls-1" d="M46,49.76a1,1,0,0,0-1.41,1.41l1.15,1.15a1,1,0,0,0,1.41,0,1,1,0,0,0,0-1.41Z"/><path class="cls-1" d="M29.05,32.8,27.9,31.65a1,1,0,0,0-1.41,0,1,1,0,0,0,0,1.42l1.14,1.15a1,1,0,0,0,.71.29,1,1,0,0,0,.71-.29A1,1,0,0,0,29.05,32.8Z"/><path class="cls-1" d="M35.85,52.35V55.6a1,1,0,0,0,2,0V52.35a1,1,0,0,0-2,0Z"/><path class="cls-1" d="M37.85,31.62V28.37a1,1,0,1,0-2,0v3.25a1,1,0,1,0,2,0Z"/><path class="cls-1" d="M38.73,39.59a3,3,0,0,0-1.88-.67A3.07,3.07,0,1,0,39.91,42v-.05l8-4.87L39.05,39.5Zm-1.88,3.46A1.07,1.07,0,1,1,37.91,42,1.06,1.06,0,0,1,36.85,43.05Z"/></g></svg>