<svg xmlns="http://www.w3.org/2000/svg" viewBox="0 0 73.7 73.7"><defs><style>.cls-1{fill:#cc1517;}</style></defs><title>R</title><g id="Security"><path class="cls-1" d="M28.85,17.43a1,1,0,0,0-1.25-.64,17.57,17.57,0,0,0-6.45,3.73,1,1,0,0,0,.67,1.74,1,1,0,0,0,.67-.26,15.66,15.66,0,0,1,5.72-3.31A1,1,0,0,0,28.85,17.43Z"/><path class="cls-1" d="M42.29,31.41A9.26,9.26,0,0,0,36,22.64a3.59,3.59,0,0,0,.68-2.08v0a0,0,0,0,1,0,0c-.09-2.15-.42-3.38-1.26-4h.49a1,1,0,1,0,0-2H22.82a1,1,0,1,0,0,2h9.33a.89.89,0,0,0-.11.43.75.75,0,0,0,0,.16,3.61,3.61,0,0,0-2.64,3.46,3.52,3.52,0,0,0,.68,2.08,9.27,9.27,0,0,0-6.33,8.77c0,.12,0,.25,0,.37v0a1.24,1.24,0,0,0,0,.27V54.39a4.8,4.8,0,0,0,4.8,4.8H37.5a4.8,4.8,0,0,0,4.79-4.8V32.07a1,1,0,0,0,0-.24v0C42.29,31.66,42.29,31.53,42.29,31.41ZM31.44,20.56a1.6,1.6,0,0,1,3.2,0v0a1.61,1.61,0,0,1-3.21,0Zm8.85,11.51V54.39a2.79,2.79,0,0,1-2.79,2.8H28.59a2.8,2.8,0,0,1-2.8-2.8V32.08s0-.14,0-.17a.37.37,0,0,0,0-.11v-.16a1.79,1.79,0,0,1,0-.23,7.25,7.25,0,0,1,14.5,0,1.77,1.77,0,0,1,0,.23v.26S40.29,32,40.29,32.07Z"/><path class="cls-1" d="M50.18,34.52C51,25,47.14,19,39,17.2a1,1,0,1,0-.44,1.95c7.16,1.61,10.39,6.78,9.62,15.33-1.9,1.11-2.77,5.25-2.77,6.44v5.17c0,1.34,1.47,2.2,3.74,2.2s3.73-.86,3.73-2.2V40.92C52.88,39.75,52,35.69,50.18,34.52ZM50.88,46a3.56,3.56,0,0,1-1.73.34A3.62,3.62,0,0,1,47.41,46v-5c0-1.51,1.07-4.39,1.74-4.71.66.32,1.73,3.2,1.73,4.71Z"/><path class="cls-1" d="M38.4,33.41H27.68a1,1,0,0,0,0,2H38.4a1,1,0,1,0,0-2Z"/><path class="cls-1" d="M37.24,38.54a1,1,0,0,0,0-2H28.85a1,1,0,0,0,0,2Z"/><path class="cls-1" d="M38.61,49l-5-3a1,1,0,0,0-1,0l-5.05,3.08A1,1,0,0,0,27,50a1,1,0,0,0,.54.86l5,2.65a1,1,0,0,0,.46.11,1,1,0,0,0,.48-.12l5-2.71a1,1,0,0,0,0-1.74ZM33,51.48,30,49.9l3-1.85,3,1.8Z"/></g></svg>