<svg xmlns="http://www.w3.org/2000/svg" viewBox="0 0 73.7 73.7"><defs><style>.cls-1{fill:#cc1517;}</style></defs><title>R</title><g id="Health-Medical"><circle class="cls-1" cx="49.27" cy="54.72" r="1.52"/><path class="cls-1" d="M32.35,31.83a.87.87,0,0,0,.44-.11,10,10,0,0,0,2.1-16.21v-.62a1,1,0,0,0-1-1h0a1,1,0,0,0-1,1v4.36a1,1,0,1,0,2,0v-.71a8,8,0,0,1,1.27,4.36,7.83,7.83,0,0,1-4.25,7,1,1,0,0,0-.46,1.34A1,1,0,0,0,32.35,31.83Z"/><path class="cls-1" d="M53,51.25a1,1,0,0,0-1.41,0,1,1,0,0,0-.05,1.42,3.05,3.05,0,0,1,.84,2.1,3.08,3.08,0,1,1-3.08-3.08,1,1,0,0,0,1-1v-7a6.13,6.13,0,0,0-12.2-.91.89.89,0,0,0-.07.36v4.69A1.49,1.49,0,0,0,38,48a4.13,4.13,0,0,1-8.26-.24V31.67a1,1,0,0,0-1-1,7.61,7.61,0,0,1-7.41-7.76,8,8,0,0,1,1.27-4.36v.71a1,1,0,0,0,2,0V14.9a1,1,0,0,0-1-1h0a1,1,0,0,0-1,1v.62a9.87,9.87,0,0,0-3.27,7.4,9.65,9.65,0,0,0,8.41,9.7V47.83a6.14,6.14,0,0,0,12.27,0,1,1,0,0,0,0-.24v-3.9a4.14,4.14,0,0,1,8.27,0v6.05A5.09,5.09,0,1,0,53,51.25Z"/></g></svg>